<?xml version="1.0" encoding="UTF-8" standalone="no"?>
<!-- Created with Inkscape (http://www.inkscape.org/) -->

<svg
   xmlns:dc="http://purl.org/dc/elements/1.1/"
   xmlns:cc="http://creativecommons.org/ns#"
   xmlns:rdf="http://www.w3.org/1999/02/22-rdf-syntax-ns#"
   xmlns:svg="http://www.w3.org/2000/svg"
   xmlns="http://www.w3.org/2000/svg"
   xmlns:sodipodi="http://sodipodi.sourceforge.net/DTD/sodipodi-0.dtd"
   xmlns:inkscape="http://www.inkscape.org/namespaces/inkscape"
   version="1.1"
   width="36"
   height="36"
   id="svg3136"
   inkscape:version="0.48.5 r10040"
   sodipodi:docname="important.svg">
  <sodipodi:namedview
     pagecolor="#ffffff"
     bordercolor="#666666"
     borderopacity="1"
     objecttolerance="10"
     gridtolerance="10"
     guidetolerance="10"
     inkscape:pageopacity="0"
     inkscape:pageshadow="2"
     inkscape:window-width="1920"
     inkscape:window-height="1016"
     id="namedview2993"
     showgrid="false"
     inkscape:zoom="6.5555556"
     inkscape:cx="-7.1694915"
     inkscape:cy="16.779661"
     inkscape:window-x="0"
     inkscape:window-y="27"
     inkscape:window-maximized="1"
     inkscape:current-layer="svg3136" />
  <title
     id="title3177">Icon &quot;Important&quot;</title>
  <defs
     id="defs3138" />
  <metadata
     id="metadata3141">
    <rdf:RDF>
      <cc:Work
         rdf:about="">
        <dc:format>image/svg+xml</dc:format>
        <dc:type
           rdf:resource="http://purl.org/dc/dcmitype/StillImage" />
        <dc:title>Icon &quot;Important&quot;</dc:title>
        <dc:contributor>
          <cc:Agent>
            <dc:title>&quot;!&quot; symbol from Open Sans: (c) Google (under Apache License v2) </dc:title>
          </cc:Agent>
        </dc:contributor>
        <cc:license
           rdf:resource="" />
      </cc:Work>
    </rdf:RDF>
  </metadata>
  <path
     inkscape:connector-curvature="0"
     style="fill:#525252;fill-opacity:1;fill-rule:nonzero;stroke:none"
     id="path28344-6-4"
     d="m 36.000001,17.9988 c 0,9.9397 -8.058494,18.0012 -18,18.0012 C 8.0609836,36 1.774e-7,27.9385 1.774e-7,17.9988 1.774e-7,8.0566 8.0609836,0 18.000001,0 c 9.941506,0 18,8.0566 18,17.9988" />
  <path
     inkscape:connector-curvature="0"
     style="font-size:28px;font-style:normal;font-variant:normal;font-weight:bold;font-stretch:normal;line-height:125%;letter-spacing:0px;word-spacing:0px;fill:#ffffff;fill-opacity:1;stroke:none;font-family:Open Sans;-inkscape-font-specification:Open Sans Bold"
     id="path3358"
     d="M 16.22699,21.4352 15.47347,7 20.58563,7 19.8321,21.4352 z m -0.14775,3.1766 c 0.44326,-0.4235 1.08843,-0.6353 1.93553,-0.6353 0.81756,0 1.44795,0.2167 1.89121,0.6501 0.45309,0.4334 0.67964,1.0539 0.67965,1.8616 -10e-6,0.7782 -0.22656,1.3938 -0.67965,1.8469 C 19.45287,28.7784 18.82247,29 18.01477,29 c -0.8274,0 -1.46765,-0.2167 -1.92074,-0.6501 -0.45311,-0.4433 -0.67966,-1.0638 -0.67966,-1.8617 0,-0.8274 0.22163,-1.4528 0.66487,-1.8764 z" />
</svg>
