<?xml version="1.0" encoding="UTF-8" standalone="no"?>
<!-- Created with Inkscape (http://www.inkscape.org/) -->

<svg
   xmlns:dc="http://purl.org/dc/elements/1.1/"
   xmlns:cc="http://creativecommons.org/ns#"
   xmlns:rdf="http://www.w3.org/1999/02/22-rdf-syntax-ns#"
   xmlns:svg="http://www.w3.org/2000/svg"
   xmlns="http://www.w3.org/2000/svg"
   xmlns:sodipodi="http://sodipodi.sourceforge.net/DTD/sodipodi-0.dtd"
   xmlns:inkscape="http://www.inkscape.org/namespaces/inkscape"
   version="1.1"
   width="36"
   height="36"
   id="svg3136"
   inkscape:version="0.48.5 r10040"
   sodipodi:docname="warning.svg">
  <sodipodi:namedview
     pagecolor="#ffffff"
     bordercolor="#666666"
     borderopacity="1"
     objecttolerance="10"
     gridtolerance="10"
     guidetolerance="10"
     inkscape:pageopacity="0"
     inkscape:pageshadow="2"
     inkscape:window-width="1920"
     inkscape:window-height="1016"
     id="namedview3019"
     showgrid="false"
     inkscape:zoom="6.5555556"
     inkscape:cx="-7.1694915"
     inkscape:cy="16.779661"
     inkscape:window-x="0"
     inkscape:window-y="27"
     inkscape:window-maximized="1"
     inkscape:current-layer="svg3136" />
  <title
     id="title3177">Icon &quot;Warning&quot;</title>
  <defs
     id="defs3138" />
  <metadata
     id="metadata3141">
    <rdf:RDF>
      <cc:Work
         rdf:about="">
        <dc:format>image/svg+xml</dc:format>
        <dc:type
           rdf:resource="http://purl.org/dc/dcmitype/StillImage" />
        <dc:title>Icon &quot;Warning&quot;</dc:title>
        <dc:contributor>
          <cc:Agent>
            <dc:title>&quot;Hand&quot; icon: (CC0) Megan Strickland</dc:title>
          </cc:Agent>
        </dc:contributor>
      </cc:Work>
    </rdf:RDF>
  </metadata>
  <path
     inkscape:connector-curvature="0"
     style="fill:#525252;fill-opacity:1;fill-rule:nonzero;stroke:none"
     id="path28344-6-4-4"
     d="M 36,17.9988 C 36,27.9384 27.9415,36 18,36 8.06098,36 0,27.9384 0,17.9988 0,8.0566 8.06098,0 18,0 27.9415,0 36,8.0566 36,17.9988" />
  <path
     inkscape:connector-curvature="0"
     style="fill:#ffffff"
     id="path236"
     d="m 24.99972,17.2144 c 0,-0.9568 -0.48046,-1.1224 -1.09966,-1.1224 -0.61919,0 -0.9,0.5024 -0.9,1.1224 l 0,4.7856 -1,0 0,-12.5305 c 0,-0.62 -0.38081,-1.1224 -1,-1.1224 -0.6192,0 -1,0.5024 -1,1.1224 l 0,8.5305 -1,0 0,-9.8776 C 19.00028,7.5029 18.61881,7 18.00006,7 c -0.61897,0 -0.96158,0.5041 -1,1.1224 l 0,9.8776 -1,0 0,-8.5305 c 0,-0.62 -0.38102,-1.1224 -1,-1.1224 -0.61897,0 -1.00011,0.5024 -1.00009,1.1224 l 1.9e-4,9.5305 -0.99991,0 -1.9e-4,-5.4898 c -2e-5,-0.6197 -0.38103,-1.1224 -1,-1.1224 -0.61876,0 -1,0.5027 -1,1.4593 l 0,9.3163 c 0.001,2.9225 3.40982,5.8357 7,5.8366 3.59018,0 6.99878,-2.9141 6.99966,-6.5102 l 2.2e-4,0 -2.2e-4,-5.2752 z" />
</svg>
