<?xml version="1.0" encoding="UTF-8" standalone="no"?>
<svg
   xmlns:dc="http://purl.org/dc/elements/1.1/"
   xmlns:cc="http://creativecommons.org/ns#"
   xmlns:rdf="http://www.w3.org/1999/02/22-rdf-syntax-ns#"
   xmlns:svg="http://www.w3.org/2000/svg"
   xmlns="http://www.w3.org/2000/svg"
   version="1.1"
   x="0px"
   y="0px"
   viewBox="0 0 36 36"
   style="enable-background:new 0 0 36 36;"
   xml:space="preserve"
   id="svg2"><path
     style="fill:#000000"
     d="M 17.990234 1.2832031 L 17.574219 1.4726562 C 13.91211 3.1489262 9.7968746 4.0351562 5.6875 4.0351562 C 4.669924 4.0351562 4.6689444 4.0351562 4.6464844 9.1542969 L 4.6328125 13.279297 C 4.6280815 14.296681 4.6441056 15.407827 4.7285156 16.447266 C 5.4530026 24.104615 10.056947 30.525696 17.558594 34.275391 L 17.990234 34.498047 L 17.992188 34.5 L 17.992188 34.498047 L 18.423828 34.275391 C 25.925475 30.525696 30.529419 24.104615 31.253906 16.447266 C 31.338316 15.407827 31.35434 14.296681 31.349609 13.279297 L 31.335938 9.1542969 C 31.313477 4.0351564 31.3125 4.0351563 30.294922 4.0351562 C 26.185547 4.0351562 22.070312 3.1489259 18.408203 1.4726562 L 17.992188 1.2832031 L 17.990234 1.2832031 z M 17.990234 3.4765625 C 17.990785 3.4768041 17.991637 3.4763209 17.992188 3.4765625 C 21.512262 5.0215206 25.405885 5.8945508 29.316406 6.0195312 C 29.332036 7.6298828 29.343749 11.011718 29.349609 13.283203 C 29.355909 14.416537 29.320809 15.535962 29.216797 16.712891 C 28.434511 23.317289 24.43453 28.879926 17.992188 32.257812 C 17.991679 32.257546 17.990743 32.258079 17.990234 32.257812 C 11.547892 28.879926 7.5479113 23.317289 6.765625 16.712891 C 6.6616134 15.535962 6.6265125 14.416537 6.6328125 13.283203 C 6.6386725 11.011718 6.6503856 7.6298829 6.6660156 6.0195312 C 10.576537 5.8945508 14.47016 5.0215211 17.990234 3.4765625 z "
     id="path69" />
     </svg>
