<?xml version="1.0" encoding="UTF-8" standalone="no"?>
<svg
   xmlns:dc="http://purl.org/dc/elements/1.1/"
   xmlns:cc="http://creativecommons.org/ns#"
   xmlns:rdf="http://www.w3.org/1999/02/22-rdf-syntax-ns#"
   xmlns:svg="http://www.w3.org/2000/svg"
   xmlns="http://www.w3.org/2000/svg"
   version="1.1"
   x="0px"
   y="0px"
   width="36px"
   height="36px"
   viewBox="0 0 36 36"
   style="enable-background:new 0 0 36 36;"
   xml:space="preserve"
   id="svg2"><defs
     id="defs105" /><path
     d="M 18 0 C 11.145508 0 5.5683594 5.5761714 5.5683594 12.429688 C 5.5683594 17.951171 8.8588865 20.964844 10.439453 22.414062 C 10.687011 22.640625 10.966309 22.899414 11.044922 23.003906 C 11.622559 23.774414 12.362793 24.995117 12.554688 27 L 13 27 L 14.560547 27 L 21.439453 27 L 23 27 L 23.445312 27 C 23.637695 24.99707 24.37793 23.777343 24.957031 23.003906 C 25.035161 22.898437 25.314453 22.639648 25.5625 22.412109 C 27.142578 20.956055 30.429688 17.925293 30.429688 12.429688 C 30.429688 5.5761724 24.854492 0 18 0 z M 18 2 C 23.751953 2 28.429688 6.6787104 28.429688 12.429688 C 28.429688 17.048828 25.682617 19.581055 24.207031 20.941406 C 23.821289 21.295898 23.541993 21.552734 23.353516 21.804688 C 22.625977 22.777344 22.128906 23.84375 21.808594 25 L 14.191406 25 C 13.87207 23.842773 13.374024 22.775391 12.646484 21.804688 C 12.456543 21.550781 12.177735 21.295898 11.791016 20.941406 C 10.315431 19.588867 7.5703125 17.071289 7.5703125 12.429688 C 7.5703124 6.6787104 12.248535 2 18 2 z M 19.5625 3.7519531 C 19.222977 3.7270965 18.883057 3.876831 18.675781 4.1679688 L 11.228516 14.59375 C 11.010746 14.898438 10.98291 15.297851 11.154297 15.630859 C 11.325683 15.963866 11.668457 16.173828 12.042969 16.173828 L 16.753906 16.173828 L 15.535156 21.658203 C 15.432129 22.12207 15.669434 22.595703 16.103516 22.789062 C 16.234863 22.847652 16.373047 22.875 16.509766 22.875 C 16.824707 22.875 17.131836 22.726562 17.324219 22.457031 L 24.771484 12.033203 C 24.989256 11.728515 25.016602 11.327149 24.845703 10.994141 C 24.673828 10.661134 24.332031 10.451172 23.957031 10.451172 L 19.246094 10.451172 L 20.464844 4.9667969 C 20.567383 4.5029297 20.331055 4.03125 19.896484 3.8378906 C 19.788086 3.7894287 19.675674 3.7602387 19.5625 3.7519531 z M 17.447266 9.328125 L 17.023438 11.234375 C 16.95752 11.530273 17.031249 11.839844 17.220703 12.076172 C 17.410644 12.312988 17.696777 12.451172 18 12.451172 L 22.013672 12.451172 L 18.552734 17.294922 L 18.976562 15.390625 C 19.04248 15.094726 18.96875 14.785156 18.779297 14.548828 C 18.589356 14.312011 18.303223 14.173828 18 14.173828 L 13.986328 14.173828 L 17.447266 9.328125 z M 12.730469 29 L 12.730469 31 L 23.230469 31 L 23.230469 29 L 12.730469 29 z M 14.417969 33 C 14.716797 34.701172 16.194336 36 17.980469 36 C 19.765625 36 21.244141 34.701172 21.541016 33 L 19.478516 33 C 19.234375 33.587891 18.654297 34 17.980469 34 C 17.304688 34 16.726563 33.587891 16.480469 33 L 14.417969 33 z "
     id="path73" /><metadata
     id="metadata4200"><rdf:RDF><cc:Work
         rdf:about=""><dc:title></dc:title></cc:Work></rdf:RDF></metadata></svg>