<?xml version="1.0" encoding="UTF-8" standalone="no"?>
<svg
   xmlns:dc="http://purl.org/dc/elements/1.1/"
   xmlns:cc="http://creativecommons.org/ns#"
   xmlns:rdf="http://www.w3.org/1999/02/22-rdf-syntax-ns#"
   xmlns:svg="http://www.w3.org/2000/svg"
   xmlns="http://www.w3.org/2000/svg"
   width="36"
   height="36"
   viewBox="0 0 36 36"
   version="1.1"
   id="svg3717">
  <defs
     id="defs3711" />
  <metadata
     id="metadata3714">
    <rdf:RDF>
      <cc:Work
         rdf:about="">
        <dc:format>image/svg+xml</dc:format>
        <dc:type
           rdf:resource="http://purl.org/dc/dcmitype/StillImage" />
        <dc:title></dc:title>
      </cc:Work>
    </rdf:RDF>
  </metadata>
  <circle
     cx="18"
     cy="18"
     r="18"
     fill="#fe7c3f"
     id="circle2556" />
  <path
     fill="#ffffff"
     d="m 24.999722,17.2144 c 0,-0.9568 -0.48046,-1.1224 -1.09966,-1.1224 -0.61919,0 -0.9,0.5024 -0.9,1.1224 V 22 h -1 V 9.4694995 c 0,-0.62 -0.38081,-1.1224 -1,-1.1224 -0.6192,0 -1,0.5024 -1,1.1224 V 18 h -1 V 8.1223995 c 2.2e-4,-0.6195 -0.38125,-1.1224 -1,-1.1224 -0.61897,0 -0.96158,0.5041 -1,1.1224 V 18 h -1 V 9.4694995 c 0,-0.62 -0.38102,-1.1224 -1,-1.1224 -0.61897,0 -1.00011,0.5024 -1.00009,1.1224 L 14.000162,19 h -0.99991 l -1.9e-4,-5.4898 c -2e-5,-0.6197 -0.38103,-1.1224 -1,-1.1224 -0.61876,0 -1,0.5027 -1,1.4593 v 9.3163 c 10e-4,2.9225 3.40982,5.8357 7,5.8366 3.59018,0 6.99878,-2.9141 6.99966,-6.5102 h 2.2e-4 l -2.2e-4,-5.2752 z"
     id="path2558" />
</svg>
