<?xml version="1.0" encoding="UTF-8" standalone="no"?>
<svg
   xmlns:dc="http://purl.org/dc/elements/1.1/"
   xmlns:cc="http://creativecommons.org/ns#"
   xmlns:rdf="http://www.w3.org/1999/02/22-rdf-syntax-ns#"
   xmlns:svg="http://www.w3.org/2000/svg"
   xmlns="http://www.w3.org/2000/svg"
   width="16"
   height="16"
   viewBox="0 0 4.233333 4.233333"
   version="1.1"
   id="svg1108">
  <defs
     id="defs1102" />
  <metadata
     id="metadata1105">
    <rdf:RDF>
      <cc:Work
         rdf:about="">
        <dc:format>image/svg+xml</dc:format>
        <dc:type
           rdf:resource="http://purl.org/dc/dcmitype/StillImage" />
        <dc:title></dc:title>
      </cc:Work>
    </rdf:RDF>
  </metadata>
    <path
       d="m 0.88934927,0.52916667 c -0.2400406,0 -0.3601826,0.1080442 -0.3601826,0.3234944 0,0.21690543 0.120142,0.32556133 0.3601826,0.32556133 0.12002293,0 0.20943093,-0.02834 0.26871883,-0.084749 0.060732,-0.057838 0.09095,-0.13815383 0.09095,-0.24081213 0,-0.2154502 -0.1196261,-0.3234944 -0.35966883,-0.3234946 z M 2.9362532,1.3926796 c -0.164846,0 -0.2445094,0.030229 -0.3746527,0.09095 -0.128696,0.059293 -0.2301108,0.113346 -0.3038581,0.230477 h -0.03669 L 2.1321685,1.449007 H 1.6128206 V 3.8302571 H 2.2882304 V 2.7223144 c 0,-0.2863057 0.041084,-0.491017 0.1235075,-0.6139159 0.082423,-0.1243809 0.2164344,-0.1865522 0.4015263,-0.1865522 0.1359271,0 0.2308283,0.04408 0.2930073,0.1322917 0.06218,0.086757 0.09354,0.2177719 0.09353,0.3927409 v 1.3833782 h 0.661459 V 2.2820313 c 0,-0.2877609 -0.07306,-0.5075471 -0.219104,-0.6593914 C 3.4961065,1.4693667 3.2182325,1.3926796 2.9362532,1.3926796 Z M 0.55448727,1.4490066 V 3.8302571 H 1.2190466 V 1.449007 Z"
       style="font-style:normal;font-weight:normal;font-size:medium;line-height:1.25;font-family:sans-serif;letter-spacing:-0.839472px;word-spacing:0px;fill:#000000;fill-opacity:1;stroke:none;stroke-width:0.264583px;stroke-linecap:butt;stroke-linejoin:miter;stroke-opacity:1" />
</svg>
