<?xml version="1.0" encoding="UTF-8" standalone="no"?>
<svg
   xmlns:dc="http://purl.org/dc/elements/1.1/"
   xmlns:cc="http://creativecommons.org/ns#"
   xmlns:rdf="http://www.w3.org/1999/02/22-rdf-syntax-ns#"
   xmlns:svg="http://www.w3.org/2000/svg"
   xmlns="http://www.w3.org/2000/svg"
   width="16"
   height="16"
   viewBox="0 0 4.233333 4.233333"
   version="1.1"
   id="svg1108">
  <defs
     id="defs1102" />
  <metadata
     id="metadata1105">
    <rdf:RDF>
      <cc:Work
         rdf:about="">
        <dc:format>image/svg+xml</dc:format>
        <dc:type
           rdf:resource="http://purl.org/dc/dcmitype/StillImage" />
        <dc:title></dc:title>
      </cc:Work>
    </rdf:RDF>
  </metadata>
  <path
     id="path4519"
     d="M 3.3450904,1.0394346 C 3.2757591,0.9656837 2.9340829,0.79374994 2.7308788,0.79374994 c -0.3894748,0 -0.6142117,0.21705926 -0.6142117,0.49136926 0,0.055419 -0.012311,0.1943705 0,0.2456847 C 1.5301459,1.5015548 0.99046925,1.220684 0.64255903,0.79374994 0.58200827,0.89791775 0.54106786,1.0563028 0.54106786,1.1856145 c 0,0.2447687 0.12469345,0.4608014 0.31404284,0.5870343 -0.11545694,-0.00359 -0.42752582,-0.088292 -0.42752582,-0.088292 0,0.2456847 0.35106768,0.6358144 0.67383392,0.7004703 C 0.93322135,2.4819359 0.64255897,2.5135428 0.64255897,2.5135428 0.73235885,2.7937183 1.1332336,2.8810355 1.441632,2.8866801 1.1999421,3.0760295 0.97353545,3.2505969 0.64255897,3.2505969 c -0.0569587,0 -0.19026467,0.00616 -0.245684,0 0.31199028,0.2001253 0.68299183,0.2456959 1.08170323,0.2456959 1.2977358,0 2.0074111,-1.0750324 2.0074111,-2.0074112 0,-0.030789 -5.132e-4,-0.061064 -0.00205,-0.091339 0.1380351,-0.09955 0.3525229,-0.3581075 0.3525229,-0.3581075 0,0 -0.3307558,-0.031815 -0.4913693,0 z"
     class="fil0"
     style="fill:#000000;fill-opacity:1;stroke-width:0.999999" />
</svg>
