<?xml version="1.0" encoding="UTF-8" standalone="no"?>
<!-- Created with Inkscape (http://www.inkscape.org/) -->

<svg
   xmlns:dc="http://purl.org/dc/elements/1.1/"
   xmlns:cc="http://creativecommons.org/ns#"
   xmlns:rdf="http://www.w3.org/1999/02/22-rdf-syntax-ns#"
   xmlns:svg="http://www.w3.org/2000/svg"
   xmlns="http://www.w3.org/2000/svg"
   version="1.1"
   width="140"
   height="35"
   id="svg2">
  <defs
     id="defs4" />
  <metadata
     id="metadata7">
    <rdf:RDF>
      <cc:Work
         rdf:about="">
        <dc:format>image/svg+xml</dc:format>
        <dc:type
           rdf:resource="http://purl.org/dc/dcmitype/StillImage" />
        <dc:title></dc:title>
      </cc:Work>
    </rdf:RDF>
  </metadata>
  <g
     transform="translate(0,-1017.3622)"
     id="layer1">
    <g
       transform="translate(-1.5,-1.3125)"
       id="g3158">
      <path
         d="m 24.1875,0 -1.90625,7.0625 5.5,8 5.5,-8.03125 3.59375,0 L 29.59375,17.25 34.625,24.3125 41.125,0 24.1875,0 z M 21.3125,10.75 14.8125,35 31.75,35 33.625,27.96875 27.78125,19.5 21.84375,28 18.25,28 l 7.6875,-10.75 -4.625,-6.5 z"
         transform="translate(1.5,1018.6747)"
         id="rect3070"
         style="fill:#ef2929;fill-opacity:1;stroke:none" />
      <path
         d="m 53.283798,1046.6597 -0.630929,-2.9826 -0.152952,0 c -1.045188,1.3128 -2.090361,2.2051 -3.135522,2.6767 -1.03244,0.4588 -2.32616,0.6882 -3.881165,0.6882 -2.077609,0 -3.709099,-0.5353 -4.894474,-1.606 -1.172637,-1.0706 -1.758954,-2.5938 -1.758952,-4.5694 -2e-6,-4.2317 3.384065,-6.4495 10.15221,-6.6534 l 3.556141,-0.1147 0,-1.3001 c -1.5e-5,-1.6443 -0.356904,-2.8551 -1.070666,-3.6327 -0.701045,-0.7902 -1.829067,-1.1853 -3.38407,-1.1853 -1.746215,0 -3.721847,0.5353 -5.926902,1.606 l -0.975071,-2.4282 c 1.032423,-0.5608 2.160445,-1.0005 3.38407,-1.3192 1.236356,-0.3186 2.472719,-0.4779 3.709094,-0.4779 2.498207,0 4.346379,0.5544 5.544521,1.6633 1.210854,1.1089 1.81629,2.887 1.816309,5.3342 l 0,14.3011 -2.351642,0 m -7.16964,-2.237 c 1.975623,0 3.524264,-0.5417 4.645927,-1.6251 1.134381,-1.0834 1.701579,-2.6002 1.701594,-4.5503 l 0,-1.8928 -3.17376,0.1338 c -2.523723,0.089 -4.346403,0.4844 -5.468046,1.1854 -1.10891,0.6883 -1.663361,1.7654 -1.663356,3.2311 -5e-6,1.1472 0.344137,2.0203 1.032428,2.6193 0.701025,0.5991 1.676095,0.8986 2.925213,0.8986"
         id="path3060"
         style="font-size:39.15579224px;font-style:normal;font-weight:normal;line-height:125%;letter-spacing:-3.5px;word-spacing:0px;fill:#2e3436;fill-opacity:1;stroke:none;font-family:Sans" />
      <path
         d="m 85.383452,1046.6597 0,-13.6319 c -3.1e-5,-1.6697 -0.356919,-2.9188 -1.070667,-3.7473 -0.713805,-0.8413 -1.822709,-1.2619 -3.326712,-1.2619 -1.975658,0 -3.435077,0.5672 -4.37826,1.7016 -0.943227,1.1344 -1.414829,2.8806 -1.414809,5.2386 l 0,11.7009 -3.173761,0 0,-13.6319 c -1.7e-5,-1.6697 -0.356905,-2.9188 -1.070666,-3.7473 -0.713792,-0.8413 -1.829069,-1.2619 -3.345832,-1.2619 -1.98839,0 -3.447809,0.5991 -4.37826,1.7972 -0.917721,1.1854 -1.376577,3.1355 -1.376571,5.8504 l 0,10.9935 -3.17376,0 0,-20.9545 2.58107,0 0.516214,2.8679 0.152952,0 c 0.599056,-1.0197 1.440293,-1.8163 2.523714,-2.3899 1.096148,-0.5736 2.319765,-0.8604 3.670855,-0.8604 3.275713,0 5.417043,1.1854 6.423997,3.5562 l 0.152953,0 c 0.624535,-1.0962 1.529502,-1.9629 2.714903,-2.6002 1.185357,-0.6373 2.536435,-0.956 4.053237,-0.956 2.370732,0 4.142428,0.6119 5.315092,1.8354 1.185348,1.2109 1.778038,3.1547 1.778071,5.8314 l 0,13.6701 -3.17376,0"
         id="path3062"
         style="font-size:39.15579224px;font-style:normal;font-weight:normal;line-height:125%;letter-spacing:-3.5px;word-spacing:0px;fill:#2e3436;fill-opacity:1;stroke:none;font-family:Sans" />
      <path
         d="m 101.34663,1047.042 c -1.363835,0 -2.612944,-0.2485 -3.74733,-0.7456 -1.121658,-0.5098 -2.064863,-1.2873 -2.829618,-2.3325 l -0.229428,0 c 0.152946,1.2236 0.229422,2.3835 0.229428,3.4796 l 0,6.2312 -3.17376,0 0,-27.9695 2.58107,0 0.439738,2.8679 0.152952,0 c 0.815739,-1.1472 1.765317,-1.9757 2.848737,-2.4855 1.083402,-0.5098 2.326138,-0.7648 3.728211,-0.7648 2.77862,0 4.91995,0.9496 6.424,2.8488 1.51676,1.8991 2.27514,4.563 2.27516,7.9917 -2e-5,3.4414 -0.77115,6.1181 -2.3134,8.03 -1.52954,1.8992 -3.65812,2.8487 -6.38576,2.8487 m -0.45885,-19.0234 c -2.141348,0 -3.689988,0.5927 -4.645931,1.7781 -0.95596,1.1854 -1.446681,3.0718 -1.472167,5.6592 l 0,0.7074 c -6e-6,2.9444 0.490715,5.0538 1.472167,6.3284 0.981435,1.2619 2.555567,1.8928 4.722401,1.8928 1.80992,0 3.22473,-0.7329 4.24443,-2.1987 1.03241,-1.4658 1.54862,-3.486 1.54864,-6.0607 -2e-5,-2.6129 -0.51623,-4.6141 -1.54864,-6.0034 -1.0197,-1.402 -2.46,-2.1031 -4.3209,-2.1031"
         id="path3064"
         style="font-size:39.15579224px;font-style:normal;font-weight:normal;line-height:125%;letter-spacing:-2.75px;word-spacing:0px;fill:#2e3436;fill-opacity:1;stroke:none;font-family:Sans" />
      <path
         d="m 116.01407,1046.6597 -3.17376,0 0,-27.985 3.17376,0 0,27.985"
         id="path3066"
         style="font-size:39.15579224px;font-style:normal;font-weight:normal;line-height:125%;letter-spacing:-2.75px;word-spacing:0px;fill:#2e3436;fill-opacity:1;stroke:none;font-family:Sans" />
      <path
         d="m 128.84609,1047.042 c -3.09729,0 -5.54452,-0.9432 -7.34171,-2.8296 -1.78444,-1.8864 -2.67667,-4.5057 -2.67666,-7.8579 -1e-5,-3.3777 0.82849,-6.0607 2.48547,-8.0491 1.66972,-1.9884 3.90665,-2.9826 6.71078,-2.9826 2.62567,0 4.70327,0.8668 6.23281,2.6002 1.52951,1.7207 2.29427,3.9959 2.29429,6.8255 l 0,2.0075 -14.43488,0 c 0.0637,2.46 0.68191,4.3273 1.85455,5.6019 1.18537,1.2746 2.84872,1.9119 4.99007,1.9119 2.25603,0 4.48658,-0.4716 6.69166,-1.4148 l 0,2.8296 c -1.12167,0.4843 -2.18596,0.8285 -3.19288,1.0324 -0.9942,0.2167 -2.1987,0.325 -3.6135,0.325 m -0.86035,-19.0616 c -1.68249,0 -3.02719,0.5481 -4.03412,1.6442 -0.9942,1.0962 -1.58051,2.613 -1.75895,4.5503 l 10.95521,0 c -2e-5,-2.0011 -0.44613,-3.5306 -1.33834,-4.5885 -0.89223,-1.0707 -2.16683,-1.606 -3.8238,-1.606"
         id="path3068"
         style="font-size:39.15579224px;font-style:normal;font-variant:normal;font-weight:normal;font-stretch:normal;line-height:125%;letter-spacing:-2.5px;word-spacing:0px;fill:#2e3436;fill-opacity:1;stroke:none;font-family:Open Sans;-inkscape-font-specification:Open Sans" />
      <path
         d="m 11.51837,1047.0422 c -3.09729,0 -5.54452,-0.9432 -7.34171,-2.8296 -1.78444,-1.8864 -2.67667,-4.5057 -2.67666,-7.8579 -1e-5,-3.3777 0.82849,-6.0607 2.48547,-8.0491 1.66972,-1.9884 3.90665,-2.9826 6.71078,-2.9826 2.62567,0 4.70327,0.8668 6.23281,2.6002 1.52951,1.7207 2.29427,3.9959 2.29429,6.8255 l 0,2.0075 -14.43488,0 c 0.0637,2.46 0.68191,4.3273 1.85455,5.6019 1.18537,1.2746 2.84872,1.9119 4.99007,1.9119 2.25603,0 4.48658,-0.4716 6.69166,-1.4148 l 0,2.8296 c -1.12167,0.4843 -2.18596,0.8285 -3.19288,1.0324 -0.9942,0.2167 -2.1987,0.325 -3.6135,0.325 m -0.86035,-19.0616 c -1.68249,0 -3.02719,0.5481 -4.03412,1.6442 -0.9942,1.0962 -1.58051,2.613 -1.75895,4.5503 l 10.95521,0 c -2e-5,-2.0011 -0.44613,-3.5306 -1.33834,-4.5885 -0.89223,-1.0707 -2.16683,-1.606 -3.8238,-1.606"
         id="path3068-6"
         style="font-size:39.15579224px;font-style:normal;font-variant:normal;font-weight:normal;font-stretch:normal;line-height:125%;letter-spacing:-2.5px;word-spacing:0px;fill:#2e3436;fill-opacity:1;stroke:none;font-family:Open Sans;-inkscape-font-specification:Open Sans" />
      <rect
         width="4"
         height="4"
         x="137.5"
         y="1042.6747"
         id="rect3152"
         style="fill:#ef2929;fill-opacity:1;stroke:none" />
    </g>
  </g>
</svg>
