<?xml version="1.0" encoding="UTF-8" standalone="no"?>
<svg
   xmlns:dc="http://purl.org/dc/elements/1.1/"
   xmlns:cc="http://creativecommons.org/ns#"
   xmlns:rdf="http://www.w3.org/1999/02/22-rdf-syntax-ns#"
   xmlns:svg="http://www.w3.org/2000/svg"
   xmlns="http://www.w3.org/2000/svg"
   xmlns:sodipodi="http://sodipodi.sourceforge.net/DTD/sodipodi-0.dtd"
   xmlns:inkscape="http://www.inkscape.org/namespaces/inkscape"
   version="1.1"
   x="0"
   y="0"
   width="122.71437"
   height="106.67203"
   viewBox="0 0 122.71437 106.67203"
   id="svg7"
   sodipodi:docname="logo.svg"
   inkscape:version="1.0.1 (3bc2e813f5, 2020-09-07)">
  <metadata id="metadata13">
    <rdf:RDF>
      <cc:Work
         rdf:about="">
        <dc:format>image/svg+xml</dc:format>
        <dc:type rdf:resource="http://purl.org/dc/dcmitype/StillImage" />
        <dc:title>SUSE Logo</dc:title>
      </cc:Work>
    </rdf:RDF>
  </metadata>
  <sodipodi:namedview
     pagecolor="#ffffff"
     bordercolor="#666666"
     borderopacity="1"
     objecttolerance="10"
     gridtolerance="10"
     guidetolerance="10"
     inkscape:pageopacity="0"
     inkscape:pageshadow="2"
     inkscape:window-width="1524"
     inkscape:window-height="1173"
     id="namedview9"
     showgrid="false"
     inkscape:zoom="4.3333333"
     inkscape:cx="61.303567"
     inkscape:cy="53.77503"
     inkscape:window-x="0"
     inkscape:window-y="0"
     inkscape:window-maximized="0"
     inkscape:current-layer="Layer_1"
     inkscape:document-rotation="0"
     fit-margin-top="0"
     fit-margin-left="0"
     fit-margin-right="0"
     fit-margin-bottom="0" />
  <g transform="translate(-28.696433,-28.72497)">
    <path id="suse"
       d="m 148.462,130.726 h -13.556 c -1.044,0 -1.896,-0.849 -1.896,-1.895 v -6.849 h 13.083 c 1.124,0 2.037,-0.911 2.037,-2.036 0,-1.125 -0.913,-2.036 -2.037,-2.036 H 133.01 v -6.739 c 0,-1.046 0.852,-1.898 1.896,-1.898 h 13.556 c 1.18,0 2.138,-0.955 2.138,-2.135 0,-1.18 -0.958,-2.138 -2.138,-2.138 h -13.556 c -3.399,0 -6.168,2.768 -6.168,6.171 v 17.66 c 0,3.401 2.769,6.169 6.168,6.169 h 13.556 c 1.18,0 2.138,-0.956 2.138,-2.136 0,-1.181 -0.958,-2.138 -2.138,-2.138 m -39.861,-12.761 c -2.865,-0.514 -4.858,-1.123 -5.974,-1.832 -1.116,-0.709 -1.675,-1.667 -1.675,-2.874 0,-1.296 0.573,-2.36 1.72,-3.19 1.147,-0.829 2.76,-1.244 4.844,-1.244 2.111,0 3.801,0.406 5.069,1.222 0.681,0.438 1.303,1.022 1.863,1.75 0.826,1.071 2.384,1.212 3.389,0.308 0.946,-0.854 1.029,-2.319 0.177,-3.268 -1.027,-1.149 -2.197,-2.059 -3.507,-2.728 -1.946,-0.995 -4.292,-1.493 -7.036,-1.493 -2.355,0 -4.414,0.408 -6.177,1.222 -1.765,0.813 -3.118,1.916 -4.051,3.303 -0.937,1.387 -1.404,2.927 -1.404,4.616 0,1.6 0.368,2.958 1.11,4.073 0.737,1.117 1.923,2.052 3.552,2.806 1.628,0.755 3.815,1.388 6.562,1.901 2.746,0.513 4.668,1.101 5.769,1.764 1.102,0.665 1.653,1.539 1.653,2.624 0,1.359 -0.611,2.408 -1.835,3.146 -1.219,0.74 -2.902,1.109 -5.044,1.109 -2.263,0 -4.156,-0.422 -5.68,-1.267 -0.87,-0.483 -1.649,-1.123 -2.34,-1.92 -0.868,-1.008 -2.424,-1.031 -3.364,-0.091 l -0.009,0.009 c -0.86,0.859 -0.926,2.251 -0.114,3.155 2.582,2.883 6.434,4.322 11.551,4.322 2.354,0 4.428,-0.354 6.224,-1.063 1.795,-0.708 3.189,-1.726 4.185,-3.054 0.997,-1.328 1.494,-2.867 1.494,-4.617 0,-1.629 -0.362,-2.993 -1.086,-4.095 -0.725,-1.1 -1.877,-2.021 -3.462,-2.76 -1.583,-0.74 -3.719,-1.35 -6.404,-1.834 m -66.83,0.01 c -2.866,-0.516 -4.858,-1.123 -5.975,-1.832 -1.116,-0.711 -1.674,-1.668 -1.674,-2.876 0,-1.296 0.574,-2.36 1.72,-3.19 1.147,-0.828 2.76,-1.244 4.843,-1.244 2.11,0 3.8,0.407 5.068,1.222 0.683,0.438 1.304,1.022 1.864,1.752 0.825,1.07 2.384,1.21 3.39,0.307 0.946,-0.856 1.028,-2.319 0.176,-3.269 -1.027,-1.148 -2.198,-2.057 -3.507,-2.728 -1.946,-0.995 -4.293,-1.492 -7.037,-1.492 -2.354,0 -4.412,0.407 -6.177,1.221 -1.765,0.815 -3.116,1.917 -4.051,3.303 -0.935,1.389 -1.402,2.927 -1.402,4.617 0,1.599 0.368,2.958 1.108,4.072 0.739,1.118 1.924,2.053 3.553,2.807 1.629,0.754 3.816,1.387 6.561,1.901 2.746,0.513 4.669,1.101 5.771,1.765 1.1,0.662 1.652,1.538 1.652,2.623 0,1.358 -0.612,2.407 -1.833,3.146 -1.222,0.74 -2.904,1.109 -5.045,1.109 -2.264,0 -4.157,-0.422 -5.68,-1.268 -0.871,-0.483 -1.65,-1.123 -2.339,-1.92 -0.868,-1.007 -2.427,-1.031 -3.367,-0.09 l -0.008,0.009 c -0.86,0.858 -0.925,2.251 -0.115,3.155 2.583,2.882 6.434,4.322 11.553,4.322 2.353,0 4.427,-0.355 6.222,-1.064 1.796,-0.708 3.19,-1.727 4.186,-3.054 0.997,-1.326 1.494,-2.867 1.494,-4.617 0,-1.628 -0.362,-2.993 -1.087,-4.094 -0.724,-1.101 -1.876,-2.021 -3.462,-2.76 -1.583,-0.741 -3.717,-1.351 -6.402,-1.833 M 86.342,107.06 v 16.427 c 0,3.922 -1.04,6.886 -3.121,8.893 -2.083,2.006 -5.114,3.008 -9.096,3.008 -3.983,0 -7.016,-1.002 -9.097,-3.008 -2.081,-2.007 -3.122,-4.971 -3.122,-8.893 V 107.06 c 0,-1.35 1.094,-2.444 2.443,-2.444 1.348,0 2.445,1.094 2.445,2.444 v 15.839 c 0,2.836 0.595,4.925 1.787,6.267 1.192,1.342 3.038,2.014 5.544,2.014 2.504,0 4.351,-0.672 5.543,-2.014 1.192,-1.342 1.787,-3.431 1.787,-6.267 V 107.06 c 0,-1.35 1.095,-2.444 2.445,-2.444 1.348,0 2.442,1.094 2.442,2.444"
       fill="black"/>
    <path id="geeko"
       d="m 144.823,47.49 c -0.772,-0.799 -2.048,-0.799 -2.82,10e-4 -0.868,0.867 -0.766,2.363 0.314,3.079 0.657,0.436 1.535,0.436 2.193,0 1.077,-0.716 1.181,-2.213 0.313,-3.08 m -2.579,-6.78 c -5.327,-1.249 -10.114,3.538 -8.864,8.865 0.635,2.712 2.79,4.866 5.504,5.503 5.328,1.252 10.118,-3.54 8.865,-8.869 -0.639,-2.713 -2.793,-4.866 -5.505,-5.499 m -35.18,29.999 c -3.473,-1.284 -4.815,-1.026 -9.255,-0.967 -3.076,0.04 -3.188,-0.063 -6.7,-0.063 -1.084,0 -1.485,5.199 2.441,6.279 1.719,0.473 3.575,0.771 4.867,2.093 0.572,0.584 0.895,1.466 -0.428,1.466 h -9.746 c -1.706,0 -3.315,0.04 -4.618,-1.064 C 81.656,76.791 80.737,74.502 79.754,72.231 78.731,69.869 77.629,67.545 76.335,65.322 73.76,60.898 70.359,56.895 65.794,54.45 60.093,51.394 50.421,49.877 42.762,55.759 c -8.071,6.198 -6.341,17.808 0.718,23.486 2.788,2.244 6.423,3.183 9.995,2.972 6.982,-0.406 12.131,-5.552 10.853,-11.884 -0.427,-2.12 -1.663,-4.126 -3.526,-5.22 -1.325,-0.774 -2.893,-1.05 -4.429,-1.053 -1.648,-0.003 -3.403,0.337 -4.588,1.484 -1.402,1.358 -1.63,3.756 -0.509,5.356 0.621,0.885 1.631,1.633 1.459,2.788 -0.117,0.781 -0.761,1.361 -1.53,1.532 -1.309,0.292 -2.507,-0.453 -3.392,-1.365 -2.269,-2.338 -2.979,-6.058 -1.731,-9.067 1.633,-3.941 6.174,-6.11 10.436,-5.969 5.496,0.185 10.676,3.811 12.93,8.828 2.254,5.017 1.579,11.175 -1.527,15.717 -6.902,10.086 -23.945,8.895 -31.864,0.39 -4.966,-5.337 -7.666,-10.516 -7.288,-20.16 0.266,-6.814 4.2,-13.525 9.212,-18.249 8.167,-7.696 18.923,-12.959 29.866,-15.229 6.647,-1.371 13.509,-1.694 20.257,-1.021 5.949,0.592 11.866,1.682 17.584,3.452 2.838,0.885 5.631,1.935 8.333,3.176 2.382,1.094 5.505,2.285 7.359,4.174 0,-3.42 -0.133,-7.178 -0.133,-9.795 0,-0.999 1.049,-1.673 1.947,-1.247 3.871,1.797 13.038,6.128 19.151,8.922 8.195,3.745 8.775,12.579 9.062,20.408 0.007,0.175 0.013,0.356 -0.066,0.513 -0.256,0.536 -1.637,0.39 -2.144,0.396 -0.981,0.011 -2.458,0.005 -3.436,0.048 -1.958,0.087 -3.863,0.051 -5.819,-0.048 -3.617,-0.175 -7.115,-1.787 -9.457,-3.748 -0.234,-0.196 -0.99,-0.411 -1.345,-0.04 -0.369,0.381 -0.245,0.977 -0.043,1.182 1.342,1.355 2.799,2.231 4.493,3.107 2.151,1.104 4.498,1.384 6.877,1.522 2.548,0.151 5.114,0.114 7.655,-0.147 2.122,-0.217 2.672,-0.362 0.578,1.194 -1.842,1.366 -3.975,2.349 -6.142,3.077 -3.103,1.056 -6.383,1.58 -9.656,1.671 -1.983,0.053 -3.969,-0.051 -5.937,-0.307 -1.017,-0.127 -2.028,-0.31 -3.05,-0.415 -0.83,-0.083 -1.691,-0.238 -2.517,-0.06 -0.749,0.165 -1.445,0.57 -1.916,1.181 -0.648,0.845 -0.872,3.167 -0.496,4.172 0.723,1.95 2.311,3.083 3.989,4.082 1.817,1.081 4.207,1.449 4.672,3.516 0.097,0.433 -3.766,0.443 -4.204,0.436 h -5.144 c 0,0 -2.795,0.067 -3.882,-0.329 -0.037,-0.011 -0.066,-0.027 -0.098,-0.044 -0.593,-0.318 -0.85,-1.11 -1.05,-1.71 -0.286,-0.845 -0.791,-1.691 -1.402,-2.566 -1.161,-1.657 -2.947,-3.472 -4.803,-4.159 M 146.003,47.89 c 0,3.015 -2.439,5.454 -5.454,5.454 -3.012,0 -5.45,-2.439 -5.45,-5.454 0,-3.01 2.438,-5.452 5.45,-5.452 3.015,0 5.454,2.442 5.454,5.452"
       fill="#30ba78" />
  </g>
</svg>
