<?xml version="1.0" encoding="UTF-8" standalone="no"?>
<!DOCTYPE svg PUBLIC "-//W3C//DTD SVG 1.1//EN" "http://www.w3.org/Graphics/SVG/1.1/DTD/svg11.dtd" >
<svg xmlns="http://www.w3.org/2000/svg">
<metadata>
This is a SVG font generated by e-font.
</metadata>
<defs>
<font id="HPESimpleWebLightOblique" horiz-adv-x="528" >
<font-face units-per-em="1000" ascent="950" descent="-250" />
<missing-glyph horiz-adv-x="528" />
<glyph unicode="&#x20;" horiz-adv-x="528" />
<glyph unicode="&#x21;" horiz-adv-x="528" d="M336 707C337 710 335 712 332 712L308 712C305 712 303 710 302 707L227 232C227 229 228 227 231 227L255 227C258 227 261 229 261 232ZM157 6C157 2 160 0 163 0L252 0C255 0 258 1 259 6L274 96C275 100 272 102 269 102L179 102C176 102 173 100 172 96Z"/>
<glyph unicode="&#x22;" horiz-adv-x="528" d="M268 707C269 711 266 712 263 712L173 712C170 712 167 711 166 707L152 615C151 611 154 610 157 610L220 610L216 582C210 547 179 520 143 520C140 520 137 518 136 514L132 491C131 487 133 486 136 486C190 486 241 529 249 582ZM472 707C473 711 470 712 467 712L377 712C374 712 371 711 370 707L356 615C355 611 358 610 361 610L424 610L420 582C414 547 383 520 347 520C344 520 341 518 340 514L336 491C335 487 337 486 340 486C394 486 445 529 453 582Z"/>
<glyph unicode="&#x23;" horiz-adv-x="528" d="M516 481C517 485 514 487 512 487L419 487L493 707C494 710 492 712 489 712L465 712C462 712 460 711 459 708L385 487L228 487L302 707C303 710 301 712 298 712L274 712C271 712 269 711 268 708L195 487L99 487C96 487 93 486 92 481L88 458C87 454 90 452 93 452L182 452L118 260L23 260C20 260 17 258 16 254L12 232C11 227 15 227 17 227L107 227L33 7C31 2 34 0 38 0L61 0C64 0 66 2 67 5L141 227L297 227L224 7C222 2 225 0 229 0L252 0C255 0 257 2 258 5L331 227L429 227C432 227 435 227 436 232L440 254C441 258 438 260 435 260L344 260L408 452L506 452C508 452 511 453 512 457ZM373 452L309 260L153 260L217 452Z"/>
<glyph unicode="&#x24;" horiz-adv-x="528" d="M411 176C413 190 414 198 414 208C414 282 367 322 307 358C247 394 160 431 160 516C160 523 161 530 162 538L167 571C177 637 240 690 305 690L329 690C388 690 430 646 430 589C430 583 430 577 427 560C426 556 428 554 431 554L453 554C456 554 459 556 460 560C463 579 464 587 464 595C464 661 419 712 339 725L351 798C352 802 348 804 346 804L324 804C321 804 318 802 317 798L305 725C212 710 146 648 134 571L129 538C127 524 127 518 127 509C127 343 378 355 378 201C378 193 377 185 376 176L371 141C361 76 299 23 234 23L188 23C129 23 88 67 88 123C88 129 89 137 91 153C92 157 89 158 86 158L62 158C59 158 57 157 56 153C53 136 52 125 52 117C52 48 103 -5 189 -12L177 -84C176 -89 180 -90 182 -90L205 -90C207 -90 210 -89 211 -84L223 -12C321 -4 393 61 406 141Z"/>
<glyph unicode="&#x25;" horiz-adv-x="528" d="M283 651C284 658 284 659 284 662C284 697 257 724 220 724L197 724C157 724 119 691 113 651L91 514C90 508 90 507 90 503C90 467 117 441 153 441L176 441C217 441 255 473 261 514ZM227 514C223 491 203 475 181 475L158 475C137 475 121 491 125 514L147 651C150 672 171 690 192 690L215 690C237 690 252 672 249 651ZM431 481C433 483 434 486 432 489L418 504C416 506 413 507 410 504L96 233C94 231 93 228 95 226L109 209C111 207 113 206 117 209ZM438 198C439 205 439 206 439 209C439 244 412 271 375 271L352 271C312 271 274 238 268 198L246 61C245 55 245 54 245 50C245 14 272 -12 308 -12L331 -12C372 -12 410 20 416 61ZM382 61C378 38 358 22 336 22L313 22C292 22 276 38 280 61L302 198C305 219 326 237 347 237L370 237C392 237 407 219 404 198Z"/>
<glyph unicode="&#x26;" horiz-adv-x="528" d="M375 69C394 98 402 119 406 141L431 300C432 304 429 305 426 305L402 305C399 305 397 304 396 300L371 141C369 128 365 115 359 104L173 500C168 511 165 527 165 542C165 548 165 554 168 571C179 637 240 690 305 690L329 690C388 690 430 646 430 589C430 583 430 579 429 571L415 481C414 477 416 475 419 475L441 475C444 475 446 476 447 480L462 571C463 579 464 587 464 595C464 669 410 724 334 724L310 724C226 724 147 656 134 571C131 553 131 546 131 539C131 488 159 443 178 401C114 367 84 329 74 266L54 141C53 133 52 126 52 118C52 45 107 -12 183 -12L229 -12C266 -12 301 2 349 37L371 -6C372 -8 375 -10 378 -8L399 4C402 6 404 8 402 12ZM335 68C297 36 266 23 234 23L188 23C129 23 88 67 88 123C88 129 88 133 89 141L109 266C116 313 138 347 192 374Z"/>
<glyph unicode="&#x27;" horiz-adv-x="528" d="M370 707C371 710 368 712 365 712L275 712C272 712 269 710 268 707L254 615C253 612 256 610 259 610L322 610L318 583C312 548 280 520 244 520C241 520 239 518 238 515L234 492C234 489 236 487 239 487C293 487 343 530 351 583Z"/>
<glyph unicode="&#x28;" horiz-adv-x="528" d="M403 707C404 710 402 712 399 712L388 712C304 712 225 644 212 560L112 -75C111 -83 110 -91 110 -99C110 -172 164 -227 240 -227L251 -227C254 -227 256 -225 256 -222L260 -198C261 -195 259 -193 256 -193L245 -193C186 -193 143 -151 143 -95C143 -89 144 -82 145 -75L245 560C256 626 317 678 383 678L394 678C397 678 399 680 400 683Z"/>
<glyph unicode="&#x29;" horiz-adv-x="528" d="M232 683C231 680 233 678 236 678L247 678C306 678 349 636 349 580C349 574 348 567 347 560L247 -75C236 -141 175 -193 109 -193L98 -193C95 -193 93 -195 92 -198L88 -222C88 -225 90 -227 93 -227L104 -227C188 -227 267 -159 280 -75L380 560C381 568 382 576 382 584C382 657 328 712 252 712L241 712C238 712 236 710 235 707Z"/>
<glyph unicode="&#x2a;" horiz-adv-x="528" d="M414 675C417 678 416 680 414 682L395 694C393 695 390 695 387 692L298 572L247 692C246 695 243 695 239 694L218 682C214 680 213 678 214 675L265 555L125 555C122 555 119 553 119 550L115 526C114 523 117 521 120 521L260 521L171 401C169 398 169 396 172 394L190 382C193 381 196 381 198 384L287 504L338 384C340 381 343 381 346 382L368 394C371 396 373 398 371 401L320 521L460 521C463 521 466 523 467 526L471 550C471 553 468 555 465 555L325 555Z"/>
<glyph unicode="&#x2b;" horiz-adv-x="528" d="M391 266C391 269 389 272 386 272L268 272L286 391C287 394 285 396 282 396L258 396C255 396 253 394 252 391L234 272L116 272C113 272 109 269 109 266L105 243C105 240 107 237 110 237L228 237L209 119C209 116 210 113 213 113L237 113C240 113 243 116 243 119L262 237L380 237C383 237 387 240 387 243Z"/>
<glyph unicode="&#x2c;" horiz-adv-x="528" d="M274 97C275 100 272 102 269 102L179 102C176 102 173 100 172 97L158 5C157 2 160 0 163 0L226 0L222 -27C216 -62 184 -90 148 -90C145 -90 143 -92 142 -95L138 -118C138 -121 140 -123 143 -123C197 -123 247 -80 255 -27Z"/>
<glyph unicode="&#x2d;" horiz-adv-x="528" d="M359 237C362 237 364 238 365 242L369 267C370 271 367 272 364 272L137 272C134 272 132 271 131 267L127 242C126 238 129 237 132 237Z"/>
<glyph unicode="&#x2e;" horiz-adv-x="528" d="M274 96C275 100 272 102 269 102L179 102C176 102 173 100 172 96L157 6C156 2 159 0 162 0L252 0C255 0 258 1 259 6Z"/>
<glyph unicode="&#x2f;" horiz-adv-x="528" d="M479 705C482 710 479 712 475 712L451 712C448 712 446 711 445 709L49 8C46 3 49 0 53 0L77 0C80 0 82 2 83 4Z"/>
<glyph unicode="&#x30;" horiz-adv-x="528" d="M462 571C463 579 464 587 464 595C464 669 410 724 334 724L310 724C226 724 147 656 134 571L66 141C65 133 64 125 64 117C64 44 118 -12 194 -12L218 -12C302 -12 381 57 394 141ZM361 141C351 76 288 23 223 23L199 23C140 23 98 66 98 123C98 129 98 133 99 141L167 571C177 637 240 690 305 690L329 690C388 690 430 646 430 589C430 583 430 579 429 571Z"/>
<glyph unicode="&#x31;" horiz-adv-x="528" d="M410 29C411 33 409 34 406 34L252 34L359 708C359 711 357 712 354 712L315 712C313 712 311 711 310 710L155 557C152 554 152 551 154 549L168 536C170 534 174 533 177 536L321 677L219 34L42 34C39 34 37 33 36 29L32 5C32 2 34 0 37 0L400 0C403 0 405 1 406 5Z"/>
<glyph unicode="&#x32;" horiz-adv-x="528" d="M388 29C389 33 387 34 384 34L72 34C98 177 142 228 270 311C411 402 448 484 457 538L462 571C463 579 464 587 464 595C464 669 410 724 334 724L310 724C226 724 147 656 134 571L130 549C129 544 133 543 136 543L157 543C160 543 162 544 163 549L167 571C177 637 240 690 305 690L329 690C388 690 430 646 430 589C430 583 430 579 429 571L424 538C418 500 391 428 254 339C110 245 56 180 32 6C31 2 35 0 38 0L378 0C381 0 383 1 384 5Z"/>
<glyph unicode="&#x33;" horiz-adv-x="528" d="M429 289C430 297 431 304 431 312C431 384 377 442 301 442L262 442L474 663C476 665 477 667 477 669L483 707C483 710 482 712 479 712L184 712C181 712 179 711 178 707L175 683C175 680 176 679 179 679L449 679L231 456C229 454 228 453 227 449L222 413C221 409 224 407 227 407L295 407C354 407 395 363 395 307C395 301 395 297 394 289L371 141C361 76 299 23 234 23L188 23C129 23 88 67 88 123C88 129 88 137 93 164C94 168 91 170 88 170L64 170C61 170 59 169 58 165C53 133 52 126 52 118C52 45 107 -12 183 -12L229 -12C313 -12 393 57 406 141Z"/>
<glyph unicode="&#x34;" horiz-adv-x="528" d="M420 165C421 169 419 170 416 170L353 170L381 345C382 349 380 350 377 350L352 350C349 350 347 349 346 345L318 170L81 170L85 194L422 705C425 709 423 712 418 712L392 712C390 712 388 711 387 709L54 204L44 141C43 137 45 135 48 135L313 135L292 5C291 1 294 0 297 0L321 0C324 0 326 1 327 5L348 135L410 135C413 135 415 136 416 140Z"/>
<glyph unicode="&#x35;" horiz-adv-x="528" d="M421 311C422 319 423 327 423 335C423 409 369 464 293 464L269 464C226 464 184 445 153 417L207 679L463 679C466 679 468 680 469 683L473 708C473 711 471 712 468 712L184 712C181 712 179 711 178 707L103 346C102 341 104 340 107 340L129 340C132 340 134 341 136 346C158 396 214 430 264 430L288 430C347 430 389 386 389 329C389 323 389 319 388 311L361 141C351 76 288 23 223 23L199 23C140 23 98 66 98 123C98 129 98 138 102 164C103 168 101 170 98 170L75 170C72 170 70 168 69 164C65 133 64 125 64 117C64 44 118 -12 194 -12L218 -12C302 -12 381 57 394 141Z"/>
<glyph unicode="&#x36;" horiz-adv-x="528" d="M421 311C422 319 423 327 423 335C423 409 369 464 293 464L269 464C221 464 176 442 141 407L167 571C177 637 240 690 305 690L329 690C388 690 430 646 430 589C430 583 430 579 429 571C428 566 430 565 433 565L456 565C459 565 461 566 462 571C464 582 464 589 464 597C464 669 409 724 334 724L310 724C226 724 147 656 134 571L66 141C65 133 64 125 64 117C64 44 118 -12 194 -12L218 -12C302 -12 381 57 394 141ZM361 141C351 76 288 23 223 23L199 23C140 23 98 66 98 123C98 129 98 133 99 141L126 311C136 376 199 430 264 430L288 430C347 430 389 386 389 329C389 323 389 319 388 311Z"/>
<glyph unicode="&#x37;" horiz-adv-x="528" d="M495 707C496 711 493 712 490 712L149 712C146 712 144 711 143 707L140 685C139 680 142 679 145 679L456 679C436 560 375 501 303 406C231 313 149 193 95 7C93 1 96 0 99 0L121 0C124 0 126 1 127 5C182 185 260 298 329 389C393 473 472 558 488 661Z"/>
<glyph unicode="&#x38;" horiz-adv-x="528" d="M419 221C420 232 420 237 420 244C420 295 394 338 350 359C401 386 440 435 449 492L462 571C463 579 464 587 464 595C464 669 410 724 334 724L310 724C226 724 147 656 134 571L121 492C120 487 119 476 119 469C119 422 143 382 178 359C122 335 76 282 67 221L54 141C53 133 52 124 52 118C52 45 107 -12 183 -12L229 -12C313 -12 393 57 406 141ZM416 492C406 426 344 373 279 373L255 373C196 373 153 417 153 474C153 480 153 484 154 492L167 571C177 637 240 690 305 690L329 690C388 690 430 646 430 589C430 583 430 579 429 571ZM371 141C361 76 299 23 234 23L188 23C129 23 87 67 87 123C87 128 88 135 89 141L102 221C112 286 173 340 238 340L284 340C343 340 385 296 385 239C385 233 385 227 384 221Z"/>
<glyph unicode="&#x39;" horiz-adv-x="528" d="M462 571C463 579 464 587 464 595C464 669 410 724 334 724L310 724C226 724 147 656 134 571L107 401C106 393 105 386 105 378C105 306 159 249 235 249L259 249C307 249 352 271 387 305L361 141C351 76 288 23 223 23L211 23C152 23 110 66 110 123C110 129 110 133 111 141C112 146 109 147 106 147L84 147C81 147 78 146 77 141C76 133 75 126 75 118C75 45 130 -12 206 -12L218 -12C302 -12 381 57 394 141ZM402 401C392 336 329 283 264 283L240 283C181 283 139 326 139 383C139 389 139 393 140 401L167 571C177 637 240 690 305 690L329 690C388 690 430 646 430 589C430 583 430 579 429 571Z"/>
<glyph unicode="&#x3a;" horiz-adv-x="528" d="M274 96C275 100 272 102 269 102L179 102C176 102 173 100 172 96L157 6C156 2 159 0 162 0L252 0C255 0 258 1 259 6ZM332 458C333 462 330 464 327 464L237 464C234 464 231 462 230 458L215 368C214 364 217 362 220 362L310 362C313 362 316 363 317 368Z"/>
<glyph unicode="&#x3b;" horiz-adv-x="528" d="M332 458C333 462 330 464 327 464L237 464C234 464 231 462 230 458L215 368C214 364 217 362 220 362L310 362C313 362 316 363 317 368ZM274 97C275 100 272 102 269 102L179 102C176 102 173 100 172 97L158 5C157 2 160 0 163 0L226 0L222 -27C216 -62 184 -90 148 -90C145 -90 143 -92 142 -95L138 -118C138 -121 140 -123 143 -123C197 -123 247 -80 255 -27Z"/>
<glyph unicode="&#x3c;" horiz-adv-x="528" d="M121 264C119 262 118 262 117 258L113 228C113 226 113 224 115 222L291 46C292 45 294 44 296 44L328 44C334 44 338 50 333 55L147 243L393 431C400 436 398 442 392 442L359 442C356 442 354 441 353 440Z"/>
<glyph unicode="&#x3d;" horiz-adv-x="528" d="M380 199C381 202 378 205 375 205L105 205C102 205 99 204 98 200L94 176C93 172 95 170 99 170L369 170C372 170 375 171 376 175ZM402 334C403 337 400 340 397 340L127 340C124 340 121 339 120 335L116 311C115 307 117 305 121 305L391 305C394 305 397 306 398 310Z"/>
<glyph unicode="&#x3e;" horiz-adv-x="528" d="M201 440C200 441 199 442 196 442L164 442C158 442 154 436 159 431L345 243L99 55C92 50 94 44 100 44L133 44C136 44 138 45 139 46L371 222C373 224 374 224 375 228L379 258C379 260 380 261 377 264Z"/>
<glyph unicode="&#x3f;" horiz-adv-x="528" d="M462 571C463 579 464 587 464 595C464 669 410 724 334 724L310 724C226 724 147 656 134 571L130 549C129 544 132 543 136 543L157 543C161 543 162 544 163 549L167 571C177 637 240 690 305 690L329 690C388 690 430 646 430 589C430 583 430 579 429 571L425 549C419 509 401 457 306 393C225 339 214 291 205 231C204 227 206 226 209 226L232 226C235 226 237 226 238 231C248 285 254 322 321 366C427 437 450 498 458 549ZM251 96C252 100 249 102 246 102L156 102C153 102 150 100 149 96L134 6C133 2 136 0 139 0L229 0C232 0 235 1 236 6Z"/>
<glyph unicode="&#x40;" horiz-adv-x="528" d="M484 571C485 579 486 587 486 595C486 669 432 724 356 724L299 724C215 724 135 656 122 571L118 549C117 544 120 543 124 543L146 543C150 543 152 544 153 549L157 571C167 637 229 690 294 690L351 690C411 690 452 646 452 589C452 583 452 579 451 571L372 74C368 45 341 23 313 23C288 23 269 40 269 65C269 67 269 68 270 74L335 481C336 485 333 487 330 487L308 487C304 487 302 485 301 481L298 462C279 484 251 498 218 498C153 498 92 444 82 379L39 108C38 101 37 94 37 88C37 31 80 -12 138 -12C176 -12 214 7 239 35C249 8 275 -12 308 -12C355 -12 398 27 405 74ZM242 108C234 60 190 23 143 23C101 23 71 53 71 94C71 99 71 101 72 108L115 379C122 426 166 464 213 464C256 464 286 433 286 392C286 388 286 385 285 379Z"/>
<glyph unicode="&#x41;" horiz-adv-x="528" d="M414 269L368 707C368 710 366 712 363 712L278 712C275 712 273 711 272 708L86 269L44 6C43 2 46 0 49 0L71 0C74 0 76 1 77 5L116 249L378 249L339 6C338 2 341 0 344 0L366 0C369 0 371 1 372 5ZM377 283L127 283L294 679L336 679Z"/>
<glyph unicode="&#x42;" horiz-adv-x="528" d="M427 221C428 229 429 236 429 244C429 295 403 338 360 359C411 386 449 435 458 492L469 560C470 568 471 576 471 584C471 657 417 712 340 712L170 712C167 712 165 711 164 707L53 6C52 2 54 0 57 0L240 0C324 0 402 68 416 153ZM383 153C372 87 310 34 245 34L92 34L140 340L293 340C352 340 395 296 395 239C395 233 395 229 394 221ZM424 492C414 426 353 373 287 373L146 373L194 679L335 679C394 679 437 637 437 580C437 574 436 567 435 560Z"/>
<glyph unicode="&#x43;" horiz-adv-x="528" d="M409 164C409 169 407 170 404 170L381 170C378 170 375 169 374 164L371 141C361 76 299 23 234 23L199 23C140 23 98 66 98 123C98 129 98 133 99 141L167 571C177 637 240 690 305 690L340 690C399 690 440 646 440 589C440 583 440 577 437 560C436 556 439 554 442 554L465 554C468 554 471 555 472 560C475 579 476 587 476 595C476 669 421 724 345 724L310 724C226 724 147 656 134 571L66 141C65 133 64 125 64 117C64 44 118 -12 194 -12L229 -12C313 -12 393 57 406 141Z"/>
<glyph unicode="&#x44;" horiz-adv-x="528" d="M469 560C470 568 471 576 471 584C471 657 417 712 340 712L170 712C167 712 165 711 164 707L53 6C52 2 55 0 58 0L228 0C313 0 391 68 405 153ZM371 153C360 87 299 34 233 34L92 34L194 679L335 679C394 679 437 637 437 580C437 574 436 567 435 560Z"/>
<glyph unicode="&#x45;" horiz-adv-x="528" d="M388 29C389 33 387 34 384 34L94 34L142 339L409 339C412 339 414 340 415 344L419 368C420 372 418 373 415 373L148 373L196 678L486 678C489 678 491 679 492 683L495 707C496 712 492 712 490 712L172 712C169 712 167 711 166 707L55 5C54 1 57 0 60 0L378 0C381 0 383 1 384 5Z"/>
<glyph unicode="&#x46;" horiz-adv-x="528" d="M505 707C506 711 504 712 501 712L184 712C181 712 179 711 178 707L67 5C66 1 69 0 72 0L94 0C97 0 99 1 100 5L153 340L420 340C423 340 425 341 426 345L430 368C431 372 429 373 426 373L159 373L207 679L496 679C499 679 501 680 502 684Z"/>
<glyph unicode="&#x47;" horiz-adv-x="528" d="M436 368C437 373 433 373 431 373L285 373C282 373 279 372 278 368L274 344C273 340 275 339 278 339L396 339L365 141C355 76 294 22 228 22L194 22C134 22 93 66 93 122C93 128 94 135 95 141L163 571C173 636 234 690 300 690L334 690C394 690 434 646 434 590C434 584 434 576 431 559C430 555 432 554 435 554L460 554C463 554 465 555 466 559C469 579 470 587 470 595C470 669 416 724 339 724L305 724C220 724 141 656 128 571L60 141C59 133 58 125 58 117C58 44 112 -12 189 -12L223 -12C308 -12 387 57 400 141Z"/>
<glyph unicode="&#x48;" horiz-adv-x="528" d="M483 707C484 711 482 712 479 712L456 712C453 712 451 712 450 708L397 372L135 372L188 707C189 711 187 712 184 712L161 712C158 712 156 711 155 707L44 5C43 1 46 0 49 0L71 0C74 0 76 1 77 5L130 339L392 339L339 5C338 1 341 0 344 0L366 0C369 0 371 1 372 5Z"/>
<glyph unicode="&#x49;" horiz-adv-x="528" d="M32 5C32 1 34 0 37 0L378 0C381 0 383 1 384 5L388 29C389 33 387 34 384 34L230 34L332 678L473 678C476 678 479 679 480 683L483 707C484 711 482 712 479 712L161 712C158 712 156 711 155 707L152 683C151 679 153 678 156 678L298 678L196 34L42 34C39 34 37 33 36 29Z"/>
<glyph unicode="&#x4a;" horiz-adv-x="528" d="M473 708C473 711 471 712 468 712L194 712C191 712 189 711 188 707L185 682C185 679 187 678 190 678L434 678L349 141C339 76 276 22 211 22L188 22C129 22 88 67 88 123C88 129 88 137 89 141L98 198C99 202 96 204 93 204L70 204C67 204 64 203 63 199L54 141C53 133 52 126 52 118C52 45 107 -12 183 -12L206 -12C290 -12 370 57 383 141Z"/>
<glyph unicode="&#x4b;" horiz-adv-x="528" d="M221 377L505 704C509 708 507 712 502 712L475 712C472 712 471 711 470 710L127 319L188 707C189 710 187 712 184 712L161 712C158 712 156 711 155 707L44 5C43 1 46 0 49 0L71 0C74 0 76 1 77 5L118 260L196 348L381 3C382 1 383 0 387 0L413 0C419 0 421 5 419 9Z"/>
<glyph unicode="&#x4c;" horiz-adv-x="528" d="M398 29C399 32 397 34 394 34L129 34L235 707C236 711 234 712 231 712L206 712C203 712 201 711 200 707L89 6C88 2 91 0 94 0L388 0C391 0 393 1 394 5Z"/>
<glyph unicode="&#x4d;" horiz-adv-x="528" d="M505 707C506 710 504 712 501 712L459 712C456 712 454 711 452 707L263 352L186 707C185 711 183 712 180 712L139 712C136 712 134 711 133 707L22 5C21 1 24 0 27 0L49 0C52 0 54 1 55 5L159 662L234 321C235 318 237 317 239 317L276 317C278 317 280 317 282 321L465 662L361 5C360 1 363 0 366 0L388 0C391 0 393 1 394 5Z"/>
<glyph unicode="&#x4e;" horiz-adv-x="528" d="M483 707C484 710 482 712 479 712L456 712C454 712 451 712 450 708L347 51L209 707C208 711 206 712 203 712L162 712C159 712 156 711 155 707L44 5C43 1 45 0 48 0L71 0C74 0 76 1 77 5L181 662L319 4C320 1 321 0 325 0L365 0C368 0 371 1 372 5Z"/>
<glyph unicode="&#x4f;" horiz-adv-x="528" d="M468 571C469 579 470 587 470 595C470 669 416 724 339 724L305 724C220 724 141 656 128 571L60 141C59 132 58 124 58 116C58 43 113 -12 189 -12L223 -12C308 -12 386 56 400 141ZM365 141C354 75 294 22 228 22L194 22C135 22 93 65 93 121C93 127 94 134 95 141L163 571C173 637 234 690 300 690L334 690C394 690 435 647 435 590C435 584 434 577 433 571Z"/>
<glyph unicode="&#x50;" horiz-adv-x="528" d="M469 560C470 568 471 576 471 584C471 657 417 712 340 712L170 712C167 712 165 711 164 707L53 5C52 1 55 0 58 0L81 0C84 0 86 1 87 5L126 249L267 249C352 249 431 318 444 401ZM410 401C400 336 338 283 272 283L131 283L194 679L335 679C394 679 437 637 437 580C437 574 436 567 435 560Z"/>
<glyph unicode="&#x51;" horiz-adv-x="528" d="M393 -12C395 -10 396 -7 394 -5L351 46C376 72 394 106 400 141L468 571C469 579 470 587 470 595C470 669 416 724 339 724L305 724C220 724 141 656 128 571L60 141C59 133 58 125 58 117C58 44 112 -12 189 -12L223 -12C259 -12 294 1 323 22L366 -29C368 -31 372 -31 374 -29ZM365 141C361 115 349 90 331 70L264 150C262 152 259 153 255 150L238 134C234 131 235 128 236 126L303 46C281 32 254 23 228 23L194 23C134 23 93 66 93 122C93 128 94 135 95 141L163 571C173 637 234 690 300 690L334 690C394 690 434 647 434 590C434 584 434 577 433 571Z"/>
<glyph unicode="&#x52;" horiz-adv-x="528" d="M469 560C470 568 471 576 471 584C471 657 417 712 340 712L170 712C167 712 165 711 164 707L53 5C52 1 55 0 58 0L81 0C84 0 86 1 87 5L126 249L279 249L343 4C344 1 345 0 349 0L373 0C378 0 381 4 380 8L314 255C379 276 433 333 444 401ZM410 401C400 336 338 283 272 283L131 283L194 678L335 678C394 678 437 637 437 580C437 574 436 567 435 560Z"/>
<glyph unicode="&#x53;" horiz-adv-x="528" d="M411 176C413 190 414 198 414 208C414 282 367 322 307 358C247 394 160 431 160 516C160 523 161 530 162 538L167 571C177 637 240 690 305 690L329 690C388 690 430 646 430 589C430 583 430 577 427 559C426 555 428 554 431 554L454 554C457 554 459 555 460 559C463 579 464 587 464 595C464 669 410 724 334 724L310 724C226 724 147 656 134 571L129 538C127 523 127 518 127 509C127 343 378 355 378 201C378 193 377 185 376 176L371 141C361 76 299 23 234 23L188 23C129 23 88 67 88 123C88 129 88 135 91 153C92 157 89 158 86 158L62 158C59 158 57 157 56 153C53 133 52 126 52 118C52 45 107 -12 183 -12L229 -12C313 -12 393 57 406 141Z"/>
<glyph unicode="&#x54;" horiz-adv-x="528" d="M505 707C506 711 504 712 501 712L138 712C134 712 133 709 133 708L130 682C130 679 132 678 134 678L298 678L191 5C190 1 193 0 196 0L219 0C222 0 224 1 225 5L332 678L496 678C499 678 501 679 502 683Z"/>
<glyph unicode="&#x55;" horiz-adv-x="528" d="M483 707C484 711 482 712 479 712L456 712C453 712 451 711 450 707L361 141C351 76 288 22 223 22L199 22C140 22 98 66 98 123C98 129 98 133 99 141L188 707C189 711 187 712 184 712L161 712C158 712 156 710 156 707L66 141C65 133 64 125 64 117C64 44 118 -12 194 -12L218 -12C302 -12 381 57 394 141Z"/>
<glyph unicode="&#x56;" horiz-adv-x="528" d="M498 706C500 710 498 712 494 712L471 712C468 712 466 711 465 708L215 45L175 707C175 710 173 712 170 712L146 712C142 712 140 710 140 706L181 5C181 1 184 0 187 0L228 0C231 0 233 2 234 5Z"/>
<glyph unicode="&#x57;" horiz-adv-x="528" d="M80 377L67 5C67 1 70 0 73 0L113 0C115 0 118 0 120 5L264 358L296 5C296 1 299 0 302 0L343 0C346 0 348 1 349 5L454 377L517 707C518 711 515 712 512 712L489 712C486 712 484 711 483 707L422 380L327 49L297 392C297 394 295 396 292 396L249 396C246 396 244 395 243 392L103 49L114 380L155 707C156 711 154 712 151 712L128 712C125 712 122 711 121 707Z"/>
<glyph unicode="&#x58;" horiz-adv-x="528" d="M284 369L491 705C494 709 491 712 486 712L461 712C459 712 457 711 456 709L272 410L184 709C183 712 181 712 179 712L154 712C149 712 146 709 147 705L248 369L27 8C24 4 26 0 30 0L55 0C57 0 59 1 60 3L259 327L356 3C357 0 359 0 361 0L386 0C390 0 393 3 391 8Z"/>
<glyph unicode="&#x59;" horiz-adv-x="528" d="M490 705C493 710 490 712 485 712L461 712C458 712 456 711 455 709L265 364L185 709C184 712 182 712 179 712L155 712C150 712 147 710 148 705L240 313L191 5C190 1 193 0 196 0L220 0C222 0 224 0 225 4L274 313Z"/>
<glyph unicode="&#x5a;" horiz-adv-x="528" d="M388 29C389 33 387 34 384 34L81 34L471 658C476 666 477 669 478 673L483 707C484 711 482 712 479 712L172 712C169 712 167 711 166 707L163 684C162 680 164 679 167 679L446 679L58 55C52 45 50 43 49 35L44 6C43 2 46 0 49 0L379 0C380 0 383 0 384 4Z"/>
<glyph unicode="&#x5b;" horiz-adv-x="528" d="M260 -198C261 -195 259 -193 256 -193L126 -193L264 679L394 679C397 679 399 680 400 684L403 707C404 711 402 712 399 712L241 712C238 712 236 711 235 707L88 -221C87 -225 89 -227 92 -227L250 -227C253 -227 255 -226 256 -222Z"/>
<glyph unicode="&#x5c;" horiz-adv-x="528" d="M333 4C334 1 336 0 339 0L363 0C367 0 370 3 369 8L195 708C194 711 192 712 189 712L165 712C161 712 158 710 159 705Z"/>
<glyph unicode="&#x5d;" horiz-adv-x="528" d="M88 -222C87 -226 90 -227 93 -227L250 -227C253 -227 255 -226 256 -221L403 707C404 710 402 712 399 712L241 712C238 712 236 711 235 707L232 684C231 680 233 679 236 679L366 679L228 -193L98 -193C95 -193 93 -194 92 -198Z"/>
<glyph unicode="&#x5e;" horiz-adv-x="528" d="M98 348C95 343 97 340 102 340L125 340C128 340 130 341 131 343L316 684L393 343C394 340 396 340 397 340L420 340C425 340 429 343 428 348L347 709C346 712 344 712 341 712L299 712C296 712 294 711 293 709Z"/>
<glyph unicode="&#x5f;" horiz-adv-x="528" d="M376 29C377 33 375 34 372 34L54 34C51 34 49 33 48 29L44 5C43 1 46 0 49 0L366 0C369 0 371 1 372 5Z"/>
<glyph unicode="&#x60;" horiz-adv-x="528" d="M353 568C355 566 357 565 360 565L384 565C390 565 392 570 389 574L333 664C331 667 329 667 326 667L283 667C277 667 274 661 278 657Z"/>
<glyph unicode="&#x61;" horiz-adv-x="528" d="M437 481C438 485 435 487 432 487L409 487C406 487 403 485 402 481L396 441C373 476 334 498 286 498L264 498C180 498 99 429 86 345L55 141C54 133 53 125 53 117C53 44 107 -12 183 -12L205 -12C256 -12 304 12 338 50C343 21 368 0 400 0L411 0C414 0 417 2 418 6L421 28C422 32 420 34 417 34L405 34C386 34 368 52 372 74ZM381 345L348 141C338 76 276 23 211 23L188 23C130 23 87 66 87 123C87 129 87 135 88 141L121 345C132 411 193 464 258 464L281 464C340 464 382 420 382 364C382 358 382 351 381 345Z"/>
<glyph unicode="&#x62;" horiz-adv-x="528" d="M435 345C436 353 437 361 437 369C437 442 383 498 306 498L284 498C236 498 190 476 156 441L198 707C199 711 197 712 194 712L170 712C167 712 165 711 164 707L53 5C52 1 55 0 58 0L81 0C84 0 86 1 87 5L94 45C116 11 156 -12 204 -12L226 -12C311 -12 390 57 403 141ZM369 141C359 76 297 23 231 23L209 23C149 23 108 67 108 123C108 129 108 134 109 141L141 345C152 411 213 464 279 464L301 464C360 464 403 422 403 365C403 359 402 352 401 345Z"/>
<glyph unicode="&#x63;" horiz-adv-x="528" d="M393 142C393 146 392 147 389 147L366 147C363 147 361 146 360 142L358 131C343 70 284 22 223 22L199 22C140 22 98 66 98 123C98 129 98 133 99 141L131 345C142 411 204 464 269 464L293 464C351 464 394 426 394 365C394 362 394 359 393 349C393 345 395 344 397 344L420 344C423 344 425 345 426 349C428 363 428 371 428 378C428 448 370 498 298 498L274 498C190 498 111 429 98 345L66 141C65 133 64 125 64 117C64 44 118 -12 194 -12L218 -12C297 -12 378 50 391 131Z"/>
<glyph unicode="&#x64;" horiz-adv-x="528" d="M474 707C475 710 473 712 470 712L446 712C443 712 441 711 440 707L398 441C376 476 336 498 288 498L266 498C181 498 102 429 89 345L57 141C56 133 55 125 55 117C55 44 109 -12 186 -12L208 -12C256 -12 302 11 336 45L329 5C328 1 331 0 334 0L358 0C360 0 362 1 363 5ZM351 141C341 76 279 22 213 22L191 22C131 22 89 67 89 121C89 127 90 135 91 141L123 345C134 411 195 464 261 464L283 464C342 464 385 422 385 365C385 359 384 352 383 345Z"/>
<glyph unicode="&#x65;" horiz-adv-x="528" d="M426 345C427 353 428 361 428 369C428 442 374 498 298 498L274 498C190 498 111 429 98 345L66 141C65 133 64 125 64 117C64 44 118 -12 194 -12L218 -12C284 -12 345 30 378 90C380 94 378 96 375 97L354 104C351 105 348 103 346 100C322 55 273 22 223 22L199 22C140 22 98 66 98 123C98 129 98 133 99 141L112 227L402 227C405 227 407 228 408 232ZM380 261L118 261L131 345C142 411 204 464 269 464L293 464C352 464 395 421 395 364C395 358 394 352 393 345Z"/>
<glyph unicode="&#x66;" horiz-adv-x="528" d="M530 571C532 584 532 590 532 599C532 669 489 724 412 724L379 724C292 724 227 654 214 571L197 464L110 464C107 464 105 463 104 459L100 435C99 431 102 430 105 430L192 430L129 34L32 34C29 34 27 33 26 29L22 5C22 2 24 0 27 0L355 0C358 0 360 1 361 5L365 29C366 33 364 34 361 34L162 34L225 430L354 430C357 430 359 431 360 435L364 459C365 463 362 464 360 464L230 464L247 571C258 639 310 690 374 690L407 690C464 690 498 651 498 595C498 587 497 579 496 571L491 537C490 533 492 532 495 532L519 532C522 532 524 533 525 537Z"/>
<glyph unicode="&#x67;" horiz-adv-x="528" d="M439 482C440 486 438 487 435 487L411 487C408 487 406 486 405 482L398 441C376 476 336 498 288 498L266 498C181 498 102 429 89 345L57 141C56 133 55 125 55 117C55 44 109 -12 186 -12L208 -12C256 -12 302 11 336 45L315 -84C304 -151 243 -204 177 -204L155 -204C126 -204 101 -193 83 -177C81 -175 78 -174 74 -177L57 -193C55 -195 54 -198 57 -201C80 -225 111 -238 150 -238L172 -238C256 -238 336 -169 349 -84ZM351 141C341 76 279 22 213 22L191 22C131 22 90 67 90 123C90 129 90 135 91 141L123 345C134 411 195 464 261 464L283 464C342 464 385 422 385 365C385 359 384 352 383 345Z"/>
<glyph unicode="&#x68;" horiz-adv-x="528" d="M431 345C432 353 433 360 433 368C433 441 378 498 301 498L279 498C231 498 185 476 151 441L193 707C194 711 192 712 189 712L166 712C163 712 161 711 160 707L49 5C48 1 51 0 54 0L77 0C80 0 82 2 82 5L136 345C147 411 209 464 274 464L296 464C356 464 398 421 398 365C398 359 397 352 396 345L342 5C341 1 344 0 347 0L371 0C374 0 376 1 377 5Z"/>
<glyph unicode="&#x69;" horiz-adv-x="528" d="M381 697C382 701 380 702 377 702L307 702C304 702 302 701 301 697L290 628C289 624 292 622 295 622L364 622C367 622 369 623 370 627ZM421 29C422 33 420 34 417 34L264 34L335 481C336 485 333 487 330 487L149 487C146 487 144 486 143 482L139 458C138 454 140 453 143 453L296 453L230 34L32 34C29 34 27 33 26 29L22 5C21 1 24 0 27 0L412 0C415 0 417 2 417 5Z"/>
<glyph unicode="&#x6a;" horiz-adv-x="528" d="M392 481C393 486 390 487 387 487L160 487C157 487 154 486 153 482L149 459C148 455 151 453 154 453L353 453L268 -84C258 -151 195 -204 130 -204C71 -204 29 -160 29 -102C29 -96 29 -90 30 -84L37 -39C38 -35 36 -34 33 -34L9 -34C6 -34 4 -35 3 -39L-4 -84C-5 -92 -6 -100 -6 -108C-6 -182 48 -238 125 -238C209 -238 289 -169 302 -84ZM437 697C437 700 436 702 433 702L363 702C360 702 357 700 357 697L346 627C345 624 348 622 351 622L420 622C423 622 425 624 426 627Z"/>
<glyph unicode="&#x6b;" horiz-adv-x="528" d="M219 287L439 477C444 481 443 487 437 487L406 487C404 487 401 486 399 484L114 239L188 707C189 711 186 712 184 712L161 712C158 712 156 711 155 707L44 4C44 1 46 0 49 0L72 0C75 0 77 2 77 5L107 191L191 263L358 3C360 0 362 0 365 0L392 0C398 0 400 5 397 10Z"/>
<glyph unicode="&#x6c;" horiz-adv-x="528" d="M421 29C422 33 420 34 417 34L252 34L359 708C359 711 357 712 354 712L172 712C169 712 167 711 166 707L163 683C162 679 165 678 167 678L321 678L219 34L20 34C17 34 15 33 14 29L10 5C9 1 12 0 15 0L411 0C414 0 416 1 417 5Z"/>
<glyph unicode="&#x6d;" horiz-adv-x="528" d="M467 391C468 397 469 402 469 408C469 458 430 498 376 498C339 498 302 478 278 448C264 478 233 498 196 498C167 498 140 487 118 468L120 481C121 485 118 487 115 487L93 487C90 487 87 486 86 482L10 5C10 2 12 0 15 0L38 0C41 0 43 1 44 5L105 391C111 431 149 464 191 464C227 464 253 437 253 402C253 398 253 397 252 391L191 5C190 1 193 0 196 0L219 0C222 0 224 1 225 5L286 391C292 431 331 464 371 464C409 464 434 437 434 402C434 398 434 397 433 391L372 5C372 2 374 0 377 0L400 0C403 0 405 1 406 5Z"/>
<glyph unicode="&#x6e;" horiz-adv-x="528" d="M431 345C432 353 433 360 433 368C433 441 378 498 301 498L279 498C231 498 185 476 151 441L158 482C159 486 157 487 154 487L131 487C128 487 126 486 125 482L49 5C49 2 51 0 54 0L76 0C79 0 81 1 82 5L136 345C147 411 209 464 274 464L296 464C356 464 398 421 398 365C398 359 397 352 396 345L342 5C341 1 344 0 347 0L371 0C374 0 376 1 377 5Z"/>
<glyph unicode="&#x6f;" horiz-adv-x="528" d="M426 345C427 353 428 361 428 369C428 442 374 498 298 498L274 498C190 498 111 429 98 345L66 141C65 133 64 125 64 117C64 44 118 -12 194 -12L218 -12C302 -12 381 57 394 141ZM361 141C350 75 288 22 223 22L199 22C140 22 97 65 97 122C97 128 98 134 99 141L131 345C142 411 204 464 269 464L293 464C352 464 395 421 395 364C395 358 394 352 393 345Z"/>
<glyph unicode="&#x70;" horiz-adv-x="528" d="M435 345C436 353 437 361 437 369C437 442 383 498 306 498L284 498C236 498 190 476 156 441L163 482C164 486 161 487 159 487L135 487C132 487 130 486 129 482L17 -222C17 -225 19 -227 22 -227L45 -227C48 -227 50 -226 51 -222L94 45C116 11 156 -12 204 -12L226 -12C311 -12 390 57 403 141ZM369 141C359 76 297 23 231 23L209 23C149 23 108 67 108 123C108 129 108 135 109 141L141 345C152 411 213 464 279 464L301 464C360 464 403 422 403 365C403 359 402 352 401 345Z"/>
<glyph unicode="&#x71;" horiz-adv-x="528" d="M439 482C440 486 438 487 435 487L411 487C408 487 406 486 405 482L398 441C376 476 336 498 288 498L266 498C181 498 102 429 89 345L57 141C56 133 55 125 55 117C55 44 109 -12 186 -12L208 -12C256 -12 302 11 336 45L293 -222C293 -225 295 -227 298 -227L321 -227C324 -227 326 -226 327 -222ZM351 141C341 76 279 23 213 23L191 23C131 23 90 67 90 123C90 129 90 135 91 141L123 345C134 411 195 464 261 464L283 464C342 464 385 422 385 365C385 359 384 352 383 345Z"/>
<glyph unicode="&#x72;" horiz-adv-x="528" d="M448 345C449 353 450 361 450 369C450 440 399 498 320 498L298 498C209 498 134 426 121 345L72 34L-14 34C-17 34 -19 33 -20 29L-24 6C-25 2 -22 0 -19 0L297 0C300 0 303 2 304 6L308 28C309 32 306 34 303 34L105 34L154 345C165 416 231 464 293 464L315 464C370 464 417 424 417 364C417 358 416 352 415 345L403 271C403 268 405 266 408 266L430 266C433 266 435 267 436 271Z"/>
<glyph unicode="&#x73;" horiz-adv-x="528" d="M404 131C405 138 405 144 405 150C405 286 145 237 145 348C145 352 145 355 146 361C156 424 214 464 281 464L293 464C354 464 396 427 396 373C396 367 396 362 395 356C394 353 396 350 399 350L421 350C424 350 427 352 428 356C429 365 430 373 430 381C430 453 372 498 298 498L286 498C203 498 125 446 112 361C111 354 110 347 110 341C110 205 370 252 370 143C370 139 370 137 369 131C358 67 301 23 234 23L199 23C138 23 96 58 96 113C96 119 96 124 99 142C100 146 98 147 95 147L73 147C70 147 67 146 66 142C62 125 62 115 62 107C62 34 120 -12 194 -12L229 -12C311 -12 392 44 404 131Z"/>
<glyph unicode="&#x74;" horiz-adv-x="528" d="M418 153C419 157 417 158 414 158L391 158C388 158 386 157 385 153L383 141C373 76 311 22 245 22C185 22 145 66 145 122C145 128 145 133 146 141L192 430L411 430C414 430 416 431 417 435L421 459C422 463 419 464 417 464L197 464L235 707C236 712 233 712 231 712L206 712C203 712 201 711 200 707L162 464L78 464C75 464 72 463 71 459L67 435C67 432 69 430 72 430L157 430L111 141C110 133 109 125 109 117C109 44 163 -12 240 -12C324 -12 403 57 416 141Z"/>
<glyph unicode="&#x75;" horiz-adv-x="528" d="M443 482C444 486 442 487 439 487L416 487C413 487 411 486 410 482L356 141C346 76 283 22 218 22L196 22C135 22 95 66 95 122C95 128 95 134 96 141L150 482C151 486 149 487 146 487L121 487C118 487 116 486 115 482L61 141C60 133 59 126 59 118C59 45 114 -12 191 -12L213 -12C261 -12 307 11 341 45L334 5C333 1 336 0 339 0L361 0C364 0 366 1 367 5Z"/>
<glyph unicode="&#x76;" horiz-adv-x="528" d="M474 479C477 484 474 487 471 487L447 487C445 487 442 487 440 483L213 36L128 483C127 487 125 487 123 487L99 487C95 487 91 483 92 479L183 4C184 1 187 0 189 0L227 0C229 0 231 0 233 4Z"/>
<glyph unicode="&#x77;" horiz-adv-x="528" d="M471 481C472 486 470 487 466 487L445 487C441 487 439 485 438 481L393 268L314 35L287 346C287 348 285 350 282 350L242 350C240 350 238 349 237 347L112 35L107 268L130 481C131 486 128 487 125 487L104 487C100 487 98 486 97 481L72 264L78 5C79 1 81 0 84 0L127 0C130 0 132 1 133 4L256 307L283 5C283 1 286 0 288 0L332 0C334 0 336 0 338 5L426 264Z"/>
<glyph unicode="&#x78;" horiz-adv-x="528" d="M29 9C25 4 28 0 33 0L60 0C61 0 63 0 65 3L243 221L351 3C352 1 354 0 356 0L383 0C388 0 391 4 389 9L267 252L452 478C456 482 455 487 449 487L422 487C420 487 418 487 416 484L252 282L152 484C151 486 150 487 148 487L121 487C115 487 112 482 114 478L227 252Z"/>
<glyph unicode="&#x79;" horiz-adv-x="528" d="M444 479C446 483 445 487 441 487L419 487C417 487 414 486 413 483L227 57L165 483C165 486 163 487 161 487L137 487C133 487 128 485 129 479L200 -2L165 -76C134 -142 86 -147 14 -147L3 -147C0 -147 -2 -148 -3 -152L-6 -176C-7 -180 -5 -181 -2 -181L9 -181C94 -181 159 -173 200 -79Z"/>
<glyph unicode="&#x7a;" horiz-adv-x="528" d="M388 29C389 32 387 34 384 34L82 34L439 439C441 441 441 442 442 445L448 481C449 485 446 487 443 487L137 487C134 487 132 486 131 482L127 457C126 453 128 452 131 452L414 452L53 47C52 46 51 45 50 42L44 5C44 2 46 0 49 0L378 0C381 0 383 1 384 5Z"/>
<glyph unicode="&#x7b;" horiz-adv-x="528" d="M317 -197C318 -194 316 -192 313 -192L302 -192C243 -192 200 -149 200 -93C200 -87 201 -81 202 -74L231 108C232 115 233 122 233 129C233 179 205 221 170 243C218 269 265 320 274 379L302 560C312 626 374 679 440 679L451 679C454 679 456 680 457 684L460 707C461 711 459 712 456 712L445 712C360 712 281 644 268 560L240 379C230 313 160 260 113 260C110 260 108 259 107 255L103 232C102 228 105 227 107 227C150 227 198 182 198 124C198 119 198 113 197 108L168 -74C167 -82 166 -89 166 -97C166 -169 220 -227 297 -227L308 -227C310 -227 312 -226 313 -222Z"/>
<glyph unicode="&#x7c;" horiz-adv-x="528" d="M336 707C337 710 335 712 332 712L308 712C305 712 303 711 302 707L155 -222C154 -226 157 -227 160 -227L183 -227C186 -227 188 -226 189 -222Z"/>
<glyph unicode="&#x7d;" horiz-adv-x="528" d="M47 -227C132 -227 211 -157 224 -74L253 108C263 174 332 227 379 227C382 227 384 228 385 232L389 255C390 259 388 260 385 260C342 260 295 305 295 363C295 368 295 373 296 379L324 560C325 568 326 576 326 584C326 657 272 712 195 712L184 712C181 712 179 711 178 707L175 684C174 680 176 679 179 679L190 679C250 679 291 635 291 578C291 572 291 569 290 560L262 379C261 372 260 364 260 357C260 307 287 266 322 243C274 218 228 167 219 108L190 -74C179 -139 118 -192 52 -192L41 -192C38 -192 36 -193 35 -197L31 -222C30 -226 33 -227 36 -227Z"/>
<glyph unicode="&#x7e;" horiz-adv-x="528" d="M429 290C429 294 427 295 425 295L400 295C397 295 394 294 394 290C390 248 356 228 330 228C308 228 286 240 262 267C230 302 200 317 171 317C118 317 72 273 66 220C65 216 68 215 71 215L95 215C98 215 100 216 101 220C107 261 140 282 166 282C188 282 210 270 234 243C265 208 296 193 325 193C378 193 425 238 429 290Z"/>
<glyph unicode="&#xa0;" horiz-adv-x="528" />
<glyph unicode="&#xa1;" horiz-adv-x="528" d="M265 255C266 259 263 260 261 260L237 260C234 260 232 259 231 255L155 -222C154 -226 157 -227 160 -227L183 -227C186 -227 188 -226 189 -222ZM218 391C217 387 220 385 223 385L313 385C316 385 319 387 320 391L335 481C336 485 333 487 330 487L240 487C237 487 234 485 233 481Z"/>
<glyph unicode="&#xa2;" horiz-adv-x="528" d="M393 142C393 145 391 147 388 147L366 147C363 147 361 146 360 142L358 131C345 70 284 23 223 23L199 23C183 23 168 26 154 33L365 436C385 414 394 390 394 364C394 359 394 358 393 349C393 345 394 344 397 344L420 344C423 344 425 345 426 349C428 363 428 369 428 376C428 415 411 448 383 470L416 535C418 538 417 541 414 542L394 550C391 551 388 551 386 547L355 487C338 493 318 498 298 498L274 498C190 498 111 429 98 345L66 141C65 133 64 125 64 117C64 76 81 41 110 17L76 -49C74 -52 75 -55 78 -56L98 -63C100 -64 104 -64 106 -60L138 1C154 -7 173 -12 194 -12L218 -12C297 -12 378 50 391 131ZM128 51C109 69 97 94 97 123C97 129 98 135 99 141L131 345C142 411 204 464 269 464L293 464C309 464 325 461 338 454Z"/>
<glyph unicode="&#xa3;" horiz-adv-x="528" d="M400 0C403 0 405 1 406 5L410 29C411 33 409 34 406 34L60 34C99 62 128 105 136 153L165 340L363 340C366 340 369 341 370 345L374 368C375 372 372 373 369 373L171 373L202 571C212 637 274 690 340 690L362 690C421 690 464 647 464 590C464 584 463 577 462 571L449 492C448 488 451 487 454 487L478 487C481 487 483 489 483 492L496 571C497 579 498 587 498 595C498 669 444 724 367 724L345 724C261 724 180 656 167 571L136 373L74 373C71 373 69 372 68 368L64 345C63 341 66 340 69 340L130 340L101 153C90 87 30 34 -36 34C-39 34 -41 33 -42 29L-46 5C-47 1 -44 0 -41 0Z"/>
<glyph unicode="&#xa4;" horiz-adv-x="528" d="M98 144C94 141 94 138 96 135L111 119C112 118 113 118 114 118C115 118 117 119 118 120L135 135C158 114 189 102 225 102C261 102 296 114 325 135L338 120C339 119 341 118 342 118C343 118 344 118 345 119L364 135C368 138 368 141 366 144L353 159C378 185 396 218 402 255C403 264 404 272 404 280C404 307 397 332 384 352L398 364C401 367 402 370 399 373L385 389C384 390 383 390 382 390C381 390 379 390 377 388L363 376C340 397 309 409 273 409C235 409 199 395 169 373L157 388C156 389 156 389 154 389C153 389 151 389 150 388L131 373C128 370 127 367 130 364L142 349C118 323 101 291 96 255C95 246 94 238 94 230C94 203 101 178 115 158ZM129 256C139 322 201 375 268 375C329 375 370 331 370 274C370 268 370 262 369 256C358 189 297 136 230 136C170 136 127 178 127 235C127 241 128 248 129 256Z"/>
<glyph unicode="&#xa5;" horiz-adv-x="528" d="M490 705C492 709 490 712 486 712L461 712C459 712 456 711 455 709L265 364L185 709C184 712 181 712 179 712L154 712C150 712 147 710 148 705L233 340L125 340C122 340 121 339 120 335L116 310C115 306 117 305 120 305L239 305L226 227L108 227C105 227 103 226 102 222L98 197C97 193 100 192 103 192L222 192L191 6C190 2 193 0 196 0L219 0C222 0 224 1 225 5L255 192L373 192C376 192 379 193 380 197L384 222C385 226 382 227 379 227L260 227L273 305L392 305C395 305 397 306 398 310L402 335C403 339 400 340 397 340L289 340Z"/>
<glyph unicode="&#xa6;" horiz-adv-x="528" d="M265 255C266 260 262 260 261 260L237 260C236 260 232 260 231 255L191 5C190 0 195 0 196 0L220 0C221 0 224 0 225 5ZM337 707C338 712 334 712 333 712L309 712C308 712 304 712 303 707L263 457C262 452 267 452 268 452L292 452C293 452 296 452 297 457Z"/>
<glyph unicode="&#xa7;" horiz-adv-x="528" d="M446 186C448 199 449 211 449 222C449 305 396 353 332 394C269 434 168 476 168 564C168 570 169 576 170 583C180 646 238 690 305 690L329 690C385 690 431 650 431 597C431 592 431 588 428 570C427 567 429 565 432 565L455 565C458 565 460 566 461 570C464 590 465 597 465 603C465 673 406 724 334 724L310 724C228 724 149 669 136 583C135 574 134 565 134 557C134 525 145 497 171 461C102 425 58 376 46 300C44 288 43 276 43 265C43 182 96 134 160 93C224 53 324 11 324 -77C324 -83 324 -89 323 -96C313 -159 254 -204 187 -204L152 -204C94 -204 51 -162 51 -106C51 -99 52 -92 57 -63C58 -60 55 -57 52 -57L28 -57C25 -57 23 -58 22 -62C17 -92 17 -100 17 -108C17 -182 71 -238 147 -238L182 -238C264 -238 343 -182 356 -96C357 -87 358 -78 358 -70C358 -39 347 -10 322 26C390 60 434 110 446 186ZM413 186C398 93 331 57 296 57L285 57C258 76 234 89 211 104C147 144 77 187 77 273C77 281 78 291 79 300C94 394 162 430 197 430L208 430C235 411 258 396 281 383C345 344 415 300 415 214C415 205 415 196 413 186Z"/>
<glyph unicode="&#xa8;" horiz-adv-x="528" d="M288 661C289 665 286 667 283 667L227 667C224 667 221 665 220 661L209 593C208 589 211 587 214 587L270 587C273 587 276 588 277 593ZM458 661C459 665 456 667 453 667L397 667C394 667 391 665 390 661L379 593C378 589 381 587 384 587L440 587C443 587 446 588 447 593Z"/>
<glyph unicode="&#xa9;" horiz-adv-x="528" d="M378 470C379 474 377 475 374 475L350 475C347 475 345 474 344 470L342 458C339 436 318 419 297 419L251 419C230 419 215 436 218 458L232 548C236 570 257 588 278 588L324 588C343 588 357 574 357 555C357 553 357 550 355 537C354 533 357 532 360 532L384 532C387 532 389 534 389 537C390 548 391 556 391 560C391 595 365 622 329 622L283 622C243 622 205 589 198 548L184 458C183 450 183 449 183 447C183 412 209 385 245 385L291 385C331 385 370 418 376 458ZM86 480C84 469 83 458 83 448C83 354 154 282 252 282C361 282 464 370 482 480L489 526C491 540 492 547 492 557C492 652 421 724 322 724C213 724 110 636 93 526ZM127 526C141 616 227 690 317 690C398 690 457 629 457 551C457 543 456 535 455 526L448 480C433 390 348 316 258 316C177 316 118 376 118 454C118 463 118 468 120 480Z"/>
<glyph unicode="&#xaa;" horiz-adv-x="528" d="M413 470C414 473 411 475 408 475L396 475C387 475 380 483 381 492L415 707C416 711 413 712 410 712L388 712C385 712 382 711 381 707L378 688C360 710 333 724 299 724L288 724C222 724 161 671 150 606L143 560C142 554 142 548 142 542C142 485 184 442 244 442L255 442C290 442 322 456 347 479C350 457 367 442 391 442L403 442C406 442 408 443 409 447ZM358 560C351 514 307 475 260 475L249 475C206 475 176 507 176 547C176 551 176 552 177 560L184 606C192 652 236 690 283 690L294 690C336 690 366 659 366 620C366 615 366 613 365 606ZM383 357C384 361 381 362 378 362L130 362C127 362 124 361 123 357L119 333C118 329 120 328 123 328L373 328C376 328 378 329 379 333Z"/>
<glyph unicode="&#xab;" horiz-adv-x="528" d="M402 388C406 392 403 397 398 397L373 397C372 397 370 397 368 394L259 261C257 259 256 257 256 255L252 233C252 231 252 229 253 227L320 93C321 91 323 90 325 90L350 90C355 90 359 93 356 99L286 235L288 252ZM253 388C257 392 254 397 249 397L224 397C223 397 221 397 219 394L110 261C108 259 107 257 107 255L103 233C103 231 103 229 104 227L171 93C172 91 174 90 176 90L201 90C206 90 210 93 207 99L137 235L139 252Z"/>
<glyph unicode="&#xac;" horiz-adv-x="528" d="M367 147C370 147 372 148 373 152L391 267C392 271 389 272 387 272L115 272C112 272 110 271 109 267L105 242C104 238 106 237 109 237L353 237L340 152C339 148 341 147 344 147Z"/>
<glyph unicode="&#xad;" horiz-adv-x="528" d="M391 267C392 271 389 272 386 272L115 272C113 272 110 272 109 267L105 242C104 237 108 237 110 237L381 237C384 237 386 238 387 242Z"/>
<glyph unicode="&#xae;" horiz-adv-x="528" d="M86 480C84 469 83 458 83 448C83 354 154 282 252 282C361 282 464 370 482 480L489 526C491 542 491 547 491 557C491 652 421 724 322 724C213 724 110 636 93 526ZM127 526C141 616 227 690 317 690C398 690 457 629 457 551C457 543 456 535 455 526L448 480C433 390 348 316 258 316C177 316 118 376 118 454C118 463 118 466 120 480ZM333 469C367 487 384 510 389 538C391 552 391 556 391 560C391 595 365 622 329 622L227 622C224 622 222 620 221 616L185 390C184 386 186 385 189 385L212 385C215 385 217 386 218 390L230 464L296 464L329 388C330 386 331 385 333 385L360 385C366 385 369 389 367 393ZM355 538C351 516 330 497 309 497L235 497L250 588L324 588C343 588 357 574 357 555C357 553 357 547 355 538Z"/>
<glyph unicode="&#xaf;" horiz-adv-x="528" d="M443 645C446 645 448 646 449 650L453 674C454 678 451 679 449 679L225 679C222 679 220 678 219 674L215 651C214 647 217 645 220 645Z"/>
<glyph unicode="&#xb0;" horiz-adv-x="528" d="M127 526C126 517 125 509 125 501C125 428 180 373 256 373C341 373 419 441 433 526L440 571C441 579 442 587 442 595C442 669 388 724 311 724C226 724 147 656 134 571ZM167 571C177 637 239 690 306 690C367 690 408 646 408 589C408 583 408 577 407 571L400 526C389 460 328 407 261 407C201 407 158 449 158 506C158 512 159 519 160 526Z"/>
<glyph unicode="&#xb1;" horiz-adv-x="528" d="M407 368C408 372 405 373 402 373L284 373L295 447C296 450 294 452 291 452L267 452C264 452 262 450 261 447L250 373L131 373C128 373 126 372 125 368L121 345C120 341 122 340 125 340L244 340L232 265C231 261 234 260 237 260L260 260C263 260 265 261 266 265L278 340L396 340C399 340 402 341 403 345ZM375 165C375 168 373 170 370 170L99 170C96 170 94 169 93 165L89 140C88 137 90 135 93 135L364 135C367 135 370 136 371 140Z"/>
<glyph unicode="&#xb2;" horiz-adv-x="528" d="M243 470C244 474 241 475 238 475L114 475L116 487C123 535 254 575 266 650C272 691 244 724 204 724L192 724C152 724 114 691 107 650C106 646 109 645 112 645L135 645C138 645 141 646 142 650C145 672 165 690 187 690L199 690C220 690 235 672 232 650C223 596 92 557 81 487L74 447C73 443 77 441 80 441L233 441C236 441 238 443 239 447Z"/>
<glyph unicode="&#xb3;" horiz-adv-x="528" d="M255 526C261 566 234 599 194 599L189 599L269 669C271 671 272 673 272 675L277 707C278 711 275 712 272 712L139 712C136 712 134 711 133 707L130 685C129 680 132 679 135 679L231 679L158 614C156 612 155 610 155 608L150 570C149 567 151 565 154 565L189 565C211 565 225 548 222 526L218 503C215 481 195 464 173 464L149 464C128 464 114 480 116 503C116 508 114 509 111 509L89 509C85 509 83 507 83 503C81 463 103 430 144 430L168 430C208 430 245 463 251 503Z"/>
<glyph unicode="&#xb4;" horiz-adv-x="528" d="M403 657C407 661 406 667 400 667L357 667C354 667 352 666 350 664L264 574C261 570 261 565 267 565L291 565C294 565 296 566 298 568Z"/>
<glyph unicode="&#xb5;" horiz-adv-x="528" d="M366 0C369 0 371 1 372 5L448 482C449 486 447 487 444 487L421 487C418 487 416 486 415 482L361 141C351 76 288 23 223 23L199 23C140 23 98 66 98 123C98 129 98 133 99 141L153 482C153 485 152 487 149 487L126 487C123 487 120 485 120 482L8 -222C7 -226 10 -227 13 -227L35 -227C38 -227 40 -226 41 -222L84 45C107 11 146 -12 194 -12L218 -12C266 -12 311 11 346 45L339 5C338 1 341 0 344 0Z"/>
<glyph unicode="&#xb6;" horiz-adv-x="528" d="M319 -227C322 -227 324 -226 325 -222L472 707C473 711 470 712 467 712L275 712C190 712 111 644 98 560L89 503C88 495 87 488 87 480C87 408 141 350 218 350L246 350L155 -222C154 -226 157 -227 160 -227L183 -227C186 -227 188 -226 189 -222L332 679L434 679L291 -222C290 -226 293 -227 296 -227Z"/>
<glyph unicode="&#xb7;" horiz-adv-x="528" d="M304 288C305 292 302 294 299 294L209 294C206 294 203 292 202 288L188 198C187 194 190 192 193 192L283 192C286 192 289 194 290 198Z"/>
<glyph unicode="&#xb8;" horiz-adv-x="528" d="M239 6L203 6L150 -106C148 -109 149 -113 154 -113L176 -113C179 -113 181 -112 183 -109Z"/>
<glyph unicode="&#xb9;" horiz-adv-x="528" d="M246 458C247 463 244 464 241 464L185 464L223 707C224 711 221 712 218 712L180 712C178 712 177 712 175 710L116 660C114 658 112 654 115 651L128 636C130 634 134 634 136 636L184 677L150 464L83 464C80 464 77 463 76 459L73 436C72 432 75 430 78 430L236 430C239 430 242 431 243 435Z"/>
<glyph unicode="&#xba;" horiz-adv-x="528" d="M143 560C142 552 142 548 142 542C142 485 183 442 244 442L267 442C334 442 394 494 404 560L411 606C412 613 413 620 413 626C413 682 371 724 311 724L288 724C221 724 161 672 150 606ZM184 606C192 652 235 690 283 690L306 690C349 690 378 659 378 620C378 615 378 613 377 606L370 560C363 514 320 476 272 476L249 476C206 476 176 507 176 547C176 551 176 553 177 560ZM360 357C361 361 358 362 355 362L130 362C127 362 124 361 123 357L119 333C118 329 120 328 123 328L350 328C353 328 355 329 356 333Z"/>
<glyph unicode="&#xbb;" horiz-adv-x="528" d="M197 252L195 235L81 99C78 95 80 90 85 90L109 90C111 90 112 90 114 92L226 228C227 229 228 231 228 233L231 257C231 259 230 261 229 263L163 394C162 396 160 397 158 397L133 397C128 397 125 392 127 388ZM346 252L344 235L230 99C227 95 229 90 234 90L258 90C260 90 261 90 263 92L375 228C376 229 377 231 377 233L380 257C380 259 379 261 378 263L312 394C311 396 309 397 307 397L282 397C277 397 274 392 276 388Z"/>
<glyph unicode="&#xbc;" horiz-adv-x="528" d="M412 79C412 82 410 84 407 84L374 84L381 129C382 133 379 135 376 135L354 135C351 135 348 134 347 129L340 84L262 84L375 275C378 280 375 283 370 283L346 283C343 283 341 281 340 279L227 86L223 57C222 53 225 51 228 51L334 51L327 6C326 2 330 0 333 0L355 0C358 0 360 2 361 6L368 51L402 51C405 51 408 53 409 57ZM246 458C247 463 244 464 241 464L185 464L223 707C224 711 221 712 218 712L180 712C178 712 177 712 175 710L116 660C114 658 112 654 115 651L128 636C130 634 134 634 136 636L184 677L150 464L83 464C80 464 77 463 76 459L73 436C72 432 75 430 78 430L236 430C239 430 242 431 243 435ZM431 481C434 484 434 487 432 489L418 505C416 507 413 507 410 504L96 233C94 231 93 229 95 226L109 209C111 207 113 206 117 209Z"/>
<glyph unicode="&#xbd;" horiz-adv-x="528" d="M246 458C247 463 244 464 241 464L185 464L223 707C224 711 221 712 218 712L180 712C178 712 177 712 175 710L116 660C114 658 112 654 115 651L128 636C130 634 134 634 136 636L184 677L150 464L83 464C80 464 77 463 76 459L73 436C72 432 75 430 78 430L236 430C239 430 242 431 243 435ZM431 481C434 484 434 487 432 489L418 505C416 507 413 507 410 504L96 233C94 231 93 229 95 226L109 209C111 207 113 206 117 209ZM416 29C417 33 414 34 411 34L287 34L289 46C296 94 427 134 439 209C445 250 417 283 377 283L365 283C325 283 287 250 280 209C279 205 282 204 285 204L308 204C311 204 314 205 315 209C318 231 338 249 360 249L372 249C393 249 408 231 405 209C396 155 265 116 254 46L247 6C246 2 250 0 253 0L406 0C409 0 411 2 412 6Z"/>
<glyph unicode="&#xbe;" horiz-adv-x="528" d="M412 79C412 82 410 84 407 84L374 84L381 129C382 133 379 135 376 135L354 135C351 135 348 134 347 129L340 84L262 84L375 275C378 280 375 283 370 283L346 283C343 283 341 281 340 279L227 86L223 57C222 53 225 51 228 51L334 51L327 6C326 2 330 0 333 0L355 0C358 0 360 2 361 6L368 51L402 51C405 51 408 53 409 57ZM431 481C434 484 434 487 432 489L418 505C416 507 413 507 410 504L96 233C94 231 93 229 95 226L109 209C111 207 113 206 117 209ZM255 526C261 566 234 599 194 599L189 599L269 669C271 671 272 673 272 675L277 707C278 711 275 712 272 712L139 712C136 712 134 711 133 707L130 685C129 680 132 679 135 679L231 679L158 614C156 612 155 610 155 608L150 570C149 567 151 565 154 565L189 565C211 565 225 548 222 526L218 503C215 481 195 464 173 464L149 464C128 464 114 480 116 503C116 508 114 509 111 509L89 509C85 509 83 507 83 503C81 463 103 430 144 430L168 430C208 430 245 463 251 503Z"/>
<glyph unicode="&#xbf;" horiz-adv-x="528" d="M34 -63C29 -93 28 -101 28 -109C28 -183 82 -238 158 -238L182 -238C266 -238 345 -170 358 -85L362 -63C363 -58 360 -57 357 -57L335 -57C332 -57 330 -58 329 -63L325 -85C315 -151 252 -204 187 -204L163 -204C104 -204 62 -160 62 -103C62 -97 62 -91 67 -63C74 -23 91 29 186 93C267 147 278 197 287 255C287 258 286 260 283 260L259 260C256 260 254 258 254 255C245 201 237 164 171 120C65 49 42 -12 34 -63ZM241 391C240 387 243 385 246 385L336 385C339 385 342 387 343 391L358 481C359 485 356 487 353 487L263 487C260 487 257 485 256 481Z"/>
<glyph unicode="&#xc0;" horiz-adv-x="528" d="M414 269L368 707C368 710 366 712 363 712L278 712C275 712 273 711 272 708L86 269L44 6C43 2 46 0 49 0L71 0C74 0 76 1 77 5L116 249L378 249L339 6C338 2 341 0 344 0L366 0C369 0 371 1 372 5ZM377 283L127 283L294 679L336 679ZM316 795C318 793 320 792 323 792L347 792C353 792 355 797 352 801L296 891C294 894 292 894 289 894L246 894C240 894 237 888 241 884Z"/>
<glyph unicode="&#xc1;" horiz-adv-x="528" d="M414 269L368 707C368 710 366 712 363 712L278 712C275 712 273 711 272 708L86 269L44 6C43 2 46 0 49 0L71 0C74 0 76 1 77 5L116 249L378 249L339 6C338 2 341 0 344 0L366 0C369 0 371 1 372 5ZM377 283L127 283L294 679L336 679ZM453 884C457 888 456 894 450 894L407 894C404 894 402 893 400 891L314 801C311 797 311 792 317 792L341 792C344 792 346 793 348 795Z"/>
<glyph unicode="&#xc2;" horiz-adv-x="528" d="M414 269L368 707C368 710 366 712 363 712L278 712C275 712 273 711 272 708L86 269L44 6C43 2 46 0 49 0L71 0C74 0 76 1 77 5L116 249L378 249L339 6C338 2 341 0 344 0L366 0C369 0 371 1 372 5ZM377 283L127 283L294 679L336 679ZM318 894C315 894 313 892 312 891L225 801C221 797 222 792 227 792L251 792C253 792 255 793 256 794L344 865L408 794C409 793 410 792 413 792L437 792C442 792 444 796 441 801L384 891C382 894 380 894 378 894Z"/>
<glyph unicode="&#xc3;" horiz-adv-x="528" d="M414 269L368 707C368 710 366 712 363 712L278 712C275 712 273 711 272 708L86 269L44 6C43 2 46 0 49 0L71 0C74 0 76 1 77 5L116 249L378 249L339 6C338 2 341 0 344 0L366 0C369 0 371 1 372 5ZM377 283L127 283L294 679L336 679ZM471 854C472 859 470 860 466 860L444 860C440 860 438 859 437 855C433 839 418 821 395 821C382 821 367 827 349 840C326 857 304 864 283 864C243 864 211 837 202 798C201 794 203 792 207 792L229 792C233 792 235 793 236 797C241 813 255 831 278 831C291 831 306 825 324 812C347 795 370 788 391 788C431 788 462 815 471 854Z"/>
<glyph unicode="&#xc4;" horiz-adv-x="528" d="M414 269L368 707C368 710 366 712 363 712L278 712C275 712 273 711 272 708L86 269L44 6C43 2 46 0 49 0L71 0C74 0 76 1 77 5L116 249L378 249L339 6C338 2 341 0 344 0L366 0C369 0 371 1 372 5ZM377 283L127 283L294 679L336 679ZM298 888C299 892 296 894 293 894L237 894C234 894 231 892 230 888L219 820C218 816 221 814 224 814L280 814C283 814 286 815 287 820ZM468 888C469 892 466 894 463 894L407 894C404 894 401 892 400 888L389 820C388 816 391 814 394 814L450 814C453 814 456 815 457 820Z"/>
<glyph unicode="&#xc5;" horiz-adv-x="528" d="M414 269L368 707C368 710 366 712 363 712L278 712C275 712 273 711 272 708L86 269L44 6C43 2 46 0 49 0L71 0C74 0 76 1 77 5L116 249L378 249L339 6C338 2 341 0 344 0L366 0C369 0 371 1 372 5ZM377 283L127 283L294 679L336 679ZM255 801C255 763 282 734 322 734C373 734 415 780 415 827C415 865 388 894 348 894C297 894 255 848 255 801ZM342 860C365 860 381 843 381 821C381 793 354 768 328 768C305 768 289 785 289 807C289 835 316 860 342 860Z"/>
<glyph unicode="&#xc6;" horiz-adv-x="528" d="M410 29C411 33 408 34 405 34L252 34L300 340L432 340C435 340 437 341 438 345L442 368C443 372 440 373 437 373L306 373L354 679L507 679C510 679 513 680 514 684L517 707C518 711 515 712 512 712L243 712C241 712 239 711 238 708L52 269L10 5C10 2 12 0 15 0L38 0C41 0 43 1 44 5L83 249L253 249L214 5C214 2 216 0 219 0L400 0C403 0 405 1 406 5ZM263 277L85 277L256 684L328 684Z"/>
<glyph unicode="&#xc7;" horiz-adv-x="528" d="M409 164C409 169 407 170 404 170L381 170C378 170 375 169 374 164L371 141C361 76 299 23 234 23L199 23C140 23 98 66 98 123C98 129 98 133 99 141L167 571C177 637 240 690 305 690L340 690C399 690 440 646 440 589C440 583 440 577 437 560C436 556 439 554 442 554L465 554C468 554 471 555 472 560C475 579 476 587 476 595C476 669 421 724 345 724L310 724C226 724 147 656 134 571L66 141C65 133 64 125 64 117C64 44 118 -12 194 -12L150 -106C148 -109 149 -113 154 -113L176 -113C179 -113 181 -112 183 -109L230 -12C313 -11 393 57 406 141Z"/>
<glyph unicode="&#xc8;" horiz-adv-x="528" d="M388 29C389 33 387 34 384 34L94 34L142 339L409 339C412 339 414 340 415 344L419 368C420 372 418 373 415 373L148 373L196 678L486 678C489 678 491 679 492 683L495 707C496 712 492 712 490 712L172 712C169 712 167 711 166 707L55 5C54 1 57 0 60 0L378 0C381 0 383 1 384 5ZM316 795C318 793 320 792 323 792L347 792C353 792 355 797 352 801L296 891C294 894 292 894 289 894L246 894C240 894 237 888 241 884Z"/>
<glyph unicode="&#xc9;" horiz-adv-x="528" d="M388 29C389 33 387 34 384 34L94 34L142 339L409 339C412 339 414 340 415 344L419 368C420 372 418 373 415 373L148 373L196 678L486 678C489 678 491 679 492 683L495 707C496 712 492 712 490 712L172 712C169 712 167 711 166 707L55 5C54 1 57 0 60 0L378 0C381 0 383 1 384 5ZM453 884C457 888 456 894 450 894L407 894C404 894 402 893 400 891L314 801C311 797 311 792 317 792L341 792C344 792 346 793 348 795Z"/>
<glyph unicode="&#xca;" horiz-adv-x="528" d="M388 29C389 33 387 34 384 34L94 34L142 339L409 339C412 339 414 340 415 344L419 368C420 372 418 373 415 373L148 373L196 678L486 678C489 678 491 679 492 683L495 707C496 712 492 712 490 712L172 712C169 712 167 711 166 707L55 5C54 1 57 0 60 0L378 0C381 0 383 1 384 5ZM328 894C325 894 323 892 322 891L235 801C231 797 232 792 237 792L261 792C263 792 265 793 266 794L354 865L418 794C419 793 420 792 423 792L447 792C452 792 454 796 451 801L394 891C392 894 390 894 388 894Z"/>
<glyph unicode="&#xcb;" horiz-adv-x="528" d="M388 29C389 33 387 34 384 34L94 34L142 339L409 339C412 339 414 340 415 344L419 368C420 372 418 373 415 373L148 373L196 678L486 678C489 678 491 679 492 683L495 707C496 712 492 712 490 712L172 712C169 712 167 711 166 707L55 5C54 1 57 0 60 0L378 0C381 0 383 1 384 5ZM298 888C299 892 296 894 293 894L237 894C234 894 231 892 230 888L219 820C218 816 221 814 224 814L280 814C283 814 286 815 287 820ZM468 888C469 892 466 894 463 894L407 894C404 894 401 892 400 888L389 820C388 816 391 814 394 814L450 814C453 814 456 815 457 820Z"/>
<glyph unicode="&#xcc;" horiz-adv-x="528" d="M32 5C32 1 34 0 37 0L378 0C381 0 383 1 384 5L388 29C389 33 387 34 384 34L230 34L332 678L473 678C476 678 479 679 480 683L483 707C484 711 482 712 479 712L161 712C158 712 156 711 155 707L152 683C151 679 153 678 156 678L298 678L196 34L42 34C39 34 37 33 36 29ZM316 795C318 793 320 792 323 792L347 792C353 792 355 797 352 801L296 891C294 894 292 894 289 894L246 894C240 894 237 888 241 884Z"/>
<glyph unicode="&#xcd;" horiz-adv-x="528" d="M32 5C32 1 34 0 37 0L378 0C381 0 383 1 384 5L388 29C389 33 387 34 384 34L230 34L332 678L473 678C476 678 479 679 480 683L483 707C484 711 482 712 479 712L161 712C158 712 156 711 155 707L152 683C151 679 153 678 156 678L298 678L196 34L42 34C39 34 37 33 36 29ZM453 884C457 888 456 894 450 894L407 894C404 894 402 893 400 891L314 801C311 797 311 792 317 792L341 792C344 792 346 793 348 795Z"/>
<glyph unicode="&#xce;" horiz-adv-x="528" d="M32 5C32 1 34 0 37 0L378 0C381 0 383 1 384 5L388 29C389 33 387 34 384 34L230 34L332 678L473 678C476 678 479 679 480 683L483 707C484 711 482 712 479 712L161 712C158 712 156 711 155 707L152 683C151 679 153 678 156 678L298 678L196 34L42 34C39 34 37 33 36 29ZM318 894C315 894 313 892 312 891L225 801C221 797 222 792 227 792L251 792C253 792 255 793 256 794L344 865L408 794C409 793 410 792 413 792L437 792C442 792 444 796 441 801L384 891C382 894 380 894 378 894Z"/>
<glyph unicode="&#xcf;" horiz-adv-x="528" d="M32 5C32 1 34 0 37 0L378 0C381 0 383 1 384 5L388 29C389 33 387 34 384 34L230 34L332 678L473 678C476 678 479 679 480 683L483 707C484 711 482 712 479 712L161 712C158 712 156 711 155 707L152 683C151 679 153 678 156 678L298 678L196 34L42 34C39 34 37 33 36 29ZM298 888C299 892 296 894 293 894L237 894C234 894 231 892 230 888L219 820C218 816 221 814 224 814L280 814C283 814 286 815 287 820ZM468 888C469 892 466 894 463 894L407 894C404 894 401 892 400 888L389 820C388 816 391 814 394 814L450 814C453 814 456 815 457 820Z"/>
<glyph unicode="&#xd0;" horiz-adv-x="528" d="M469 560C470 568 471 576 471 584C471 657 417 712 340 712L170 712C167 712 165 710 165 708L112 373L39 373C36 373 33 372 32 368L28 345C27 341 30 340 33 340L106 340L53 6C52 2 55 0 58 0L228 0C313 0 391 68 405 153ZM371 153C360 87 299 34 233 34L92 34L140 340L259 340C262 340 266 342 266 345L270 368C270 371 268 373 265 373L146 373L194 679L335 679C394 679 437 637 437 580C437 574 436 567 435 560Z"/>
<glyph unicode="&#xd1;" horiz-adv-x="528" d="M483 707C484 710 482 712 479 712L456 712C454 712 451 712 450 708L347 51L209 707C208 711 206 712 203 712L162 712C159 712 156 711 155 707L44 5C43 1 45 0 48 0L71 0C74 0 76 1 77 5L181 662L319 4C320 1 321 0 325 0L365 0C368 0 371 1 372 5ZM476 854C477 859 475 860 471 860L449 860C445 860 443 859 442 855C438 839 423 821 400 821C387 821 372 827 354 840C331 857 309 864 288 864C248 864 216 837 207 798C206 794 208 792 212 792L234 792C238 792 240 793 241 797C246 813 260 831 283 831C296 831 311 825 329 812C352 795 375 788 396 788C436 788 467 815 476 854Z"/>
<glyph unicode="&#xd2;" horiz-adv-x="528" d="M468 571C469 579 470 587 470 595C470 669 416 724 339 724L305 724C220 724 141 656 128 571L60 141C59 132 58 124 58 116C58 43 113 -12 189 -12L223 -12C308 -12 386 56 400 141ZM365 141C354 75 294 22 228 22L194 22C135 22 93 65 93 121C93 127 94 134 95 141L163 571C173 637 234 690 300 690L334 690C394 690 435 647 435 590C435 584 434 577 433 571ZM316 795C318 793 320 792 323 792L347 792C353 792 355 797 352 801L296 891C294 894 292 894 289 894L246 894C240 894 237 888 241 884Z"/>
<glyph unicode="&#xd3;" horiz-adv-x="528" d="M468 571C469 579 470 587 470 595C470 669 416 724 339 724L305 724C220 724 141 656 128 571L60 141C59 132 58 124 58 116C58 43 113 -12 189 -12L223 -12C308 -12 386 56 400 141ZM365 141C354 75 294 22 228 22L194 22C135 22 93 65 93 121C93 127 94 134 95 141L163 571C173 637 234 690 300 690L334 690C394 690 435 647 435 590C435 584 434 577 433 571ZM453 884C457 888 456 894 450 894L407 894C404 894 402 893 400 891L314 801C311 797 311 792 317 792L341 792C344 792 346 793 348 795Z"/>
<glyph unicode="&#xd4;" horiz-adv-x="528" d="M468 571C469 579 470 587 470 595C470 669 416 724 339 724L305 724C220 724 141 656 128 571L60 141C59 132 58 124 58 116C58 43 113 -12 189 -12L223 -12C308 -12 386 56 400 141ZM365 141C354 75 294 22 228 22L194 22C135 22 93 65 93 121C93 127 94 134 95 141L163 571C173 637 234 690 300 690L334 690C394 690 435 647 435 590C435 584 434 577 433 571ZM318 894C315 894 313 892 312 891L225 801C221 797 222 792 227 792L251 792C253 792 255 793 256 794L344 865L408 794C409 793 410 792 413 792L437 792C442 792 444 796 441 801L384 891C382 894 380 894 378 894Z"/>
<glyph unicode="&#xd5;" horiz-adv-x="528" d="M468 571C469 579 470 587 470 595C470 669 416 724 339 724L305 724C220 724 141 656 128 571L60 141C59 132 58 124 58 116C58 43 113 -12 189 -12L223 -12C308 -12 386 56 400 141ZM365 141C354 75 294 22 228 22L194 22C135 22 93 65 93 121C93 127 94 134 95 141L163 571C173 637 234 690 300 690L334 690C394 690 435 647 435 590C435 584 434 577 433 571ZM472 854C473 859 471 860 467 860L445 860C441 860 439 859 438 855C434 839 419 821 396 821C383 821 368 827 350 840C327 857 305 864 284 864C244 864 212 837 203 798C202 794 204 792 208 792L230 792C234 792 236 793 237 797C242 813 256 831 279 831C292 831 307 825 325 812C348 795 371 788 392 788C432 788 463 815 472 854Z"/>
<glyph unicode="&#xd6;" horiz-adv-x="528" d="M468 571C469 579 470 587 470 595C470 669 416 724 339 724L305 724C220 724 141 656 128 571L60 141C59 132 58 124 58 116C58 43 113 -12 189 -12L223 -12C308 -12 386 56 400 141ZM365 141C354 75 294 22 228 22L194 22C135 22 93 65 93 121C93 127 94 134 95 141L163 571C173 637 234 690 300 690L334 690C394 690 435 647 435 590C435 584 434 577 433 571ZM298 888C299 892 296 894 293 894L237 894C234 894 231 892 230 888L219 820C218 816 221 814 224 814L280 814C283 814 286 815 287 820ZM468 888C469 892 466 894 463 894L407 894C404 894 401 892 400 888L389 820C388 816 391 814 394 814L450 814C453 814 456 815 457 820Z"/>
<glyph unicode="&#xd7;" horiz-adv-x="528" d="M108 154C104 151 104 148 106 145L121 129C122 128 123 128 124 128C125 128 127 129 128 130L244 230L328 130C329 129 331 128 332 128C333 128 334 128 335 129L354 145C358 148 358 151 356 154L272 254L388 354C391 357 392 360 389 363L375 379C374 380 373 380 372 380C371 380 369 380 367 378L252 278L167 378C166 379 166 379 164 379C163 379 161 379 160 378L141 363C138 360 137 357 140 354L224 254Z"/>
<glyph unicode="&#xd8;" horiz-adv-x="528" d="M468 571C469 579 470 587 470 595C470 624 461 650 446 671L480 733C481 736 481 738 477 740L457 749C454 750 451 749 449 745L424 696C401 713 372 724 339 724L305 724C220 724 141 656 128 571L60 141C59 133 58 125 58 117C58 89 66 62 82 41L48 -20C46 -23 48 -27 51 -28L71 -35C74 -36 76 -35 77 -33L104 17C126 -1 156 -12 189 -12L223 -12C308 -12 387 57 400 141ZM101 80C96 92 93 105 93 119C93 126 94 134 95 141L163 571C173 637 234 690 300 690L334 690C363 690 388 680 405 662ZM365 141C355 76 294 23 228 23L194 23C165 23 140 33 123 51L427 633C432 620 435 607 435 593C435 586 434 579 433 571Z"/>
<glyph unicode="&#xd9;" horiz-adv-x="528" d="M483 707C484 711 482 712 479 712L456 712C453 712 451 711 450 707L361 141C351 76 288 22 223 22L199 22C140 22 98 66 98 123C98 129 98 133 99 141L188 707C189 711 187 712 184 712L161 712C158 712 156 710 156 707L66 141C65 133 64 125 64 117C64 44 118 -12 194 -12L218 -12C302 -12 381 57 394 141ZM316 795C318 793 320 792 323 792L347 792C353 792 355 797 352 801L296 891C294 894 292 894 289 894L246 894C240 894 237 888 241 884Z"/>
<glyph unicode="&#xda;" horiz-adv-x="528" d="M483 707C484 711 482 712 479 712L456 712C453 712 451 711 450 707L361 141C351 76 288 22 223 22L199 22C140 22 98 66 98 123C98 129 98 133 99 141L188 707C189 711 187 712 184 712L161 712C158 712 156 710 156 707L66 141C65 133 64 125 64 117C64 44 118 -12 194 -12L218 -12C302 -12 381 57 394 141ZM453 884C457 888 456 894 450 894L407 894C404 894 402 893 400 891L314 801C311 797 311 792 317 792L341 792C344 792 346 793 348 795Z"/>
<glyph unicode="&#xdb;" horiz-adv-x="528" d="M483 707C484 711 482 712 479 712L456 712C453 712 451 711 450 707L361 141C351 76 288 22 223 22L199 22C140 22 98 66 98 123C98 129 98 133 99 141L188 707C189 711 187 712 184 712L161 712C158 712 156 710 156 707L66 141C65 133 64 125 64 117C64 44 118 -12 194 -12L218 -12C302 -12 381 57 394 141ZM318 894C315 894 313 892 312 891L225 801C221 797 222 792 227 792L251 792C253 792 255 793 256 794L344 865L408 794C409 793 410 792 413 792L437 792C442 792 444 796 441 801L384 891C382 894 380 894 378 894Z"/>
<glyph unicode="&#xdc;" horiz-adv-x="528" d="M483 707C484 711 482 712 479 712L456 712C453 712 451 711 450 707L361 141C351 76 288 22 223 22L199 22C140 22 98 66 98 123C98 129 98 133 99 141L188 707C189 711 187 712 184 712L161 712C158 712 156 710 156 707L66 141C65 133 64 125 64 117C64 44 118 -12 194 -12L218 -12C302 -12 381 57 394 141ZM299 888C300 892 297 894 294 894L238 894C235 894 232 892 231 888L220 820C219 816 222 814 225 814L281 814C284 814 287 815 288 820ZM469 888C470 892 467 894 464 894L408 894C405 894 402 892 401 888L390 820C389 816 392 814 395 814L451 814C454 814 457 815 458 820Z"/>
<glyph unicode="&#xdd;" horiz-adv-x="528" d="M490 705C493 710 490 712 485 712L461 712C458 712 456 711 455 709L265 364L185 709C184 712 182 712 179 712L155 712C150 712 147 710 148 705L240 313L191 5C190 1 193 0 196 0L220 0C222 0 224 0 225 4L274 313ZM454 884C458 888 457 894 451 894L408 894C405 894 403 893 401 891L315 801C312 797 312 792 318 792L342 792C345 792 347 793 349 795Z"/>
<glyph unicode="&#xde;" horiz-adv-x="528" d="M446 413C447 421 448 429 448 437C448 510 394 565 317 565L295 565C247 565 201 543 167 509L199 708C199 711 197 712 194 712L171 712C168 712 166 712 165 708L53 6C52 2 55 0 58 0L81 0C84 0 86 1 87 6L119 204C141 169 181 147 229 147L251 147C336 147 415 215 428 300ZM394 300C384 234 322 181 256 181L234 181C174 181 132 225 132 282C132 288 133 294 134 300L152 413C162 479 224 532 290 532L312 532C372 532 413 488 413 431C413 425 413 421 412 413Z"/>
<glyph unicode="&#xdf;" horiz-adv-x="528" d="M240 0C324 0 402 68 416 153L427 221C428 229 429 236 429 244C429 295 403 338 360 359C411 386 449 435 458 492L471 571C472 579 473 587 473 595C473 669 419 724 342 724L320 724C236 724 156 656 143 571L53 5C52 1 55 0 58 0L81 0C84 0 86 1 87 5L177 571C187 637 249 690 315 690L337 690C397 690 439 647 439 590C439 584 438 577 437 571L424 492C414 426 353 373 287 373L253 373C250 373 248 372 247 368L243 345C242 341 245 340 248 340L293 340C352 340 395 296 395 239C395 234 394 227 393 221L383 153C373 87 310 34 245 34L176 34C173 34 171 33 170 29L166 5C165 1 168 0 171 0Z"/>
<glyph unicode="&#xe0;" horiz-adv-x="528" d="M437 481C438 485 435 487 432 487L409 487C406 487 403 485 402 481L396 441C373 476 334 498 286 498L264 498C180 498 99 429 86 345L55 141C54 133 53 125 53 117C53 44 107 -12 183 -12L205 -12C256 -12 304 12 338 50C343 21 368 0 400 0L411 0C414 0 417 2 418 6L421 28C422 32 420 34 417 34L405 34C386 34 368 52 372 74ZM381 345L348 141C338 76 276 23 211 23L188 23C130 23 87 66 87 123C87 129 87 135 88 141L121 345C132 411 193 464 258 464L281 464C340 464 382 420 382 364C382 358 382 351 381 345ZM281 568C283 566 285 565 288 565L312 565C318 565 320 570 317 574L261 664C259 667 257 667 254 667L211 667C205 667 202 661 206 657Z"/>
<glyph unicode="&#xe1;" horiz-adv-x="528" d="M437 481C438 485 435 487 432 487L409 487C406 487 403 485 402 481L396 441C373 476 334 498 286 498L264 498C180 498 99 429 86 345L55 141C54 133 53 125 53 117C53 44 107 -12 183 -12L205 -12C256 -12 304 12 338 50C343 21 368 0 400 0L411 0C414 0 417 2 418 6L421 28C422 32 420 34 417 34L405 34C386 34 368 52 372 74ZM381 345L348 141C338 76 276 23 211 23L188 23C130 23 87 66 87 123C87 129 87 135 88 141L121 345C132 411 193 464 258 464L281 464C340 464 382 420 382 364C382 358 382 351 381 345ZM398 657C402 661 401 667 395 667L352 667C349 667 347 666 345 664L259 574C256 570 256 565 262 565L286 565C289 565 291 566 293 568Z"/>
<glyph unicode="&#xe2;" horiz-adv-x="528" d="M437 481C438 485 435 487 432 487L409 487C406 487 403 485 402 481L396 441C373 476 334 498 286 498L264 498C180 498 99 429 86 345L55 141C54 133 53 125 53 117C53 44 107 -12 183 -12L205 -12C256 -12 304 12 338 50C343 21 368 0 400 0L411 0C414 0 417 2 418 6L421 28C422 32 420 34 417 34L405 34C386 34 368 52 372 74ZM381 345L348 141C338 76 276 23 211 23L188 23C130 23 87 66 87 123C87 129 87 135 88 141L121 345C132 411 193 464 258 464L281 464C340 464 382 420 382 364C382 358 382 351 381 345ZM273 667C270 667 268 665 267 664L180 574C176 570 177 565 182 565L206 565C208 565 210 566 211 567L299 638L363 567C364 566 365 565 368 565L392 565C397 565 399 569 396 574L339 664C337 667 335 667 333 667Z"/>
<glyph unicode="&#xe3;" horiz-adv-x="528" d="M437 481C438 485 435 487 432 487L409 487C406 487 403 485 402 481L396 441C373 476 334 498 286 498L264 498C180 498 99 429 86 345L55 141C54 133 53 125 53 117C53 44 107 -12 183 -12L205 -12C256 -12 304 12 338 50C343 21 368 0 400 0L411 0C414 0 417 2 418 6L421 28C422 32 420 34 417 34L405 34C386 34 368 52 372 74ZM381 345L348 141C338 76 276 23 211 23L188 23C130 23 87 66 87 123C87 129 87 135 88 141L121 345C132 411 193 464 258 464L281 464C340 464 382 420 382 364C382 358 382 351 381 345ZM438 627C439 632 437 633 433 633L411 633C407 633 405 632 404 628C400 612 385 594 362 594C349 594 334 600 316 613C293 630 271 637 250 637C210 637 178 610 169 571C168 567 170 565 174 565L196 565C200 565 202 566 203 570C208 586 222 604 245 604C258 604 273 598 291 585C314 568 337 561 358 561C398 561 429 588 438 627Z"/>
<glyph unicode="&#xe4;" horiz-adv-x="528" d="M437 481C438 485 435 487 432 487L409 487C406 487 403 485 402 481L396 441C373 476 334 498 286 498L264 498C180 498 99 429 86 345L55 141C54 133 53 125 53 117C53 44 107 -12 183 -12L205 -12C256 -12 304 12 338 50C343 21 368 0 400 0L411 0C414 0 417 2 418 6L421 28C422 32 420 34 417 34L405 34C386 34 368 52 372 74ZM381 345L348 141C338 76 276 23 211 23L188 23C130 23 87 66 87 123C87 129 87 135 88 141L121 345C132 411 193 464 258 464L281 464C340 464 382 420 382 364C382 358 382 351 381 345ZM248 661C249 665 246 667 243 667L187 667C184 667 181 665 180 661L169 593C168 589 171 587 174 587L230 587C233 587 236 588 237 593ZM418 661C419 665 416 667 413 667L357 667C354 667 351 665 350 661L339 593C338 589 341 587 344 587L400 587C403 587 406 588 407 593Z"/>
<glyph unicode="&#xe5;" horiz-adv-x="528" d="M437 481C438 485 435 487 432 487L409 487C406 487 403 485 402 481L396 441C373 476 334 498 286 498L264 498C180 498 99 429 86 345L55 141C54 133 53 125 53 117C53 44 107 -12 183 -12L205 -12C256 -12 304 12 338 50C343 21 368 0 400 0L411 0C414 0 417 2 418 6L421 28C422 32 420 34 417 34L405 34C386 34 368 52 372 74ZM381 345L348 141C338 76 276 23 211 23L188 23C130 23 87 66 87 123C87 129 87 135 88 141L121 345C132 411 193 464 258 464L281 464C340 464 382 420 382 364C382 358 382 351 381 345ZM213 615C213 577 240 548 280 548C331 548 373 594 373 641C373 679 346 708 306 708C255 708 213 662 213 615ZM300 674C323 674 339 657 339 635C339 607 312 582 286 582C263 582 247 599 247 621C247 649 274 674 300 674Z"/>
<glyph unicode="&#xe6;" horiz-adv-x="528" d="M447 119C447 124 445 125 442 125L418 125C415 125 412 123 412 119L411 108C403 60 360 23 313 23C271 23 241 53 241 94C241 99 241 103 242 108L260 227L458 227C461 227 464 227 465 232L489 379C490 386 490 391 490 397C490 454 447 498 388 498C345 498 304 475 277 441C262 475 227 498 184 498C119 498 57 444 47 379L42 349C41 345 43 344 46 344L71 344C74 344 76 345 77 349L82 379C89 426 132 464 179 464C221 464 252 433 252 393C252 388 252 386 251 379L243 334C238 303 172 269 141 259C78 238 19 208 7 131C2 97 2 86 2 76C2 10 38 -12 104 -12C147 -12 188 12 215 46C230 12 265 -12 308 -12C373 -12 435 42 446 108ZM435 260L266 260L285 379C292 426 336 464 383 464C426 464 455 433 455 392C455 388 455 385 454 379ZM208 108C200 60 156 23 109 23C59 23 36 34 36 77C36 86 37 100 42 131C51 189 95 210 148 228C171 235 206 252 234 273Z"/>
<glyph unicode="&#xe7;" horiz-adv-x="528" d="M393 142C393 146 392 147 389 147L366 147C363 147 361 146 360 142L358 131C343 70 284 22 223 22L199 22C140 22 98 66 98 123C98 129 98 133 99 141L131 345C142 411 204 464 269 464L293 464C351 464 394 426 394 365C394 362 394 359 393 349C393 345 395 344 397 344L420 344C423 344 425 345 426 349C428 363 428 371 428 378C428 448 370 498 298 498L274 498C190 498 111 429 98 345L66 141C65 133 64 125 64 117C64 45 116 -10 189 -12L145 -106C143 -109 144 -113 149 -113L171 -113C174 -113 176 -112 178 -109L225 -12C302 -8 378 52 391 131Z"/>
<glyph unicode="&#xe8;" horiz-adv-x="528" d="M426 345C427 353 428 361 428 369C428 442 374 498 298 498L274 498C190 498 111 429 98 345L66 141C65 133 64 125 64 117C64 44 118 -12 194 -12L218 -12C284 -12 345 30 378 90C380 94 378 96 375 97L354 104C351 105 348 103 346 100C322 55 273 22 223 22L199 22C140 22 98 66 98 123C98 129 98 133 99 141L112 227L402 227C405 227 407 228 408 232ZM380 261L118 261L131 345C142 411 204 464 269 464L293 464C352 464 395 421 395 364C395 358 394 352 393 345ZM281 568C283 566 285 565 288 565L312 565C318 565 320 570 317 574L261 664C259 667 257 667 254 667L211 667C205 667 202 661 206 657Z"/>
<glyph unicode="&#xe9;" horiz-adv-x="528" d="M426 345C427 353 428 361 428 369C428 442 374 498 298 498L274 498C190 498 111 429 98 345L66 141C65 133 64 125 64 117C64 44 118 -12 194 -12L218 -12C284 -12 345 30 378 90C380 94 378 96 375 97L354 104C351 105 348 103 346 100C322 55 273 22 223 22L199 22C140 22 98 66 98 123C98 129 98 133 99 141L112 227L402 227C405 227 407 228 408 232ZM380 261L118 261L131 345C142 411 204 464 269 464L293 464C352 464 395 421 395 364C395 358 394 352 393 345ZM418 657C422 661 421 667 415 667L372 667C369 667 367 666 365 664L279 574C276 570 276 565 282 565L306 565C309 565 311 566 313 568Z"/>
<glyph unicode="&#xea;" horiz-adv-x="528" d="M426 345C427 353 428 361 428 369C428 442 374 498 298 498L274 498C190 498 111 429 98 345L66 141C65 133 64 125 64 117C64 44 118 -12 194 -12L218 -12C284 -12 345 30 378 90C380 94 378 96 375 97L354 104C351 105 348 103 346 100C322 55 273 22 223 22L199 22C140 22 98 66 98 123C98 129 98 133 99 141L112 227L402 227C405 227 407 228 408 232ZM380 261L118 261L131 345C142 411 204 464 269 464L293 464C352 464 395 421 395 364C395 358 394 352 393 345ZM283 667C280 667 278 665 277 664L190 574C186 570 187 565 192 565L216 565C218 565 220 566 221 567L309 638L373 567C374 566 375 565 378 565L402 565C407 565 409 569 406 574L349 664C347 667 345 667 343 667Z"/>
<glyph unicode="&#xeb;" horiz-adv-x="528" d="M426 345C427 353 428 361 428 369C428 442 374 498 298 498L274 498C190 498 111 429 98 345L66 141C65 133 64 125 64 117C64 44 118 -12 194 -12L218 -12C284 -12 345 30 378 90C380 94 378 96 375 97L354 104C351 105 348 103 346 100C322 55 273 22 223 22L199 22C140 22 98 66 98 123C98 129 98 133 99 141L112 227L402 227C405 227 407 228 408 232ZM380 261L118 261L131 345C142 411 204 464 269 464L293 464C352 464 395 421 395 364C395 358 394 352 393 345ZM258 661C259 665 256 667 253 667L197 667C194 667 191 665 190 661L179 593C178 589 181 587 184 587L240 587C243 587 246 588 247 593ZM428 661C429 665 426 667 423 667L367 667C364 667 361 665 360 661L349 593C348 589 351 587 354 587L410 587C413 587 416 588 417 593Z"/>
<glyph unicode="&#xec;" horiz-adv-x="528" d="M421 29C422 33 420 34 417 34L264 34L335 481C336 485 333 487 330 487L149 487C146 487 144 486 143 482L139 458C138 454 140 453 143 453L296 453L230 34L32 34C29 34 27 33 26 29L22 5C21 1 24 0 27 0L412 0C415 0 417 2 417 5ZM306 568C308 566 310 565 313 565L337 565C343 565 345 570 342 574L286 664C284 667 282 667 279 667L236 667C230 667 227 661 231 657Z"/>
<glyph unicode="&#xed;" horiz-adv-x="528" d="M421 29C422 33 420 34 417 34L264 34L335 481C336 485 333 487 330 487L149 487C146 487 144 486 143 482L139 458C138 454 140 453 143 453L296 453L230 34L32 34C29 34 27 33 26 29L22 5C21 1 24 0 27 0L412 0C415 0 417 2 417 5ZM418 657C422 661 421 667 415 667L372 667C369 667 367 666 365 664L279 574C276 570 276 565 282 565L306 565C309 565 311 566 313 568Z"/>
<glyph unicode="&#xee;" horiz-adv-x="528" d="M421 29C422 33 420 34 417 34L264 34L335 481C336 485 333 487 330 487L149 487C146 487 144 486 143 482L139 458C138 454 140 453 143 453L296 453L230 34L32 34C29 34 27 33 26 29L22 5C21 1 24 0 27 0L412 0C415 0 417 2 417 5ZM318 667C315 667 313 665 312 664L225 574C221 570 222 565 227 565L251 565C253 565 255 566 256 567L344 638L408 567C409 566 410 565 413 565L437 565C442 565 444 569 441 574L384 664C382 667 380 667 378 667Z"/>
<glyph unicode="&#xef;" horiz-adv-x="528" d="M421 29C422 33 420 34 417 34L264 34L335 481C336 485 333 487 330 487L149 487C146 487 144 486 143 482L139 458C138 454 140 453 143 453L296 453L230 34L32 34C29 34 27 33 26 29L22 5C21 1 24 0 27 0L412 0C415 0 417 2 417 5ZM293 661C294 665 291 667 288 667L232 667C229 667 226 665 225 661L214 593C213 589 216 587 219 587L275 587C278 587 281 588 282 593ZM463 661C464 665 461 667 458 667L402 667C399 667 396 665 395 661L384 593C383 589 386 587 389 587L445 587C448 587 451 588 452 593Z"/>
<glyph unicode="&#xf0;" horiz-adv-x="528" d="M327 606C325 604 324 600 325 597L335 578C337 576 340 576 343 578L417 625C424 611 428 596 428 579C428 573 427 566 426 560L407 441C384 476 346 498 298 498L274 498C190 498 112 430 98 345L66 141C65 133 64 125 64 117C64 44 118 -12 194 -12L218 -12C302 -12 381 57 394 141L460 560C461 568 462 575 462 583C462 605 457 626 447 644L510 683C512 684 514 688 513 690L503 709C501 712 497 712 494 710L431 670C407 696 372 712 332 712L309 712C272 712 238 698 211 676C208 674 208 671 209 669L224 652C225 650 228 650 231 652C250 667 276 678 304 678L327 678C356 678 381 668 398 650ZM361 142C351 77 288 23 223 23L199 23C140 23 99 67 99 123C99 129 99 135 100 141L132 345C142 410 204 464 269 464L293 464C358 464 404 411 393 346Z"/>
<glyph unicode="&#xf1;" horiz-adv-x="528" d="M431 345C432 353 433 360 433 368C433 441 378 498 301 498L279 498C231 498 185 476 151 441L158 482C159 486 157 487 154 487L131 487C128 487 126 486 125 482L49 5C49 2 51 0 54 0L76 0C79 0 81 1 82 5L136 345C147 411 209 464 274 464L296 464C356 464 398 421 398 365C398 359 397 352 396 345L342 5C341 1 344 0 347 0L371 0C374 0 376 1 377 5ZM441 627C442 632 440 633 436 633L414 633C410 633 408 632 407 628C403 612 388 594 365 594C352 594 337 600 319 613C296 630 274 637 253 637C213 637 181 610 172 571C171 567 173 565 177 565L199 565C203 565 205 566 206 570C211 586 225 604 248 604C261 604 276 598 294 585C317 568 340 561 361 561C401 561 432 588 441 627Z"/>
<glyph unicode="&#xf2;" horiz-adv-x="528" d="M426 345C427 353 428 361 428 369C428 442 374 498 298 498L274 498C190 498 111 429 98 345L66 141C65 133 64 125 64 117C64 44 118 -12 194 -12L218 -12C302 -12 381 57 394 141ZM361 141C350 75 288 22 223 22L199 22C140 22 97 65 97 122C97 128 98 134 99 141L131 345C142 411 204 464 269 464L293 464C352 464 395 421 395 364C395 358 394 352 393 345ZM281 568C283 566 285 565 288 565L312 565C318 565 320 570 317 574L261 664C259 667 257 667 254 667L211 667C205 667 202 661 206 657Z"/>
<glyph unicode="&#xf3;" horiz-adv-x="528" d="M426 345C427 353 428 361 428 369C428 442 374 498 298 498L274 498C190 498 111 429 98 345L66 141C65 133 64 125 64 117C64 44 118 -12 194 -12L218 -12C302 -12 381 57 394 141ZM361 141C350 75 288 22 223 22L199 22C140 22 97 65 97 122C97 128 98 134 99 141L131 345C142 411 204 464 269 464L293 464C352 464 395 421 395 364C395 358 394 352 393 345ZM418 657C422 661 421 667 415 667L372 667C369 667 367 666 365 664L279 574C276 570 276 565 282 565L306 565C309 565 311 566 313 568Z"/>
<glyph unicode="&#xf4;" horiz-adv-x="528" d="M426 345C427 353 428 361 428 369C428 442 374 498 298 498L274 498C190 498 111 429 98 345L66 141C65 133 64 125 64 117C64 44 118 -12 194 -12L218 -12C302 -12 381 57 394 141ZM361 141C350 75 288 22 223 22L199 22C140 22 97 65 97 122C97 128 98 134 99 141L131 345C142 411 204 464 269 464L293 464C352 464 395 421 395 364C395 358 394 352 393 345ZM283 667C280 667 278 665 277 664L190 574C186 570 187 565 192 565L216 565C218 565 220 566 221 567L309 638L373 567C374 566 375 565 378 565L402 565C407 565 409 569 406 574L349 664C347 667 345 667 343 667Z"/>
<glyph unicode="&#xf5;" horiz-adv-x="528" d="M426 345C427 353 428 361 428 369C428 442 374 498 298 498L274 498C190 498 111 429 98 345L66 141C65 133 64 125 64 117C64 44 118 -12 194 -12L218 -12C302 -12 381 57 394 141ZM361 141C350 75 288 22 223 22L199 22C140 22 97 65 97 122C97 128 98 134 99 141L131 345C142 411 204 464 269 464L293 464C352 464 395 421 395 364C395 358 394 352 393 345ZM438 627C439 632 437 633 433 633L411 633C407 633 405 632 404 628C400 612 385 594 362 594C349 594 334 600 316 613C293 630 271 637 250 637C210 637 178 610 169 571C168 567 170 565 174 565L196 565C200 565 202 566 203 570C208 586 222 604 245 604C258 604 273 598 291 585C314 568 337 561 358 561C398 561 429 588 438 627Z"/>
<glyph unicode="&#xf6;" horiz-adv-x="528" d="M426 345C427 353 428 361 428 369C428 442 374 498 298 498L274 498C190 498 111 429 98 345L66 141C65 133 64 125 64 117C64 44 118 -12 194 -12L218 -12C302 -12 381 57 394 141ZM361 141C350 75 288 22 223 22L199 22C140 22 97 65 97 122C97 128 98 134 99 141L131 345C142 411 204 464 269 464L293 464C352 464 395 421 395 364C395 358 394 352 393 345ZM258 661C259 665 256 667 253 667L197 667C194 667 191 665 190 661L179 593C178 589 181 587 184 587L240 587C243 587 246 588 247 593ZM428 661C429 665 426 667 423 667L367 667C364 667 361 665 360 661L349 593C348 589 351 587 354 587L410 587C413 587 416 588 417 593Z"/>
<glyph unicode="&#xf7;" horiz-adv-x="528" d="M317 447C318 451 316 452 313 452L245 452C242 452 240 451 239 447L229 379C228 375 230 374 233 374L301 374C304 374 306 375 307 379ZM391 267C391 270 390 272 387 272L116 272C112 272 109 270 109 267L105 242C104 239 106 237 110 237L381 237C384 237 386 239 387 242ZM267 130C268 133 266 135 263 135L195 135C192 135 190 133 189 130L178 62C178 59 180 57 183 57L251 57C254 57 256 59 256 62Z"/>
<glyph unicode="&#xf8;" horiz-adv-x="528" d="M426 345C427 353 428 362 428 370C428 411 411 446 382 469L416 534C418 537 417 541 414 542L394 550C391 551 388 550 386 547L354 486C338 493 319 498 298 498L274 498C190 498 111 429 98 345L66 141C65 133 64 125 64 117C64 76 81 41 110 17L76 -49C74 -52 75 -55 78 -56L99 -64C101 -65 104 -65 106 -62L138 1C154 -7 173 -12 194 -12L218 -12C302 -12 381 57 394 141ZM361 141C351 76 288 23 223 23L199 23C183 23 168 26 154 33L365 436C383 418 395 392 395 363C395 357 394 351 393 345ZM128 51C109 69 97 94 97 123C97 129 98 135 99 141L131 345C142 411 204 464 269 464L293 464C309 464 325 461 338 454Z"/>
<glyph unicode="&#xf9;" horiz-adv-x="528" d="M443 482C444 486 442 487 439 487L416 487C413 487 411 486 410 482L356 141C346 76 283 22 218 22L196 22C135 22 95 66 95 122C95 128 95 134 96 141L150 482C151 486 149 487 146 487L121 487C118 487 116 486 115 482L61 141C60 133 59 126 59 118C59 45 114 -12 191 -12L213 -12C261 -12 307 11 341 45L334 5C333 1 336 0 339 0L361 0C364 0 366 1 367 5ZM291 568C293 566 295 565 298 565L322 565C328 565 330 570 327 574L271 664C269 667 267 667 264 667L221 667C215 667 212 661 216 657Z"/>
<glyph unicode="&#xfa;" horiz-adv-x="528" d="M443 482C444 486 442 487 439 487L416 487C413 487 411 486 410 482L356 141C346 76 283 22 218 22L196 22C135 22 95 66 95 122C95 128 95 134 96 141L150 482C151 486 149 487 146 487L121 487C118 487 116 486 115 482L61 141C60 133 59 126 59 118C59 45 114 -12 191 -12L213 -12C261 -12 307 11 341 45L334 5C333 1 336 0 339 0L361 0C364 0 366 1 367 5ZM403 657C407 661 406 667 400 667L357 667C354 667 352 666 350 664L264 574C261 570 261 565 267 565L291 565C294 565 296 566 298 568Z"/>
<glyph unicode="&#xfb;" horiz-adv-x="528" d="M443 482C444 486 442 487 439 487L416 487C413 487 411 486 410 482L356 141C346 76 283 22 218 22L196 22C135 22 95 66 95 122C95 128 95 134 96 141L150 482C151 486 149 487 146 487L121 487C118 487 116 486 115 482L61 141C60 133 59 126 59 118C59 45 114 -12 191 -12L213 -12C261 -12 307 11 341 45L334 5C333 1 336 0 339 0L361 0C364 0 366 1 367 5ZM278 667C275 667 273 665 272 664L185 574C181 570 182 565 187 565L211 565C213 565 215 566 216 567L304 638L368 567C369 566 370 565 373 565L397 565C402 565 404 569 401 574L344 664C342 667 340 667 338 667Z"/>
<glyph unicode="&#xfc;" horiz-adv-x="528" d="M443 482C444 486 442 487 439 487L416 487C413 487 411 486 410 482L356 141C346 76 283 22 218 22L196 22C135 22 95 66 95 122C95 128 95 134 96 141L150 482C151 486 149 487 146 487L121 487C118 487 116 486 115 482L61 141C60 133 59 126 59 118C59 45 114 -12 191 -12L213 -12C261 -12 307 11 341 45L334 5C333 1 336 0 339 0L361 0C364 0 366 1 367 5ZM258 661C259 665 256 667 253 667L197 667C194 667 191 665 190 661L179 593C178 589 181 587 184 587L240 587C243 587 246 588 247 593ZM428 661C429 665 426 667 423 667L367 667C364 667 361 665 360 661L349 593C348 589 351 587 354 587L410 587C413 587 416 588 417 593Z"/>
<glyph unicode="&#xfd;" horiz-adv-x="528" d="M444 479C446 483 445 487 441 487L419 487C417 487 414 486 413 483L227 57L165 483C165 486 163 487 161 487L137 487C133 487 128 485 129 479L200 -2L165 -76C134 -142 86 -147 14 -147L3 -147C0 -147 -2 -148 -3 -152L-6 -176C-7 -180 -5 -181 -2 -181L9 -181C94 -181 159 -173 200 -79ZM418 657C422 661 421 667 415 667L372 667C369 667 367 666 365 664L279 574C276 570 276 565 282 565L306 565C309 565 311 566 313 568Z"/>
<glyph unicode="&#xfe;" horiz-adv-x="528" d="M435 345C436 353 437 361 437 369C437 442 383 498 306 498L284 498C236 498 190 476 156 441L199 708C199 711 197 712 194 712L171 712C168 712 166 712 165 708L17 -222C17 -225 19 -227 22 -227L45 -227C48 -227 50 -226 51 -222L94 45C116 11 156 -12 204 -12L226 -12C311 -12 390 57 403 141ZM369 141C359 76 297 23 231 23L209 23C149 23 108 67 108 123C108 129 108 133 109 141L141 345C152 411 213 464 279 464L301 464C360 464 403 422 403 365C403 359 402 352 401 345Z"/>
<glyph unicode="&#xff;" horiz-adv-x="528" d="M444 479C446 483 445 487 441 487L419 487C417 487 414 486 413 483L227 57L165 483C165 486 163 487 161 487L137 487C133 487 128 485 129 479L200 -2L165 -76C134 -142 86 -147 14 -147L3 -147C0 -147 -2 -148 -3 -152L-6 -176C-7 -180 -5 -181 -2 -181L9 -181C94 -181 159 -173 200 -79ZM273 661C274 665 271 667 268 667L212 667C209 667 206 665 205 661L194 593C193 589 196 587 199 587L255 587C258 587 261 588 262 593ZM443 661C444 665 441 667 438 667L382 667C379 667 376 665 375 661L364 593C363 589 366 587 369 587L425 587C428 587 431 588 432 593Z"/>
<glyph unicode="&#x152;" horiz-adv-x="528" d="M410 29C411 33 408 34 405 34L252 34L300 340L432 340C435 340 437 341 438 345L442 368C443 372 440 373 437 373L306 373L354 679L508 679C511 679 514 681 514 684L518 708C518 711 516 712 513 712L331 712C328 712 326 711 325 707L322 688C304 710 276 724 243 724C177 724 115 671 105 606L27 108C26 100 26 95 26 89C26 32 67 -12 127 -12C160 -12 192 2 217 24L214 5C213 1 216 0 219 0L400 0C403 0 405 1 406 5ZM231 108C223 60 178 23 132 23C90 23 60 53 60 94C60 99 60 101 61 108L139 606C146 652 191 690 238 690C280 690 310 659 310 619C310 615 310 612 309 606Z"/>
<glyph unicode="&#x153;" horiz-adv-x="528" d="M448 120C448 124 446 125 443 125L419 125C416 125 414 124 413 120L411 108C403 60 360 23 313 23C271 23 241 53 241 94C241 99 241 101 242 108L260 227L458 227C461 227 464 228 465 232L489 379C490 387 490 391 490 397C490 454 447 498 388 498C345 498 304 475 277 441C262 475 227 498 184 498C119 498 57 444 47 379L4 108C3 101 2 95 2 89C2 32 45 -12 104 -12C147 -12 188 12 215 46C230 12 265 -12 308 -12C373 -12 435 42 446 108ZM435 260L266 260L285 379C292 426 336 464 383 464C426 464 455 433 455 392C455 388 455 385 454 379ZM208 108C200 60 156 23 109 23C67 23 37 52 37 93C37 98 37 101 38 108L82 379C89 426 132 464 179 464C222 464 252 433 252 392C252 388 252 385 251 379Z"/>
<glyph unicode="&#x178;" horiz-adv-x="528" d="M490 705C493 710 490 712 485 712L461 712C458 712 456 711 455 709L265 364L185 709C184 712 182 712 179 712L155 712C150 712 147 710 148 705L240 313L191 5C190 1 193 0 196 0L220 0C222 0 224 0 225 4L274 313ZM298 888C299 892 296 894 293 894L237 894C234 894 231 892 230 888L219 820C218 816 221 814 224 814L280 814C283 814 286 815 287 820ZM468 888C469 892 466 894 463 894L407 894C404 894 401 892 400 888L389 820C388 816 391 814 394 814L450 814C453 814 456 815 457 820Z"/>
<glyph unicode="&#x2c6;" horiz-adv-x="528" d="M319 667C316 667 314 665 313 664L226 574C222 570 223 565 228 565L252 565C254 565 256 566 257 567L345 638L409 567C410 566 411 565 414 565L438 565C443 565 445 569 442 574L385 664C383 667 381 667 379 667Z"/>
<glyph unicode="&#x2dc;" horiz-adv-x="528" d="M468 627C469 632 467 633 463 633L441 633C437 633 435 632 434 628C430 612 415 594 392 594C379 594 364 600 346 613C323 630 301 637 280 637C240 637 208 610 199 571C198 567 200 565 204 565L226 565C230 565 232 566 233 570C238 586 252 604 275 604C288 604 303 598 321 585C344 568 367 561 388 561C428 561 459 588 468 627Z"/>
<glyph unicode="&#x2013;" horiz-adv-x="528" d="M391 267C392 271 389 272 386 272L115 272C113 272 110 272 109 267L105 242C104 237 108 237 110 237L381 237C384 237 386 238 387 242Z"/>
<glyph unicode="&#x2014;" horiz-adv-x="528" d="M450 237C453 237 455 238 456 242L460 267C461 271 458 272 456 272L46 272C43 272 41 271 40 267L36 242C35 238 38 237 40 237Z"/>
<glyph unicode="&#x2018;" horiz-adv-x="528" d="M235 492C234 489 237 487 240 487L330 487C333 487 336 489 337 492L351 584C352 587 349 589 346 589L283 589L287 616C293 651 325 679 361 679C364 679 366 681 367 684L371 707C371 710 369 712 366 712C312 712 262 669 254 616Z"/>
<glyph unicode="&#x2019;" horiz-adv-x="528" d="M370 707C371 710 368 712 365 712L275 712C272 712 269 710 268 707L254 615C253 612 256 610 259 610L322 610L318 583C312 548 280 520 244 520C241 520 239 518 238 515L234 492C234 489 236 487 239 487C293 487 343 530 351 583Z"/>
<glyph unicode="&#x201a;" horiz-adv-x="528" d="M274 97C275 100 272 102 269 102L179 102C176 102 173 100 172 97L158 5C157 2 160 0 163 0L226 0L222 -27C216 -62 184 -90 148 -90C145 -90 143 -92 142 -95L138 -118C138 -121 140 -123 143 -123C197 -123 247 -80 255 -27Z"/>
<glyph unicode="&#x201c;" horiz-adv-x="528" d="M133 492C132 489 135 487 138 487L228 487C231 487 234 489 235 492L249 584C250 587 247 589 244 589L181 589L185 616C191 651 223 679 259 679C262 679 264 681 265 684L269 707C269 710 267 712 264 712C210 712 160 669 152 616ZM337 492C336 489 339 487 342 487L432 487C435 487 438 489 439 492L453 584C454 587 451 589 448 589L385 589L389 616C395 651 427 679 463 679C466 679 468 681 469 684L473 707C473 710 471 712 468 712C414 712 364 669 356 616Z"/>
<glyph unicode="&#x201d;" horiz-adv-x="528" d="M472 707C473 710 470 712 467 712L377 712C374 712 371 710 370 707L356 615C355 612 358 610 361 610L424 610L420 583C414 548 382 520 346 520C343 520 341 518 340 515L336 492C336 489 338 487 341 487C395 487 445 530 453 583ZM268 707C269 710 266 712 263 712L173 712C170 712 167 710 166 707L152 615C151 612 154 610 157 610L220 610L216 583C210 548 178 520 142 520C139 520 137 518 136 515L132 492C132 489 134 487 137 487C191 487 241 530 249 583Z"/>
<glyph unicode="&#x201e;" horiz-adv-x="528" d="M375 97C376 100 373 102 370 102L280 102C277 102 274 100 273 97L259 5C258 2 261 0 264 0L327 0L323 -27C317 -62 285 -90 249 -90C246 -90 244 -92 243 -95L239 -118C239 -121 241 -123 244 -123C298 -123 348 -80 356 -27ZM172 97C173 100 170 102 167 102L77 102C74 102 71 100 70 97L56 5C55 2 58 0 61 0L124 0L120 -27C114 -62 82 -90 46 -90C43 -90 41 -92 40 -95L36 -118C36 -121 38 -123 41 -123C95 -123 145 -80 153 -27Z"/>
<glyph unicode="&#x2022;" horiz-adv-x="528" d="M155 340C155 288 193 250 247 250C316 250 374 311 374 375C374 426 335 464 281 464C212 464 155 403 155 340Z"/>
<glyph unicode="&#x2026;" horiz-adv-x="528" d="M274 96C275 100 272 102 269 102L179 102C176 102 173 100 172 96L157 6C156 2 159 0 162 0L252 0C255 0 258 1 259 6ZM82 96C83 100 80 102 77 102L-13 102C-16 102 -19 100 -20 96L-35 6C-36 2 -33 0 -30 0L60 0C63 0 66 1 67 6ZM466 96C467 100 464 102 461 102L371 102C368 102 365 100 364 96L349 6C348 2 351 0 354 0L444 0C447 0 450 1 451 6Z"/>
<glyph unicode="&#x2039;" horiz-adv-x="528" d="M403 388C407 392 404 397 399 397L374 397C373 397 371 397 369 394L260 261C258 259 257 257 257 255L253 233C253 231 253 229 254 227L321 93C322 91 324 90 326 90L351 90C356 90 360 93 357 99L287 235L289 252Z"/>
<glyph unicode="&#x203a;" horiz-adv-x="528" d="M196 252L194 235L80 99C77 95 79 90 84 90L108 90C110 90 111 90 113 92L225 228C226 229 227 231 227 233L230 257C230 259 229 261 228 263L162 394C161 396 159 397 157 397L132 397C127 397 124 392 126 388Z"/>
<glyph unicode="&#x20ac;" horiz-adv-x="528" d="M229 -12C313 -12 393 57 406 141L410 165C411 169 407 170 405 170L381 170C378 170 376 169 375 165L371 141C361 76 299 23 234 23L199 23C140 23 98 66 98 123C98 129 98 133 99 141L116 249L320 319C323 320 325 321 324 325L320 347C319 351 316 351 313 350L121 284L138 386L331 452C334 453 336 455 335 459L331 480C330 484 326 485 323 484L143 422L167 571C177 637 240 690 305 690L340 690C399 690 440 646 440 589C440 583 440 577 437 559C436 555 438 554 441 554L466 554C469 554 471 555 472 559C475 579 476 587 476 595C476 669 421 724 345 724L310 724C226 724 147 656 134 571L108 410L31 383C28 382 26 380 27 376L32 354C33 350 35 350 38 351L103 373L87 272L21 250C18 249 16 247 17 243L21 221C22 217 24 217 27 218L81 236L66 141C65 133 64 125 64 117C64 44 118 -12 194 -12Z"/>
<glyph unicode="&#x2122;" horiz-adv-x="528" d="M569 719C570 723 567 724 564 724L515 724C513 724 510 723 509 720L404 477L377 719C376 724 373 724 371 724L321 724C318 724 316 723 315 719L272 447C271 443 274 442 277 442L300 442C303 442 305 443 306 447L344 688L372 445C372 444 373 442 376 442L420 442C423 442 425 443 426 445L530 688L492 448C491 444 493 442 496 442L520 442C523 442 525 443 526 447ZM265 719C266 722 264 724 261 724L79 724C76 724 74 723 73 719L70 695C69 691 71 690 74 690L148 690L109 447C108 443 111 442 114 442L138 442C141 442 143 443 144 447L183 690L255 690C258 690 261 691 262 696Z"/>
<glyph unicode="&#xfb01;" horiz-adv-x="528" d="M445 0C448 0 450 1 451 5L455 29C456 33 453 34 451 34L377 34L444 459C445 463 442 464 440 464L173 464L190 571C201 639 254 690 317 690L340 690C396 690 431 651 431 594C431 586 430 578 429 570C428 566 430 565 433 565L456 565C459 565 462 566 462 570C463 579 464 589 464 598C464 669 420 724 345 724L322 724C236 724 170 654 157 571L140 464L65 464C62 464 60 463 59 459L55 435C54 431 57 430 60 430L135 430L72 34L-3 34C-6 34 -8 33 -9 29L-13 5C-14 1 -11 0 -8 0L174 0C177 0 179 1 180 5L184 29C185 33 182 34 179 34L105 34L168 430L407 430L344 34L269 34C266 34 264 33 263 29L259 5C258 1 261 0 264 0Z"/>
<glyph unicode="&#xfb02;" horiz-adv-x="528" d="M455 29C456 33 453 34 451 34L377 34L462 571C463 580 464 590 464 599C464 669 420 724 345 724L322 724C236 724 170 654 157 571L140 464L65 464C62 464 60 463 59 459L55 435C54 431 57 430 60 430L135 430L72 34L-25 34C-28 34 -30 33 -31 29L-35 5C-36 1 -33 0 -30 0L445 0C448 0 450 1 451 5ZM344 34L105 34L168 430L298 430C301 430 303 431 304 435L308 459C309 463 306 464 304 464L173 464L190 571C201 639 254 690 317 690L340 690C396 690 431 650 431 594C431 587 430 579 429 571Z"/>
</font>
</defs>
</svg>
