<?xml version="1.0" encoding="UTF-8" standalone="no"?>
<!DOCTYPE svg PUBLIC "-//W3C//DTD SVG 1.1//EN" "http://www.w3.org/Graphics/SVG/1.1/DTD/svg11.dtd" >
<svg xmlns="http://www.w3.org/2000/svg">
<metadata>
This is a SVG font generated by e-font.
</metadata>
<defs>
<font id="HPESimpleWebOblique" horiz-adv-x="528" >
<font-face units-per-em="1000" ascent="950" descent="-250" />
<missing-glyph horiz-adv-x="528" />
<glyph unicode="&#x20;" horiz-adv-x="528" />
<glyph unicode="&#x21;" horiz-adv-x="528" d="M351 702C352 708 347 712 341 712L299 712C293 712 286 708 285 702L210 227C209 221 215 216 221 216L263 216C269 216 275 221 276 227ZM291 119C292 125 288 130 282 130L174 130C168 130 162 125 161 119L144 11C143 5 147 0 153 0L261 0C267 0 273 5 274 11Z"/>
<glyph unicode="&#x22;" horiz-adv-x="528" d="M286 702C287 708 283 712 277 712L168 712C162 712 157 708 156 702L138 593C137 587 142 582 148 582L203 582L201 572C196 542 167 518 137 518C132 518 126 514 125 508L118 465C117 459 122 453 127 453C193 453 255 507 265 572ZM481 702C482 708 478 712 472 712L363 712C357 712 352 708 351 702L333 593C332 587 337 582 343 582L398 582L396 572C391 542 362 518 332 518C327 518 321 514 320 508L313 465C312 459 317 453 322 453C388 453 450 507 460 572Z"/>
<glyph unicode="&#x23;" horiz-adv-x="528" d="M521 486C522 492 518 496 513 496L434 496L501 700C503 707 501 712 492 712L449 712C443 712 439 709 437 704L368 496L251 496L320 700C322 707 320 712 311 712L267 712C262 712 258 709 256 704L186 496L97 496C91 496 85 492 84 486L77 442C76 436 81 431 87 431L165 431L114 281L25 281C20 281 14 277 13 271L6 227C5 221 10 216 15 216L92 216L24 12C22 5 25 0 32 0L75 0C80 0 87 4 89 9L158 216L275 216L205 12C203 5 207 0 214 0L258 0C263 0 268 4 270 9L340 216L431 216C437 216 442 221 443 227L450 271C451 277 447 281 441 281L362 281L412 431L503 431C508 431 513 436 514 442ZM346 431L296 281L180 281L230 431Z"/>
<glyph unicode="&#x24;" horiz-adv-x="528" d="M420 183C422 195 423 206 423 217C423 389 181 382 181 511C181 517 182 523 183 529L188 562C197 615 248 659 301 659L323 659C371 659 405 624 405 578C405 573 405 569 404 562L401 540C400 535 404 529 410 529L453 529C459 529 465 535 466 540L469 562C470 571 471 579 471 587C471 657 423 712 355 722L365 788C366 794 361 799 355 799L313 799C307 799 300 794 299 788L289 722C209 711 136 644 123 562L118 529C116 518 115 508 115 498C115 332 357 341 357 204C357 197 356 190 355 183L350 151C342 98 291 54 237 54L195 54C146 54 111 91 111 137C111 142 111 144 112 151L116 173C117 179 112 183 106 183L62 183C56 183 52 179 51 173L47 151C46 143 45 134 45 126C45 52 98 -6 173 -11L162 -76C161 -82 167 -86 173 -86L215 -86C221 -86 227 -82 228 -76L239 -11C324 -5 402 65 415 151Z"/>
<glyph unicode="&#x25;" horiz-adv-x="528" d="M293 642C294 647 294 651 294 655C294 694 265 724 225 724L203 724C159 724 116 687 109 642L89 513C88 507 88 504 88 500C88 461 117 432 157 432L179 432C223 432 266 468 273 513ZM441 470C447 475 447 482 443 486L418 516C415 520 407 520 402 516L86 243C81 238 80 232 83 228L109 197C112 193 119 193 124 197ZM219 513C216 498 201 486 187 486L165 486C151 486 141 498 143 513L163 642C166 658 180 669 194 669L216 669C230 669 242 658 239 642ZM439 199C440 204 440 208 440 212C440 251 411 281 371 281L349 281C305 281 262 244 255 199L235 70C234 64 234 61 234 57C234 18 263 -11 303 -11L325 -11C369 -11 412 25 419 70ZM365 70C362 55 347 43 333 43L311 43C297 43 287 55 289 70L309 199C312 215 326 226 340 226L362 226C376 226 388 215 385 199Z"/>
<glyph unicode="&#x26;" horiz-adv-x="528" d="M390 83C403 104 411 127 415 151L441 313C442 319 439 324 433 324L389 324C383 324 377 319 376 313L352 161L192 502C187 513 185 524 185 535C185 545 187 555 188 562C197 615 248 659 301 659L323 659C371 659 405 624 405 578C405 573 405 569 404 562L389 465C388 459 392 453 398 453L441 453C447 453 453 459 454 465L469 562C470 571 471 579 471 587C471 664 413 724 333 724L311 724C222 724 137 651 123 562C121 542 120 534 120 526C120 480 142 444 161 405C109 379 77 337 66 270L47 151C46 142 45 134 45 126C45 48 104 -11 185 -11L227 -11C267 -11 306 4 339 28L355 -8C357 -13 364 -14 370 -11L410 12C416 15 418 22 416 27ZM312 84C292 65 265 54 237 54L195 54C146 54 111 91 111 137C111 142 111 145 112 151L131 270C138 312 158 339 185 352Z"/>
<glyph unicode="&#x27;" horiz-adv-x="528" d="M384 702C385 708 381 712 375 712L266 712C261 712 255 708 254 702L236 593C235 587 241 582 246 582L301 582L299 572C294 542 265 518 235 518C230 518 224 514 223 508L216 465C215 459 220 453 225 453C291 453 353 507 363 572Z"/>
<glyph unicode="&#x28;" horiz-adv-x="528" d="M279 -161C280 -155 276 -151 270 -151L248 -151C201 -151 165 -115 165 -68C165 -63 165 -60 166 -54L262 551C271 605 322 647 374 647L396 647C402 647 408 652 409 658L416 702C417 708 413 712 407 712L385 712C296 712 212 640 198 551L102 -54C101 -63 100 -71 100 -79C100 -156 158 -216 238 -216L260 -216C266 -216 271 -211 272 -205Z"/>
<glyph unicode="&#x29;" horiz-adv-x="528" d="M392 551C393 560 394 568 394 576C394 653 337 712 257 712L235 712C229 712 223 708 222 702L215 658C214 652 218 647 224 647L246 647C293 647 329 612 329 566C329 561 329 557 328 551L232 -54C224 -108 172 -151 120 -151L98 -151C92 -151 86 -155 85 -161L78 -205C77 -211 82 -216 88 -216L110 -216C199 -216 282 -143 296 -54Z"/>
<glyph unicode="&#x2a;" horiz-adv-x="528" d="M105 508C104 502 107 496 113 496L236 500L156 396C152 391 152 385 158 381L191 359C196 356 202 357 206 363L282 470L324 363C326 357 332 356 337 359L378 381C386 385 386 391 384 396L338 500L459 496C465 496 470 502 471 508L478 552C479 558 476 564 470 564L347 560L427 664C431 669 431 675 425 679L392 701C387 704 381 703 377 697L301 590L259 697C257 703 251 704 246 701L205 679C197 675 196 670 199 664L245 560L124 564C118 564 113 558 112 552Z"/>
<glyph unicode="&#x2b;" horiz-adv-x="528" d="M403 280C404 286 400 292 394 292L287 292L304 399C305 405 300 410 294 410L252 410C246 410 239 405 238 399L221 292L114 292C108 292 102 286 101 280L95 237C94 232 98 227 104 227L211 227L194 119C193 113 198 108 204 108L246 108C252 108 259 113 260 119L277 227L384 227C390 227 396 232 397 237Z"/>
<glyph unicode="&#x2c;" horiz-adv-x="528" d="M291 120C291 126 288 130 282 130L173 130C167 130 162 126 161 120L143 11C142 5 147 0 153 0L208 0L206 -10C201 -40 172 -64 142 -64C137 -64 131 -68 130 -74L123 -117C122 -123 127 -129 132 -129C198 -129 260 -75 270 -10Z"/>
<glyph unicode="&#x2d;" horiz-adv-x="528" d="M382 280C383 286 379 292 373 292L135 292C129 292 123 286 122 280L116 237C115 232 119 227 125 227L363 227C369 227 375 232 376 237Z"/>
<glyph unicode="&#x2e;" horiz-adv-x="528" d="M291 119C292 125 288 130 282 130L174 130C168 130 162 125 161 119L144 11C143 5 147 0 153 0L261 0C267 0 273 5 274 11Z"/>
<glyph unicode="&#x2f;" horiz-adv-x="528" d="M37 14C32 7 35 0 44 0L90 0C94 0 97 1 101 7L493 698C498 707 494 712 485 712L438 712C434 712 431 711 428 706Z"/>
<glyph unicode="&#x30;" horiz-adv-x="528" d="M469 562C470 571 471 579 471 587C471 664 413 724 333 724L311 724C222 724 137 651 123 562L58 151C57 142 56 134 56 126C56 48 114 -11 195 -11L217 -11C306 -11 390 61 404 151ZM339 151C331 98 280 54 227 54L205 54C157 54 122 91 122 137C122 142 122 144 123 151L188 562C197 615 248 659 301 659L323 659C371 659 405 624 405 578C405 573 405 569 404 562Z"/>
<glyph unicode="&#x31;" horiz-adv-x="528" d="M421 55C422 61 418 65 412 65L272 65L372 702C373 708 369 712 363 712L310 712C305 712 303 711 300 708L139 550C135 545 136 539 139 535L168 507C171 503 179 504 183 508L294 618L207 65L45 65C39 65 34 61 33 55L26 11C25 5 28 0 34 0L401 0C407 0 413 5 414 11Z"/>
<glyph unicode="&#x32;" horiz-adv-x="528" d="M400 55C400 61 397 65 391 65L99 65C119 179 159 222 278 300C412 388 455 470 465 529L470 562C471 571 472 579 472 587C472 664 414 724 334 724L312 724C223 724 138 651 124 562L119 529C118 523 122 518 128 518L171 518C177 518 183 523 184 529L189 562C197 615 248 659 301 659L323 659C371 659 406 622 406 576C406 571 406 569 405 562L400 529C395 502 377 436 248 352C105 259 47 192 27 11C26 5 29 0 35 0L381 0C387 0 392 5 393 11Z"/>
<glyph unicode="&#x33;" horiz-adv-x="528" d="M437 292C451 381 394 453 296 453L480 644C481 645 482 646 483 651L491 702C492 708 488 712 482 712L180 712C174 712 168 708 167 702L160 659C159 653 163 648 169 648L402 648L217 457C216 456 215 455 214 450L206 399C205 394 208 389 214 389L289 389C343 389 381 346 372 292L350 151C341 98 290 54 236 54L194 54C145 54 111 89 111 135C111 140 111 144 117 183C118 189 114 194 108 194L64 194C58 194 53 189 52 183C45 139 45 133 45 124C45 47 103 -11 184 -11L226 -11C316 -11 401 61 415 151Z"/>
<glyph unicode="&#x34;" horiz-adv-x="528" d="M431 184C432 190 428 195 422 195L369 195L395 356C396 362 391 367 385 367L343 367C337 367 331 362 330 356L304 195L109 195L439 696C444 705 440 712 430 712L384 712C380 712 376 711 373 707L52 219C48 213 48 212 47 208L36 140C35 134 40 130 46 130L294 130L275 11C274 5 279 0 285 0L327 0C333 0 339 5 340 11L359 130L412 130C418 130 423 134 424 140Z"/>
<glyph unicode="&#x35;" horiz-adv-x="528" d="M430 313C431 320 432 330 432 338C432 415 374 475 294 475L272 475C240 475 209 466 181 449L222 647L461 647C467 647 473 652 474 658L481 702C482 708 478 712 472 712L182 712C176 712 170 708 169 703L92 335C91 329 95 324 102 324L141 324C164 324 175 410 262 410L284 410C332 410 366 375 366 329C366 324 366 320 365 313L340 151C332 98 280 54 227 54L205 54C157 54 123 89 123 135C123 140 123 146 129 183C130 189 126 194 120 194L77 194C71 194 65 189 64 183C57 142 57 133 57 124C57 47 115 -11 195 -11L217 -11C306 -11 391 61 405 151Z"/>
<glyph unicode="&#x36;" horiz-adv-x="528" d="M431 313C432 322 433 330 433 338C433 415 375 475 295 475L273 475C237 475 201 463 170 443L189 562C198 615 249 659 302 659L324 659C372 659 406 624 406 578C406 571 405 555 404 551C403 545 407 540 413 540L456 540C462 540 468 545 469 551C471 571 472 581 472 587C472 664 414 724 334 724L312 724C223 724 138 651 124 562L59 151C58 142 57 134 57 126C57 48 115 -11 196 -11L218 -11C307 -11 391 61 405 151ZM340 151C332 98 281 54 228 54L206 54C158 54 123 91 123 137C123 142 123 144 124 151L150 313C158 367 209 410 262 410L284 410C332 410 367 375 367 328C367 323 367 320 366 313Z"/>
<glyph unicode="&#x37;" horiz-adv-x="528" d="M501 702C502 708 499 712 493 712L147 712C141 712 136 708 135 702L129 658C128 652 131 647 137 647L429 647C415 560 342 484 288 412C217 320 136 202 82 12C80 6 84 0 91 0L134 0C139 0 145 4 147 10C197 183 272 292 338 378C403 463 478 545 493 647Z"/>
<glyph unicode="&#x38;" horiz-adv-x="528" d="M427 227C428 236 429 245 429 253C429 297 410 336 377 360C419 390 449 435 457 486L469 562C470 571 471 579 471 587C471 664 413 724 333 724L311 724C222 724 137 651 123 562L111 486C110 477 109 468 109 460C109 420 124 385 151 360C104 331 68 282 59 227L47 151C46 142 45 134 45 126C45 48 104 -11 185 -11L227 -11C317 -11 401 61 415 151ZM392 486C384 432 333 389 280 389L258 389C210 389 175 424 175 471C175 476 175 479 176 486L188 562C197 615 248 659 301 659L323 659C371 659 405 624 405 578C405 573 405 569 404 562ZM350 151C342 98 291 54 237 54L195 54C146 54 111 91 111 137C111 142 111 144 112 151L124 227C133 280 184 324 238 324L280 324C329 324 363 289 363 243C363 238 363 234 362 227Z"/>
<glyph unicode="&#x39;" horiz-adv-x="528" d="M470 562C471 571 472 579 472 587C472 664 414 724 334 724L312 724C223 724 138 651 124 562L99 399C98 390 97 382 97 374C97 297 155 237 235 237L257 237C293 237 329 250 359 270L340 151C332 98 281 54 228 54L217 54C168 54 134 90 134 136C134 141 134 146 137 162C138 168 133 173 128 173L85 173C80 173 73 168 72 162C69 147 68 134 68 126C68 48 126 -11 207 -11L218 -11C307 -11 391 61 405 151ZM380 399C371 346 320 302 267 302L245 302C197 302 163 338 163 384C163 389 163 392 164 399L189 562C197 615 249 659 302 659L324 659C372 659 406 624 406 578C406 573 406 569 405 562Z"/>
<glyph unicode="&#x3a;" horiz-adv-x="528" d="M291 119C292 125 287 130 281 130L173 130C167 130 162 125 161 119L143 11C142 5 147 0 153 0L261 0C267 0 272 5 273 11ZM345 465C346 471 342 476 336 476L228 476C222 476 216 471 215 465L198 357C197 351 201 346 207 346L315 346C321 346 327 351 328 357Z"/>
<glyph unicode="&#x3b;" horiz-adv-x="528" d="M292 120C293 126 289 130 283 130L174 130C168 130 163 126 162 120L145 11C144 5 148 0 154 0L209 0L207 -10C202 -40 174 -64 144 -64C139 -64 132 -68 131 -74L124 -117C123 -123 128 -129 133 -129C199 -129 261 -75 271 -10ZM346 465C347 471 343 476 337 476L229 476C223 476 217 471 216 465L199 357C198 351 203 346 209 346L317 346C323 346 328 351 329 357Z"/>
<glyph unicode="&#x3c;" horiz-adv-x="528" d="M177 248L422 434C427 438 429 442 429 445C429 450 425 453 417 453L352 453C349 453 345 452 343 450L116 277C115 276 111 274 110 269L104 227C103 223 106 220 107 219L279 46C281 44 284 43 287 43L352 43C361 43 367 48 367 54C367 57 365 60 363 62Z"/>
<glyph unicode="&#x3d;" horiz-adv-x="528" d="M414 347C415 352 411 357 405 357L125 357C119 357 113 352 112 347L105 302C104 297 108 292 114 292L394 292C400 292 406 297 407 302ZM393 216C394 222 390 227 384 227L104 227C98 227 92 222 91 216L84 173C83 167 88 162 94 162L374 162C380 162 385 167 386 173Z"/>
<glyph unicode="&#x3e;" horiz-adv-x="528" d="M73 62C68 58 66 55 66 52C66 47 70 43 78 43L143 43C146 43 148 44 151 46L379 219C380 220 383 222 384 227L390 269C391 273 389 276 388 277L215 450C213 452 211 453 208 453L143 453C134 453 128 448 128 442C128 439 129 437 132 434L317 248Z"/>
<glyph unicode="&#x3f;" horiz-adv-x="528" d="M466 540C471 571 471 579 471 587C471 664 413 724 333 724L311 724C222 724 137 651 123 562L118 529C117 523 121 518 127 518L170 518C176 518 182 523 183 529L188 562C196 615 247 659 300 659L322 659C370 659 405 622 405 576C405 568 404 556 401 540C395 507 382 463 295 404C211 348 200 296 189 227C188 221 192 216 198 216L241 216C247 216 253 221 254 227C263 287 269 314 325 352C431 423 458 487 466 540ZM269 119C270 125 265 130 259 130L151 130C145 130 140 125 139 119L122 11C121 5 125 0 131 0L239 0C245 0 251 5 252 11Z"/>
<glyph unicode="&#x40;" horiz-adv-x="528" d="M491 562C492 571 493 579 493 587C493 664 435 724 355 724L301 724C211 724 126 651 112 562L111 551C110 545 113 540 119 540L163 540C169 540 175 545 176 551L177 562C186 615 237 659 291 659L345 659C393 659 427 624 427 578C427 573 427 569 426 562L351 86C348 68 331 54 313 54C296 54 283 68 286 86L349 486C350 492 346 496 340 496L297 496C293 496 289 495 286 490C269 501 247 508 224 508C152 508 83 449 72 378L31 119C30 112 29 105 29 99C29 36 77 -11 142 -11C175 -11 208 2 234 24C249 3 273 -11 303 -11C357 -11 408 33 416 86ZM226 119C220 83 187 54 152 54C119 54 95 77 95 108C95 111 95 113 96 119L137 378C143 414 176 443 213 443C244 443 268 420 268 389C268 386 268 383 267 378Z"/>
<glyph unicode="&#x41;" horiz-adv-x="528" d="M424 276L379 702C378 709 374 712 369 712L271 712C266 712 260 710 257 702L78 276L36 11C35 5 39 0 45 0L88 0C94 0 100 5 101 11L137 237L353 237L317 11C316 5 320 0 326 0L369 0C375 0 381 5 382 11ZM353 302L157 302L302 647L318 647Z"/>
<glyph unicode="&#x42;" horiz-adv-x="528" d="M436 227C437 236 438 245 438 253C438 297 419 336 387 360C428 390 458 435 466 486L477 551C478 559 479 568 479 576C479 653 421 712 340 712L167 712C162 712 156 709 155 702L46 11C45 5 49 0 54 0L238 0C328 0 412 73 426 162ZM401 486C393 432 343 389 289 389L171 389L212 647L330 647C379 647 413 613 413 566C413 561 413 557 412 551ZM361 162C352 108 303 65 249 65L120 65L161 324L290 324C338 324 372 289 372 243C372 238 372 233 371 227Z"/>
<glyph unicode="&#x43;" horiz-adv-x="528" d="M420 183C421 189 418 194 412 194L368 194C362 194 356 190 355 183L350 151C342 98 292 54 238 54L206 54C158 54 123 90 123 136C123 141 123 144 124 151L189 562C198 615 249 659 302 659L334 659C382 659 416 624 416 578C416 573 416 567 415 562L412 540C411 535 415 529 421 529L465 529C471 529 476 534 477 540L480 562C481 571 482 580 482 588C482 665 425 724 344 724L312 724C223 724 138 651 124 562L59 151C58 142 57 134 57 126C57 48 115 -11 196 -11L228 -11C318 -11 401 61 415 151Z"/>
<glyph unicode="&#x44;" horiz-adv-x="528" d="M476 551C477 559 478 568 478 576C478 653 420 712 339 712L166 712C161 712 155 708 154 702L45 11C44 5 48 0 53 0L226 0C315 0 400 73 414 162ZM349 162C340 108 291 65 237 65L119 65L211 647L329 647C378 647 412 613 412 566C412 561 412 557 411 551Z"/>
<glyph unicode="&#x45;" horiz-adv-x="528" d="M399 55C400 61 397 65 391 65L121 65L162 324L410 324C415 324 421 329 422 335L429 378C430 384 425 389 420 389L172 389L213 647L483 647C489 647 494 652 495 658L501 702C502 708 499 712 493 712L169 712C164 712 157 708 156 702L47 11C46 5 51 0 56 0L380 0C386 0 391 5 392 11Z"/>
<glyph unicode="&#x46;" horiz-adv-x="528" d="M512 702C513 708 509 712 503 712L180 712C174 712 168 708 167 702L58 11C57 5 61 0 67 0L110 0C116 0 122 5 123 11L173 324L421 324C427 324 432 329 433 335L440 378C441 384 437 389 431 389L183 389L224 647L493 647C499 647 505 652 506 658Z"/>
<glyph unicode="&#x47;" horiz-adv-x="528" d="M445 378C446 384 441 389 435 389L275 389C269 389 262 384 261 378L254 335C253 329 259 324 265 324L372 324L344 151C336 98 286 54 232 54L200 54C151 54 117 90 117 136C117 141 117 145 118 151L183 562C191 614 242 659 296 659L328 659C376 659 410 623 410 578C410 573 410 568 409 562L406 540C405 534 409 529 415 529L457 529C463 529 470 534 471 540L474 562C475 571 476 580 476 588C476 665 419 724 338 724L306 724C216 724 132 651 118 562L53 151C52 142 51 134 51 126C51 48 109 -11 190 -11L222 -11C312 -11 395 61 409 151Z"/>
<glyph unicode="&#x48;" horiz-adv-x="528" d="M491 702C492 708 488 712 482 712L439 712C433 712 427 708 426 702L377 389L161 389L210 702C211 708 207 712 201 712L158 712C152 712 146 708 145 702L36 11C35 5 39 0 45 0L88 0C94 0 100 5 101 11L151 324L367 324L317 11C316 5 320 0 326 0L369 0C375 0 381 5 382 11Z"/>
<glyph unicode="&#x49;" horiz-adv-x="528" d="M399 54C400 60 396 64 390 64L250 64L343 647L472 647C478 647 484 652 485 658L491 702C492 708 488 712 482 712L158 712C152 712 146 708 145 702L139 658C138 652 142 647 148 647L277 647L184 64L44 64C38 64 34 60 33 54L26 11C25 5 28 0 34 0L380 0C386 0 391 5 392 11Z"/>
<glyph unicode="&#x4a;" horiz-adv-x="528" d="M481 702C482 708 477 712 472 712L191 712C186 712 180 708 179 702L172 658C171 652 175 647 180 647L407 647L329 151C321 98 270 54 216 54L195 54C146 54 112 89 112 135C112 140 112 145 113 151L123 216C124 222 120 227 114 227L70 227C64 227 59 222 58 216L48 151C46 140 46 133 46 124C46 47 104 -11 185 -11L206 -11C295 -11 380 61 394 151Z"/>
<glyph unicode="&#x4b;" horiz-adv-x="528" d="M243 376L522 696C524 698 526 702 526 704C526 709 522 712 515 712L460 712C457 712 454 711 450 707L158 372L210 702C211 708 207 712 201 712L158 712C152 712 146 708 145 702L36 11C35 5 39 0 45 0L88 0C94 0 100 5 101 11L140 259L194 321L363 5C365 1 368 0 371 0L424 0C432 0 438 5 438 11C438 13 437 15 436 17Z"/>
<glyph unicode="&#x4c;" horiz-adv-x="528" d="M410 55C411 61 407 65 401 65L154 65L254 702C255 708 250 712 244 712L202 712C196 712 190 708 189 702L80 11C79 5 83 0 89 0L390 0C396 0 402 5 403 11Z"/>
<glyph unicode="&#x4d;" horiz-adv-x="528" d="M534 702C535 708 531 712 525 712L436 712C432 712 428 711 425 706L283 421C274 403 268 376 266 369C267 377 267 380 267 393C267 403 266 413 265 421L213 706C212 711 208 712 204 712L115 712C109 712 103 708 102 702L-7 11C-8 5 -4 0 2 0L46 0C52 0 57 5 58 11L144 551C148 576 150 620 150 630L168 630C168 620 168 576 173 551L220 309C221 304 225 302 229 302L281 302C285 302 289 304 292 309L417 551C430 576 442 620 445 630L463 630C461 620 450 576 446 551L360 11C359 5 362 0 368 0L412 0C418 0 424 5 425 11Z"/>
<glyph unicode="&#x4e;" horiz-adv-x="528" d="M506 702C507 708 502 712 497 712L453 712C449 712 442 708 441 702L356 162C352 140 351 93 351 83L332 83C332 93 332 140 329 162L246 704C245 710 239 712 236 712L143 712C138 712 131 708 130 702L21 11C20 5 25 0 30 0L74 0C78 0 85 5 86 11L172 551C175 572 176 620 176 630L196 630C196 620 196 572 199 551L282 7C283 2 287 0 291 0L384 0C389 0 396 5 397 11Z"/>
<glyph unicode="&#x4f;" horiz-adv-x="528" d="M475 562C476 571 477 580 477 588C477 665 420 724 339 724L307 724C217 724 133 651 119 562L54 151C53 142 52 134 52 126C52 48 110 -11 191 -11L223 -11C313 -11 396 61 410 151ZM345 151C337 98 287 54 233 54L201 54C152 54 118 90 118 136C118 141 118 144 119 151L184 562C193 615 243 659 297 659L329 659C377 659 411 624 411 578C411 573 411 568 410 562Z"/>
<glyph unicode="&#x50;" horiz-adv-x="528" d="M476 551C477 559 478 568 478 576C478 653 420 712 339 712L166 712C161 712 155 708 154 702L45 11C44 5 48 0 53 0L97 0C102 0 109 5 110 11L146 237L264 237C353 237 438 310 452 399ZM387 399C378 346 328 302 274 302L156 302L211 647L329 647C378 647 412 613 412 566C412 561 412 557 411 551Z"/>
<glyph unicode="&#x51;" horiz-adv-x="528" d="M406 1C410 4 411 7 411 10C411 12 410 15 409 16L371 61C391 87 406 118 411 151L476 562C477 571 478 580 478 588C478 665 421 724 340 724L308 724C218 724 134 651 120 562L55 151C54 142 53 133 53 125C53 47 110 -11 191 -11L223 -11C256 -11 289 -1 318 16L356 -30C358 -32 361 -33 364 -33C366 -33 369 -32 371 -30ZM346 151C344 136 339 122 330 109L272 180C270 182 267 183 264 183C261 183 258 182 256 180L221 149C218 146 216 143 216 139C216 137 217 134 218 133L278 63C263 58 250 54 234 54L202 54C153 54 119 90 119 136C119 141 119 145 120 151L185 562C194 615 244 659 298 659L330 659C378 659 412 624 412 578C412 573 412 568 411 562Z"/>
<glyph unicode="&#x52;" horiz-adv-x="528" d="M331 252C392 276 441 333 452 399L476 551C477 559 478 568 478 576C478 653 420 712 339 712L166 712C161 712 155 708 154 702L45 11C44 5 48 0 53 0L97 0C102 0 109 5 110 11L146 237L264 237L325 7C327 1 332 0 335 0L381 0C390 0 396 7 394 15ZM387 399C378 346 328 302 274 302L156 302L211 647L329 647C378 647 412 613 412 566C412 561 412 557 411 551Z"/>
<glyph unicode="&#x53;" horiz-adv-x="528" d="M415 151C422 195 423 206 423 216C423 389 181 382 181 511C181 516 182 523 188 562C197 615 247 659 300 659L322 659C370 659 405 623 405 577C405 572 404 564 401 540C400 535 404 529 410 529L453 529C459 529 465 533 466 540C471 567 471 579 471 587C471 664 413 724 333 724L311 724C222 724 137 651 123 562C116 517 116 508 116 498C116 332 357 341 357 204C357 197 356 190 350 151C342 98 291 54 237 54L195 54C146 54 111 91 111 137C111 142 111 146 116 173C117 179 112 183 106 183L62 183C56 183 52 179 51 173C46 150 45 134 45 126C45 48 103 -11 184 -11L226 -11C316 -11 401 61 415 151Z"/>
<glyph unicode="&#x54;" horiz-adv-x="528" d="M513 702C514 708 510 712 504 712L138 712C132 712 126 708 125 702L119 658C118 652 122 647 128 647L278 647L177 11C176 5 181 0 187 0L229 0C235 0 242 5 243 11L344 647L494 647C500 647 506 652 507 658Z"/>
<glyph unicode="&#x55;" horiz-adv-x="528" d="M492 702C493 708 489 712 483 712L440 712C434 712 428 708 427 702L340 151C331 98 280 54 227 54L205 54C157 54 123 89 123 135C123 140 123 145 124 151L211 702C212 708 208 712 202 712L159 712C153 712 147 708 146 702L59 151C58 142 57 134 57 126C57 48 115 -11 195 -11L217 -11C306 -11 391 61 405 151Z"/>
<glyph unicode="&#x56;" horiz-adv-x="528" d="M507 700C510 707 506 712 499 712L454 712C450 712 445 710 443 705L225 111L195 705C195 710 190 712 186 712L141 712C134 712 128 707 129 700L170 9C170 4 173 0 178 0L235 0C240 0 245 4 247 9Z"/>
<glyph unicode="&#x57;" horiz-adv-x="528" d="M550 702C551 708 547 712 542 712L499 712C493 712 487 708 486 703L424 380L372 173C363 140 353 76 351 66L331 66C332 74 335 128 335 142C335 150 334 177 334 183L323 402C323 407 318 410 313 410L229 410C224 410 219 407 217 402L134 173C122 140 105 76 103 66L83 66C84 76 94 140 96 173L108 380L150 703C151 709 145 712 139 712L96 712C91 712 85 708 84 702L43 375L25 10C25 4 29 0 34 0L121 0C127 0 131 4 133 9L231 270C240 292 249 335 251 345L271 345C270 336 267 301 267 278C267 275 268 257 268 255L283 9C283 4 286 0 291 0L377 0C383 0 389 4 391 10L489 375Z"/>
<glyph unicode="&#x58;" horiz-adv-x="528" d="M14 15C12 12 11 9 11 7C11 3 14 0 21 0L68 0C72 0 77 3 79 7L253 290L337 7C339 2 342 0 346 0L393 0C403 0 408 7 406 15L302 369L503 698C505 701 506 703 506 705C506 709 502 712 496 712L448 712C444 712 440 711 437 707L278 446L201 707C200 711 196 712 192 712L144 712C136 712 130 706 133 698L230 369Z"/>
<glyph unicode="&#x59;" horiz-adv-x="528" d="M500 698C501 700 502 703 502 705C502 710 499 712 493 712L446 712C442 712 438 711 435 706L270 398L203 706C202 711 198 712 194 712L147 712C139 712 134 706 136 698L224 312L176 11C175 5 180 0 186 0L228 0C234 0 241 5 242 11L290 312Z"/>
<glyph unicode="&#x5a;" horiz-adv-x="528" d="M399 55C400 61 397 65 391 65L118 65L475 637C483 649 484 653 485 659L491 702C492 708 488 712 482 712L169 712C164 712 157 708 156 702L150 658C149 652 154 647 159 647L410 647L53 76C45 64 44 62 42 49L36 11C35 5 39 0 45 0L380 0C386 0 391 5 392 11Z"/>
<glyph unicode="&#x5b;" horiz-adv-x="528" d="M279 -162C280 -156 276 -151 270 -151L151 -151L277 647L396 647C402 647 408 652 409 658L416 702C417 708 413 712 407 712L234 712C228 712 222 708 221 702L77 -205C76 -211 81 -216 87 -216L260 -216C266 -216 271 -211 272 -205Z"/>
<glyph unicode="&#x5c;" horiz-adv-x="528" d="M211 706C210 711 207 712 203 712L156 712C147 712 142 707 144 698L316 7C318 1 321 0 325 0L371 0C380 0 385 7 384 14Z"/>
<glyph unicode="&#x5d;" horiz-adv-x="528" d="M417 702C418 708 414 712 408 712L235 712C229 712 223 708 222 702L215 658C214 652 218 647 224 647L343 647L217 -151L98 -151C92 -151 86 -155 85 -161L78 -205C77 -211 82 -216 88 -216L261 -216C267 -216 272 -211 273 -205Z"/>
<glyph unicode="&#x5e;" horiz-adv-x="528" d="M74 339C70 330 74 324 82 324L127 324C131 324 136 326 139 331L310 646L381 331C382 326 387 324 391 324L436 324C444 324 450 330 448 339L365 706C364 711 360 712 356 712L284 712C280 712 276 711 273 706Z"/>
<glyph unicode="&#x5f;" horiz-adv-x="528" d="M389 55C390 61 385 65 379 65L55 65C49 65 44 61 43 55L36 11C35 5 39 0 45 0L369 0C375 0 381 5 382 11Z"/>
<glyph unicode="&#x60;" horiz-adv-x="528" d="M348 566C350 563 353 562 358 562L400 562C408 562 413 567 413 573C413 575 412 577 411 579L343 686C340 690 337 691 332 691L268 691C260 691 255 687 255 681C255 678 256 675 258 673Z"/>
<glyph unicode="&#x61;" horiz-adv-x="528" d="M446 486C447 492 443 496 438 496L395 496C389 496 383 492 382 486L380 475C356 495 324 508 288 508L266 508C177 508 93 435 79 346L48 151C46 139 46 134 46 126C46 48 104 -11 184 -11L205 -11C251 -11 293 7 326 36C339 14 362 0 391 0L413 0C419 0 424 5 425 11L432 55C433 61 428 65 423 65L401 65C391 65 381 73 383 86ZM328 151C320 98 270 54 216 54L195 54C146 54 111 89 111 136C111 141 111 144 112 151L143 346C152 399 203 443 256 443L277 443C326 443 361 407 361 361C361 357 360 351 359 346Z"/>
<glyph unicode="&#x62;" horiz-adv-x="528" d="M443 346C444 354 445 363 445 371C445 448 387 508 306 508L285 508C249 508 213 495 183 475L219 702C220 708 215 712 210 712L166 712C161 712 155 708 154 702L45 11C44 5 48 0 53 0L97 0C102 0 109 5 110 11L111 21C135 1 167 -11 203 -11L224 -11C313 -11 398 61 412 151ZM347 151C338 98 288 54 234 54L213 54C159 54 123 98 132 151L163 346C171 399 221 443 275 443L296 443C345 443 379 407 379 361C379 356 379 352 378 346Z"/>
<glyph unicode="&#x63;" horiz-adv-x="528" d="M405 151C406 156 402 162 396 162L353 162C347 162 341 156 340 151C331 98 280 54 227 54L205 54C157 54 123 89 123 135C123 140 123 145 124 151L155 346C163 399 214 443 267 443L289 443C337 443 372 406 372 360C372 355 372 353 371 346C370 340 374 335 380 335L423 335C429 335 435 340 436 346C437 354 438 363 438 371C438 448 380 508 299 508L277 508C188 508 104 435 90 346L59 151C58 142 57 134 57 126C57 48 115 -11 195 -11L217 -11C306 -11 391 61 405 151Z"/>
<glyph unicode="&#x64;" horiz-adv-x="528" d="M482 702C483 708 479 712 474 712L430 712C425 712 418 708 417 702L381 475C357 495 325 508 289 508L268 508C179 508 95 435 81 346L50 151C48 139 48 133 48 124C48 47 106 -11 186 -11L207 -11C243 -11 279 1 309 21L308 11C307 5 312 0 317 0L361 0C366 0 372 5 373 11ZM330 151C321 98 271 54 217 54L196 54C148 54 114 89 114 135C114 140 114 145 115 151L146 346C154 399 204 443 258 443L279 443C333 443 369 399 361 346Z"/>
<glyph unicode="&#x65;" horiz-adv-x="528" d="M436 346C437 354 438 363 438 371C438 448 380 508 299 508L277 508C188 508 104 435 90 346L59 151C58 142 57 134 57 126C57 48 115 -11 195 -11L217 -11C291 -11 363 40 392 108C395 114 393 120 386 122L347 133C340 135 336 132 333 126C314 84 272 54 227 54L205 54C157 54 123 89 123 135C123 140 123 145 124 151L134 216L404 216C410 216 416 221 417 227ZM360 281L144 281L155 346C163 399 214 443 267 443L289 443C337 443 372 406 372 360C372 355 372 352 371 346Z"/>
<glyph unicode="&#x66;" horiz-adv-x="528" d="M535 562C537 575 537 582 537 592C537 664 492 724 409 724L377 724C284 724 213 647 200 562L186 475L110 475C104 475 99 471 98 465L92 421C91 416 94 410 100 410L176 410L121 65L35 65C29 65 24 61 23 55L16 11C15 5 19 0 25 0L359 0C365 0 371 5 372 11L379 55C379 61 374 65 369 65L185 65L240 410L359 410C365 410 371 416 372 421L378 465C379 470 375 475 369 475L250 475L264 562C273 619 316 659 366 659L398 659C442 659 472 628 472 581C472 574 471 569 470 562L463 518C462 513 466 508 471 508L515 508C520 508 527 513 528 518Z"/>
<glyph unicode="&#x67;" horiz-adv-x="528" d="M448 486C449 492 445 496 440 496L396 496C391 496 384 494 383 486L382 475C358 496 326 508 290 508L269 508C180 508 95 436 81 346L50 152C49 143 48 135 48 127C48 49 106 -11 187 -11L208 -11C244 -11 280 2 310 22L296 -64C288 -118 238 -162 184 -162L163 -162C136 -162 113 -151 98 -133C94 -129 86 -129 82 -133L48 -164C43 -169 42 -175 46 -180C69 -208 107 -227 152 -227L173 -227C262 -227 347 -154 361 -64ZM330 152C322 98 272 54 218 54L197 54C148 54 114 90 114 137C114 142 114 146 115 152L146 346C155 399 205 443 259 443L280 443C328 443 362 408 362 362C362 357 362 353 361 346Z"/>
<glyph unicode="&#x68;" horiz-adv-x="528" d="M443 346C444 355 445 363 445 371C445 448 387 508 307 508L286 508C250 508 214 495 184 475L219 702C220 708 215 712 210 712L166 712C161 712 155 708 154 702L45 11C44 5 48 0 53 0L97 0C102 0 109 5 110 11L163 346C172 399 221 443 275 443L296 443C345 443 379 408 379 362C379 357 379 353 378 346L325 11C324 5 329 0 335 0L378 0C384 0 389 5 390 11Z"/>
<glyph unicode="&#x69;" horiz-adv-x="528" d="M394 691C395 697 390 702 384 702L300 702C294 702 287 697 286 691L273 605C272 599 277 594 283 594L367 594C373 594 380 599 381 605ZM433 55C434 61 430 65 424 65L283 65L350 486C351 492 347 496 341 496L147 496C141 496 136 492 135 486L128 442C127 436 131 431 137 431L276 431L218 65L36 65C30 65 24 61 23 55L16 11C15 5 20 0 26 0L414 0C420 0 425 5 426 11Z"/>
<glyph unicode="&#x6a;" horiz-adv-x="528" d="M447 691C448 697 444 702 438 702L353 702C347 702 340 697 339 691L326 605C325 599 330 594 336 594L421 594C427 594 433 599 434 605ZM404 486C405 492 399 496 394 496L156 496C151 496 146 492 145 486L138 442C137 436 141 431 146 431L330 431L252 -64C243 -118 193 -162 139 -162C91 -162 57 -126 57 -80C57 -75 57 -72 58 -64L66 -11C67 -5 62 0 57 0L14 0C8 0 2 -5 1 -11L-7 -64C-9 -75 -9 -82 -9 -91C-9 -169 49 -227 129 -227C218 -227 302 -155 317 -64Z"/>
<glyph unicode="&#x6b;" horiz-adv-x="528" d="M242 289L462 478C466 481 468 485 468 488C468 492 464 496 457 496L396 496C393 496 390 495 386 492L144 283L210 702C211 708 207 712 201 712L158 712C152 712 146 708 145 702L36 11C35 5 39 0 45 0L88 0C94 0 100 5 101 11L130 192L189 243L342 4C344 1 347 0 350 0L406 0C413 0 419 4 419 10C419 12 418 14 416 17Z"/>
<glyph unicode="&#x6c;" horiz-adv-x="528" d="M433 54C434 60 430 65 424 65L273 65L373 702C374 708 370 712 364 712L170 712C165 712 158 708 157 702L151 658C150 652 155 647 160 647L300 647L208 65L25 65C19 65 13 60 12 54L5 11C4 5 8 0 14 0L413 0C419 0 425 5 426 11Z"/>
<glyph unicode="&#x6d;" horiz-adv-x="528" d="M473 389C483 455 439 508 373 508C340 508 307 493 282 470C263 493 235 508 202 508C181 508 160 502 142 493C141 495 138 496 135 496L92 496C86 496 80 492 79 486L4 11C3 5 7 0 13 0L56 0C62 0 68 5 69 11L129 389C134 419 162 443 192 443C221 443 241 419 236 389L176 11C175 5 179 0 185 0L228 0C234 0 240 5 241 11L301 389C306 419 334 443 363 443C393 443 413 419 408 389L348 11C347 5 351 0 357 0L400 0C406 0 412 5 413 11Z"/>
<glyph unicode="&#x6e;" horiz-adv-x="528" d="M439 346C440 355 441 364 441 372C441 449 384 508 303 508L281 508C245 508 209 495 179 475L180 486C181 492 178 496 172 496L128 496C122 496 116 492 115 486L40 11C39 5 43 0 49 0L92 0C98 0 104 5 105 11L158 346C167 399 218 443 271 443L293 443C341 443 375 408 375 362C375 357 375 353 374 346L321 11C320 5 324 0 330 0L373 0C379 0 385 5 386 11Z"/>
<glyph unicode="&#x6f;" horiz-adv-x="528" d="M436 346C437 354 438 363 438 371C438 448 380 508 299 508L277 508C188 508 104 435 90 346L59 151C58 142 57 134 57 126C57 48 115 -11 195 -11L217 -11C306 -11 391 61 405 151ZM340 151C331 98 280 54 227 54L205 54C157 54 123 89 123 135C123 140 123 144 124 151L155 346C163 399 214 443 267 443L289 443C337 443 372 406 372 360C372 355 372 353 371 346Z"/>
<glyph unicode="&#x70;" horiz-adv-x="528" d="M443 346C457 435 395 508 306 508L285 508C249 508 213 495 183 475L185 486C186 492 180 496 175 496L131 496C126 496 121 492 120 486L10 -205C9 -211 14 -216 19 -216L63 -216C68 -216 74 -211 75 -205L111 21C135 1 167 -11 203 -11L224 -11C313 -11 398 61 412 151ZM347 151C338 98 288 54 234 54L213 54C165 54 131 89 131 135C131 140 131 144 132 151L163 346C171 399 221 443 275 443L296 443C350 443 386 399 378 346Z"/>
<glyph unicode="&#x71;" horiz-adv-x="528" d="M448 486C449 492 444 496 439 496L395 496C390 496 384 492 383 486L381 475C357 495 325 508 289 508L268 508C179 508 95 435 81 346L50 151C48 138 48 134 48 126C48 48 106 -11 186 -11L207 -11C243 -11 279 1 309 21L273 -205C272 -211 278 -216 283 -216L327 -216C333 -216 337 -211 338 -205ZM330 151C321 98 271 54 217 54L196 54C148 54 114 89 114 135C114 140 114 144 115 151L146 346C154 399 204 443 258 443L279 443C328 443 362 407 362 361C362 356 362 353 361 346Z"/>
<glyph unicode="&#x72;" horiz-adv-x="528" d="M456 346C457 355 458 364 458 372C458 446 404 508 321 508L299 508C205 508 125 431 111 346L67 65L-9 65C-14 65 -20 61 -21 55L-28 11C-29 5 -25 0 -20 0L304 0C310 0 316 5 317 11L324 55C325 61 321 65 315 65L132 65L176 346C185 403 239 443 289 443L311 443C356 443 392 410 392 362C392 357 392 354 391 346L377 258C376 252 380 248 386 248L430 248C436 248 441 252 442 258Z"/>
<glyph unicode="&#x73;" horiz-adv-x="528" d="M413 140C414 146 415 155 415 162C415 304 166 261 166 352C166 355 166 356 167 361C177 410 218 443 277 443L288 443C339 443 372 413 372 370C372 362 371 357 370 346C369 340 373 335 379 335L422 335C428 335 434 340 435 346C438 365 438 373 438 381C438 459 375 508 298 508L287 508C202 508 117 454 102 361C101 353 100 347 100 340C100 199 349 240 349 149C349 146 349 145 348 140C339 88 294 54 236 54L204 54C152 54 119 83 119 126C119 130 119 133 124 162C125 168 120 173 114 173L71 173C65 173 60 167 59 162C54 131 53 123 53 115C53 37 117 -11 194 -11L226 -11C313 -11 398 47 413 140Z"/>
<glyph unicode="&#x74;" horiz-adv-x="528" d="M429 173C430 179 426 183 420 183L376 183C370 183 365 179 364 173L361 151C352 98 302 54 249 54C200 54 166 89 166 135C166 140 166 145 167 151L208 410L413 410C419 410 424 416 425 421L432 465C433 470 429 475 423 475L218 475L254 702C255 708 250 712 244 712L202 712C196 712 190 708 189 702L153 475L78 475C72 475 66 470 65 465L58 421C57 416 62 410 68 410L143 410L102 151C100 141 100 133 100 124C100 47 158 -11 239 -11C328 -11 411 61 426 151Z"/>
<glyph unicode="&#x75;" horiz-adv-x="528" d="M453 486C454 492 450 496 444 496L400 496C394 496 389 492 388 486L335 151C327 98 276 54 223 54L201 54C152 54 118 90 118 136C118 141 118 144 119 151L172 486C173 492 169 496 163 496L120 496C114 496 108 492 107 486L54 151C53 142 52 134 52 126C52 48 110 -11 191 -11L213 -11C249 -11 284 1 315 21L313 11C312 5 315 0 321 0L365 0C371 0 377 5 378 11Z"/>
<glyph unicode="&#x76;" horiz-adv-x="528" d="M487 483C488 485 489 487 489 489C489 493 485 496 479 496L433 496C429 496 424 495 421 490L222 90L149 490C148 495 143 496 139 496L93 496C84 496 80 491 81 483L173 8C174 3 177 0 182 0L234 0C239 0 242 3 245 8Z"/>
<glyph unicode="&#x77;" horiz-adv-x="528" d="M508 486C509 492 504 496 498 496L454 496C449 496 443 493 442 487L398 274L366 162C353 118 344 76 342 66L322 66C323 74 326 103 326 133C326 141 325 153 325 162L317 359C317 365 311 367 307 367L225 367C221 367 215 365 213 359L143 162C127 118 116 76 114 66L94 66C95 76 101 118 102 162L106 274L128 487C129 493 123 496 118 496L74 496C68 496 63 492 62 486L40 267L40 9C40 3 46 0 50 0L136 0C140 0 145 3 147 9L226 227C234 249 244 291 246 301L265 301C264 292 262 272 262 249C262 226 262 210 263 188L271 9C271 3 276 0 280 0L366 0C370 0 376 3 378 9L461 267Z"/>
<glyph unicode="&#x78;" horiz-adv-x="528" d="M285 256L469 480C476 489 472 496 462 496L410 496C407 496 403 495 401 492L257 315L169 492C167 495 163 496 160 496L108 496C98 496 92 489 97 480L209 256L13 16C6 8 9 0 20 0L72 0C76 0 78 2 81 5L238 198L335 5C336 2 339 0 342 0L394 0C405 0 410 8 405 16Z"/>
<glyph unicode="&#x79;" horiz-adv-x="528" d="M456 483C459 490 458 496 448 496L405 496C400 496 396 495 393 489L233 119L184 489C183 495 179 496 174 496L129 496C121 496 116 492 117 483L185 14C138 -95 135 -108 28 -108L7 -108C1 -108 -5 -113 -6 -119L-13 -162C-14 -168 -10 -173 -4 -173L17 -173C98 -173 173 -163 217 -63Z"/>
<glyph unicode="&#x7a;" horiz-adv-x="528" d="M399 55C400 61 396 65 390 65L125 65L445 428C447 431 448 432 449 437L457 486C458 492 453 496 447 496L133 496C129 496 123 492 122 486L115 442C114 436 119 431 123 431L372 431L49 70C46 67 44 64 43 59L36 11C35 5 39 0 45 0L380 0C386 0 391 5 392 11Z"/>
<glyph unicode="&#x7b;" horiz-adv-x="528" d="M333 -162C334 -156 330 -151 324 -151L303 -151C254 -151 219 -116 219 -69C219 -64 219 -61 220 -54L248 119C249 128 250 137 250 145C250 187 233 224 204 249C248 278 280 325 289 378L316 551C325 605 375 647 429 647L450 647C456 647 462 652 463 658L470 702C471 708 467 712 461 712L440 712C351 712 265 640 251 551L224 378C215 324 166 280 112 280C106 280 101 276 100 270L93 227C92 221 96 216 102 216C151 216 184 181 184 134C184 129 184 126 183 119L155 -54C154 -62 153 -71 153 -79C153 -156 212 -216 293 -216L314 -216C320 -216 325 -211 326 -205Z"/>
<glyph unicode="&#x7c;" horiz-adv-x="528" d="M352 702C353 708 348 712 342 712L300 712C294 712 287 708 286 702L142 -205C141 -211 147 -216 153 -216L195 -216C201 -216 207 -211 208 -205Z"/>
<glyph unicode="&#x7d;" horiz-adv-x="528" d="M394 227L401 270C402 276 397 280 391 280C343 280 309 315 309 361C309 366 310 371 311 378L338 551C339 559 340 568 340 576C340 653 282 712 201 712L180 712C174 712 168 708 167 702L160 659C159 653 163 648 169 648L190 648C239 648 274 613 274 567C274 562 274 558 273 551L246 378C244 367 244 360 244 351C244 309 261 273 289 249C246 219 213 172 205 119L177 -54C169 -108 118 -151 64 -151L43 -151C37 -151 31 -156 30 -162L23 -205C22 -211 27 -216 33 -216L54 -216C143 -216 228 -143 242 -54L270 119C278 173 327 216 381 216C387 216 393 221 394 227Z"/>
<glyph unicode="&#x7e;" horiz-adv-x="528" d="M439 302C439 308 437 313 431 313L388 313C382 313 376 308 375 302C372 270 354 249 329 249C314 249 297 257 276 282C245 319 210 334 178 334C120 334 62 286 59 216C59 210 61 205 67 205L110 205C116 205 123 210 123 216C124 249 144 270 169 270C184 270 201 261 222 236C254 199 288 184 320 184C378 184 435 235 439 302Z"/>
<glyph unicode="&#xa0;" horiz-adv-x="528" />
<glyph unicode="&#xa1;" horiz-adv-x="528" d="M350 486C351 492 348 496 342 496L232 496C226 496 221 492 220 486L203 377C202 371 205 366 211 366L321 366C327 366 332 371 333 377ZM284 270C285 276 280 280 274 280L232 280C226 280 219 276 218 270L143 -205C142 -211 147 -216 153 -216L195 -216C201 -216 208 -211 209 -205Z"/>
<glyph unicode="&#xa2;" horiz-adv-x="528" d="M405 151C406 156 402 162 396 162L353 162C347 162 341 156 340 151C331 98 280 54 227 54L205 54C197 54 189 55 181 57L361 401C369 390 372 376 372 361C372 356 372 352 371 346C370 340 374 335 380 335L423 335C429 335 435 340 436 346C437 355 438 364 438 372C438 411 423 445 397 469L425 522C427 528 425 534 421 536L382 550C376 552 370 549 367 543L345 501C330 505 315 508 299 508L277 508C188 508 104 435 90 346L59 151C58 142 57 133 57 125C57 86 72 52 97 27L71 -25C68 -31 70 -37 75 -39L113 -53C119 -55 126 -52 129 -46L149 -4C164 -9 179 -11 195 -11L217 -11C306 -11 391 61 405 151ZM314 440L133 95C126 107 123 120 123 134C123 139 123 143 124 151L155 346C163 399 214 443 267 443L289 443C297 443 306 442 314 440Z"/>
<glyph unicode="&#xa3;" horiz-adv-x="528" d="M422 55C423 61 418 65 412 65L110 65C136 93 151 126 157 162L183 324L367 324C372 324 379 329 380 335L387 378C388 384 382 389 377 389L193 389L221 562C229 615 280 659 333 659L355 659C404 659 438 623 438 577C438 572 438 569 437 562L423 475C422 469 427 465 432 465L475 465C481 465 487 469 488 475L502 562C503 571 504 579 504 587C504 664 446 724 366 724L344 724C255 724 170 651 156 562L128 389L75 389C69 389 64 384 63 378L56 335C55 329 59 324 65 324L118 324L92 162C84 108 34 64 -19 64C-25 64 -31 60 -32 54L-38 11C-39 5 -34 0 -28 0L402 0C408 0 414 5 415 11Z"/>
<glyph unicode="&#xa4;" horiz-adv-x="528" d="M410 360C415 364 416 371 413 375L388 406C386 408 383 409 380 409C377 409 374 408 372 406L360 395C337 412 308 422 275 422C241 422 208 411 180 394L170 406C168 408 165 409 162 409C159 409 156 408 154 406L119 375C114 371 113 364 116 360L127 347C107 322 93 292 88 260C87 251 86 242 86 234C86 210 91 188 101 169L88 158C83 154 82 147 85 143L110 112C112 110 115 109 118 109C121 109 124 110 126 112L140 124C162 107 191 98 224 98C257 98 289 108 317 124L328 112C330 110 333 109 336 109C339 109 342 110 344 112L379 143C384 147 385 154 382 158L371 170C392 196 407 227 412 260C413 269 414 277 414 285C414 309 408 330 398 350ZM153 260C161 313 211 357 265 357C314 357 348 321 348 275C348 270 348 267 347 260C338 207 288 163 234 163C186 163 152 198 152 244C152 249 152 253 153 260Z"/>
<glyph unicode="&#xa5;" horiz-adv-x="528" d="M214 356L124 356C118 356 112 351 111 346L104 301C103 296 107 291 113 291L220 291L214 248L107 248C101 248 95 242 94 236L87 194C86 189 90 183 96 183L203 183L176 11C175 5 180 0 186 0L228 0C234 0 241 5 242 11L269 183L376 183C382 183 388 189 389 194L396 236C397 242 393 248 387 248L280 248L286 291L393 291C399 291 405 296 406 301L413 346C414 351 410 356 404 356L314 356L501 698C506 707 502 712 494 712L447 712C443 712 439 711 436 706L270 398L202 706C201 711 197 712 193 712L146 712C138 712 132 707 135 698Z"/>
<glyph unicode="&#xa6;" horiz-adv-x="528" d="M351 702C352 708 347 712 341 712L299 712C293 712 286 708 285 702L244 443C243 437 249 432 255 432L297 432C303 432 309 437 310 443ZM283 270C284 276 279 280 273 280L231 280C225 280 218 276 217 270L176 11C175 5 180 0 186 0L228 0C234 0 241 5 242 11Z"/>
<glyph unicode="&#xa7;" horiz-adv-x="528" d="M455 194C457 207 458 219 458 230C458 422 189 426 189 556C189 561 189 564 190 572C196 620 244 659 301 659L323 659C371 659 406 622 406 576C406 571 406 568 405 562C404 556 408 551 414 551L457 551C463 551 469 556 470 562C471 571 472 579 472 587C472 664 414 724 334 724L312 724C227 724 140 665 125 572C124 565 123 557 123 545C123 511 133 484 150 461C100 437 53 383 40 302C38 289 37 277 37 265C37 75 305 72 305 -59C305 -64 305 -70 304 -76C296 -126 250 -162 193 -162L161 -162C112 -162 78 -126 78 -80C78 -75 78 -71 82 -43C83 -37 79 -33 73 -33L30 -33C24 -33 19 -37 18 -43C13 -73 13 -82 13 -91C13 -169 70 -227 151 -227L183 -227C268 -227 354 -170 369 -76C370 -70 371 -57 371 -48C371 -14 361 13 345 36C394 60 442 113 455 194ZM390 194C377 113 320 86 297 86L291 86C212 144 103 179 103 278C103 286 104 294 105 302C118 384 174 410 197 410L203 410C282 352 392 318 392 217C392 210 391 202 390 194Z"/>
<glyph unicode="&#xa8;" horiz-adv-x="528" d="M297 680C298 686 294 691 288 691L213 691C207 691 201 686 200 680L187 595C186 589 190 584 196 584L271 584C277 584 283 589 284 595ZM480 680C481 686 477 691 471 691L396 691C390 691 384 686 383 680L370 595C369 589 373 584 379 584L454 584C460 584 466 589 467 595Z"/>
<glyph unicode="&#xa9;" horiz-adv-x="528" d="M378 463C379 469 374 474 368 474L346 474C342 474 336 469 335 463C332 446 315 431 297 431L255 431C237 431 224 446 227 463L241 551C244 568 261 583 279 583L321 583C339 583 351 568 349 551C348 545 353 540 357 540L379 540C385 540 391 545 392 551C393 555 393 559 393 562C393 598 365 626 327 626L285 626C243 626 204 592 198 551L184 463C183 458 183 455 183 451C183 416 210 388 248 388L290 388C332 388 371 422 378 463ZM485 529C487 540 488 550 488 560C488 653 419 724 322 724C214 724 114 637 97 529L90 486C88 475 88 465 88 455C88 362 156 291 253 291C361 291 461 378 478 486ZM435 486C422 402 344 334 260 334C184 334 131 389 131 462C131 470 132 478 133 486L140 529C153 613 231 681 315 681C391 681 444 626 444 553C444 545 443 537 442 529Z"/>
<glyph unicode="&#xaa;" horiz-adv-x="528" d="M434 475C435 481 430 486 424 486L403 486C397 486 393 491 394 496L427 702C428 708 423 712 417 712L374 712C370 712 365 709 363 706C346 717 324 724 301 724L289 724C218 724 151 665 140 594L133 551C132 544 131 537 131 530C131 468 177 421 241 421L253 421C284 421 313 432 339 450C350 432 369 421 393 421L414 421C420 421 426 426 427 432ZM406 367C407 372 402 378 397 378L127 378C121 378 116 373 115 367L108 324C107 319 111 313 117 313L387 313C392 313 398 318 399 324ZM338 551C332 515 298 486 263 486L251 486C220 486 197 509 197 540C197 544 197 546 198 551L205 594C210 630 244 659 279 659L291 659C323 659 346 635 346 603C346 602 346 600 345 594Z"/>
<glyph unicode="&#xab;" horiz-adv-x="528" d="M160 246L161 251L278 394C281 398 282 400 282 403C282 407 279 410 272 410L222 410C218 410 215 409 211 405L102 271C100 269 99 268 98 264L93 232C93 230 93 228 94 226L161 92C164 88 167 87 171 87L221 87C229 87 234 91 234 97C234 99 233 101 232 103ZM304 246L305 251L422 394C425 398 426 400 426 403C426 407 423 410 416 410L366 410C362 410 359 409 355 405L246 271C244 269 243 268 242 264L237 232C237 230 237 228 238 226L305 92C308 88 311 87 315 87L365 87C373 87 378 91 378 97C378 99 377 101 376 103Z"/>
<glyph unicode="&#xac;" horiz-adv-x="528" d="M404 280C405 286 401 292 395 292L115 292C109 292 103 286 102 280L95 237C94 232 98 227 104 227L330 227L318 151C317 145 322 140 328 140L371 140C377 140 382 146 383 151Z"/>
<glyph unicode="&#xad;" horiz-adv-x="528" d="M403 280C404 286 400 292 394 292L114 292C108 292 102 286 101 280L95 237C94 232 98 227 104 227L384 227C390 227 396 232 397 237Z"/>
<glyph unicode="&#xae;" horiz-adv-x="528" d="M485 529C487 540 488 550 488 560C488 653 419 724 322 724C214 724 114 637 97 529L90 486C88 472 88 465 88 455C88 362 156 291 253 291C361 291 461 378 478 486ZM435 486C422 402 344 334 260 334C184 334 131 389 131 462C131 470 132 478 133 486L140 529C153 613 231 681 315 681C391 681 444 626 444 553C444 545 443 537 442 529ZM339 473C365 486 385 511 390 540C393 555 393 559 393 562C393 598 365 626 327 626L230 626C224 626 220 621 219 615L185 399C184 394 187 389 193 389L215 389C221 389 227 394 228 399L238 465L293 465L324 394C326 390 329 389 331 389L357 389C367 389 373 396 368 405ZM347 540C344 522 327 508 309 508L245 508L257 583L321 583C338 583 349 570 349 555C349 551 348 545 347 540Z"/>
<glyph unicode="&#xaf;" horiz-adv-x="528" d="M473 670C474 676 469 681 463 681L213 681C207 681 202 676 201 670L194 627C193 621 197 616 203 616L453 616C459 616 465 621 466 627Z"/>
<glyph unicode="&#xb0;" horiz-adv-x="528" d="M117 518C116 509 115 500 115 492C115 415 172 356 253 356C343 356 427 429 441 518L448 562C449 571 450 579 450 587C450 664 392 724 311 724C221 724 138 651 124 562ZM189 562C197 615 247 659 301 659C350 659 384 623 384 577C384 572 384 569 383 562L376 518C367 465 317 421 263 421C215 421 181 456 181 502C181 507 181 511 182 518Z"/>
<glyph unicode="&#xb1;" horiz-adv-x="528" d="M418 377C419 383 414 388 408 388L301 388L312 452C313 458 307 464 301 464L259 464C253 464 247 458 246 452L235 388L128 388C122 388 117 383 116 377L109 334C108 328 112 323 118 323L225 323L215 258C214 252 219 248 225 248L267 248C273 248 280 252 281 258L291 323L398 323C404 323 410 328 411 334ZM387 184C388 190 384 195 378 195L98 195C92 195 86 190 85 184L78 140C77 134 82 130 88 130L368 130C374 130 379 134 380 140Z"/>
<glyph unicode="&#xb2;" horiz-adv-x="528" d="M255 475C256 481 252 486 246 486L133 486C139 523 265 566 277 642C284 687 253 724 209 724L198 724C153 724 111 687 104 642C103 636 107 632 112 632L145 632C151 632 157 636 158 642C160 658 174 669 189 669L200 669C214 669 225 658 223 642C216 599 91 560 79 487L72 443C71 437 75 432 80 432L237 432C243 432 249 437 250 443Z"/>
<glyph unicode="&#xb3;" horiz-adv-x="528" d="M269 524C275 562 253 593 220 603L274 650C275 651 278 654 279 658L285 702C286 708 283 712 277 712L141 712C136 712 130 708 129 702L124 669C123 664 128 659 133 659L209 659L156 613C155 612 153 610 152 606L145 562C144 556 149 551 155 551L192 551C208 551 217 539 214 524L211 502C209 488 196 475 180 475L159 475C144 475 134 488 136 502C137 508 133 513 127 513L95 513C89 513 83 508 82 502C75 458 105 421 150 421L171 421C216 421 259 458 266 502Z"/>
<glyph unicode="&#xb4;" horiz-adv-x="528" d="M425 673C429 676 430 680 430 683C430 688 426 691 419 691L355 691C350 691 348 690 344 686L242 579C239 576 237 572 237 569C237 565 241 562 247 562L289 562C294 562 297 563 301 566Z"/>
<glyph unicode="&#xb5;" horiz-adv-x="528" d="M103 21C127 1 159 -11 195 -11L217 -11C253 -11 289 1 319 21L317 11C316 5 319 0 325 0L369 0C375 0 381 5 382 11L457 486C458 492 454 496 448 496L404 496C398 496 393 492 392 486L339 151C331 98 280 54 227 54L205 54C151 54 115 98 123 151L176 486C177 492 173 496 167 496L124 496C118 496 112 492 111 486L2 -205C1 -211 5 -216 11 -216L54 -216C60 -216 66 -211 67 -205Z"/>
<glyph unicode="&#xb6;" horiz-adv-x="528" d="M480 702C481 708 476 712 471 712L277 712C188 712 103 640 89 551L80 496C79 488 78 479 78 471C78 394 136 335 217 335L228 335L142 -205C141 -211 147 -216 153 -216L194 -216C200 -216 206 -211 207 -205L342 647L406 647L271 -205C270 -211 276 -216 281 -216L324 -216C329 -216 335 -211 336 -205Z"/>
<glyph unicode="&#xb7;" horiz-adv-x="528" d="M321 304C322 310 317 315 311 315L203 315C197 315 192 310 191 304L174 196C173 190 177 185 183 185L291 185C297 185 303 190 304 196Z"/>
<glyph unicode="&#xb8;" horiz-adv-x="528" d="M263 11L195 11L147 -87C144 -93 141 -98 141 -102C141 -106 144 -108 150 -108L197 -108C202 -108 206 -105 208 -101Z"/>
<glyph unicode="&#xb9;" horiz-adv-x="528" d="M260 465C261 470 256 475 250 475L202 475L237 702C238 708 234 712 228 712L180 712C176 712 173 710 172 709L108 655C103 651 102 643 106 639L125 616C128 612 135 612 140 616L175 646L148 475L89 475C83 475 77 470 76 465L71 432C70 426 74 421 80 421L241 421C247 421 254 426 255 432Z"/>
<glyph unicode="&#xba;" horiz-adv-x="528" d="M421 594C422 601 423 608 423 614C423 676 376 724 312 724L289 724C218 724 151 665 140 594L133 551C132 544 131 537 131 530C131 468 177 421 241 421L264 421C335 421 402 479 414 551ZM374 367C375 372 370 378 364 378L127 378C121 378 116 372 115 367L108 324C107 319 111 313 117 313L354 313C360 313 366 319 367 324ZM349 551C343 515 310 486 274 486L251 486C219 486 197 509 197 540C197 544 197 545 198 551L205 594C210 630 243 659 279 659L302 659C335 659 357 635 357 604C357 602 357 600 356 594Z"/>
<glyph unicode="&#xbb;" horiz-adv-x="528" d="M216 103C214 100 213 98 213 95C213 91 216 87 223 87L273 87C277 87 280 88 283 92L392 224C394 227 395 228 396 232L402 264C402 266 402 268 400 272L333 405C331 409 328 410 324 410L274 410C263 410 258 402 262 394L335 251L334 246ZM71 103C69 100 68 98 68 95C68 91 71 87 78 87L128 87C132 87 135 88 138 92L247 224C249 227 250 228 251 232L257 264C257 266 257 268 255 272L188 405C186 409 183 410 179 410L129 410C118 410 113 402 117 394L190 251L189 246Z"/>
<glyph unicode="&#xbc;" horiz-adv-x="528" d="M416 92C417 98 413 103 407 103L380 103L385 140C386 146 383 151 377 151L344 151C339 151 333 146 332 140L327 103L273 103L383 276C388 285 385 292 375 292L340 292C335 292 331 289 328 285L223 118C222 116 221 115 220 111L212 60C211 54 215 49 221 49L318 49L312 11C311 5 315 0 320 0L353 0C359 0 364 5 365 11L371 49L398 49C404 49 410 54 411 60ZM260 465C261 470 256 475 250 475L202 475L237 702C238 708 234 712 228 712L180 712C176 712 173 710 172 709L108 655C103 651 102 643 106 639L125 616C128 612 135 612 140 616L175 646L148 475L89 475C83 475 77 470 76 465L71 432C70 426 74 421 80 421L241 421C247 421 254 426 255 432ZM441 470C447 475 447 482 443 486L418 516C415 520 407 520 402 516L86 243C81 238 80 232 83 228L109 197C112 193 119 193 124 197Z"/>
<glyph unicode="&#xbd;" horiz-adv-x="528" d="M260 465C261 470 256 475 250 475L202 475L237 702C238 708 234 712 228 712L180 712C176 712 173 710 172 709L108 655C103 651 102 643 106 639L125 616C128 612 135 612 140 616L175 646L148 475L89 475C83 475 77 470 76 465L71 432C70 426 74 421 80 421L241 421C247 421 254 426 255 432ZM441 470C447 475 447 482 443 486L418 516C415 520 407 520 402 516L86 243C81 238 80 232 83 228L109 197C112 193 119 193 124 197ZM419 43C420 49 416 54 410 54L297 54C303 91 429 134 441 210C448 255 417 292 373 292L362 292C317 292 275 255 268 210C267 204 271 200 276 200L309 200C315 200 321 204 322 210C324 226 338 237 353 237L364 237C378 237 389 226 387 210C380 167 255 128 243 55L236 11C235 5 239 0 244 0L401 0C407 0 413 5 414 11Z"/>
<glyph unicode="&#xbe;" horiz-adv-x="528" d="M269 524C275 562 253 593 220 603L274 650C275 651 278 654 279 658L285 702C286 708 283 712 277 712L141 712C136 712 130 708 129 702L124 669C123 664 128 659 133 659L209 659L156 613C155 612 153 610 152 606L145 562C144 556 149 551 155 551L192 551C208 551 217 539 214 524L211 502C209 488 196 475 180 475L159 475C144 475 134 488 136 502C137 508 133 513 127 513L95 513C89 513 83 508 82 502C75 458 105 421 150 421L171 421C216 421 259 458 266 502ZM441 470C447 475 447 482 443 486L418 516C415 520 407 520 402 516L86 243C81 238 80 232 83 228L109 197C112 193 119 193 124 197ZM416 92C417 98 413 103 407 103L380 103L385 140C386 146 383 151 377 151L344 151C339 151 333 146 332 140L327 103L273 103L383 276C388 285 385 292 375 292L340 292C335 292 331 289 328 285L223 118C222 116 221 115 220 111L212 60C211 54 215 49 221 49L318 49L312 11C311 5 315 0 320 0L353 0C359 0 364 5 365 11L371 49L398 49C404 49 410 54 411 60Z"/>
<glyph unicode="&#xbf;" horiz-adv-x="528" d="M371 486C372 492 368 496 362 496L252 496C247 496 242 492 241 486L224 377C223 371 227 366 232 366L342 366C348 366 353 371 354 377ZM376 -33C377 -27 372 -22 366 -22L323 -22C317 -22 312 -27 311 -33L306 -65C297 -118 246 -162 193 -162L171 -162C123 -162 89 -127 89 -81C89 -76 89 -70 93 -43C98 -11 111 35 199 93C282 149 295 200 305 270C306 276 301 280 295 280L252 280C246 280 241 276 240 270C230 209 225 182 169 145C63 74 37 11 28 -43C23 -74 23 -83 23 -92C23 -169 81 -227 161 -227L183 -227C272 -227 356 -155 371 -65Z"/>
<glyph unicode="&#xc0;" horiz-adv-x="528" d="M424 276L379 702C378 709 374 712 369 712L271 712C266 712 260 710 257 702L78 276L36 11C35 5 39 0 45 0L88 0C94 0 100 5 101 11L137 237L353 237L317 11C316 5 320 0 326 0L369 0C375 0 381 5 382 11ZM353 302L157 302L302 647L318 647ZM312 782C314 779 317 778 322 778L364 778C372 778 377 783 377 789C377 791 376 793 375 795L307 902C304 906 301 907 296 907L232 907C224 907 219 903 219 897C219 894 220 891 222 889Z"/>
<glyph unicode="&#xc1;" horiz-adv-x="528" d="M424 276L379 702C378 709 374 712 369 712L271 712C266 712 260 710 257 702L78 276L36 11C35 5 39 0 45 0L88 0C94 0 100 5 101 11L137 237L353 237L317 11C316 5 320 0 326 0L369 0C375 0 381 5 382 11ZM353 302L157 302L302 647L318 647ZM476 889C480 892 481 896 481 899C481 904 477 907 470 907L406 907C401 907 399 906 395 902L293 795C290 792 288 788 288 785C288 781 292 778 298 778L340 778C345 778 348 779 352 782Z"/>
<glyph unicode="&#xc2;" horiz-adv-x="528" d="M424 276L379 702C378 709 374 712 369 712L271 712C266 712 260 710 257 702L78 276L36 11C35 5 39 0 45 0L88 0C94 0 100 5 101 11L137 237L353 237L317 11C316 5 320 0 326 0L369 0C375 0 381 5 382 11ZM353 302L157 302L302 647L318 647ZM397 903C395 906 391 907 387 907L315 907C311 907 308 906 305 903L202 796C198 792 197 789 197 786C197 781 200 778 207 778L249 778C254 778 257 780 259 782L343 855L405 782C406 781 408 778 413 778L455 778C463 778 468 783 468 789C468 790 468 793 466 796Z"/>
<glyph unicode="&#xc3;" horiz-adv-x="528" d="M424 276L379 702C378 709 374 712 369 712L271 712C266 712 260 710 257 702L78 276L36 11C35 5 39 0 45 0L88 0C94 0 100 5 101 11L137 237L353 237L317 11C316 5 320 0 326 0L369 0C375 0 381 5 382 11ZM353 302L157 302L302 647L318 647ZM477 853C478 859 474 864 468 864L436 864C430 864 424 859 423 853C422 843 413 827 394 827C384 827 372 831 356 843C334 860 310 868 288 868C243 868 205 836 197 788C196 782 201 778 207 778L239 778C245 778 250 782 251 788C253 799 261 815 280 815C290 815 303 811 319 799C341 782 366 774 388 774C432 774 470 805 477 853Z"/>
<glyph unicode="&#xc4;" horiz-adv-x="528" d="M424 276L379 702C378 709 374 712 369 712L271 712C266 712 260 710 257 702L78 276L36 11C35 5 39 0 45 0L88 0C94 0 100 5 101 11L137 237L353 237L317 11C316 5 320 0 326 0L369 0C375 0 381 5 382 11ZM353 302L157 302L302 647L318 647ZM307 896C308 902 304 907 298 907L223 907C217 907 211 902 210 896L197 811C196 805 200 800 206 800L281 800C287 800 293 805 294 811ZM490 896C491 902 487 907 481 907L406 907C400 907 394 902 393 896L380 811C379 805 383 800 389 800L464 800C470 800 476 805 477 811Z"/>
<glyph unicode="&#xc5;" horiz-adv-x="528" d="M424 276L379 702C378 709 374 712 369 712L271 712C266 712 260 710 257 702L78 276L36 11C35 5 39 0 45 0L88 0C94 0 100 5 101 11L137 237L353 237L317 11C316 5 320 0 326 0L369 0C375 0 381 5 382 11ZM353 302L157 302L302 647L318 647ZM248 806C248 765 279 733 322 733C377 733 424 783 424 834C424 875 393 907 350 907C295 907 248 857 248 806ZM331 787C315 787 303 799 303 815C303 838 325 853 341 853C357 853 369 841 369 825C369 802 347 787 331 787Z"/>
<glyph unicode="&#xc6;" horiz-adv-x="528" d="M421 55C422 61 418 65 412 65L272 65L313 324L432 324C438 324 442 329 443 335L450 378C451 384 448 389 442 389L323 389L364 647L504 647C510 647 516 652 517 658L523 702C524 708 520 712 514 712L238 712C233 712 229 709 227 705L46 273L4 11C3 5 7 0 13 0L56 0C61 0 68 5 69 11L105 237L234 237L198 11C197 5 201 0 207 0L401 0C407 0 413 5 414 11ZM244 302L124 302L271 647L299 647Z"/>
<glyph unicode="&#xc7;" horiz-adv-x="528" d="M420 183C421 189 418 194 412 194L368 194C362 194 356 189 355 183L350 151C342 98 292 54 238 54L206 54C158 54 123 91 123 137C123 142 123 145 124 151L189 562C198 615 248 659 301 659L333 659C382 659 416 624 416 578C416 573 416 568 415 562L412 540C411 535 415 529 421 529L465 529C471 529 476 535 477 540L480 562C481 571 482 580 482 588C482 665 425 724 344 724L312 724C223 724 138 651 124 562L59 151C58 142 57 134 57 126C57 56 105 0 175 -10L136 -87C133 -93 132 -97 132 -100C132 -104 134 -108 141 -108L187 -108C191 -108 195 -106 198 -101L242 -11C327 -3 402 66 415 151Z"/>
<glyph unicode="&#xc8;" horiz-adv-x="528" d="M399 55C400 61 397 65 391 65L121 65L162 324L410 324C415 324 421 329 422 335L429 378C430 384 425 389 420 389L172 389L213 647L483 647C489 647 494 652 495 658L501 702C502 708 499 712 493 712L169 712C164 712 157 708 156 702L47 11C46 5 51 0 56 0L380 0C386 0 391 5 392 11ZM312 782C314 779 317 778 322 778L364 778C372 778 377 783 377 789C377 791 376 793 375 795L307 902C304 906 301 907 296 907L232 907C224 907 219 903 219 897C219 894 220 891 222 889Z"/>
<glyph unicode="&#xc9;" horiz-adv-x="528" d="M399 55C400 61 397 65 391 65L121 65L162 324L410 324C415 324 421 329 422 335L429 378C430 384 425 389 420 389L172 389L213 647L483 647C489 647 494 652 495 658L501 702C502 708 499 712 493 712L169 712C164 712 157 708 156 702L47 11C46 5 51 0 56 0L380 0C386 0 391 5 392 11ZM476 889C480 892 481 896 481 899C481 904 477 907 470 907L406 907C401 907 399 906 395 902L293 795C290 792 288 788 288 785C288 781 292 778 298 778L340 778C345 778 348 779 352 782Z"/>
<glyph unicode="&#xca;" horiz-adv-x="528" d="M399 55C400 61 397 65 391 65L121 65L162 324L410 324C415 324 421 329 422 335L429 378C430 384 425 389 420 389L172 389L213 647L483 647C489 647 494 652 495 658L501 702C502 708 499 712 493 712L169 712C164 712 157 708 156 702L47 11C46 5 51 0 56 0L380 0C386 0 391 5 392 11ZM407 903C405 906 401 907 397 907L325 907C321 907 318 906 315 903L212 796C208 792 207 789 207 786C207 781 210 778 217 778L259 778C264 778 267 780 269 782L353 855L415 782C416 781 418 778 423 778L465 778C473 778 478 783 478 789C478 790 478 793 476 796Z"/>
<glyph unicode="&#xcb;" horiz-adv-x="528" d="M399 55C400 61 397 65 391 65L121 65L162 324L410 324C415 324 421 329 422 335L429 378C430 384 425 389 420 389L172 389L213 647L483 647C489 647 494 652 495 658L501 702C502 708 499 712 493 712L169 712C164 712 157 708 156 702L47 11C46 5 51 0 56 0L380 0C386 0 391 5 392 11ZM308 896C309 902 305 907 299 907L224 907C218 907 212 902 211 896L198 811C197 805 201 800 207 800L282 800C288 800 294 805 295 811ZM491 896C492 902 488 907 482 907L407 907C401 907 395 902 394 896L381 811C380 805 384 800 390 800L465 800C471 800 477 805 478 811Z"/>
<glyph unicode="&#xcc;" horiz-adv-x="528" d="M399 54C400 60 396 64 390 64L250 64L343 647L472 647C478 647 484 652 485 658L491 702C492 708 488 712 482 712L158 712C152 712 146 708 145 702L139 658C138 652 142 647 148 647L277 647L184 64L44 64C38 64 34 60 33 54L26 11C25 5 28 0 34 0L380 0C386 0 391 5 392 11ZM312 782C314 779 317 778 322 778L364 778C372 778 377 783 377 789C377 791 376 793 375 795L307 902C304 906 301 907 296 907L232 907C224 907 219 903 219 897C219 894 220 891 222 889Z"/>
<glyph unicode="&#xcd;" horiz-adv-x="528" d="M399 54C400 60 396 64 390 64L250 64L343 647L472 647C478 647 484 652 485 658L491 702C492 708 488 712 482 712L158 712C152 712 146 708 145 702L139 658C138 652 142 647 148 647L277 647L184 64L44 64C38 64 34 60 33 54L26 11C25 5 28 0 34 0L380 0C386 0 391 5 392 11ZM476 889C480 892 481 896 481 899C481 904 477 907 470 907L406 907C401 907 399 906 395 902L293 795C290 792 288 788 288 785C288 781 292 778 298 778L340 778C345 778 348 779 352 782Z"/>
<glyph unicode="&#xce;" horiz-adv-x="528" d="M399 54C400 60 396 64 390 64L250 64L343 647L472 647C478 647 484 652 485 658L491 702C492 708 488 712 482 712L158 712C152 712 146 708 145 702L139 658C138 652 142 647 148 647L277 647L184 64L44 64C38 64 34 60 33 54L26 11C25 5 28 0 34 0L380 0C386 0 391 5 392 11ZM397 903C395 906 391 907 387 907L315 907C311 907 308 906 305 903L202 796C198 792 197 789 197 786C197 781 200 778 207 778L249 778C254 778 257 780 259 782L343 855L405 782C406 781 408 778 413 778L455 778C463 778 468 783 468 789C468 790 468 793 466 796Z"/>
<glyph unicode="&#xcf;" horiz-adv-x="528" d="M399 54C400 60 396 64 390 64L250 64L343 647L472 647C478 647 484 652 485 658L491 702C492 708 488 712 482 712L158 712C152 712 146 708 145 702L139 658C138 652 142 647 148 647L277 647L184 64L44 64C38 64 34 60 33 54L26 11C25 5 28 0 34 0L380 0C386 0 391 5 392 11ZM308 896C309 902 305 907 299 907L224 907C218 907 212 902 211 896L198 811C197 805 201 800 207 800L282 800C288 800 294 805 295 811ZM491 896C492 902 488 907 482 907L407 907C401 907 395 902 394 896L381 811C380 805 384 800 390 800L465 800C471 800 477 805 478 811Z"/>
<glyph unicode="&#xd0;" horiz-adv-x="528" d="M476 551C477 559 478 568 478 576C478 653 420 712 339 712L166 712C161 712 155 708 154 702L105 389L41 389C35 389 28 384 27 378L20 335C19 329 25 324 31 324L95 324L45 11C44 5 48 0 53 0L226 0C315 0 400 73 414 162ZM349 162C340 108 291 65 237 65L119 65L160 324L268 324C273 324 278 329 279 335L286 378C287 384 283 389 278 389L170 389L211 647L329 647C378 647 412 613 412 566C412 561 412 558 411 551Z"/>
<glyph unicode="&#xd1;" horiz-adv-x="528" d="M506 702C507 708 502 712 497 712L453 712C449 712 442 708 441 702L356 162C352 140 351 93 351 83L332 83C332 93 332 140 329 162L246 704C245 710 239 712 236 712L143 712C138 712 131 708 130 702L21 11C20 5 25 0 30 0L74 0C78 0 85 5 86 11L172 551C175 572 176 620 176 630L196 630C196 620 196 572 199 551L282 7C283 2 287 0 291 0L384 0C389 0 396 5 397 11ZM478 853C479 859 475 864 469 864L437 864C431 864 425 859 424 853C423 843 414 827 395 827C385 827 373 831 357 843C335 860 311 868 289 868C244 868 206 836 198 788C197 782 202 778 208 778L240 778C246 778 251 782 252 788C254 799 262 815 281 815C291 815 304 811 320 799C342 782 367 774 389 774C433 774 471 805 478 853Z"/>
<glyph unicode="&#xd2;" horiz-adv-x="528" d="M475 562C476 571 477 580 477 588C477 665 420 724 339 724L307 724C217 724 133 651 119 562L54 151C53 142 52 134 52 126C52 48 110 -11 191 -11L223 -11C313 -11 396 61 410 151ZM345 151C337 98 287 54 233 54L201 54C152 54 118 90 118 136C118 141 118 144 119 151L184 562C193 615 243 659 297 659L329 659C377 659 411 624 411 578C411 573 411 568 410 562ZM312 782C314 779 317 778 322 778L364 778C372 778 377 783 377 789C377 791 376 793 375 795L307 902C304 906 301 907 296 907L232 907C224 907 219 903 219 897C219 894 220 891 222 889Z"/>
<glyph unicode="&#xd3;" horiz-adv-x="528" d="M475 562C476 571 477 580 477 588C477 665 420 724 339 724L307 724C217 724 133 651 119 562L54 151C53 142 52 134 52 126C52 48 110 -11 191 -11L223 -11C313 -11 396 61 410 151ZM345 151C337 98 287 54 233 54L201 54C152 54 118 90 118 136C118 141 118 144 119 151L184 562C193 615 243 659 297 659L329 659C377 659 411 624 411 578C411 573 411 568 410 562ZM476 889C480 892 481 896 481 899C481 904 477 907 470 907L406 907C401 907 399 906 395 902L293 795C290 792 288 788 288 785C288 781 292 778 298 778L340 778C345 778 348 779 352 782Z"/>
<glyph unicode="&#xd4;" horiz-adv-x="528" d="M475 562C476 571 477 580 477 588C477 665 420 724 339 724L307 724C217 724 133 651 119 562L54 151C53 142 52 134 52 126C52 48 110 -11 191 -11L223 -11C313 -11 396 61 410 151ZM345 151C337 98 287 54 233 54L201 54C152 54 118 90 118 136C118 141 118 144 119 151L184 562C193 615 243 659 297 659L329 659C377 659 411 624 411 578C411 573 411 568 410 562ZM397 903C395 906 391 907 387 907L315 907C311 907 308 906 305 903L202 796C198 792 197 789 197 786C197 781 200 778 207 778L249 778C254 778 257 780 259 782L343 855L405 782C406 781 408 778 413 778L455 778C463 778 468 783 468 789C468 790 468 793 466 796Z"/>
<glyph unicode="&#xd5;" horiz-adv-x="528" d="M475 562C476 571 477 580 477 588C477 665 420 724 339 724L307 724C217 724 133 651 119 562L54 151C53 142 52 134 52 126C52 48 110 -11 191 -11L223 -11C313 -11 396 61 410 151ZM345 151C337 98 287 54 233 54L201 54C152 54 118 90 118 136C118 141 118 144 119 151L184 562C193 615 243 659 297 659L329 659C377 659 411 624 411 578C411 573 411 568 410 562ZM478 853C479 859 475 864 469 864L437 864C431 864 425 859 424 853C423 843 414 827 395 827C385 827 373 831 357 843C335 860 311 868 289 868C244 868 206 836 198 788C197 782 202 778 208 778L240 778C246 778 251 782 252 788C254 799 262 815 281 815C291 815 304 811 320 799C342 782 367 774 389 774C433 774 471 805 478 853Z"/>
<glyph unicode="&#xd6;" horiz-adv-x="528" d="M475 562C476 571 477 580 477 588C477 665 420 724 339 724L307 724C217 724 133 651 119 562L54 151C53 142 52 134 52 126C52 48 110 -11 191 -11L223 -11C313 -11 396 61 410 151ZM345 151C337 98 287 54 233 54L201 54C152 54 118 90 118 136C118 141 118 144 119 151L184 562C193 615 243 659 297 659L329 659C377 659 411 624 411 578C411 573 411 568 410 562ZM308 896C309 902 305 907 299 907L224 907C218 907 212 902 211 896L198 811C197 805 201 800 207 800L282 800C288 800 294 805 295 811ZM491 896C492 902 488 907 482 907L407 907C401 907 395 902 394 896L381 811C380 805 384 800 390 800L465 800C471 800 477 805 478 811Z"/>
<glyph unicode="&#xd7;" horiz-adv-x="528" d="M400 350C405 354 406 361 403 365L378 396C376 398 373 399 370 399C367 399 364 398 362 396L256 305L180 396C178 398 175 399 172 399C169 399 166 398 164 396L129 365C124 361 123 354 126 350L203 259L98 168C93 164 92 157 95 153L120 122C122 120 125 119 128 119C131 119 134 120 136 122L242 213L318 122C320 120 323 119 326 119C329 119 332 120 334 122L369 153C374 157 375 164 372 168L295 259Z"/>
<glyph unicode="&#xd8;" horiz-adv-x="528" d="M474 562C475 568 477 580 477 589C477 615 470 640 457 660L494 731C497 737 495 743 489 745L452 759C446 761 440 759 437 754L411 705C390 717 366 724 338 724L306 724C216 724 132 651 118 562L53 151C52 142 51 133 51 125C51 98 58 74 71 53L33 -18C30 -23 33 -30 38 -32L76 -47C82 -49 88 -46 91 -40L117 8C138 -4 162 -11 190 -11L222 -11C312 -11 395 61 409 151ZM344 151C336 98 286 54 232 54L200 54C180 54 162 60 148 70L411 572ZM379 643L117 141L183 562C191 615 242 659 296 659L328 659C348 659 366 653 379 643Z"/>
<glyph unicode="&#xd9;" horiz-adv-x="528" d="M492 702C493 708 489 712 483 712L440 712C434 712 428 708 427 702L340 151C331 98 280 54 227 54L205 54C157 54 123 89 123 135C123 140 123 145 124 151L211 702C212 708 208 712 202 712L159 712C153 712 147 708 146 702L59 151C58 142 57 134 57 126C57 48 115 -11 195 -11L217 -11C306 -11 391 61 405 151ZM313 782C315 779 318 778 323 778L365 778C373 778 378 783 378 789C378 791 377 793 376 795L308 902C305 906 302 907 297 907L233 907C225 907 220 903 220 897C220 894 221 891 223 889Z"/>
<glyph unicode="&#xda;" horiz-adv-x="528" d="M492 702C493 708 489 712 483 712L440 712C434 712 428 708 427 702L340 151C331 98 280 54 227 54L205 54C157 54 123 89 123 135C123 140 123 145 124 151L211 702C212 708 208 712 202 712L159 712C153 712 147 708 146 702L59 151C58 142 57 134 57 126C57 48 115 -11 195 -11L217 -11C306 -11 391 61 405 151ZM476 889C480 892 481 896 481 899C481 904 477 907 470 907L406 907C401 907 399 906 395 902L293 795C290 792 288 788 288 785C288 781 292 778 298 778L340 778C345 778 348 779 352 782Z"/>
<glyph unicode="&#xdb;" horiz-adv-x="528" d="M492 702C493 708 489 712 483 712L440 712C434 712 428 708 427 702L340 151C331 98 280 54 227 54L205 54C157 54 123 89 123 135C123 140 123 145 124 151L211 702C212 708 208 712 202 712L159 712C153 712 147 708 146 702L59 151C58 142 57 134 57 126C57 48 115 -11 195 -11L217 -11C306 -11 391 61 405 151ZM397 903C395 906 391 907 387 907L315 907C311 907 308 906 305 903L202 796C198 792 197 789 197 786C197 781 200 778 207 778L249 778C254 778 257 780 259 782L343 855L405 782C406 781 408 778 413 778L455 778C463 778 468 783 468 789C468 790 468 793 466 796Z"/>
<glyph unicode="&#xdc;" horiz-adv-x="528" d="M492 702C493 708 489 712 483 712L440 712C434 712 428 708 427 702L340 151C331 98 280 54 227 54L205 54C157 54 123 89 123 135C123 140 123 145 124 151L211 702C212 708 208 712 202 712L159 712C153 712 147 708 146 702L59 151C58 142 57 134 57 126C57 48 115 -11 195 -11L217 -11C306 -11 391 61 405 151ZM308 896C309 902 305 907 299 907L224 907C218 907 212 902 211 896L198 811C197 805 201 800 207 800L282 800C288 800 294 805 295 811ZM491 896C492 902 488 907 482 907L407 907C401 907 395 902 394 896L381 811C380 805 384 800 390 800L465 800C471 800 477 805 478 811Z"/>
<glyph unicode="&#xdd;" horiz-adv-x="528" d="M500 698C501 700 502 703 502 705C502 710 499 712 493 712L446 712C442 712 438 711 435 706L270 398L203 706C202 711 198 712 194 712L147 712C139 712 134 706 136 698L224 312L176 11C175 5 180 0 186 0L228 0C234 0 241 5 242 11L290 312ZM476 889C480 892 481 896 481 899C481 904 477 907 470 907L406 907C401 907 399 906 395 902L293 795C290 792 288 788 288 785C288 781 292 778 298 778L340 778C345 778 348 779 352 782Z"/>
<glyph unicode="&#xde;" horiz-adv-x="528" d="M453 410C454 419 455 427 455 435C455 513 397 572 317 572L296 572C260 572 224 561 194 540L219 702C220 708 215 712 210 712L166 712C161 712 155 709 154 702L45 11C44 5 48 0 53 0L97 0C102 0 109 5 110 11L136 173C160 153 191 140 227 140L248 140C337 140 422 213 436 302ZM371 302C363 249 313 205 259 205L238 205C189 205 155 241 155 287C155 292 155 296 156 302L173 410C182 464 232 507 286 507L307 507C355 507 389 472 389 426C389 421 389 417 388 410Z"/>
<glyph unicode="&#xdf;" horiz-adv-x="528" d="M436 227C437 235 438 243 438 251C438 296 419 335 387 360C428 390 458 435 466 486L478 562C479 571 480 579 480 587C480 664 422 724 342 724L321 724C232 724 147 651 133 562L46 11C45 5 49 0 54 0L98 0C103 0 110 5 111 11L198 562C206 615 256 659 310 659L331 659C380 659 414 623 414 577C414 572 414 567 413 562L401 486C392 432 342 389 288 389L245 389C239 389 234 384 233 378L226 335C225 329 229 324 235 324L289 324C338 324 372 288 372 242C372 237 372 232 371 227L360 162C351 108 302 65 248 65L173 65C167 65 162 61 161 55L154 11C153 5 157 0 163 0L238 0C328 0 411 73 425 162Z"/>
<glyph unicode="&#xe0;" horiz-adv-x="528" d="M446 486C447 492 443 496 438 496L395 496C389 496 383 492 382 486L380 475C356 495 324 508 288 508L266 508C177 508 93 435 79 346L48 151C46 139 46 134 46 126C46 48 104 -11 184 -11L205 -11C251 -11 293 7 326 36C339 14 362 0 391 0L413 0C419 0 424 5 425 11L432 55C433 61 428 65 423 65L401 65C391 65 381 73 383 86ZM328 151C320 98 270 54 216 54L195 54C146 54 111 89 111 136C111 141 111 144 112 151L143 346C152 399 203 443 256 443L277 443C326 443 361 407 361 361C361 357 360 351 359 346ZM317 566C319 563 322 562 327 562L369 562C377 562 382 567 382 573C382 575 381 577 380 579L312 686C309 690 306 691 301 691L237 691C229 691 224 687 224 681C224 678 225 675 227 673Z"/>
<glyph unicode="&#xe1;" horiz-adv-x="528" d="M446 486C447 492 443 496 438 496L395 496C389 496 383 492 382 486L380 475C356 495 324 508 288 508L266 508C177 508 93 435 79 346L48 151C46 139 46 134 46 126C46 48 104 -11 184 -11L205 -11C251 -11 293 7 326 36C339 14 362 0 391 0L413 0C419 0 424 5 425 11L432 55C433 61 428 65 423 65L401 65C391 65 381 73 383 86ZM328 151C320 98 270 54 216 54L195 54C146 54 111 89 111 136C111 141 111 144 112 151L143 346C152 399 203 443 256 443L277 443C326 443 361 407 361 361C361 357 360 351 359 346ZM421 673C425 676 426 680 426 683C426 688 422 691 415 691L351 691C346 691 344 690 340 686L238 579C235 576 233 572 233 569C233 565 237 562 243 562L285 562C290 562 293 563 297 566Z"/>
<glyph unicode="&#xe2;" horiz-adv-x="528" d="M446 486C447 492 443 496 438 496L395 496C389 496 383 492 382 486L380 475C356 495 324 508 288 508L266 508C177 508 93 435 79 346L48 151C46 139 46 134 46 126C46 48 104 -11 184 -11L205 -11C251 -11 293 7 326 36C339 14 362 0 391 0L413 0C419 0 424 5 425 11L432 55C433 61 428 65 423 65L401 65C391 65 381 73 383 86ZM328 151C320 98 270 54 216 54L195 54C146 54 111 89 111 136C111 141 111 144 112 151L143 346C152 399 203 443 256 443L277 443C326 443 361 407 361 361C361 357 360 351 359 346ZM352 687C350 690 346 691 342 691L270 691C266 691 263 690 260 687L157 580C153 576 152 573 152 570C152 565 155 562 162 562L204 562C209 562 212 564 214 566L298 639L360 566C361 565 363 562 368 562L410 562C418 562 423 567 423 573C423 574 423 577 421 580Z"/>
<glyph unicode="&#xe3;" horiz-adv-x="528" d="M446 486C447 492 443 496 438 496L395 496C389 496 383 492 382 486L380 475C356 495 324 508 288 508L266 508C177 508 93 435 79 346L48 151C46 139 46 134 46 126C46 48 104 -11 184 -11L205 -11C251 -11 293 7 326 36C339 14 362 0 391 0L413 0C419 0 424 5 425 11L432 55C433 61 428 65 423 65L401 65C391 65 381 73 383 86ZM328 151C320 98 270 54 216 54L195 54C146 54 111 89 111 136C111 141 111 144 112 151L143 346C152 399 203 443 256 443L277 443C326 443 361 407 361 361C361 357 360 351 359 346ZM443 637C444 643 440 648 434 648L402 648C396 648 390 643 389 637C388 627 379 611 360 611C350 611 338 615 322 627C300 644 276 652 254 652C209 652 171 620 163 572C162 566 167 562 173 562L205 562C211 562 216 566 217 572C219 583 227 599 246 599C256 599 269 595 285 583C307 566 332 558 354 558C398 558 436 589 443 637Z"/>
<glyph unicode="&#xe4;" horiz-adv-x="528" d="M446 486C447 492 443 496 438 496L395 496C389 496 383 492 382 486L380 475C356 495 324 508 288 508L266 508C177 508 93 435 79 346L48 151C46 139 46 134 46 126C46 48 104 -11 184 -11L205 -11C251 -11 293 7 326 36C339 14 362 0 391 0L413 0C419 0 424 5 425 11L432 55C433 61 428 65 423 65L401 65C391 65 381 73 383 86ZM328 151C320 98 270 54 216 54L195 54C146 54 111 89 111 136C111 141 111 144 112 151L143 346C152 399 203 443 256 443L277 443C326 443 361 407 361 361C361 357 360 351 359 346ZM261 680C262 686 258 691 252 691L177 691C171 691 165 686 164 680L151 595C150 589 154 584 160 584L235 584C241 584 247 589 248 595ZM444 680C445 686 441 691 435 691L360 691C354 691 348 686 347 680L334 595C333 589 337 584 343 584L418 584C424 584 430 589 431 595Z"/>
<glyph unicode="&#xe5;" horiz-adv-x="528" d="M446 486C447 492 443 496 438 496L395 496C389 496 383 492 382 486L380 475C356 495 324 508 288 508L266 508C177 508 93 435 79 346L48 151C46 139 46 134 46 126C46 48 104 -11 184 -11L205 -11C251 -11 293 7 326 36C339 14 362 0 391 0L413 0C419 0 424 5 425 11L432 55C433 61 428 65 423 65L401 65C391 65 381 73 383 86ZM328 151C320 98 270 54 216 54L195 54C146 54 111 89 111 136C111 141 111 144 112 151L143 346C152 399 203 443 256 443L277 443C326 443 361 407 361 361C361 357 360 351 359 346ZM209 623C209 582 240 550 283 550C338 550 385 600 385 651C385 692 354 724 311 724C256 724 209 674 209 623ZM292 604C276 604 264 616 264 632C264 655 286 670 302 670C318 670 330 658 330 642C330 619 308 604 292 604Z"/>
<glyph unicode="&#xe6;" horiz-adv-x="528" d="M457 140C458 146 454 151 448 151L405 151C399 151 393 146 392 140L389 119C383 83 349 54 313 54C281 54 259 77 259 108C259 109 259 113 260 119L275 216L458 216C464 216 470 221 471 227L495 378C496 385 497 392 497 398C497 460 450 508 385 508C347 508 310 491 281 464C262 491 229 508 191 508C119 508 52 449 41 378L35 339C34 333 38 328 44 328L87 328C93 328 99 333 100 339L106 378C111 414 145 443 181 443C213 443 236 420 236 390C236 386 236 384 235 378L231 356C225 316 201 300 166 286C88 255 20 245 3 140C-2 106 -3 95 -3 84C-3 15 39 -11 109 -11C147 -11 185 6 213 33C233 6 265 -11 303 -11C375 -11 442 47 454 119ZM414 280L285 280L301 378C307 414 339 443 375 443C407 443 431 420 431 389C431 386 431 384 430 378ZM213 242L194 119C188 83 155 54 119 54C79 54 62 60 62 92C62 100 63 108 68 140C74 180 99 198 133 211C162 222 189 230 213 242Z"/>
<glyph unicode="&#xe7;" horiz-adv-x="528" d="M405 151C406 156 402 162 396 162L353 162C347 162 341 156 340 151C331 98 280 54 227 54L205 54C157 54 123 89 123 135C123 140 123 145 124 151L155 346C163 399 214 443 267 443L289 443C337 443 372 406 372 360C372 355 372 353 371 346C370 340 374 335 380 335L423 335C429 335 435 340 436 346C437 354 438 363 438 371C438 448 380 508 299 508L277 508C188 508 104 435 90 346L59 151C58 142 57 134 57 126C57 54 105 -1 175 -10L137 -87C134 -93 131 -98 131 -102C131 -106 134 -108 140 -108L187 -108C192 -108 196 -105 198 -101L243 -9C322 3 392 70 405 151Z"/>
<glyph unicode="&#xe8;" horiz-adv-x="528" d="M436 346C437 354 438 363 438 371C438 448 380 508 299 508L277 508C188 508 104 435 90 346L59 151C58 142 57 134 57 126C57 48 115 -11 195 -11L217 -11C291 -11 363 40 392 108C395 114 393 120 386 122L347 133C340 135 336 132 333 126C314 84 272 54 227 54L205 54C157 54 123 89 123 135C123 140 123 145 124 151L134 216L404 216C410 216 416 221 417 227ZM360 281L144 281L155 346C163 399 214 443 267 443L289 443C337 443 372 406 372 360C372 355 372 352 371 346ZM277 566C279 563 282 562 287 562L329 562C337 562 342 567 342 573C342 575 341 577 340 579L272 686C269 690 266 691 261 691L197 691C189 691 184 687 184 681C184 678 185 675 187 673Z"/>
<glyph unicode="&#xe9;" horiz-adv-x="528" d="M436 346C437 354 438 363 438 371C438 448 380 508 299 508L277 508C188 508 104 435 90 346L59 151C58 142 57 134 57 126C57 48 115 -11 195 -11L217 -11C291 -11 363 40 392 108C395 114 393 120 386 122L347 133C340 135 336 132 333 126C314 84 272 54 227 54L205 54C157 54 123 89 123 135C123 140 123 145 124 151L134 216L404 216C410 216 416 221 417 227ZM360 281L144 281L155 346C163 399 214 443 267 443L289 443C337 443 372 406 372 360C372 355 372 352 371 346ZM441 673C445 676 446 680 446 683C446 688 442 691 435 691L371 691C366 691 364 690 360 686L258 579C255 576 253 572 253 569C253 565 257 562 263 562L305 562C310 562 313 563 317 566Z"/>
<glyph unicode="&#xea;" horiz-adv-x="528" d="M436 346C437 354 438 363 438 371C438 448 380 508 299 508L277 508C188 508 104 435 90 346L59 151C58 142 57 134 57 126C57 48 115 -11 195 -11L217 -11C291 -11 363 40 392 108C395 114 393 120 386 122L347 133C340 135 336 132 333 126C314 84 272 54 227 54L205 54C157 54 123 89 123 135C123 140 123 145 124 151L134 216L404 216C410 216 416 221 417 227ZM360 281L144 281L155 346C163 399 214 443 267 443L289 443C337 443 372 406 372 360C372 355 372 352 371 346ZM362 687C360 690 356 691 352 691L280 691C276 691 273 690 270 687L167 580C163 576 162 573 162 570C162 565 165 562 172 562L214 562C219 562 222 564 224 566L308 639L370 566C371 565 373 562 378 562L420 562C428 562 433 567 433 573C433 574 433 577 431 580Z"/>
<glyph unicode="&#xeb;" horiz-adv-x="528" d="M436 346C437 354 438 363 438 371C438 448 380 508 299 508L277 508C188 508 104 435 90 346L59 151C58 142 57 134 57 126C57 48 115 -11 195 -11L217 -11C291 -11 363 40 392 108C395 114 393 120 386 122L347 133C340 135 336 132 333 126C314 84 272 54 227 54L205 54C157 54 123 89 123 135C123 140 123 145 124 151L134 216L404 216C410 216 416 221 417 227ZM360 281L144 281L155 346C163 399 214 443 267 443L289 443C337 443 372 406 372 360C372 355 372 352 371 346ZM271 680C272 686 268 691 262 691L187 691C181 691 175 686 174 680L161 595C160 589 164 584 170 584L245 584C251 584 257 589 258 595ZM454 680C455 686 451 691 445 691L370 691C364 691 358 686 357 680L344 595C343 589 347 584 353 584L428 584C434 584 440 589 441 595Z"/>
<glyph unicode="&#xec;" horiz-adv-x="528" d="M433 55C434 61 430 65 424 65L283 65L350 486C351 492 347 496 341 496L147 496C141 496 136 492 135 486L128 442C127 436 131 431 137 431L276 431L218 65L36 65C30 65 24 61 23 55L16 11C15 5 20 0 26 0L414 0C420 0 425 5 426 11ZM297 566C299 563 302 562 307 562L349 562C357 562 362 567 362 573C362 575 361 577 360 579L292 686C289 690 286 691 281 691L217 691C209 691 204 687 204 681C204 678 205 675 207 673Z"/>
<glyph unicode="&#xed;" horiz-adv-x="528" d="M433 55C434 61 430 65 424 65L283 65L350 486C351 492 347 496 341 496L147 496C141 496 136 492 135 486L128 442C127 436 131 431 137 431L276 431L218 65L36 65C30 65 24 61 23 55L16 11C15 5 20 0 26 0L414 0C420 0 425 5 426 11ZM441 673C445 676 446 680 446 683C446 688 442 691 435 691L371 691C366 691 364 690 360 686L258 579C255 576 253 572 253 569C253 565 257 562 263 562L305 562C310 562 313 563 317 566Z"/>
<glyph unicode="&#xee;" horiz-adv-x="528" d="M433 55C434 61 430 65 424 65L283 65L350 486C351 492 347 496 341 496L147 496C141 496 136 492 135 486L128 442C127 436 131 431 137 431L276 431L218 65L36 65C30 65 24 61 23 55L16 11C15 5 20 0 26 0L414 0C420 0 425 5 426 11ZM397 687C395 690 391 691 387 691L315 691C311 691 308 690 305 687L202 580C198 576 197 573 197 570C197 565 200 562 207 562L249 562C254 562 257 564 259 566L343 639L405 566C406 565 408 562 413 562L455 562C463 562 468 567 468 573C468 574 468 577 466 580Z"/>
<glyph unicode="&#xef;" horiz-adv-x="528" d="M433 55C434 61 430 65 424 65L283 65L350 486C351 492 347 496 341 496L147 496C141 496 136 492 135 486L128 442C127 436 131 431 137 431L276 431L218 65L36 65C30 65 24 61 23 55L16 11C15 5 20 0 26 0L414 0C420 0 425 5 426 11ZM306 680C307 686 303 691 297 691L222 691C216 691 210 686 209 680L196 595C195 589 199 584 205 584L280 584C286 584 292 589 293 595ZM489 680C490 686 486 691 480 691L405 691C399 691 393 686 392 680L379 595C378 589 382 584 388 584L463 584C469 584 475 589 476 595Z"/>
<glyph unicode="&#xf0;" horiz-adv-x="528" d="M339 151C331 98 280 54 227 54L205 54C157 54 122 91 122 137C122 142 122 145 123 151L154 346C163 400 214 443 267 443L289 443C342 443 379 400 370 346ZM321 647C338 647 353 642 366 635L307 598C304 596 301 590 304 584L322 548C325 544 333 543 338 546L401 586C403 579 404 572 404 564C404 560 404 557 403 551L391 476C367 496 335 508 299 508L277 508C188 508 103 435 89 346L58 151C56 140 56 134 56 126C56 48 114 -11 195 -11L217 -11C306 -11 390 61 404 151L468 551C470 561 470 568 470 576C470 593 467 609 461 624L501 649C506 652 509 659 506 665L488 701C485 705 477 706 472 702L428 675C404 698 370 712 331 712L309 712C256 712 223 691 188 660C186 658 184 656 184 653C183 650 184 647 187 645L213 613C214 611 216 610 219 610C222 610 225 611 227 613C245 634 271 647 299 647Z"/>
<glyph unicode="&#xf1;" horiz-adv-x="528" d="M439 346C440 355 441 364 441 372C441 449 384 508 303 508L281 508C245 508 209 495 179 475L180 486C181 492 178 496 172 496L128 496C122 496 116 492 115 486L40 11C39 5 43 0 49 0L92 0C98 0 104 5 105 11L158 346C167 399 218 443 271 443L293 443C341 443 375 408 375 362C375 357 375 353 374 346L321 11C320 5 324 0 330 0L373 0C379 0 385 5 386 11ZM448 637C449 643 445 648 439 648L407 648C401 648 395 643 394 637C393 627 384 611 365 611C355 611 343 615 327 627C305 644 281 652 259 652C214 652 176 620 168 572C167 566 172 562 178 562L210 562C216 562 221 566 222 572C224 583 232 599 251 599C261 599 274 595 290 583C312 566 337 558 359 558C403 558 441 589 448 637Z"/>
<glyph unicode="&#xf2;" horiz-adv-x="528" d="M436 346C437 354 438 363 438 371C438 448 380 508 299 508L277 508C188 508 104 435 90 346L59 151C58 142 57 134 57 126C57 48 115 -11 195 -11L217 -11C306 -11 391 61 405 151ZM340 151C331 98 280 54 227 54L205 54C157 54 123 89 123 135C123 140 123 144 124 151L155 346C163 399 214 443 267 443L289 443C337 443 372 406 372 360C372 355 372 353 371 346ZM277 566C279 563 282 562 287 562L329 562C337 562 342 567 342 573C342 575 341 577 340 579L272 686C269 690 266 691 261 691L197 691C189 691 184 687 184 681C184 678 185 675 187 673Z"/>
<glyph unicode="&#xf3;" horiz-adv-x="528" d="M436 346C437 354 438 363 438 371C438 448 380 508 299 508L277 508C188 508 104 435 90 346L59 151C58 142 57 134 57 126C57 48 115 -11 195 -11L217 -11C306 -11 391 61 405 151ZM340 151C331 98 280 54 227 54L205 54C157 54 123 89 123 135C123 140 123 144 124 151L155 346C163 399 214 443 267 443L289 443C337 443 372 406 372 360C372 355 372 353 371 346ZM441 673C445 676 446 680 446 683C446 688 442 691 435 691L371 691C366 691 364 690 360 686L258 579C255 576 253 572 253 569C253 565 257 562 263 562L305 562C310 562 313 563 317 566Z"/>
<glyph unicode="&#xf4;" horiz-adv-x="528" d="M436 346C437 354 438 363 438 371C438 448 380 508 299 508L277 508C188 508 104 435 90 346L59 151C58 142 57 134 57 126C57 48 115 -11 195 -11L217 -11C306 -11 391 61 405 151ZM340 151C331 98 280 54 227 54L205 54C157 54 123 89 123 135C123 140 123 144 124 151L155 346C163 399 214 443 267 443L289 443C337 443 372 406 372 360C372 355 372 353 371 346ZM362 687C360 690 356 691 352 691L280 691C276 691 273 690 270 687L167 580C163 576 162 573 162 570C162 565 165 562 172 562L214 562C219 562 222 564 224 566L308 639L370 566C371 565 373 562 378 562L420 562C428 562 433 567 433 573C433 574 433 577 431 580Z"/>
<glyph unicode="&#xf5;" horiz-adv-x="528" d="M436 346C437 354 438 363 438 371C438 448 380 508 299 508L277 508C188 508 104 435 90 346L59 151C58 142 57 134 57 126C57 48 115 -11 195 -11L217 -11C306 -11 391 61 405 151ZM340 151C331 98 280 54 227 54L205 54C157 54 123 89 123 135C123 140 123 144 124 151L155 346C163 399 214 443 267 443L289 443C337 443 372 406 372 360C372 355 372 353 371 346ZM443 637C444 643 440 648 434 648L402 648C396 648 390 643 389 637C388 627 379 611 360 611C350 611 338 615 322 627C300 644 276 652 254 652C209 652 171 620 163 572C162 566 167 562 173 562L205 562C211 562 216 566 217 572C219 583 227 599 246 599C256 599 269 595 285 583C307 566 332 558 354 558C398 558 436 589 443 637Z"/>
<glyph unicode="&#xf6;" horiz-adv-x="528" d="M436 346C437 354 438 363 438 371C438 448 380 508 299 508L277 508C188 508 104 435 90 346L59 151C58 142 57 134 57 126C57 48 115 -11 195 -11L217 -11C306 -11 391 61 405 151ZM340 151C331 98 280 54 227 54L205 54C157 54 123 89 123 135C123 140 123 144 124 151L155 346C163 399 214 443 267 443L289 443C337 443 372 406 372 360C372 355 372 353 371 346ZM271 680C272 686 268 691 262 691L187 691C181 691 175 686 174 680L161 595C160 589 164 584 170 584L245 584C251 584 257 589 258 595ZM454 680C455 686 451 691 445 691L370 691C364 691 358 686 357 680L344 595C343 589 347 584 353 584L428 584C434 584 440 589 441 595Z"/>
<glyph unicode="&#xf7;" horiz-adv-x="528" d="M333 453C334 459 330 465 324 465L238 465C232 465 226 459 225 453L211 368C210 363 215 357 221 357L307 357C313 357 318 361 319 368ZM402 280C403 286 399 292 393 292L113 292C107 292 101 286 100 280L94 237C93 232 97 227 103 227L383 227C389 227 395 232 396 237ZM285 151C286 156 282 162 276 162L190 162C184 162 178 156 177 151L163 64C162 60 167 54 173 54L259 54C265 54 270 58 271 64Z"/>
<glyph unicode="&#xf8;" horiz-adv-x="528" d="M436 346C437 355 438 364 438 372C438 411 423 445 397 469L425 523C428 529 425 534 421 536L381 550C376 552 370 549 367 543L345 501C330 505 315 508 299 508L277 508C188 508 104 435 90 346L59 151C58 142 57 133 57 125C57 86 72 52 97 27L71 -25C68 -31 70 -36 74 -38L112 -54C117 -56 123 -54 126 -49L149 -4C164 -9 179 -11 195 -11L217 -11C306 -11 391 61 405 151ZM340 151C331 98 280 54 227 54L205 54C197 54 189 55 181 57L361 401C369 390 372 376 372 361C372 356 372 353 371 346ZM314 440L133 95C126 107 123 120 123 134C123 139 123 143 124 151L155 346C163 399 214 443 267 443L289 443C297 443 306 442 314 440Z"/>
<glyph unicode="&#xf9;" horiz-adv-x="528" d="M453 486C454 492 450 496 444 496L400 496C394 496 389 492 388 486L335 151C327 98 276 54 223 54L201 54C152 54 118 90 118 136C118 141 118 144 119 151L172 486C173 492 169 496 163 496L120 496C114 496 108 492 107 486L54 151C53 142 52 134 52 126C52 48 110 -11 191 -11L213 -11C249 -11 284 1 315 21L313 11C312 5 315 0 321 0L365 0C371 0 377 5 378 11ZM282 566C284 563 287 562 292 562L334 562C342 562 347 567 347 573C347 575 346 577 345 579L277 686C274 690 271 691 266 691L202 691C194 691 189 687 189 681C189 678 190 675 192 673Z"/>
<glyph unicode="&#xfa;" horiz-adv-x="528" d="M453 486C454 492 450 496 444 496L400 496C394 496 389 492 388 486L335 151C327 98 276 54 223 54L201 54C152 54 118 90 118 136C118 141 118 144 119 151L172 486C173 492 169 496 163 496L120 496C114 496 108 492 107 486L54 151C53 142 52 134 52 126C52 48 110 -11 191 -11L213 -11C249 -11 284 1 315 21L313 11C312 5 315 0 321 0L365 0C371 0 377 5 378 11ZM426 673C430 676 431 680 431 683C431 688 427 691 420 691L356 691C351 691 349 690 345 686L243 579C240 576 238 572 238 569C238 565 242 562 248 562L290 562C295 562 298 563 302 566Z"/>
<glyph unicode="&#xfb;" horiz-adv-x="528" d="M453 486C454 492 450 496 444 496L400 496C394 496 389 492 388 486L335 151C327 98 276 54 223 54L201 54C152 54 118 90 118 136C118 141 118 144 119 151L172 486C173 492 169 496 163 496L120 496C114 496 108 492 107 486L54 151C53 142 52 134 52 126C52 48 110 -11 191 -11L213 -11C249 -11 284 1 315 21L313 11C312 5 315 0 321 0L365 0C371 0 377 5 378 11ZM357 687C355 690 351 691 347 691L275 691C271 691 268 690 265 687L162 580C158 576 157 573 157 570C157 565 160 562 167 562L209 562C214 562 217 564 219 566L303 639L365 566C366 565 368 562 373 562L415 562C423 562 428 567 428 573C428 574 428 577 426 580Z"/>
<glyph unicode="&#xfc;" horiz-adv-x="528" d="M453 486C454 492 450 496 444 496L400 496C394 496 389 492 388 486L335 151C327 98 276 54 223 54L201 54C152 54 118 90 118 136C118 141 118 144 119 151L172 486C173 492 169 496 163 496L120 496C114 496 108 492 107 486L54 151C53 142 52 134 52 126C52 48 110 -11 191 -11L213 -11C249 -11 284 1 315 21L313 11C312 5 315 0 321 0L365 0C371 0 377 5 378 11ZM268 680C269 686 265 691 259 691L184 691C178 691 172 686 171 680L158 595C157 589 161 584 167 584L242 584C248 584 254 589 255 595ZM451 680C452 686 448 691 442 691L367 691C361 691 355 686 354 680L341 595C340 589 344 584 350 584L425 584C431 584 437 589 438 595Z"/>
<glyph unicode="&#xfd;" horiz-adv-x="528" d="M456 483C459 490 458 496 448 496L405 496C400 496 396 495 393 489L233 119L184 489C183 495 179 496 174 496L129 496C121 496 116 492 117 483L185 14C138 -95 135 -108 28 -108L7 -108C1 -108 -5 -113 -6 -119L-13 -162C-14 -168 -10 -173 -4 -173L17 -173C98 -173 173 -163 217 -63ZM441 673C445 676 446 680 446 683C446 688 442 691 435 691L371 691C366 691 364 690 360 686L258 579C255 576 253 572 253 569C253 565 257 562 263 562L305 562C310 562 313 563 317 566Z"/>
<glyph unicode="&#xfe;" horiz-adv-x="528" d="M443 346C444 354 445 363 445 371C445 448 387 508 306 508L285 508C249 508 213 495 183 475L219 701C220 707 216 712 210 712L167 712C161 712 155 707 154 701L10 -205C9 -211 14 -216 20 -216L63 -216C69 -216 74 -211 75 -205L111 21C135 1 167 -11 203 -11L224 -11C313 -11 398 61 412 151ZM347 151C339 98 288 54 234 54L213 54C165 54 131 89 131 135C131 140 131 145 132 151L163 346C171 399 221 443 275 443L296 443C345 443 379 407 379 361C379 356 379 352 378 346Z"/>
<glyph unicode="&#xff;" horiz-adv-x="528" d="M456 483C459 490 458 496 448 496L405 496C400 496 396 495 393 489L233 119L184 489C183 495 179 496 174 496L129 496C121 496 116 492 117 483L185 14C138 -95 135 -108 28 -108L7 -108C1 -108 -5 -113 -6 -119L-13 -162C-14 -168 -10 -173 -4 -173L17 -173C98 -173 173 -163 217 -63ZM282 680C283 686 279 691 273 691L198 691C192 691 186 686 185 680L172 595C171 589 175 584 181 584L256 584C262 584 268 589 269 595ZM465 680C466 686 462 691 456 691L381 691C375 691 369 686 368 680L355 595C354 589 358 584 364 584L439 584C445 584 451 589 452 595Z"/>
<glyph unicode="&#x152;" horiz-adv-x="528" d="M421 55C422 61 418 65 412 65L272 65L313 324L432 324C438 324 442 329 443 335L450 378C451 384 448 389 442 389L323 389L364 647L504 647C510 647 516 652 517 658L523 702C524 708 520 712 514 712L320 712C315 712 311 709 309 706C292 717 270 724 246 724C175 724 107 665 96 594L21 119C20 112 19 106 19 99C19 37 66 -11 130 -11C154 -11 178 -4 198 7C199 3 202 0 207 0L401 0C407 0 413 5 414 11ZM215 119C209 83 177 54 140 54C109 54 85 77 85 108C85 111 85 113 86 119L161 594C167 630 201 659 236 659C269 659 291 636 291 605C291 601 291 600 290 594Z"/>
<glyph unicode="&#x153;" horiz-adv-x="528" d="M456 140C457 146 453 151 447 151L404 151C398 151 392 146 391 140L388 119C382 83 348 54 312 54C280 54 258 77 258 108C258 112 258 113 259 119L274 216L457 216C463 216 469 221 470 227L494 378C495 385 496 392 496 398C496 460 449 508 384 508C346 508 309 491 280 464C261 491 228 508 190 508C118 508 51 449 40 378L-1 119C-2 112 -3 105 -3 98C-3 36 43 -11 108 -11C146 -11 184 6 212 33C232 6 264 -11 302 -11C374 -11 441 47 453 119ZM413 281L284 281L300 378C306 414 338 443 374 443C406 443 430 420 430 389C430 386 430 384 429 378ZM193 119C187 83 154 54 118 54C86 54 63 77 63 108C63 112 63 113 64 119L105 378C111 414 144 443 180 443C212 443 235 420 235 389C235 387 235 384 234 378Z"/>
<glyph unicode="&#x178;" horiz-adv-x="528" d="M500 698C501 700 502 703 502 705C502 710 499 712 493 712L446 712C442 712 438 711 435 706L270 398L203 706C202 711 198 712 194 712L147 712C139 712 134 706 136 698L224 312L176 11C175 5 180 0 186 0L228 0C234 0 241 5 242 11L290 312ZM308 896C309 902 305 907 299 907L224 907C218 907 212 902 211 896L198 811C197 805 201 800 207 800L282 800C288 800 294 805 295 811ZM491 896C492 902 488 907 482 907L407 907C401 907 395 902 394 896L381 811C380 805 384 800 390 800L465 800C471 800 477 805 478 811Z"/>
<glyph unicode="&#x2c6;" horiz-adv-x="528" d="M398 687C396 690 392 691 388 691L316 691C312 691 309 690 306 687L203 580C199 576 198 573 198 570C198 565 201 562 208 562L250 562C255 562 258 564 260 566L344 639L406 566C407 565 409 562 414 562L456 562C464 562 469 567 469 573C469 574 469 577 467 580Z"/>
<glyph unicode="&#x2dc;" horiz-adv-x="528" d="M474 637C475 643 471 648 465 648L433 648C427 648 421 643 420 637C419 627 410 611 391 611C381 611 369 615 353 627C331 644 307 652 285 652C240 652 202 620 194 572C193 566 198 562 204 562L236 562C242 562 247 566 248 572C250 583 258 599 277 599C287 599 300 595 316 583C338 566 363 558 385 558C429 558 467 589 474 637Z"/>
<glyph unicode="&#x2013;" horiz-adv-x="528" d="M403 280C404 286 400 292 394 292L114 292C108 292 102 286 101 280L95 237C94 232 98 227 104 227L384 227C390 227 396 232 397 237Z"/>
<glyph unicode="&#x2014;" horiz-adv-x="528" d="M470 280C471 286 467 292 461 292L47 292C41 292 35 286 34 280L28 237C27 232 31 227 37 227L451 227C457 227 463 231 464 237Z"/>
<glyph unicode="&#x2018;" horiz-adv-x="528" d="M217 463C216 457 219 453 225 453L334 453C340 453 346 457 347 463L364 572C365 578 361 583 355 583L300 583L301 593C306 623 335 647 365 647C370 647 376 651 377 657L384 700C385 706 380 712 375 712C309 712 247 658 237 593Z"/>
<glyph unicode="&#x2019;" horiz-adv-x="528" d="M384 702C385 708 381 712 375 712L266 712C260 712 255 708 254 702L236 593C235 587 240 582 246 582L301 582L299 572C294 542 265 518 235 518C230 518 224 514 223 508L216 465C215 459 220 453 225 453C291 453 353 507 363 572Z"/>
<glyph unicode="&#x201a;" horiz-adv-x="528" d="M291 120C292 126 288 130 282 130L173 130C167 130 162 126 161 120L143 11C142 5 147 0 153 0L208 0L206 -10C201 -40 172 -64 142 -64C137 -64 131 -68 130 -74L123 -117C122 -123 127 -129 132 -129C198 -129 260 -75 270 -10Z"/>
<glyph unicode="&#x201c;" horiz-adv-x="528" d="M313 463C312 457 315 453 321 453L430 453C436 453 442 457 443 463L460 572C461 578 457 583 451 583L396 583L397 593C402 623 431 647 461 647C466 647 472 651 473 657L480 700C481 706 476 712 471 712C405 712 343 658 333 593ZM118 463C117 457 120 453 126 453L235 453C241 453 247 457 248 463L265 572C266 578 262 583 256 583L201 583L202 593C207 623 236 647 266 647C271 647 277 651 278 657L285 700C286 706 281 712 276 712C210 712 148 658 138 593Z"/>
<glyph unicode="&#x201d;" horiz-adv-x="528" d="M286 702C287 708 283 712 277 712L168 712C162 712 157 708 156 702L138 593C137 587 142 582 148 582L203 582L201 572C196 542 167 518 137 518C132 518 126 514 125 508L118 465C117 459 122 453 127 453C193 453 255 507 265 572ZM481 702C482 708 478 712 472 712L363 712C357 712 352 708 351 702L333 593C332 587 337 582 343 582L398 582L396 572C391 542 362 518 332 518C327 518 321 514 320 508L313 465C312 459 317 453 322 453C388 453 450 507 460 572Z"/>
<glyph unicode="&#x201e;" horiz-adv-x="528" d="M195 120C196 126 192 130 186 130L77 130C71 130 66 126 65 120L47 11C46 5 51 0 57 0L112 0L110 -10C105 -40 76 -64 46 -64C41 -64 35 -68 34 -74L27 -117C26 -123 31 -129 36 -129C102 -129 164 -75 174 -10ZM390 120C391 126 387 130 381 130L272 130C266 130 261 126 260 120L242 11C241 5 246 0 252 0L307 0L305 -10C300 -40 271 -64 241 -64C236 -64 230 -68 229 -74L222 -117C221 -123 226 -129 231 -129C297 -129 359 -75 369 -10Z"/>
<glyph unicode="&#x2022;" horiz-adv-x="528" d="M143 337C143 280 186 237 245 237C316 237 384 300 384 374C384 431 342 475 283 475C208 475 143 406 143 337Z"/>
<glyph unicode="&#x2026;" horiz-adv-x="528" d="M292 119C293 125 289 130 283 130L175 130C169 130 163 125 162 119L145 11C144 5 148 0 154 0L262 0C268 0 274 5 275 11ZM108 119C109 125 105 130 99 130L-9 130C-15 130 -21 125 -22 119L-39 11C-40 5 -36 0 -30 0L78 0C84 0 90 5 91 11ZM476 119C477 125 473 130 467 130L359 130C353 130 347 125 346 119L329 11C328 5 332 0 338 0L446 0C452 0 458 5 459 11Z"/>
<glyph unicode="&#x2039;" horiz-adv-x="528" d="M279 246L280 251L397 394C400 398 401 400 401 403C401 407 398 410 391 410L341 410C337 410 334 409 330 405L221 271C219 269 218 268 217 264L212 232C212 230 212 228 213 226L280 92C283 88 286 87 290 87L340 87C348 87 353 91 353 97C353 99 352 101 351 103Z"/>
<glyph unicode="&#x203a;" horiz-adv-x="528" d="M96 103C94 100 93 98 93 95C93 91 96 87 103 87L153 87C157 87 160 88 163 92L272 224C274 227 275 228 276 232L282 264C282 266 282 268 280 272L213 405C211 409 208 410 204 410L154 410C143 410 138 402 142 394L215 251L214 246Z"/>
<glyph unicode="&#x20ac;" horiz-adv-x="528" d="M420 183C421 189 418 194 412 194L368 194C362 194 356 189 355 183L350 151C342 98 291 54 237 54L205 54C157 54 122 91 122 137C122 142 122 144 123 151L138 242L331 308C338 310 342 315 340 323L332 363C331 369 326 372 319 370L149 311L158 373L340 436C347 438 350 442 349 449L341 491C340 495 335 498 328 496L169 443L188 562C197 615 248 659 301 659L333 659C382 659 416 624 416 578C416 573 416 567 412 540C411 535 415 529 421 529L465 529C471 529 476 535 477 540C481 571 482 579 482 587C482 664 424 724 343 724L311 724C222 724 137 651 123 562L101 419L28 394C20 392 17 385 18 379L28 339C29 333 34 330 40 332L90 349L80 287L18 266C12 264 9 258 10 252L18 211C19 206 26 203 31 205L69 218L58 151C57 142 56 134 56 126C56 48 114 -11 195 -11L227 -11C317 -11 401 61 415 151Z"/>
<glyph unicode="&#x2122;" horiz-adv-x="528" d="M568 702C569 708 564 712 558 712L507 712C503 712 499 711 496 705L397 476L371 705C370 711 365 712 361 712L310 712C305 712 299 708 298 702L257 443C256 437 261 432 266 432L288 432C293 432 298 437 299 443L332 649L357 440C358 434 362 432 366 432L415 432C419 432 423 434 426 440L516 649L483 443C482 437 487 432 493 432L514 432C520 432 526 437 527 443ZM265 702C266 708 261 712 257 712L84 712C78 712 71 708 70 702L67 681C66 675 71 669 77 669L141 669L105 443C104 437 109 432 115 432L137 432C143 432 147 437 148 443L184 669L250 669C254 669 261 675 262 681Z"/>
<glyph unicode="&#xfb01;" horiz-adv-x="528" d="M465 55C466 61 460 65 454 65L390 65L453 465C454 470 450 475 444 475L196 475L210 562C219 619 261 659 311 659L332 659C377 659 406 628 406 582C406 576 405 569 402 551C401 545 405 540 411 540L454 540C460 540 466 545 467 551C470 572 471 581 471 590C471 663 426 724 343 724L322 724C229 724 158 647 145 562L131 475L66 475C60 475 54 470 53 465L47 421C46 416 50 410 56 410L121 410L66 65L1 65C-5 65 -10 61 -11 55L-18 11C-19 5 -15 0 -9 0L186 0C191 0 197 5 198 11L205 55C206 61 201 65 196 65L131 65L186 410L380 410L325 65L260 65C254 65 250 61 249 55L242 11C241 5 244 0 250 0L444 0C450 0 457 5 458 11Z"/>
</font>
</defs>
</svg>
