<?xml version="1.0" encoding="UTF-8" standalone="no"?>
<svg xmlns="http://www.w3.org/2000/svg" width="120" height="15" x="0px" y="0px" viewBox="0 0 120 15">
 <path fill="#202020"
  d="M 12.4375 2 L 11 3.40625 L 15.15625 7.5 L 11 11.59375 L 12.4375 13 L 18 7.5 L 12.4375 2 z M 71.40625 4 L 70 5.4375 L 75.5 11 L 81 5.4375 L 79.59375 4 L 75.5 8.15625 L 71.40625 4 z"/>
 <path fill="#ededed"
  d="M 42.4375,2 41,3.40625 45.15625,7.5 41,11.59375 42.4375,13 48,7.5 42.4375,2 Z"/>
 <path fill="#666666"
  d="M 102.4375,2 101,3.40625 105.15625,7.5 101,11.59375 102.4375,13 108,7.5 102.4375,2 Z"/>
</svg>
