<?xml version="1.0" encoding="UTF-8" standalone="no"?>
<svg xmlns="http://www.w3.org/2000/svg" width="78" height="300" x="0px" y="0px" viewBox="0 0 78 300">
 <path fill="#999999"
  d="M 75 0 L 75 300 L 78 300 L 78 0 L 75 0 z M 22 89 L 22 111 L 25 111 L 25 102 L 52 102 L 52 98.5 L 25 98.5 L 25 89 L 22 89 z M 22 112 L 22 129 L 52 129 L 52 125.5 L 39 125.5 L 39 113 L 36 113 L 36 125.5 L 25 125.5 L 25 112 L 22 112 z M 52 133 L 22 144.5 L 22 147.5 L 52 159 L 52 155.54883 L 42 151.41992 L 42 140.52148 L 52 136.53125 L 52 133 z M 39 141.51367 L 39 150.48047 L 30.113281 147.2832 C 28.546544 146.73486 27.108708 146.29425 25.800781 146 C 27.503807 145.53191 28.941644 145.09762 30.113281 144.65625 L 39 141.51367 z M 52 160 L 38.021484 168.18164 C 36.626149 164.21287 34.441792 162.00002 30.474609 162 C 27.642898 162.00002 25.522333 163.1004 24.113281 164.8418 C 22.704281 166.56972 22.000034 169.24956 22 172.88086 L 22 181 L 52 181 L 52 177.5 L 39 177.5 L 39 171.18359 L 52 164 L 52 160 z M 30.660156 165.5 C 32.616395 165.50001 33.589288 166.36021 34.574219 167.49414 C 35.54551 168.6281 36 170.40998 36 172.83984 L 36 177.5 L 25 177.5 L 25 173.08203 C 25.000026 170.53068 25.495604 168.68261 26.371094 167.53516 C 27.246627 166.37423 28.676594 165.50001 30.660156 165.5 z M 36.712891 186.5 C 32.075432 186.50004 28.46443 187.64593 25.878906 190.19727 C 23.293434 192.74866 22.000034 196.32448 22 200.92773 L 22 210 L 52 210 L 52 201.79883 C 52 196.8176 50.692942 193.00527 48.080078 190.35938 C 45.453548 187.70003 41.665023 186.50004 36.712891 186.5 z M 36.835938 190 C 40.844153 190.00002 43.873802 191.0479 45.925781 193.11328 C 47.964084 195.17868 49 198.26145 49 202.36523 L 49 206.5 L 25 206.5 L 25 201.55664 C 24.987459 197.73637 26.008626 194.86011 27.992188 192.92969 C 29.975792 190.98582 32.923504 190.00002 36.835938 190 z"/>
</svg>
