<?xml version="1.0" encoding="UTF-8" standalone="no"?>
<svg xmlns="http://www.w3.org/2000/svg" x="0px" y="0px" viewBox="0 0 36 36">
<path fill="#614767"
 d="M 18 6.2011719 L 0.19921875 13.005859 L 3.9628906 14.445312 L 3.9628906 22.970703 L 0.3359375 29.798828 L 9.5898438 29.798828 L 5.9628906 22.976562 L 5.9628906 15.208984 L 7.3007812 15.720703 L 7.3007812 22.333984 L 7.71875 22.632812 C 10.535157 24.645507 14.283203 25.798828 18 25.798828 C 21.716797 25.798828 25.464844 24.645508 28.28125 22.632812 L 28.699219 22.333984 L 28.699219 15.71875 L 35.800781 13.005859 L 18 6.2011719 z M 18 8.3417969 L 30.199219 13.005859 L 18 17.667969 L 5.8007812 13.005859 L 18 8.3417969 z M 9.3007812 16.484375 L 18 19.808594 L 26.699219 16.484375 L 26.699219 21.291016 C 24.289063 22.867188 21.079102 23.798828 18 23.798828 C 14.920898 23.798828 11.710449 22.867188 9.3007812 21.291016 L 9.3007812 16.484375 z M 4.9609375 25.353516 L 6.2617188 27.798828 L 3.6640625 27.798828 L 4.9609375 25.353516 z "/>
</svg>
