<?xml version="1.0" encoding="UTF-8" standalone="no"?>
<svg xmlns="http://www.w3.org/2000/svg" width="432" height="111"  x="0px" y="0px" viewBox="0 0 432 111">
<path fill="#ffffff"
d="M 269.60742,7.78125 259,18.388672 l 0.002,0.002 -0.002,0.002 L 269.60742,29 l 2.1211,-2.121094 -6.86914,-6.86914 16.14062,0 0,-3 -16.37891,0 7.10743,-7.1054691 -2.1211,-2.1230469 z"/>
<path fill="#ffffff"
d="m 306.39258,7.78125 -2.1211,2.1230469 7.10743,7.1054691 -16.37891,0 0,3 16.14062,0 -6.86914,6.86914 L 306.39258,29 317,18.392578 l -0.002,-0.002 0.002,-0.002 L 306.39258,7.78125 Z"/>
<path fill="#666666"
d="m 2,72.5 0,10.818359 c 2.2387015,0.1649 3.8416344,0.839891 6,1.962891 L 8,74.017578 C 5.8459378,72.864978 4.2389126,72.6695 2,72.5 Z m 14,0 c -0.831249,0.063 -2.222641,0.099 -3.0625,0.3125 L 12.99219,78.068359 12,76.849609 l -1,1.21875 0,-4.820312 c -0.625355,0.1676 -1.454262,0.467765 -2,0.759765 l 0,11.269532 c 2.158365,-1.123 4.761298,-1.790178 7,-1.955078 L 16,72.5 Z M 1,74.353516 c -0.21893011,0.022 -0.78329463,0.03836 -1,0.06836 L 0,86.01172 c 0.12030075,0.062 0.2109375,0.152343 0.2109375,0.152343 C 2.8338852,85.809663 5.5567542,86.1524 8.1464844,87 c 0.1190828,-0.012 0.2450294,-0.01953 0.3789062,-0.01953 0.1338687,0 0.2600183,0.01053 0.3789063,0.01953 2.5893241,-0.8482 6.1253111,-1.190337 8.7480471,-0.835938 0,0 0.232212,-0.09484 0.347656,-0.152343 l 0,-11.589844 c -0.216697,-0.03 -0.781264,-0.04636 -1,-0.06836 l 0,10.546875 -0.09766,-0.01172 c -2.469835,-0.1416 -5.803677,0.401656 -8.2167971,1.472656 L 8.5,86.439453 8.3144531,86.361328 C 5.9009193,85.290328 3.5674918,84.746872 1.0976562,84.888672 L 1,84.900391 1,74.353516 Z"/>
<path fill="#ffffff"
d="m 90,8 -12,8 4,0 0,11 4,0 0,-8 4,0 0,8 8,0 0,-11 4,0 -5,-3.34375 0,-3.65625 -3,0 0,1.65625 -4,-2.65625 z"/>
<path fill="#00b388"
d="m 117,8.8242188 0,14.5546872 c 2.75714,0.20303 5.3418,1.034879 8,2.417969 l 0,-14.488281 c -2.6529,-1.4195102 -5.2426,-2.2756053 -8,-2.4843752 z m 18,0.00391 c -1.02375,0.0775 -3.01067,0.24825 -4,0.5 l 0,6.9687502 -1.5,-1.5 -1.5,1.5 0,-5.9375 c -0.66776,0.28599 -1.32788,0.57786 -2,0.9375 l 0,14.5 c 2.6582,-1.38309 6.24286,-2.20322 9,-2.40625 L 135,8.8281288 Z M 115.80859,11.72266 c -0.26963,0.0269 -0.5417,0.04698 -0.80859,0.08399 l 0,14.75 c 0.14816,0.0766 0.25977,0.1875 0.25977,0.1875 3.23037,-0.4365 6.58397,0.211499 9.77343,1.255859 0.14666,-0.0145 0.30192,-0.02344 0.4668,-0.02344 0.16487,0 0.32038,0.0087 0.4668,0.02344 3.18896,-1.04461 7.54332,-1.692359 10.77343,-1.255859 0,0 0.11759,-0.11616 0.25977,-0.1875 l 0,-14.75 c -0.26688,-0.0372 -0.53725,-0.05729 -0.80664,-0.08399 l 0,13.357422 -0.24219,-0.01367 c -3.0418,-0.17435 -7.2507,0.880229 -10.22265,2.199219 l -0.22852,0.0957 -0.22852,-0.0957 c -2.97246,-1.31899 -6.18085,-2.373819 -9.22265,-2.199219 l -0.24024,0.01367 0,-13.357422 z"/>
<path fill="#666666"
d="m 80.65625,74.279297 -4.238281,4.240234 -0.0039,-0.0039 L 75,79.929688 l 0.0039,0.0039 -0.0039,0.002 1.414062,1.414062 0.0039,-0.002 4.238281,4.238282 1.414062,-1.414063 L 78.898438,81 87,81 l 0,-2 -8.234375,0 3.304687,-3.306641 -1.414062,-1.414062 z"/>
<path fill="#666666"
d="M 153.34375,74.414062 151.92969,75.828125 155.10156,79 147,79 l 0,2 8.23438,0 -3.30469,3.306641 1.41406,1.414062 4.23828,-4.240234 0.004,0.0039 1.41406,-1.414063 -0.004,-0.0039 0.004,-0.002 -1.41406,-1.414062 -0.004,0.002 -4.23828,-4.238282 z"/>
<rect y="81" x="219" height="6" width="6" fill="#00b388" fill-opacity="0.4"/>
<path fill="#00b388"
d="m 222,76 0,2 4.46875,0 -5.71875,5.75 1.40625,1.4062 5.84375,-5.8125 0,4.6563 2,0 0,-8 z"/>
<path fill="#999999"
d="m 188.65625,74.595703 -4.23828,4.238281 -0.004,-0.0039 -1.41406,1.416016 0.004,0.0039 -0.004,0.002 1.41406,1.414063 0.004,-0.002 4.23828,4.238282 1.41406,-1.414063 -3.30469,-3.30664 8.23438,0 0,-2 -8.10156,0 3.17187,-3.171875 -1.41406,-1.414063 z"/>
<path
d="m 207.34375,74.595703 -1.41406,1.414063 3.17187,3.171875 -8.10156,0 0,2 8.23438,0 -3.30469,3.30664 1.41406,1.414063 4.23828,-4.238282 0.004,0.002 1.41406,-1.414063 -0.004,-0.002 0.004,-0.0039 -1.41406,-1.416016 -0.004,0.0039 -4.23828,-4.238281 z"
fill="#999999"/>
<path
d="m 256,93 0,4 -2,0 0,5 2,0 0,4 10,0 0,-4 2,0 0,-5 -2,0 0,-4 -10,0 z m 1,1 8,0 0,3 -8,0 0,-3 z m 9,4 c 0.55228,0 1,0.2238 1,0.5 0,0.2761 -0.44772,0.5 -1,0.5 -0.55228,0 -1,-0.2239 -1,-0.5 0,-0.2762 0.44772,-0.5 1,-0.5 z m -9.0625,2 8,0 0,5 -8,0 0,-5 z m 1.0625,1 0,1 6,0 0,-1 -6,0 z m 0.0625,2 0,1 6,0 0,-1 -6,0 z"
fill="#ffffff"/>
<path
fill="#ffffff"
d="m 280,107 -3,0 0,-8 -2,0 0,-3 2,0 0,-1.4133 c 0,-2.2492 0.88413,-3.5867 3.53358,-3.5867 l 2.46642,0 0,2.7575 -1.6393,0 c -1.03155,0 -1.35867,0.3853 -1.35867,1.1045 l -0.004,1.138 3.00197,0 -0.75,3 -2.25197,0 z"/>
<path
fill="#ffffff"
d="m 320,95 c -0.2822,-0.3002 -1.67291,-1 -2.5,-1 -1.58526,0 -2.5,0.8835 -2.5,2 0,0.2256 -0.0501,0.7911 0,1 -2.38729,-0.1191 -4.58391,-1.2623 -6,-3 -0.24646,0.424 -0.41309,1.0686 -0.41309,1.595 0,0.9963 0.50753,1.8756 1.27823,2.3894 -0.46994,-0.015 -1.74014,-0.3594 -1.74014,-0.3594 0,1 1.42894,2.5879 2.74268,2.8511 -0.68461,0.3952 -1.86768,0.5239 -1.86768,0.5239 0.36551,1.1404 1.99717,1.4958 3.25243,1.5188 -0.98374,0.7707 -1.90527,1.4812 -3.25243,1.4812 -0.23184,0 -0.77443,0.025 -1,0 1.26988,0.8146 2.77996,1 4.40281,1 5.28212,0 8.17069,-4.3756 8.17069,-8.1706 0,-0.1254 -0.002,-0.2486 -0.008,-0.3718 0.56184,-0.4052 1.43486,-1.4576 1.43486,-1.4576 0,0 -1.34626,-0.1295 -2,0 z"/>
<path fill="#404040"
d="m 242.5,72 c -4.14214,0 -7.5,3.3579 -7.5,7.5 0,4.1421 3.35786,7.5 7.5,7.5 4.14214,0 7.5,-3.3579 7.5,-7.5 0,-4.1421 -3.35786,-7.5 -7.5,-7.5 z m -3.125,5 3.125,3.1875 3.125,-3.1875 1.375,1.4062 -4.5,4.5938 -4.5,-4.5938 1.375,-1.4062 z"/>
<path fill="#333333"
d="m 278.5,87 c -4.14214,0 -7.5,-3.3579 -7.5,-7.5 0,-4.1421 3.35786,-7.5 7.5,-7.5 4.14214,0 7.5,3.3579 7.5,7.5 0,4.1421 -3.35786,7.5 -7.5,7.5 z m -3.125,-5 3.125,-3.1875 3.125,3.1875 1.375,-1.4062 -4.5,-4.5938 -4.5,4.5938 1.375,1.4062 z"/>
<rect y="107" x="218" height="4" width="4" fill="#00b388" fill-opacity="0.4"/>
<path fill="#00b388"
d="m 218,103 -1e-5,2 4.46763,1e-4 -3.71547,3.7153 1.40585,1.4059 3.84209,-3.7762 1e-5,4.6552 2,10e-5 4e-5,-7.9982 z"/>
<path fill="#ffffff" stroke="#00b388" stroke-width="1"
d="M 2.5002508,88.5 C 1.3921118,88.5 0.5,89.35141 0.5,90.40911 l 0,17.1818 c 0,1.0576 0.8921118,1.9091 2,1.9091 l 22.0045142,0 c 0.692587,0 1.220362,-0.3478 1.656458,-0.8353 l 8.751097,-8.3223 c 0.783572,-0.7479 0.783572,-1.9369 0,-2.6848 l -8.751097,-8.3223 c -0.414,-0.4473 -0.963871,-0.8353 -1.656458,-0.8353 z"/>
<path fill="#ffffff" stroke="#00b388" stroke-width="1"
d="m 69.499749,88.5 c 1.10814,0 2,0.8514 2,1.9091 l 0,17.1818 c 0,1.0576 -0.89211,1.9091 -2,1.9091 l -10.004515,0 c -0.692587,0 -1.220362,-0.3478 -1.656458,-0.8353 l -8.751097,-8.3223 c -0.783572,-0.7479 -0.783572,-1.9369 0,-2.6848 l 8.751097,-8.3223 c 0.414,-0.4473 0.963871,-0.8353 1.656458,-0.8353 z"/>
<path fill="#ffffff"
d="M 243 91.550781 L 236 96 L 250 96 L 243 91.550781 z M 250 96 L 243 100.55078 L 236 96 L 236 105 L 250 105 L 250 96 z "/>
<path fill="#999999"
d="m 96,99 c 0,6.6267 -5.37141,12 -12,12 -6.62776,0 -12,-5.3729 -12,-12 0,-6.6275 5.37307,-12 12,-12 6.62776,0 12,5.3729 12,12"
/>
<path fill="#ffffff"
d="M 79.2,93 78,94.20171 l 4.8,4.7893 0,0.018 -4.8,4.7892 1.2,1.2018 4.8,-4.807 4.8,4.807 1.2,-1.2018 -4.8,-4.7892 0,-0.018 L 90,94.20171 88.8,93 84,97.80691 79.2,93 Z"/>
<path fill="#ffffff"
d="m 120,99 c 0,6.6267 -5.37141,12 -12,12 -6.62776,0 -12,-5.3729 -12,-12 0,-6.6275 5.37307,-12 12,-12 6.62776,0 12,5.3729 12,12"/>
<path fill="#999999"
d="m 103.2,93 -1.2,1.2017 4.8,4.7893 0,0.018 -4.8,4.7892 1.2,1.2018 4.8,-4.807 4.8,4.807 1.2,-1.2018 -4.8,-4.7892 0,-0.018 4.8,-4.7893 -1.2,-1.2017 -4.8,4.8069 -4.8,-4.8069 z"/>
<path fill="#999999"
d="m 144,99 c 0,6.6267 -5.37141,12 -12,12 -6.62776,0 -12,-5.3729 -12,-12 0,-6.6275 5.37307,-12 12,-12 6.62776,0 12,5.3729 12,12"/>
<path fill="#ffffff"
d="m 168,99 c 0,6.6267 -5.37141,12 -12,12 -6.62776,0 -12,-5.3729 -12,-12 0,-6.6275 5.37307,-12 12,-12 6.62776,0 12,5.3729 12,12"/>
<rect y="98.12133" x="126.27274" height="1.9087611" width="12.727265" fill="#ffffff"/>
<rect transform="matrix(0.70716765,-0.70704591,0.70716765,0.70704591,0,0)"
y="158.38925" x="18.372219" height="1.9089254" width="9.5446272" fill="#ffffff"/>
<rect transform="matrix(0.70716765,0.70704591,0.70716765,-0.70704591,0,0)"
y="18.370083" x="158.39139" height="1.9089254" width="9.5446272" fill="#ffffff"/>
<path fill="#999999"
d="m 155.75,92.25 -6.75,6.748047 0.002,0.002 -0.002,0.002 6.75,6.748043 1.34961,-1.34961 -4.37305,-4.37109 10.27344,0 0,-1.908202 -10.42383,0 4.52344,-4.521485 L 155.75,92.25 Z"/>
<path fill="#ffffff"
d="M 152,8.5 A 1.5,1.5 0 0 0 150.5,10 1.5,1.5 0 0 0 152,11.5 1.5,1.5 0 0 0 153.5,10 1.5,1.5 0 0 0 152,8.5 Z m 3,0.5 0,2 18,0 0,-2 -18,0 z m 2,4 0,2 16,0 0,-2 -16,0 z m 0,4 0,2 16,0 0,-2 -16,0 z m -5,3.5 a 1.5,1.5 0 0 0 -1.5,1.5 1.5,1.5 0 0 0 1.5,1.5 1.5,1.5 0 0 0 1.5,-1.5 1.5,1.5 0 0 0 -1.5,-1.5 z m 3,0.5 0,2 18,0 0,-2 -18,0 z m 2,4 0,2 16,0 0,-2 -16,0 z"/>
<path fill="#ffffff"
d="M 9,8.8242188 9,23.378906 c 2.75714,0.20303 5.3418,1.034879 8,2.417969 L 17,11.308594 C 14.3471,9.8890838 11.7574,9.0329887 9,8.8242188 Z m 18,0.00391 c -1.02375,0.0775 -3.01067,0.24825 -4,0.5 l 0,6.9687502 -1.5,-1.5 -1.5,1.5 0,-5.9375 c -0.66776,0.28599 -1.32788,0.57786 -2,0.9375 l 0,14.5 c 2.6582,-1.38309 6.24286,-2.20322 9,-2.40625 L 27,8.8281288 Z M 7.8066406,11.722656 C 7.5370106,11.749556 7.26689,11.769641 7,11.806641 l 0,14.75 c 0.14816,0.0766 0.2597656,0.1875 0.2597656,0.1875 C 10.490136,26.307641 13.843743,26.95564 17.033203,28 17.179863,27.9855 17.33512,27.97656 17.5,27.97656 c 0.16487,0 0.320377,0.0087 0.466797,0.02344 3.18896,-1.04461 7.543327,-1.692359 10.773437,-1.255859 0,0 0.117586,-0.11616 0.259766,-0.1875 l 0,-14.75 c -0.26688,-0.0372 -0.537251,-0.05729 -0.806641,-0.08399 l 0,13.357422 -0.242187,-0.01367 c -3.0418,-0.17435 -7.250706,0.880229 -10.222656,2.199219 l -0.228516,0.0957 -0.228516,-0.0957 c -2.97246,-1.31899 -6.180856,-2.373819 -9.2226559,-2.199219 l -0.2421875,0.01367 0,-13.357422 z"/>
<path fill="#666666"
d="m 45,72 -9,7 3,0 0,8 3,0 0,-6 3,0 0,6 6,0 0,-8 3,0 L 50,75.875 50,73 48,73 48,74.34375 45,72 Z"/>
<path fill="#ffffff"
d="m 293.89145,94.03881 c -0.39108,-0.01 -0.7817,0.032 -1.15077,0.1142 -1.80815,0.4022 -3.25785,1.7991 -3.72601,3.5913 -0.31807,1.2176 -0.15618,2.5402 0.44393,3.6333 0.7944,1.4471 2.25933,2.4174 3.88548,2.572 0.24322,0.023 0.74438,0.019 0.99022,-0.01 1.58603,-0.1683 2.96859,-1.0623 3.78311,-2.447 0.26552,-0.4513 0.46609,-0.9804 0.57323,-1.5096 0.12182,-0.6016 0.12454,-1.3373 0.008,-1.9114 -0.0181,-0.089 -0.0334,-0.166 -0.0334,-0.1714 0,-0.01 -1.09083,-0.01 -2.42438,-0.01 l -2.42438,0 0,0.8275 0,0.8275 1.63026,0 c 1.41665,0 1.63026,0.01 1.63026,0.024 0,0.013 -0.0259,0.1239 -0.0571,0.2458 -0.33189,1.2949 -1.37642,2.2394 -2.7153,2.4555 -0.22887,0.037 -0.73608,0.037 -0.96544,0 -1.47047,-0.2366 -2.57762,-1.3509 -2.79074,-2.8101 -0.0338,-0.2311 -0.0338,-0.6913 0,-0.9223 0.18136,-1.2418 1.0297,-2.2677 2.20349,-2.6657 1.05459,-0.3577 2.21809,-0.1662 3.07843,0.5064 l 0.15624,0.1217 0.59585,-0.584 0.59479,-0.5829 -0.0539,-0.046 c -0.67354,-0.5712 -1.30932,-0.9089 -2.08174,-1.1045 -0.36713,-0.093 -0.75861,-0.1418 -1.14969,-0.1476 z m 8.19979,2.2003 0,1.655 -1.65504,0 0,1.1087 1.65504,0 0,1.6551 1.10875,0 0,-1.6551 1.65504,0 0,-1.1087 -1.65504,0 0,-1.655 -1.10875,0 z"/>
</svg>
