<?xml version="1.0" encoding="UTF-8" standalone="no"?>
<svg xmlns="http://www.w3.org/2000/svg"  x="0px" y="0px" width="91" height="38" viewBox="0 0 91 38">
 <path fill="#00B388"
  d="m 0,0 0,8.94167 0,0 31.139353,0 0,-8.94167 L 0,0 Z m 29.193448,6.99634 -27.2467294,0 0,-5.05074 27.2467294,0 0,5.05074 z"/>
 <path fill="#000000"
  d="m 1.9464471,23.72095 -1.94617559113,0 0,-8.94193 1.94617559113,0 0,3.53372 3.4777572,0 0,-3.53372 1.9461755,0 0,8.94193 -1.9461755,0 0,-3.70553 -3.4777572,0 0,3.70553 z m 9.8459979,0.14277 c -1.9746843,0 -3.3202822,-1.24477 -3.3202822,-3.29024 0,-1.98904 1.316818,-3.36274 3.0626192,-3.36274 1.903277,0 2.847585,1.27354 2.847585,3.17653 l 0,0.71549 -4.064487,0 c 0.229153,0.98691 1.001868,1.24395 1.774853,1.24395 0.672527,0 1.159072,-0.14249 1.759922,-0.51463 l 0.07167,0 0,1.47359 c -0.51478,0.37213 -1.244867,0.55805 -2.131887,0.55805 z m -1.474293,-4.06301 2.318413,0 c -0.04262,-0.65794 -0.314678,-1.11584 -1.073274,-1.11584 -0.57234,-2.8e-4 -1.073274,0.24292 -1.245139,1.11584 z m 9.14469,0.17155 -1.001596,3.74869 -1.702904,0 -1.946448,-6.29523 0,-0.0714 1.860379,0 1.059157,3.76253 1.001596,-3.76253 1.516919,0 1.01626,3.76253 1.073273,-3.76253 1.788972,0 0,0.0714 -1.946175,6.29523 -1.703176,0 -1.016257,-3.74869 z m 7.828143,3.89146 c -1.545699,0 -2.175328,-0.61559 -2.175328,-2.06013 l 0,-7.02457 1.889158,0 0,6.8959 c 0,0.44379 0.171594,0.60095 0.543561,0.60095 0.129237,0 0.31495,-0.0427 0.429526,-0.086 l 0.02852,0 0,1.55963 c -0.157203,0.0569 -0.429255,0.11427 -0.715427,0.11427 z m 4.565151,0 c -1.974684,0 -3.320011,-1.24477 -3.320011,-3.29024 0,-1.98904 1.316548,-3.36274 3.062349,-3.36274 1.903276,0 2.847857,1.27354 2.847857,3.17653 l 0,0.71549 -4.064488,0 c 0.228882,0.98691 1.001596,1.24395 1.774582,1.24395 0.672799,0 1.159341,-0.14249 1.760463,-0.51463 l 0.07167,0 0,1.47359 c -0.515052,0.37213 -1.245139,0.55805 -2.132429,0.55805 z m -1.474022,-4.06301 2.318415,0 c -0.04317,-0.65794 -0.314679,-1.11584 -1.073275,-1.11584 -0.57234,-2.8e-4 -1.073546,0.24292 -1.24514,1.11584 z m 11.820681,-2.44665 1.402887,0 0,1.5162 -1.402887,0 0,2.58997 c 0,0.55779 0.214764,0.81537 0.787106,0.81537 0.157474,0 0.357848,-0.0144 0.572611,-0.086 l 0.04289,0 0,1.48797 c -0.243544,0.086 -0.61551,0.18621 -1.159343,0.18621 -1.531853,0 -2.132431,-0.7011 -2.132431,-2.31773 l 0,-2.67547 -2.418601,0 0,2.58997 c 0,0.55779 0.214764,0.81538 0.787104,0.81538 0.157476,0 0.35785,-0.0144 0.572341,-0.086 l 0.04317,0 0,1.48798 c -0.243272,0.086 -0.61551,0.18619 -1.159342,0.18619 -1.531581,0 -2.132431,-0.7011 -2.132431,-2.31773 l 0,-2.67547 -0.973359,0 0,-1.5162 0.973359,0 0,-1.74529 1.889159,0 0,1.74529 2.418601,0 0,-1.74529 1.889158,0 0,1.74475 z m 11.202728,0.4579 c 0,1.94587 -1.302428,3.00471 -3.277927,3.00471 l -1.387681,0 0,2.90428 -1.945632,0 0,-8.94193 3.333313,0 c 1.975771,0 3.277927,1.05856 3.277927,3.03294 z m -3.435129,1.35931 c 0.98802,0 1.460174,-0.55805 1.460174,-1.35931 0,-0.82977 -0.472154,-1.38754 -1.460174,-1.38754 l -1.230479,0 0,2.74685 1.230479,0 z m 7.642159,3.91997 c -0.414865,0.50052 -1.029833,0.74372 -1.688514,0.74372 -1.244867,0 -2.261125,-0.75756 -2.261125,-2.10276 0,-1.24477 1.016258,-2.0748 2.475617,-2.0748 0.458036,0 0.930733,0.0719 1.417005,0.2147 l 0,-0.11427 c 0,-0.68698 -0.386358,-0.98718 -1.402343,-0.98718 -0.644562,0 -1.25953,0.18592 -1.788972,0.48639 l -0.07141,0 0,-1.51647 c 0.486273,-0.28609 1.345054,-0.52956 2.188905,-0.52956 1.917938,0 2.962433,0.91581 2.962433,2.51831 l 0,3.99163 -1.831871,0 0,-0.62971 z m -0.05702,-1.37369 0,-0.54367 c -0.286441,-0.15716 -0.657865,-0.21444 -1.044765,-0.21444 -0.615511,0 -0.987207,0.22881 -0.987207,0.74372 0,0.52982 0.371696,0.75864 0.929918,0.75864 0.529442,0 0.93019,-0.27225 1.102054,-0.74425 z m 2.847856,-1.17285 c 0,-2.04603 1.445515,-3.33369 3.334401,-3.33369 0.673071,0 1.302428,0.14332 1.774582,0.4864 l 0,1.61691 -0.07167,0 c -0.415137,-0.31486 -0.901681,-0.50106 -1.459631,-0.50106 -0.94458,0 -1.660006,0.6441 -1.660006,1.73117 0,1.08707 0.715698,1.71679 1.660006,1.71679 0.55795,0 1.044494,-0.18621 1.459631,-0.50106 l 0.07167,0 0,1.61662 c -0.472154,0.3439 -1.101783,0.48668 -1.774582,0.48668 -1.888886,2.6e-4 -3.334401,-1.27273 -3.334401,-3.31876 z m 8.185179,0.28635 0,2.88963 -1.888345,0 0,-8.94166 1.888345,0 0,5.09308 1.904092,-2.51804 2.146277,0 0,0.0714 -2.289634,2.88989 2.289634,3.33369 0,0.0717 -2.160668,0 -1.889701,-2.88963 z m 8.34401,2.26019 c -0.414866,0.50052 -1.030647,0.74372 -1.689057,0.74372 -1.245139,0 -2.261125,-0.75756 -2.261125,-2.10276 0,-1.24477 1.015986,-2.0748 2.476161,-2.0748 0.458035,0 0.930189,0.0719 1.416733,0.2147 l 0,-0.11427 c 0,-0.68698 -0.386629,-0.98718 -1.402343,-0.98718 -0.643747,0 -1.260072,0.18592 -1.789515,0.48639 l -0.07114,0 0,-1.51647 c 0.486816,-0.28609 1.345055,-0.52956 2.189447,-0.52956 1.917668,0 2.962434,0.91581 2.962434,2.51831 l 0,3.99163 -1.831869,0 0,-0.62971 z m -0.05729,-1.37369 0,-0.54367 c -0.28617,-0.15716 -0.658409,-0.21444 -1.045037,-0.21444 -0.615239,0 -0.987478,0.22881 -0.987478,0.74372 0,0.52982 0.372239,0.75864 0.93019,0.75864 0.529985,0 0.930732,-0.27225 1.102325,-0.74425 z m 5.066357,-3.33343 c 0.342914,-0.7011 0.843848,-1.10173 1.545699,-1.10173 0.25712,0 0.514781,0.057 0.614424,0.11428 l 0,1.80283 -0.07114,0 c -0.214492,-0.086 -0.472153,-0.14332 -0.830274,-0.14332 -0.58646,0 -1.044495,0.34363 -1.202241,1.00131 l 0,3.66292 -1.888888,0 0,-6.3669 1.832143,0 0,1.03061 z m 7.225936,4.67863 c -0.400204,0.51489 -1.030105,0.80097 -1.888344,0.80097 -1.631769,0 -2.676262,-1.48742 -2.676262,-3.31929 0,-1.83133 1.044764,-3.33369 2.676262,-3.33369 0.830002,0 1.430851,0.25786 1.831326,0.72987 l 0,-3.16159 1.889431,0 0,8.94193 -1.832413,0 0,-0.6582 z m -0.05702,-1.50236 0,-2.04603 c -0.314678,-0.4579 -0.729273,-0.65795 -1.20197,-0.65795 -0.829731,0 -1.387681,0.60095 -1.387681,1.68829 0,1.08734 0.558222,1.67389 1.387681,1.67389 0.472969,0 0.887292,-0.20057 1.20197,-0.6582 z M 0,26.64072 l 5.5241194,0 0,1.08707 -4.2789796,0 0,2.73219 3.8782326,0 0,1.05885 -3.8782326,0 0,2.97621 4.2789796,0 0,1.08681 -5.5241194,0 0,-8.94113 z m 10.08927,2.51776 c 1.416733,0 2.203837,0.92992 2.203837,2.46051 l 0,3.96286 -1.187579,0 0,-3.93383 c 0,-0.8159 -0.414866,-1.40247 -1.3165472,-1.40247 -0.7442057,0 -1.3743779,0.47202 -1.5885984,1.14463 l 0,4.19167 -1.1878513,0 0,-6.29443 1.1878513,0 0,0.91525 C 8.572078,29.61638 9.2019787,29.15848 10.08927,29.15848 Z m 5.395152,0.12894 1.616836,0 0,1.01595 -1.616836,0 0,3.39014 c 0,0.71549 0.371967,0.95869 1.044495,0.95869 0.185983,0 0.386357,-0.0282 0.529442,-0.0855 l 0.0429,0 0,1.01515 c -0.171322,0.0719 -0.414865,0.12919 -0.743935,0.12919 -1.47402,0 -2.060752,-0.67286 -2.060752,-1.90298 l 0,-3.50468 -1.087392,0 0,-1.01596 1.087392,0 0,-1.67337 1.187852,0 0,1.67337 z m 5.48095,6.42362 c -1.845989,0 -3.105519,-1.23092 -3.105519,-3.20503 0,-1.97437 1.173462,-3.34753 2.876637,-3.34753 1.731684,0 2.633365,1.24477 2.633365,3.08994 l 0,0.54368 -4.321879,0 c 0.128967,1.27354 0.94458,1.8886 2.075142,1.8886 0.701309,0 1.20197,-0.15715 1.760192,-0.57217 l 0.04317,0 0,1.045 c -0.515325,0.40036 -1.188124,0.55751 -1.961109,0.55751 z m -1.874496,-3.89201 3.134025,0 c -0.04262,-0.92937 -0.500933,-1.64459 -1.474021,-1.64459 -0.90168,0 -1.488412,0.67206 -1.660004,1.64459 z m 6.868902,-1.55909 c 0.272323,-0.67205 0.873173,-1.07241 1.559818,-1.07241 0.272052,0 0.515324,0.0426 0.615511,0.0998 l 0,1.17257 -0.04289,0 c -0.171594,-0.0855 -0.458035,-0.12839 -0.744206,-0.12839 -0.644019,0 -1.18758,0.42914 -1.388225,1.14462 l 0,4.10563 -1.187851,0 0,-6.29443 1.187851,0 0,0.97253 z m 6.211037,-1.10146 c 1.874768,0 2.876635,1.53087 2.876635,3.27588 0,1.74583 -1.001596,3.27641 -2.876635,3.27641 -0.772715,0 -1.430852,-0.40063 -1.75992,-0.83002 l 0,3.11925 -1.187852,0 0,-8.71313 1.187852,0 0,0.71494 c 0.329068,-0.4427 0.987205,-0.84333 1.75992,-0.84333 z m -0.200374,5.47933 c 1.173733,0 1.86065,-0.92991 1.86065,-2.20318 0,-1.25916 -0.686917,-2.20291 -1.86065,-2.20291 -0.64402,0 -1.244867,0.38624 -1.559818,1.00103 l 0,2.41842 c 0.314951,0.61424 0.91607,0.98664 1.559818,0.98664 z m 5.667476,-4.37787 c 0.271509,-0.67205 0.872901,-1.07241 1.559819,-1.07241 0.27178,0 0.515052,0.0426 0.615239,0.0998 l 0,1.17257 -0.04289,0 c -0.171594,-0.0855 -0.457765,-0.12839 -0.744205,-0.12839 -0.644292,0 -1.187852,0.42914 -1.388226,1.14462 l 0,4.10563 -1.187851,0 0,-6.29443 1.187851,0 0,0.97253 z m 3.892351,-3.51907 c 0.414866,0 0.758597,0.3287 0.758597,0.74399 0,0.41446 -0.343731,0.74371 -0.758597,0.74371 -0.400747,0 -0.758324,-0.32925 -0.758324,-0.74371 0,-0.41529 0.357849,-0.74399 0.758324,-0.74399 z m -0.58673,2.54655 1.18785,0 0,6.29443 -1.18785,0 0,-6.29443 z m 5.423931,2.61819 c 0.901411,0.28554 1.903278,0.65768 1.903278,1.85956 0,1.28766 -1.058613,1.94587 -2.418058,1.94587 -0.830273,0 -1.660277,-0.20058 -2.13243,-0.57217 l 0,-1.13023 0.05702,0 c 0.529713,0.48667 1.316546,0.7011 2.060752,0.7011 0.672799,0 1.273648,-0.25786 1.273648,-0.80153 0,-0.55778 -0.500663,-0.68644 -1.488413,-1.01541 -0.887562,-0.28609 -1.874768,-0.61533 -1.874768,-1.80282 0,-1.21628 1.001597,-1.93123 2.275516,-1.93123 0.744206,0 1.402071,0.15716 1.932058,0.51491 l 0,1.14461 -0.04317,0 c -0.514781,-0.41474 -1.116173,-0.65822 -1.860379,-0.65822 -0.744478,0 -1.159343,0.32898 -1.159343,0.77277 0,0.50024 0.457765,0.64328 1.474293,0.97279 z m 6.039173,3.80543 c -1.846261,0 -3.105519,-1.23092 -3.105519,-3.20503 0,-1.97437 1.173462,-3.34753 2.876365,-3.34753 1.731956,0 2.633365,1.24477 2.633365,3.08994 l 0,0.54368 -4.322421,0 c 0.128967,1.27354 0.94485,1.8886 2.075415,1.8886 0.701578,0 1.20224,-0.15715 1.760463,-0.57217 l 0.04262,0 0,1.045 c -0.514781,0.40036 -1.187852,0.55751 -1.960294,0.55751 z m -1.874768,-3.89201 3.133483,0 c -0.04235,-0.92937 -0.500663,-1.64459 -1.473478,-1.64459 -0.901681,0 -1.488411,0.67206 -1.660005,1.64459 z"/>
</svg>
