<?xml version="1.0" encoding="UTF-8" standalone="no"?>
<svg xmlns="http://www.w3.org/2000/svg" x="0px" y="0px" width="36px" height="36px" viewBox="0 0 36 36">
<path fill="#F58C6F"
  d="M 19,7.2988281 19,5.815918 C 20.161133,5.4013672 21,4.3017578 21,3 21,1.3457031 19.654297,0 18,0 c -1.654297,0 -3,1.3457031 -3,3 0,1.3017578 0.838379,2.4013672 2,2.8154297 l 0,1.4833984 C 10.29834,7.8125 5,13.416992 5,20.248047 l 0,9.96875 0.6835938,0.227539 c 1.953125,0.651367 3.9467773,1.143555 5.9663082,1.476562 C 12.773438,34.371094 15.231445,36 18,36 c 2.768555,0 5.226562,-1.628906 6.350586,-4.079102 2.019531,-0.333007 4.012695,-0.825195 5.96582,-1.476562 L 31,30.216797 31,20.248047 C 31,13.416992 25.701172,7.8125 19,7.2988281 Z M 18,2 c 0.551269,0 1,0.4487305 1,1 0,0.5512695 -0.448731,1 -1,1 -0.55127,0 -1,-0.4487305 -1,-1 0,-0.5512695 0.44873,-1 1,-1 z m 0,7.2480469 c 6.06543,0 11,4.9345701 11,11.0000001 l 0,4.564453 c -7.123047,2.219727 -14.877441,2.21875 -22,0 L 7,20.248047 C 7,14.182617 11.93457,9.2480469 18,9.2480469 Z M 18,34 c -1.492188,0 -2.851562,-0.669922 -3.777344,-1.74707 1.25293,0.12207 2.512207,0.190429 3.777344,0.190429 1.265625,0 2.524414,-0.06836 3.777344,-0.190429 C 20.851562,33.330078 19.492187,34 18,34 Z M 7,28.767578 7,26.90625 c 3.572266,1.048828 7.286133,1.577148 11,1.577148 3.714844,0 7.427734,-0.52832 11,-1.577148 l 0,1.861328 c -7.12793,2.224609 -14.871582,2.224609 -22,0 z"/>
</svg>
