<?xml version="1.0" encoding="UTF-8" standalone="no"?>
<svg
   xmlns:dc="http://purl.org/dc/elements/1.1/"
   xmlns:cc="http://creativecommons.org/ns#"
   xmlns:rdf="http://www.w3.org/1999/02/22-rdf-syntax-ns#"
   xmlns:svg="http://www.w3.org/2000/svg"
   xmlns="http://www.w3.org/2000/svg"
   id="svg2"
   xml:space="preserve"
   style="enable-background:new 0 0 36 36;"
   viewBox="0 0 36 36"
   height="36px"
   width="36px"
   y="0px"
   x="0px"
   version="1.1"><defs
     id="defs68" /><path
     style="fill:#00b388"
     d="M 30.357422,5.9365234 29.416016,8.2104492 C 28.335937,5.7358398 25.868164,4 23,4 l -5.5,0 c -3.518555,0 -6.431641,2.6137695 -6.919922,6 L 7.5,10 C 3.3632812,10 0,13.364258 0,17.5 c 0,2.798828 1.578125,5.345703 4.0390625,6.632812 L 4.8066406,22.28125 C 3.0908203,21.3125 2,19.492187 2,17.5 2,14.467773 4.4667969,12 7.5,12 l 11.5,0 0,-2 -6.398437,0 C 13.06543,7.7207031 15.085938,6 17.5,6 L 23,6 c 2.09668,0 3.889648,1.3012695 4.631836,3.1357422 L 25.132812,8.100586 24.367187,9.9482422 29.910156,12.245117 32.205078,6.7021484 30.357422,5.9365234 Z"
     class="st6" /><path d="m 32.454102,11.126953 -0.778321,1.88086 C 33.117187,14.040039 34,15.712891 34,17.5 34,20.53125 31.533203,23 28.5,23 l -11.5,0 0,2 6.898437,0 C 23.43457,27.279297 21.414062,29 19,29 l -5.5,0 C 11.427734,29 9.6464844,27.730469 8.8896484,25.929687 L 11.546875,27.03125 12.3125,25.183594 6.7695312,22.886719 4.4726562,28.429688 6.3203124,29.195313 7.2099608,27.050781 C 8.3457031,29.382812 10.735352,31 13.5,31 l 5.5,0 c 3.518555,0 6.431641,-2.613281 6.919922,-6 L 28.5,25 c 4.136719,0 7.5,-3.365234 7.5,-7.5 0,-2.586914 -1.357422,-5.00293 -3.545898,-6.373047 z" /><metadata
     id="metadata4222"><rdf:RDF><cc:Work
         rdf:about=""><dc:title></dc:title></cc:Work></rdf:RDF></metadata></svg>
