<?xml version="1.0" encoding="UTF-8" standalone="no"?>
<svg
   xmlns:dc="http://purl.org/dc/elements/1.1/"
   xmlns:cc="http://creativecommons.org/ns#"
   xmlns:rdf="http://www.w3.org/1999/02/22-rdf-syntax-ns#"
   xmlns:svg="http://www.w3.org/2000/svg"
   xmlns="http://www.w3.org/2000/svg"
   version="1.1"
   x="0px"
   y="0px"
   width="36px"
   height="36px"
   viewBox="0 0 36 36"
   style="enable-background:new 0 0 36 36;"
   xml:space="preserve"
   id="svg2"><defs
     id="defs68" /><metadata
     id="metadata4222"><rdf:RDF><cc:Work
         rdf:about=""><dc:title></dc:title><dc:format>image/svg+xml</dc:format><dc:type
           rdf:resource="http://purl.org/dc/dcmitype/StillImage" /></cc:Work></rdf:RDF></metadata><path
     d="M 35.903335,8.104614 C 35.754721,7.8402498 35.46485,7.6921276 35.160755,7.7249891 L 28.013052,8.5367194 18.892166,7.0505914 15.835522,0.80836105 C 15.738898,0.61168141 15.561837,0.46601123 15.34946,0.41058815 15.137575,0.3551692 14.911466,0.39439858 14.730481,0.51849158 L 5.8715078,6.6052433 c -0.010296,0.00741 -0.01766,0.018144 -0.027957,0.025509 -0.037275,0.02845 -0.071115,0.059349 -0.1020137,0.093188 -0.013248,0.014719 -0.02698,0.029427 -0.03924,0.045123 -0.030405,0.040217 -0.056901,0.082892 -0.078963,0.1285035 -0.00535,0.011283 -0.012754,0.021579 -0.018144,0.032863 -0.022556,0.052971 -0.040217,0.1079034 -0.050523,0.165289 L 4.1828064,14.884404 0.21534806,18.938642 c -0.24621841,0.251612 -0.28594698,0.640066 -0.0951532,0.935819 l 4.94890064,7.692065 c 0.00339,0.0059 0.00885,0.0103 0.012754,0.0152 0.012261,0.01814 0.027463,0.03336 0.041194,0.05101 0.026486,0.03188 0.053948,0.06327 0.084857,0.09074 0.018144,0.0157 0.037275,0.02943 0.056407,0.04316 0.032369,0.02354 0.065726,0.04415 0.1015303,0.0618 0.021579,0.01079 0.042675,0.02109 0.065232,0.0304 0.03924,0.01472 0.079951,0.02599 0.1216378,0.03384 0.015696,0.0034 0.029921,0.01079 0.045617,0.01275 l 10.9743933,1.536157 6.300161,6.048004 C 23.013646,35.624958 23.201007,35.7 23.395237,35.7 c 0.0157,0 0.03188,-4.91e-4 0.04758,-0.0014 0.210905,-0.01325 0.406604,-0.11477 0.539523,-0.278588 l 5.743962,-7.113306 c 0.0094,-0.01128 0.0157,-0.02551 0.02404,-0.03728 0.01324,-0.01864 0.02551,-0.03777 0.03678,-0.05738 0.01961,-0.03286 0.0358,-0.06817 0.05003,-0.103489 0.0078,-0.01961 0.01619,-0.03875 0.02207,-0.05935 0.01373,-0.04463 0.02158,-0.09074 0.02649,-0.136842 9.81e-4,-0.01079 0.0053,-0.02109 0.0064,-0.03237 L 30.647916,15.635842 35.840093,8.9374731 C 36.027945,8.6966516 36.051978,8.3690164 35.903363,8.104652 Z M 18.507143,8.51661 26.573016,9.8305833 22.4849,14.758351 15.669251,9.9546722 17.685596,8.9325298 18.507143,8.51661 Z m 3.262644,7.584161 -1.345374,5.764511 -7.238931,-2.471976 1.548922,-8.251692 7.035383,4.959157 z M 14.86438,2.2572129 17.38052,7.395883 14.148285,9.0340573 7.9776108,6.9892819 14.86438,2.2572129 Z M 6.8907162,8.2179134 7.5317683,8.4302868 13.346358,10.35735 11.786155,18.66986 5.7179894,14.876064 6.8907162,8.2179134 Z m -5.1750084,11.3470576 3.2856965,-3.357277 0.3830616,0.239349 5.7724091,3.60938 -5.3481481,5.869472 -4.0930191,-6.360924 z m 14.8486612,8.352239 -9.3386573,-1.307107 5.3221513,-5.840044 7.235988,2.470996 -1.554808,2.258131 -1.664674,2.418024 z m 6.762678,5.914595 -5.420737,-5.203411 3.280302,-4.76444 6.826931,4.164593 -4.686496,5.803258 z m 5.138715,-7.295272 -5.942113,-3.624094 -0.695005,-0.424258 1.398347,-5.990618 5.879332,-0.338917 -0.640561,10.377887 z m 1.059427,-11.913553 -1.45377,0.08387 -3.763911,0.21679 2.606879,-3.142451 1.466523,-1.76815 5.172556,-0.5875849 -4.028277,5.1975259 z"
     id="path7"
     style="fill:#00b388" /></svg>