<?xml version="1.0" encoding="utf-8"?>
<!-- Generator: Adobe Illustrator 16.0.4, SVG Export Plug-In . SVG Version: 6.00 Build 0)  -->
<!DOCTYPE svg PUBLIC "-//W3C//DTD SVG 1.1//EN" "http://www.w3.org/Graphics/SVG/1.1/DTD/svg11.dtd">
<svg version="1.1" id="Layer_1" xmlns="http://www.w3.org/2000/svg" xmlns:xlink="http://www.w3.org/1999/xlink" x="0px" y="0px"
	 width="792px" height="612px" viewBox="0 0 792 612" enable-background="new 0 0 792 612" xml:space="preserve">
<g>
	<path d="M367.709,295.864v27.09h-7.104v-10.722h-10.457v10.722h-7.104v-27.09h7.104v10.28h10.457v-10.28H367.709z M379.096,314.526
		v8.428h-7.015v-27.09h11.869c5.868,0,9.839,3.309,9.839,9.354c0,6-3.971,9.309-9.839,9.309H379.096z M383.199,301.82h-4.103v6.794
		h4.103c2.559,0,3.706-1.367,3.706-3.397C386.905,303.144,385.758,301.82,383.199,301.82z M415.672,295.864v6.088h-12.398v4.236
		h11.34v5.957h-11.34v4.677h12.398v6.133h-19.37v-27.09H415.672z M452.38,295.864v27.09h-3.485V310.6h-15.31v12.354h-3.486v-27.09
		h3.486v11.603h15.31v-11.603H452.38z M459.686,313.732c0.133,4.545,3.001,6.706,6.575,6.706c2.205,0,3.794-0.529,5.559-1.853v3.044
		c-1.588,1.236-3.617,1.722-5.957,1.722c-5.646,0-9.441-3.839-9.441-10.017c0-6.088,3.529-10.368,8.736-10.368
		c5.295,0,8.029,3.838,8.029,9.574v1.191H459.686z M459.862,311.13h10.104c-0.133-2.868-1.588-5.339-4.765-5.339
		C462.598,305.791,460.479,307.511,459.862,311.13z M480.524,322.954h-3.31v-28.679h3.31V322.954z M487.296,299.57
		c-1.146,0-2.117-0.971-2.117-2.118c0-1.191,0.971-2.118,2.117-2.118c1.191,0,2.162,0.927,2.162,2.118
		C489.458,298.599,488.487,299.57,487.296,299.57z M488.974,322.954h-3.311v-19.59h3.311V322.954z M501.869,323.352
		c-5.382,0-9.001-4.192-9.001-10.193c0-6,3.619-10.191,9.001-10.191c5.339,0,9.001,4.191,9.001,10.191
		C510.87,319.159,507.208,323.352,501.869,323.352z M501.869,305.879c-3.529,0-5.647,3-5.647,7.279c0,4.28,2.118,7.28,5.647,7.28
		c3.53,0,5.647-3,5.647-7.28C507.517,308.879,505.399,305.879,501.869,305.879z M514.596,303.364h3.309v2.471
		c1.146-1.544,3.266-2.868,5.779-2.868c4.457,0,6.885,2.868,6.885,7.147v12.84h-3.354v-12.31c0-2.736-1.369-4.633-4.324-4.633
		c-2.295,0-4.279,1.544-4.986,3.663v13.28h-3.309V303.364z"/>
	<path fill="#00B388" d="M334.63,285.737c-0.303-0.539-0.894-0.841-1.514-0.774l-14.573,1.655l-18.596-3.03l-6.232-12.727
		c-0.197-0.401-0.558-0.698-0.991-0.811c-0.432-0.113-0.893-0.033-1.262,0.22l-18.062,12.41c-0.021,0.015-0.036,0.037-0.057,0.052
		c-0.076,0.058-0.145,0.121-0.208,0.19c-0.027,0.03-0.055,0.06-0.08,0.092c-0.062,0.082-0.116,0.169-0.161,0.262
		c-0.011,0.023-0.026,0.044-0.037,0.067c-0.046,0.108-0.082,0.22-0.103,0.337l-2.797,15.88l-8.089,8.266
		c-0.502,0.513-0.583,1.305-0.194,1.908l10.09,15.683c0.007,0.012,0.018,0.021,0.026,0.031c0.025,0.037,0.056,0.068,0.084,0.104
		c0.054,0.065,0.11,0.129,0.173,0.185c0.037,0.032,0.076,0.06,0.115,0.088c0.066,0.048,0.134,0.09,0.207,0.126
		c0.044,0.022,0.087,0.043,0.133,0.062c0.08,0.03,0.163,0.053,0.248,0.069c0.032,0.007,0.061,0.022,0.093,0.026l22.375,3.132
		l12.845,12.331c0.287,0.276,0.669,0.429,1.065,0.429c0.032,0,0.065-0.001,0.097-0.003c0.43-0.027,0.829-0.234,1.1-0.568
		l11.711-14.503c0.019-0.023,0.032-0.052,0.049-0.076c0.027-0.038,0.052-0.077,0.075-0.117c0.04-0.067,0.073-0.139,0.102-0.211
		c0.016-0.04,0.033-0.079,0.045-0.121c0.028-0.091,0.044-0.185,0.054-0.279c0.002-0.022,0.011-0.043,0.013-0.066l1.541-24.964
		l10.586-13.657C334.884,286.944,334.933,286.276,334.63,285.737z M299.162,286.577l16.445,2.679l-8.335,10.047l-13.896-9.794
		l4.111-2.084L299.162,286.577z M305.814,302.04l-2.743,11.753l-14.759-5.04l3.158-16.824L305.814,302.04z M291.735,273.815
		l5.13,10.477l-6.59,3.34l-12.581-4.169L291.735,273.815z M275.478,285.968l1.307,0.433l11.855,3.929l-3.181,16.948l-12.372-7.735
		L275.478,285.968z M264.927,309.103l6.699-6.845l0.781,0.488l11.769,7.359l-10.904,11.967L264.927,309.103z M295.201,326.132
		l-19.04-2.665l10.851-11.907l14.753,5.038l-3.17,4.604L295.201,326.132z M308.989,338.191l-11.052-10.609l6.688-9.714l13.919,8.491
		L308.989,338.191z M319.466,323.317l-12.115-7.389l-1.417-0.865l2.851-12.214l11.987-0.691L319.466,323.317z M321.626,299.027
		l-2.964,0.171l-7.674,0.442l5.315-6.407l2.99-3.605l10.546-1.198L321.626,299.027z"/>
</g>
</svg>
