<?xml version="1.0" encoding="UTF-8" standalone="no"?>
<svg
   xmlns:dc="http://purl.org/dc/elements/1.1/"
   xmlns:cc="http://creativecommons.org/ns#"
   xmlns:rdf="http://www.w3.org/1999/02/22-rdf-syntax-ns#"
   xmlns:svg="http://www.w3.org/2000/svg"
   xmlns="http://www.w3.org/2000/svg"
   width="432"
   height="111"
   id="svg4220"
   version="1.1">
  <defs
     id="defs4222" />
  <metadata
     id="metadata4225">
    <rdf:RDF>
      <cc:Work
         rdf:about="">
        <dc:format>image/svg+xml</dc:format>
        <dc:type
           rdf:resource="http://purl.org/dc/dcmitype/StillImage" />
        <dc:title></dc:title>
      </cc:Work>
    </rdf:RDF>
  </metadata>
  <g
     id="layer2"
     style="display:none">
    <g
       transform="translate(-1.0458e-6,-941.36219)"
       style="font-size:15.59390831px;font-style:normal;font-variant:normal;font-weight:normal;font-stretch:normal;line-height:125%;letter-spacing:0px;word-spacing:0px;fill:#ad7fa8;fill-opacity:1;stroke:none;font-family:FreeSerif;-inkscape-font-specification:FreeSerif"
       id="text3139">
      <path
         d="m -40.98731,1028.21 -1.233503,0 0,-7.934 c -4e-6,-0.6599 0.0203,-1.2843 0.06091,-1.8731 -0.106603,0.1066 -0.225893,0.2182 -0.357868,0.335 -0.131984,0.1167 -0.736044,0.6117 -1.812183,1.4848 l -0.670051,-0.8681 2.946701,-2.2766 1.06599,0 0,11.132"
         style="fill:#ad7fa8;font-family:Open Sans;-inkscape-font-specification:Open Sans"
         id="path3393" />
      <path
         d="m -33.068529,1016.9181 c 1.015223,0 1.819791,0.236 2.413706,0.7081 0.593901,0.4721 0.890855,1.1244 0.890863,1.9569 -8e-6,0.5482 -0.170059,1.0482 -0.510153,1.5 -0.340108,0.4517 -0.883255,0.8629 -1.629441,1.2335 0.903547,0.4314 1.545678,0.8858 1.926396,1.3629 0.380702,0.4721 0.571058,1.0203 0.571066,1.6447 -8e-6,0.9238 -0.322343,1.6624 -0.967005,2.2157 -0.644677,0.5482 -1.527925,0.8223 -2.649747,0.8223 -1.18782,0 -2.101525,-0.2588 -2.741116,-0.7766 -0.639595,-0.5228 -0.959392,-1.2614 -0.959391,-2.2157 -10e-7,-1.2741 0.776648,-2.2665 2.329949,-2.9772 -0.70051,-0.3959 -1.203047,-0.8223 -1.507614,-1.2792 -0.30457,-0.4619 -0.456854,-0.9771 -0.456853,-1.5457 -10e-7,-0.8071 0.296953,-1.4492 0.890863,-1.9264 0.598982,-0.4822 1.398474,-0.7233 2.398477,-0.7233 m -2.406091,8.4822 c -2e-6,0.6092 0.210658,1.0838 0.63198,1.4239 0.426392,0.3401 1.022838,0.5101 1.78934,0.5101 0.75634,0 1.345171,-0.1776 1.766497,-0.533 0.421313,-0.3553 0.631973,-0.8426 0.63198,-1.4619 -7e-6,-0.4924 -0.197976,-0.9289 -0.593909,-1.3096 -0.395945,-0.3858 -1.086299,-0.7589 -2.071066,-1.1193 -0.756348,0.3248 -1.304571,0.6853 -1.64467,1.0812 -0.340104,0.3909 -0.510154,0.8604 -0.510152,1.4086 m 2.390863,-7.4543 c -0.634522,0 -1.131983,0.1523 -1.492386,0.4569 -0.360409,0.3045 -0.540612,0.7106 -0.540609,1.2182 -3e-6,0.467 0.149744,0.8681 0.449238,1.2031 0.29949,0.335 0.852789,0.67 1.659899,1.0051 0.725883,-0.3046 1.238573,-0.632 1.538071,-0.9823 0.304562,-0.3502 0.456846,-0.7589 0.456853,-1.2259 -7e-6,-0.5127 -0.185286,-0.9187 -0.555838,-1.2182 -0.365488,-0.3046 -0.870563,-0.4569 -1.515228,-0.4569"
         style="fill:#ad7fa8;font-family:Open Sans;-inkscape-font-specification:Open Sans"
         id="path3395" />
      <path
         d="m -23.596448,1016.3622 -0.327411,3.0077 3.030457,-0.8452 0.197969,1.3858 -2.901015,0.236 1.888325,2.4822 -1.309645,0.7158 -1.340101,-2.7564 -1.218274,2.7564 -1.340102,-0.7158 1.84264,-2.4822 -2.870558,-0.236 0.220812,-1.3858 2.977157,0.8452 -0.327411,-3.0077 1.477157,0"
         style="fill:#ad7fa8;font-family:Open Sans;-inkscape-font-specification:Open Sans"
         id="path3397" />
      <path
         d="m -14.550762,1028.21 -1.233503,0 0,-7.934 c -4e-6,-0.6599 0.0203,-1.2843 0.06091,-1.8731 -0.106603,0.1066 -0.225892,0.2182 -0.357868,0.335 -0.131984,0.1167 -0.736044,0.6117 -1.812183,1.4848 l -0.67005,-0.8681 2.9467,-2.2766 1.06599,0 0,11.132"
         style="fill:#ad7fa8;font-family:Open Sans;-inkscape-font-specification:Open Sans"
         id="path3399" />
      <path
         d="m -6.8375653,1021.4105 c 1.1725834,0 2.0939023,0.2919 2.7639594,0.8756 0.6751192,0.5787 1.0126823,1.3731 1.0126903,2.3833 -8e-6,1.1522 -0.368028,2.0558 -1.1040609,2.7106 -0.7309706,0.6548 -1.7411219,0.9822 -3.0304568,0.9822 -1.2538097,0 -2.2106615,-0.2005 -2.8705587,-0.6015 l 0,-1.2183 c 0.355329,0.2285 0.7969529,0.4087 1.3248735,0.5407 0.5279159,0.1269 1.0482199,0.1903 1.5609136,0.1903 0.8933962,0 1.5862889,-0.2106 2.0786802,-0.632 0.4974554,-0.4213 0.7461861,-1.0304 0.7461929,-1.8274 -6.8e-6,-1.5533 -0.9517824,-2.3299 -2.8553299,-2.3299 -0.4822369,0 -1.1269063,0.074 -1.9340101,0.2208 l -0.6548224,-0.4188 0.4187818,-5.2081 5.5355328,0 0,1.165 -4.4543146,0 -0.2817259,3.3426 c 0.5837533,-0.1167 1.164971,-0.1751 1.7436548,-0.1751"
         style="fill:#ad7fa8;font-family:Open Sans;-inkscape-font-specification:Open Sans"
         id="path3401" />
    </g>
    <g
       transform="translate(-1.0458e-6,-941.36219)"
       style="font-size:15.59390831px;font-style:normal;font-variant:normal;font-weight:normal;font-stretch:normal;line-height:125%;letter-spacing:0px;word-spacing:0px;fill:#5c3566;fill-opacity:1;stroke:none;font-family:FreeSerif;-inkscape-font-specification:FreeSerif"
       id="text3139-0">
      <path
         d="m -38.055838,1004.6972 c -8e-6,0.7107 -0.200515,1.2919 -0.601523,1.7437 -0.395946,0.4517 -0.959397,0.7538 -1.690355,0.9061 l 0,0.061 c 0.893395,0.1117 1.55583,0.3959 1.987309,0.8528 0.431465,0.4568 0.647201,1.0558 0.647209,1.7969 -8e-6,1.0609 -0.368028,1.8782 -1.104061,2.4518 -0.736047,0.5685 -1.781731,0.8528 -3.137056,0.8528 -0.588836,0 -1.129444,-0.046 -1.621828,-0.1371 -0.487311,-0.086 -0.96193,-0.2411 -1.423857,-0.4644 l 0,-1.2031 c 0.482232,0.2386 0.994922,0.4213 1.538071,0.5482 0.54822,0.1219 1.065986,0.1828 1.553299,0.1828 1.923852,0 2.88578,-0.7538 2.885787,-2.2614 -7e-6,-1.3503 -1.060919,-2.0254 -3.182741,-2.0254 l -1.096447,0 0,-1.0889 1.111675,0 c 0.868016,10e-5 1.555833,-0.1903 2.063452,-0.571 0.507608,-0.3858 0.761415,-0.9188 0.761421,-1.599 -6e-6,-0.5431 -0.187823,-0.9695 -0.563451,-1.2792 -0.370564,-0.3096 -0.87564,-0.4644 -1.515229,-0.4645 -0.487313,1e-4 -0.946704,0.066 -1.378172,0.198 -0.431475,0.132 -0.92386,0.3757 -1.477158,0.731 l -0.639594,-0.8528 c 0.456852,-0.3604 0.982232,-0.6421 1.576142,-0.8452 0.598982,-0.2081 1.228423,-0.3122 1.888325,-0.3122 1.081213,0 1.921314,0.2488 2.520305,0.7462 0.598977,0.4924 0.898469,1.1701 0.898477,2.033"
         style="fill:#5c3566;font-family:Open Sans;-inkscape-font-specification:Open Sans"
         id="path3382" />
      <path
         d="m -35.90863,1008.451 c -10e-7,-2.1878 0.423857,-3.8223 1.271574,-4.9035 0.852789,-1.0863 2.11167,-1.6295 3.776649,-1.6295 0.573598,0 1.025374,0.048 1.35533,0.1447 l 0,1.0888 c -0.39087,-0.1269 -0.83757,-0.1903 -1.340101,-0.1903 -1.192898,0 -2.104065,0.3731 -2.733503,1.1193 -0.629444,0.7411 -0.974621,1.9086 -1.035533,3.5025 l 0.09137,0 c 0.558373,-0.8731 1.44162,-1.3096 2.649746,-1.3096 0.999994,0 1.786795,0.302 2.360406,0.906 0.578672,0.6041 0.868012,1.4239 0.86802,2.4594 -8e-6,1.1574 -0.317266,2.0686 -0.951776,2.7335 -0.629448,0.6599 -1.482239,0.9899 -2.558376,0.9899 -1.152288,0 -2.065992,-0.4315 -2.741117,-1.2944 -0.675128,-0.8681 -1.012691,-2.0736 -1.01269,-3.6168 m 3.738579,3.8376 c 0.720807,0 1.279182,-0.2259 1.675127,-0.6777 0.401008,-0.4568 0.601515,-1.1142 0.601522,-1.9721 -7e-6,-0.736 -0.185286,-1.3147 -0.555837,-1.736 -0.370565,-0.4213 -0.923863,-0.632 -1.659899,-0.632 -0.456857,0 -0.875638,0.094 -1.256345,0.2817 -0.380713,0.1879 -0.685282,0.4467 -0.913705,0.7767 -0.223353,0.3299 -0.335028,0.6726 -0.335026,1.0279 -2e-6,0.5229 0.101521,1.0102 0.304569,1.4619 0.203043,0.4518 0.489845,0.8097 0.860406,1.0736 0.375631,0.264 0.802026,0.396 1.279188,0.396"
         style="fill:#5c3566;font-family:Open Sans;-inkscape-font-specification:Open Sans"
         id="path3384" />
      <path
         d="m -22.880711,1001.3622 -0.327411,3.0076 3.030456,-0.8452 0.19797,1.3858 -2.901015,0.236 1.888325,2.4823 -1.309645,0.7157 -1.340102,-2.7563 -1.218274,2.7563 -1.340101,-0.7157 1.842639,-2.4823 -2.870558,-0.236 0.220812,-1.3858 2.977158,0.8452 -0.327412,-3.0076 1.477158,0"
         style="fill:#5c3566;font-family:Open Sans;-inkscape-font-specification:Open Sans"
         id="path3386" />
      <path
         d="m -11.61929,1004.6972 c -7e-6,0.7107 -0.200515,1.2919 -0.601523,1.7437 -0.395945,0.4517 -0.959397,0.7538 -1.690355,0.9061 l 0,0.061 c 0.893395,0.1117 1.555831,0.3959 1.98731,0.8528 0.431464,0.4568 0.6472,1.0558 0.647208,1.7969 -8e-6,1.0609 -0.368028,1.8782 -1.104061,2.4518 -0.736047,0.5685 -1.781731,0.8528 -3.137056,0.8528 -0.588836,0 -1.129444,-0.046 -1.621827,-0.1371 -0.487312,-0.086 -0.96193,-0.2411 -1.423858,-0.4644 l 0,-1.2031 c 0.482232,0.2386 0.994922,0.4213 1.538071,0.5482 0.54822,0.1219 1.065986,0.1828 1.553299,0.1828 1.923852,0 2.88578,-0.7538 2.885787,-2.2614 -7e-6,-1.3503 -1.060919,-2.0254 -3.182741,-2.0254 l -1.096447,0 0,-1.0889 1.111675,0 c 0.868016,10e-5 1.555833,-0.1903 2.063452,-0.571 0.507608,-0.3858 0.761415,-0.9188 0.761422,-1.599 -7e-6,-0.5431 -0.187824,-0.9695 -0.563452,-1.2792 -0.370564,-0.3096 -0.87564,-0.4644 -1.515229,-0.4645 -0.487313,1e-4 -0.946703,0.066 -1.378172,0.198 -0.431475,0.132 -0.92386,0.3757 -1.477158,0.731 l -0.639593,-0.8528 c 0.456851,-0.3604 0.982231,-0.6421 1.576142,-0.8452 0.598981,-0.2081 1.228422,-0.3122 1.888325,-0.3122 1.081212,0 1.921313,0.2488 2.520304,0.7462 0.598977,0.4924 0.89847,1.1701 0.898477,2.033"
         style="fill:#5c3566;font-family:Open Sans;-inkscape-font-specification:Open Sans"
         id="path3388" />
      <path
         d="m -9.4720826,1008.451 c -9e-7,-2.1878 0.4238565,-3.8223 1.2715735,-4.9035 0.8527889,-1.0863 2.1116709,-1.6295 3.7766497,-1.6295 0.5735976,0 1.0253737,0.048 1.3553299,0.1447 l 0,1.0888 c -0.3908698,-0.1269 -0.8375699,-0.1903 -1.3401015,-0.1903 -1.1928981,0 -2.1040647,0.3731 -2.7335024,1.1193 -0.6294442,0.7411 -0.9746216,1.9086 -1.035533,3.5025 l 0.091371,0 c 0.5583728,-0.8731 1.4416207,-1.3096 2.6497462,-1.3096 0.999994,0 1.7867953,0.302 2.360406,0.906 0.5786724,0.6041 0.8680122,1.4239 0.8680203,2.4594 -8.1e-6,1.1574 -0.3172667,2.0686 -0.9517766,2.7335 -0.6294482,0.6599 -1.4822392,0.9899 -2.5583756,0.9899 -1.1522877,0 -2.0659924,-0.4315 -2.7411167,-1.2944 -0.6751281,-0.8681 -1.0126912,-2.0736 -1.0126903,-3.6168 m 3.7385786,3.8376 c 0.7208068,0 1.2791819,-0.2259 1.6751268,-0.6777 0.4010086,-0.4568 0.601516,-1.1142 0.6015229,-1.9721 -6.9e-6,-0.736 -0.1852859,-1.3147 -0.5558376,-1.736 -0.3705643,-0.4213 -0.9238633,-0.632 -1.6598984,-0.632 -0.456857,0 -0.8756383,0.094 -1.2563452,0.2817 -0.3807137,0.1879 -0.6852819,0.4467 -0.9137055,0.7767 -0.2233526,0.3299 -0.3350276,0.6726 -0.3350254,1.0279 -2.2e-6,0.5229 0.1015205,1.0102 0.3045685,1.4619 0.203043,0.4518 0.4898447,0.8097 0.8604061,1.0736 0.3756308,0.264 0.8020263,0.396 1.2791878,0.396"
         style="fill:#5c3566;font-family:Open Sans;-inkscape-font-specification:Open Sans"
         id="path3390" />
    </g>
    <g
       transform="translate(-1.0458e-6,-941.36219)"
       style="font-size:15.59390831px;font-style:normal;font-variant:normal;font-weight:normal;font-stretch:normal;line-height:125%;letter-spacing:0px;word-spacing:0px;fill:#ad7fa8;fill-opacity:1;stroke:none;font-family:FreeSerif;-inkscape-font-specification:FreeSerif"
       id="text3139-0-1">
      <path
         d="m -38.055838,968.69721 c -8e-6,0.71067 -0.200515,1.29189 -0.601523,1.74365 -0.395946,0.45179 -0.959397,0.75382 -1.690355,0.9061 l 0,0.0609 c 0.893395,0.11168 1.55583,0.39594 1.987309,0.85279 0.431465,0.45686 0.647201,1.05584 0.647209,1.79696 -8e-6,1.06091 -0.368028,1.87817 -1.104061,2.45177 -0.736047,0.56853 -1.781731,0.85279 -3.137056,0.85279 -0.588836,0 -1.129444,-0.0457 -1.621828,-0.13705 -0.487311,-0.0863 -0.96193,-0.24112 -1.423857,-0.46447 l 0,-1.20304 c 0.482232,0.23858 0.994922,0.42132 1.538071,0.54822 0.54822,0.12183 1.065986,0.18274 1.553299,0.18274 1.923852,0 2.88578,-0.75381 2.885787,-2.26142 -7e-6,-1.35025 -1.060919,-2.02538 -3.182741,-2.02538 l -1.096447,0 0,-1.08883 1.111675,0 c 0.868016,0 1.555833,-0.19035 2.063452,-0.57107 0.507608,-0.38578 0.761415,-0.91877 0.761421,-1.59899 -6e-6,-0.54313 -0.187823,-0.96953 -0.563451,-1.27918 -0.370564,-0.30964 -0.87564,-0.46446 -1.515229,-0.46447 -0.487313,10e-6 -0.946704,0.066 -1.378172,0.19797 -0.431475,0.13199 -0.92386,0.37564 -1.477158,0.73096 l -0.639594,-0.85279 c 0.456852,-0.36039 0.982232,-0.64212 1.576142,-0.84518 0.598982,-0.20811 1.228423,-0.31217 1.888325,-0.31218 1.081213,10e-6 1.921314,0.24874 2.520305,0.74619 0.598977,0.4924 0.898469,1.17006 0.898477,2.033"
         style="fill:#ad7fa8;font-family:Open Sans;-inkscape-font-specification:Open Sans"
         id="path3371" />
      <path
         d="m -35.90863,972.45102 c -10e-7,-2.18781 0.423857,-3.82233 1.271574,-4.90356 0.852789,-1.08628 2.11167,-1.62943 3.776649,-1.62944 0.573598,1e-5 1.025374,0.0482 1.35533,0.14467 l 0,1.08883 c -0.39087,-0.12689 -0.83757,-0.19034 -1.340101,-0.19035 -1.192898,10e-6 -2.104065,0.37311 -2.733503,1.11929 -0.629444,0.74112 -0.974621,1.90864 -1.035533,3.50254 l 0.09137,0 c 0.558373,-0.87309 1.44162,-1.30964 2.649746,-1.30965 0.999994,10e-6 1.786795,0.30204 2.360406,0.90609 0.578672,0.60407 0.868012,1.42387 0.86802,2.45939 -8e-6,1.15737 -0.317266,2.06853 -0.951776,2.73351 -0.629448,0.6599 -1.482239,0.98984 -2.558376,0.98984 -1.152288,0 -2.065992,-0.43147 -2.741117,-1.29441 -0.675128,-0.86802 -1.012691,-2.0736 -1.01269,-3.61675 m 3.738579,3.83756 c 0.720807,0 1.279182,-0.22589 1.675127,-0.67766 0.401008,-0.45686 0.601515,-1.11422 0.601522,-1.97209 -7e-6,-0.73603 -0.185286,-1.31471 -0.555837,-1.73604 -0.370565,-0.42131 -0.923863,-0.63197 -1.659899,-0.63198 -0.456857,10e-6 -0.875638,0.0939 -1.256345,0.28173 -0.380713,0.18782 -0.685282,0.44671 -0.913705,0.77665 -0.223353,0.32995 -0.335028,0.67259 -0.335026,1.02792 -2e-6,0.52284 0.101521,1.01015 0.304569,1.46193 0.203043,0.45178 0.489845,0.80964 0.860406,1.0736 0.375631,0.26396 0.802026,0.39594 1.279188,0.39594"
         style="fill:#ad7fa8;font-family:Open Sans;-inkscape-font-specification:Open Sans"
         id="path3373" />
      <path
         d="m -22.880711,965.36218 -0.327411,3.00762 3.030456,-0.84518 0.19797,1.38579 -2.901015,0.23604 1.888325,2.48223 -1.309645,0.71574 -1.340102,-2.75635 -1.218274,2.75635 -1.340101,-0.71574 1.842639,-2.48223 -2.870558,-0.23604 0.220812,-1.38579 2.977158,0.84518 -0.327412,-3.00762 1.477158,0"
         style="fill:#ad7fa8;font-family:Open Sans;-inkscape-font-specification:Open Sans"
         id="path3375" />
      <path
         d="m -11.61929,968.69721 c -7e-6,0.71067 -0.200515,1.29189 -0.601523,1.74365 -0.395945,0.45179 -0.959397,0.75382 -1.690355,0.9061 l 0,0.0609 c 0.893395,0.11168 1.555831,0.39594 1.98731,0.85279 0.431464,0.45686 0.6472,1.05584 0.647208,1.79696 -8e-6,1.06091 -0.368028,1.87817 -1.104061,2.45177 -0.736047,0.56853 -1.781731,0.85279 -3.137056,0.85279 -0.588836,0 -1.129444,-0.0457 -1.621827,-0.13705 -0.487312,-0.0863 -0.96193,-0.24112 -1.423858,-0.46447 l 0,-1.20304 c 0.482232,0.23858 0.994922,0.42132 1.538071,0.54822 0.54822,0.12183 1.065986,0.18274 1.553299,0.18274 1.923852,0 2.88578,-0.75381 2.885787,-2.26142 -7e-6,-1.35025 -1.060919,-2.02538 -3.182741,-2.02538 l -1.096447,0 0,-1.08883 1.111675,0 c 0.868016,0 1.555833,-0.19035 2.063452,-0.57107 0.507608,-0.38578 0.761415,-0.91877 0.761422,-1.59899 -7e-6,-0.54313 -0.187824,-0.96953 -0.563452,-1.27918 -0.370564,-0.30964 -0.87564,-0.46446 -1.515229,-0.46447 -0.487313,10e-6 -0.946703,0.066 -1.378172,0.19797 -0.431475,0.13199 -0.92386,0.37564 -1.477158,0.73096 l -0.639593,-0.85279 c 0.456851,-0.36039 0.982231,-0.64212 1.576142,-0.84518 0.598981,-0.20811 1.228422,-0.31217 1.888325,-0.31218 1.081212,10e-6 1.921313,0.24874 2.520304,0.74619 0.598977,0.4924 0.89847,1.17006 0.898477,2.033"
         style="fill:#ad7fa8;font-family:Open Sans;-inkscape-font-specification:Open Sans"
         id="path3377" />
      <path
         d="m -9.4720826,972.45102 c -9e-7,-2.18781 0.4238565,-3.82233 1.2715735,-4.90356 0.8527889,-1.08628 2.1116709,-1.62943 3.7766497,-1.62944 0.5735976,1e-5 1.0253737,0.0482 1.3553299,0.14467 l 0,1.08883 c -0.3908698,-0.12689 -0.8375699,-0.19034 -1.3401015,-0.19035 -1.1928981,10e-6 -2.1040647,0.37311 -2.7335024,1.11929 -0.6294442,0.74112 -0.9746216,1.90864 -1.035533,3.50254 l 0.091371,0 c 0.5583728,-0.87309 1.4416207,-1.30964 2.6497462,-1.30965 0.999994,10e-6 1.7867953,0.30204 2.360406,0.90609 0.5786724,0.60407 0.8680122,1.42387 0.8680203,2.45939 -8.1e-6,1.15737 -0.3172667,2.06853 -0.9517766,2.73351 -0.6294482,0.6599 -1.4822392,0.98984 -2.5583756,0.98984 -1.1522877,0 -2.0659924,-0.43147 -2.7411167,-1.29441 -0.6751281,-0.86802 -1.0126912,-2.0736 -1.0126903,-3.61675 m 3.7385786,3.83756 c 0.7208068,0 1.2791819,-0.22589 1.6751268,-0.67766 0.4010086,-0.45686 0.601516,-1.11422 0.6015229,-1.97209 -6.9e-6,-0.73603 -0.1852859,-1.31471 -0.5558376,-1.73604 -0.3705643,-0.42131 -0.9238633,-0.63197 -1.6598984,-0.63198 -0.456857,10e-6 -0.8756383,0.0939 -1.2563452,0.28173 -0.3807137,0.18782 -0.6852819,0.44671 -0.9137055,0.77665 -0.2233526,0.32995 -0.3350276,0.67259 -0.3350254,1.02792 -2.2e-6,0.52284 0.1015205,1.01015 0.3045685,1.46193 0.203043,0.45178 0.4898447,0.80964 0.8604061,1.0736 0.3756308,0.26396 0.8020263,0.39594 1.2791878,0.39594"
         style="fill:#ad7fa8;font-family:Open Sans;-inkscape-font-specification:Open Sans"
         id="path3379" />
    </g>
    <rect
       style="fill:#ad7fa8;fill-opacity:1;stroke:none"
       id="rect3428"
       width="18"
       height="24"
       x="306"
       y="87" />
    <rect
       style="fill:#75507b;fill-opacity:1;stroke:none;display:inline"
       id="rect3428-4"
       width="18"
       height="24"
       x="288"
       y="87" />
    <rect
       style="fill:#ad7fa8;fill-opacity:1;stroke:none;display:inline"
       id="rect3428-40"
       width="18"
       height="24"
       x="270"
       y="87" />
    <rect
       style="fill:#75507b;fill-opacity:1;stroke:none;display:inline"
       id="rect3428-4-3"
       width="18"
       height="24"
       x="252"
       y="87" />
    <rect
       style="fill:#ad7fa8;fill-opacity:1;stroke:none"
       id="rect3499"
       width="18"
       height="15"
       x="0"
       y="72" />
    <rect
       style="fill:#75507b;fill-opacity:1;stroke:none;display:inline"
       id="rect3499-5"
       width="18"
       height="15"
       x="18"
       y="72" />
    <rect
       style="fill:#ad7fa8;fill-opacity:1;stroke:none;display:inline"
       id="rect3499-9"
       width="18"
       height="15"
       x="72"
       y="72" />
    <rect
       style="fill:#75507b;fill-opacity:1;stroke:none;display:inline"
       id="rect3499-5-2"
       width="18"
       height="15"
       x="90"
       y="72" />
    <rect
       style="fill:#ad7fa8;fill-opacity:1;stroke:none;display:inline"
       id="rect3499-93"
       width="18"
       height="15"
       x="108"
       y="72" />
    <rect
       style="fill:#75507b;fill-opacity:1;stroke:none;display:inline"
       id="rect3499-5-6"
       width="18"
       height="15"
       x="126"
       y="72" />
    <rect
       style="fill:#ad7fa8;fill-opacity:1;stroke:none;display:inline"
       id="rect3499-9-6"
       width="18"
       height="15"
       x="144"
       y="72" />
    <rect
       style="fill:#75507b;fill-opacity:1;stroke:none;display:inline"
       id="rect3499-5-2-4"
       width="18"
       height="15"
       x="162"
       y="72" />
    <rect
       style="fill:#ad7fa8;fill-opacity:1;stroke:none;display:inline"
       id="rect3499-4"
       width="18"
       height="15"
       x="180"
       y="72" />
    <rect
       style="fill:#75507b;fill-opacity:1;stroke:none;display:inline"
       id="rect3499-5-4"
       width="18"
       height="15"
       x="198"
       y="72" />
    <rect
       style="fill:#ad7fa8;fill-opacity:1;stroke:none;display:inline"
       id="rect3499-9-1"
       width="18"
       height="15"
       x="216"
       y="72" />
    <rect
       style="fill:#75507b;fill-opacity:1;stroke:none;display:inline"
       id="rect3499-5-2-2"
       width="18"
       height="15"
       x="234"
       y="72" />
    <rect
       style="fill:#ad7fa8;fill-opacity:1;stroke:none;display:inline"
       id="rect3499-49"
       width="18"
       height="15"
       x="252"
       y="72" />
    <rect
       style="fill:#75507b;fill-opacity:1;stroke:none;display:inline"
       id="rect3499-5-68"
       width="18"
       height="15"
       x="270"
       y="72" />
    <rect
       style="fill:#ad7fa8;fill-opacity:1;stroke:none;display:inline"
       id="rect3499-9-4"
       width="18"
       height="15"
       x="288"
       y="72" />
    <rect
       style="fill:#75507b;fill-opacity:1;stroke:none;display:inline"
       id="rect3499-5-2-0"
       width="18"
       height="15"
       x="306"
       y="72" />
    <rect
       style="fill:#ad7fa8;fill-opacity:1;stroke:none;display:inline"
       id="rect3499-99"
       width="36"
       height="15"
       x="324"
       y="72" />
    <rect
       style="fill:#ad7fa8;fill-opacity:1;stroke:none;display:inline"
       id="rect3499-1"
       width="36"
       height="36"
       x="36"
       y="36" />
    <rect
       style="fill:#75507b;fill-opacity:1;stroke:none;display:inline"
       id="rect3499-5-8"
       width="36"
       height="36"
       x="-5.7512324e-08"
       y="36" />
    <rect
       style="fill:#75507b;fill-opacity:1;stroke:none;display:inline"
       id="rect3499-1-2"
       width="36"
       height="36"
       x="144"
       y="36" />
    <rect
       style="fill:#ad7fa8;fill-opacity:1;stroke:none;display:inline"
       id="rect3499-5-8-5"
       width="36"
       height="36"
       x="108"
       y="36" />
    <rect
       style="fill:#75507b;fill-opacity:1;stroke:none;display:inline"
       id="rect3499-1-28"
       width="36"
       height="36"
       x="216"
       y="36" />
    <rect
       style="fill:#ad7fa8;fill-opacity:1;stroke:none;display:inline"
       id="rect3499-5-8-3"
       width="36"
       height="36"
       x="180"
       y="36" />
    <rect
       style="fill:#75507b;fill-opacity:1;stroke:none;display:inline"
       id="rect3499-1-1"
       width="36"
       height="36"
       x="288"
       y="36" />
    <rect
       style="fill:#ad7fa8;fill-opacity:1;stroke:none;display:inline"
       id="rect3499-5-8-7"
       width="36"
       height="36"
       x="252"
       y="36" />
    <rect
       style="fill:#75507b;fill-opacity:1;stroke:none;display:inline"
       id="rect3499-1-5"
       width="36"
       height="36"
       x="324"
       y="0" />
    <rect
       style="fill:#ad7fa8;fill-opacity:1;stroke:none;display:inline"
       id="rect3499-5-8-6"
       width="36"
       height="36"
       x="288"
       y="0" />
    <rect
       style="fill:#75507b;fill-opacity:1;stroke:none;display:inline"
       id="rect3499-1-4"
       width="36"
       height="36"
       x="252"
       y="0" />
    <rect
       style="fill:#ad7fa8;fill-opacity:1;stroke:none;display:inline"
       id="rect3499-5-8-9"
       width="36"
       height="36"
       x="216"
       y="0" />
    <rect
       style="fill:#75507b;fill-opacity:1;stroke:none;display:inline"
       id="rect3499-1-15"
       width="36"
       height="36"
       x="180"
       y="0" />
    <rect
       style="fill:#ad7fa8;fill-opacity:1;stroke:none;display:inline"
       id="rect3499-5-8-30"
       width="36"
       height="36"
       x="144"
       y="0" />
    <rect
       style="fill:#75507b;fill-opacity:1;stroke:none;display:inline"
       id="rect3499-1-7"
       width="36"
       height="36"
       x="108"
       y="0" />
    <rect
       style="fill:#75507b;fill-opacity:1;stroke:none;display:inline"
       id="rect3499-5-8-73"
       width="36"
       height="36"
       x="36"
       y="0" />
    <rect
       style="fill:#ad7fa8;fill-opacity:1;stroke:none;display:inline"
       id="rect3499-1-3"
       width="36"
       height="36"
       x="0"
       y="0" />
    <rect
       style="fill:#ad7fa8;fill-opacity:1;stroke:none;display:inline"
       id="rect3499-5-8-74"
       width="36"
       height="36"
       x="324"
       y="36" />
    <rect
       style="fill:#ad7fa8;fill-opacity:1;stroke:none;display:inline"
       id="rect3499-9-1-7"
       width="13"
       height="8"
       x="216"
       y="103" />
    <rect
       style="fill:#ad7fa8;fill-opacity:1;stroke:none;display:inline"
       id="rect3428-40-1"
       width="18"
       height="24"
       x="234"
       y="87" />
    <g
       transform="translate(485,0)"
       id="g3720"
       style="fill:#5c3566;display:inline">
      <g
         id="text3139-7"
         style="font-size:15.59390831px;font-style:normal;font-variant:normal;font-weight:normal;font-stretch:normal;line-height:125%;letter-spacing:0px;word-spacing:0px;fill:#5c3566;fill-opacity:1;stroke:none;font-family:FreeSerif;-inkscape-font-specification:FreeSerif"
         transform="translate(-1.0458e-6,-941.36219)">
        <g
           transform="translate(-0.52253495,0.28209)"
           id="text3430"
           style="line-height:125%;fill:#5c3566;font-family:FreeSerif;-inkscape-font-specification:FreeSerif">
          <path
             id="path3435"
             style="fill:#5c3566;font-family:Open Sans;-inkscape-font-specification:Open Sans"
             d="m -40.464769,1051.9279 -1.233503,0 0,-7.9341 c -4e-6,-0.6598 0.0203,-1.2842 0.06091,-1.873 -0.106603,0.1066 -0.225893,0.2182 -0.357868,0.335 -0.131984,0.1167 -0.736044,0.6117 -1.812183,1.4847 l -0.670051,-0.868 2.946701,-2.2766 1.06599,0 0,11.132" />
          <path
             id="path3437"
             style="fill:#5c3566;font-family:Open Sans;-inkscape-font-specification:Open Sans"
             d="m -32.545988,1040.636 c 1.015223,0 1.819791,0.236 2.413706,0.7081 0.593901,0.4721 0.890855,1.1244 0.890863,1.9569 -8e-6,0.5482 -0.170059,1.0482 -0.510153,1.5 -0.340108,0.4517 -0.883255,0.8629 -1.629441,1.2335 0.903547,0.4314 1.545678,0.8857 1.926396,1.3629 0.380702,0.4721 0.571058,1.0203 0.571066,1.6447 -8e-6,0.9238 -0.322343,1.6624 -0.967005,2.2157 -0.644677,0.5482 -1.527925,0.8223 -2.649746,0.8223 -1.187821,0 -2.101526,-0.2588 -2.741117,-0.7766 -0.639595,-0.5229 -0.959392,-1.2614 -0.959391,-2.2157 -1e-6,-1.2742 0.776648,-2.2665 2.329949,-2.9772 -0.70051,-0.3959 -1.203047,-0.8223 -1.507614,-1.2792 -0.30457,-0.4619 -0.456854,-0.9771 -0.456853,-1.5457 -1e-6,-0.8071 0.296953,-1.4492 0.890863,-1.9264 0.598982,-0.4822 1.398474,-0.7233 2.398477,-0.7233 m -2.406091,8.4822 c -2e-6,0.6092 0.210658,1.0838 0.63198,1.4239 0.426392,0.3401 1.022839,0.5101 1.78934,0.5101 0.75634,0 1.345171,-0.1776 1.766497,-0.533 0.421313,-0.3553 0.631973,-0.8426 0.63198,-1.4619 -7e-6,-0.4924 -0.197976,-0.9289 -0.593909,-1.3096 -0.395945,-0.3858 -1.086299,-0.7589 -2.071066,-1.1193 -0.756348,0.3248 -1.304571,0.6852 -1.64467,1.0812 -0.340104,0.3908 -0.510154,0.8604 -0.510152,1.4086 m 2.390863,-7.4543 c -0.634522,0 -1.131983,0.1523 -1.492386,0.4569 -0.360409,0.3045 -0.540611,0.7106 -0.540609,1.2182 -2e-6,0.467 0.149744,0.8681 0.449238,1.2031 0.29949,0.335 0.852789,0.67 1.659899,1.005 0.725883,-0.3045 1.238573,-0.6319 1.538071,-0.9822 0.304562,-0.3502 0.456846,-0.7589 0.456853,-1.2259 -7e-6,-0.5127 -0.185286,-0.9187 -0.555838,-1.2182 -0.365488,-0.3046 -0.870563,-0.4569 -1.515228,-0.4569" />
          <path
             id="path3439"
             style="fill:#5c3566;font-family:Open Sans;-inkscape-font-specification:Open Sans"
             d="m -23.073907,1040.0801 -0.327411,3.0077 3.030457,-0.8452 0.19797,1.3858 -2.901016,0.236 1.888325,2.4822 -1.309644,0.7158 -1.340102,-2.7564 -1.218274,2.7564 -1.340102,-0.7158 1.84264,-2.4822 -2.870558,-0.236 0.220812,-1.3858 2.977157,0.8452 -0.327411,-3.0077 1.477157,0" />
          <path
             id="path3441"
             style="fill:#5c3566;font-family:Open Sans;-inkscape-font-specification:Open Sans"
             d="m -11.393703,1051.9279 -7.317259,0 0,-1.0889 2.931472,-2.9467 c 0.893396,-0.9035 1.482228,-1.5482 1.766497,-1.934 0.284258,-0.3858 0.497456,-0.7614 0.639594,-1.1269 0.142126,-0.3655 0.213192,-0.7589 0.213198,-1.1802 -6e-6,-0.5939 -0.180209,-1.0634 -0.540609,-1.4086 -0.360412,-0.3503 -0.860411,-0.5254 -1.5,-0.5254 -0.461933,0 -0.901019,0.076 -1.317259,0.2284 -0.41117,0.1523 -0.87056,0.429 -1.378172,0.83 l -0.670051,-0.8604 c 1.025379,-0.8528 2.142129,-1.2792 3.350254,-1.2792 1.04568,0 1.865476,0.269 2.45939,0.8071 0.593902,0.533 0.890856,1.2513 0.890863,2.1548 -7e-6,0.7056 -0.197977,1.4036 -0.593908,2.0939 -0.395946,0.6904 -1.137062,1.5635 -2.22335,2.6193 l -2.436549,2.3833 0,0.061 5.725889,0 0,1.1726" />
          <path
             id="path3443"
             style="fill:#5c3566;font-family:Open Sans;-inkscape-font-specification:Open Sans"
             d="m -1.9520802,1049.3695 -1.6522842,0 0,2.5584 -1.2106599,0 0,-2.5584 -5.4137057,0 0,-1.1041 5.2842641,-7.5304 1.3401015,0 0,7.4847 1.6522842,0 0,1.1498 m -2.8629441,-1.1498 0,-3.7005 c -5.7e-6,-0.7259 0.025375,-1.5456 0.076142,-2.4594 l -0.060914,0 c -0.2436604,0.4874 -0.4720865,0.8909 -0.6852792,1.2107 l -3.4796954,4.9492 4.1497461,0" />
        </g>
      </g>
    </g>
    <rect
       style="fill:#ad7fa8;fill-opacity:1;stroke:none"
       id="rect3302"
       width="16"
       height="22"
       x="23"
       y="88" />
    <rect
       style="fill:#75507b;fill-opacity:1;stroke:none;display:inline"
       id="rect3302-4"
       width="28"
       height="22"
       x="44"
       y="88" />
    <rect
       style="fill:#ad7fa8;fill-opacity:1;stroke:none;display:inline"
       id="rect3499-1-2-8"
       width="24"
       height="24"
       x="72"
       y="87" />
    <rect
       style="fill:#75507b;fill-opacity:1;stroke:none;display:inline"
       id="rect3499-5-8-3-5"
       width="24"
       height="24"
       x="96"
       y="87" />
    <rect
       style="fill:#75507b;fill-opacity:1;stroke:none;display:inline"
       id="rect3499-5-8-3-5-4"
       width="24"
       height="24"
       x="144"
       y="86.999992" />
    <rect
       style="fill:#ad7fa8;fill-opacity:1;stroke:none;display:inline"
       id="rect3499-1-2-8-9"
       width="24"
       height="24"
       x="120"
       y="87" />
    <rect
       style="fill:#75507b;fill-opacity:1;stroke:none;display:inline"
       id="rect3499-1-0"
       width="36"
       height="36"
       x="72"
       y="36" />
    <rect
       style="fill:#ad7fa8;fill-opacity:1;stroke:none;display:inline"
       id="rect3499-5-8-73-0"
       width="36"
       height="36"
       x="72"
       y="1.013279e-06" />
    <rect
       style="fill:#75507b;fill-opacity:1;stroke:none;display:inline"
       id="rect3499-5-8-8"
       width="36"
       height="36"
       x="360"
       y="36" />
    <rect
       style="fill:#ad7fa8;fill-opacity:1;stroke:none;display:inline"
       id="rect3499-1-3-1"
       width="36"
       height="36"
       x="360"
       y="6.92904e-07" />
    <rect
       style="fill:#ad7fa8;fill-opacity:1;stroke:none;display:inline"
       id="rect3499-9-2"
       width="18"
       height="15"
       x="36"
       y="72" />
    <rect
       style="fill:#75507b;fill-opacity:1;stroke:none;display:inline"
       id="rect3499-5-2-6"
       width="18"
       height="15"
       x="54"
       y="72" />
    <rect
       style="fill:#75507b;fill-opacity:1;stroke:none;display:inline"
       id="rect3499-1-5-8"
       width="36"
       height="36"
       x="396"
       y="0" />
    <rect
       style="fill:#ad7fa8;fill-opacity:1;stroke:none;display:inline"
       id="rect3499-5-8-74-7"
       width="36"
       height="36"
       x="396"
       y="36" />
  </g>
  <path
     id="rect2985"
     d="M 269.60742,7.78125 259,18.388672 l 0.002,0.002 -0.002,0.002 L 269.60742,29 l 2.1211,-2.121094 -6.86914,-6.86914 16.14062,0 0,-3 -16.37891,0 7.10743,-7.1054691 -2.1211,-2.1230469 z"
     style="fill:#ffffff;fill-opacity:1;stroke:none" />
  <path
     id="rect2985-5"
     d="m 306.39258,7.78125 -2.1211,2.1230469 7.10743,7.1054691 -16.37891,0 0,3 16.14062,0 -6.86914,6.86914 L 306.39258,29 317,18.392578 l -0.002,-0.002 0.002,-0.002 L 306.39258,7.78125 Z"
     style="fill:#ffffff;fill-opacity:1;stroke:none" />
  <path
     id="path5-48"
     d="m 2,72.5 0,10.818359 c 2.2387015,0.1649 3.8416344,0.839891 6,1.962891 L 8,74.017578 C 5.8459378,72.864978 4.2389126,72.6695 2,72.5 Z m 14,0 c -0.831249,0.063 -2.222641,0.099 -3.0625,0.3125 L 12.99219,78.068359 12,76.849609 l -1,1.21875 0,-4.820312 c -0.625355,0.1676 -1.454262,0.467765 -2,0.759765 l 0,11.269532 c 2.158365,-1.123 4.761298,-1.790178 7,-1.955078 L 16,72.5 Z M 1,74.353516 c -0.21893011,0.022 -0.78329463,0.03836 -1,0.06836 L 0,86.01172 c 0.12030075,0.062 0.2109375,0.152343 0.2109375,0.152343 C 2.8338852,85.809663 5.5567542,86.1524 8.1464844,87 c 0.1190828,-0.012 0.2450294,-0.01953 0.3789062,-0.01953 0.1338687,0 0.2600183,0.01053 0.3789063,0.01953 2.5893241,-0.8482 6.1253111,-1.190337 8.7480471,-0.835938 0,0 0.232212,-0.09484 0.347656,-0.152343 l 0,-11.589844 c -0.216697,-0.03 -0.781264,-0.04636 -1,-0.06836 l 0,10.546875 -0.09766,-0.01172 c -2.469835,-0.1416 -5.803677,0.401656 -8.2167971,1.472656 L 8.5,86.439453 8.3144531,86.361328 C 5.9009193,85.290328 3.5674918,84.746872 1.0976562,84.888672 L 1,84.900391 1,74.353516 Z"
     style="fill:#666666;fill-opacity:1" />
  <path
     style="display:inline;fill:#ffffff;fill-opacity:1;stroke:none"
     d="m 90,8.00001 -12,8 4,0 0,10.99998 4,0 0,-7.99998 4,0 0,7.99998 8,0 0,-10.99998 4,0 -5,-3.34375 0,-3.65625 -3,0 0,1.65625 -4,-2.65625 z"
     id="rect3106-3" />
  <path
     id="path5-4-5-8"
     d="m 117,8.8242188 0,14.5546872 c 2.75714,0.20303 5.3418,1.034879 8,2.417969 l 0,-14.488281 c -2.6529,-1.4195102 -5.2426,-2.2756053 -8,-2.4843752 z m 18,0.00391 c -1.02375,0.0775 -3.01067,0.24825 -4,0.5 l 0,6.9687502 -1.5,-1.5 -1.5,1.5 0,-5.9375 c -0.66776,0.28599 -1.32788,0.57786 -2,0.9375 l 0,14.5 c 2.6582,-1.38309 6.24286,-2.20322 9,-2.40625 L 135,8.8281288 Z M 115.80859,11.72266 c -0.26963,0.0269 -0.5417,0.04698 -0.80859,0.08399 l 0,14.75 c 0.14816,0.0766 0.25977,0.1875 0.25977,0.1875 3.23037,-0.4365 6.58397,0.211499 9.77343,1.255859 0.14666,-0.0145 0.30192,-0.02344 0.4668,-0.02344 0.16487,0 0.32038,0.0087 0.4668,0.02344 3.18896,-1.04461 7.54332,-1.692359 10.77343,-1.255859 0,0 0.11759,-0.11616 0.25977,-0.1875 l 0,-14.75 c -0.26688,-0.0372 -0.53725,-0.05729 -0.80664,-0.08399 l 0,13.357422 -0.24219,-0.01367 c -3.0418,-0.17435 -7.2507,0.880229 -10.22265,2.199219 l -0.22852,0.0957 -0.22852,-0.0957 c -2.97246,-1.31899 -6.18085,-2.373819 -9.22265,-2.199219 l -0.24024,0.01367 0,-13.357422 z"
     style="display:inline;fill:#00b388;fill-opacity:1" />
  <path
     id="rect2985-51"
     d="m 80.65625,74.279297 -4.238281,4.240234 -0.0039,-0.0039 L 75,79.929688 l 0.0039,0.0039 -0.0039,0.002 1.414062,1.414062 0.0039,-0.002 4.238281,4.238282 1.414062,-1.414063 L 78.898438,81 87,81 l 0,-2 -8.234375,0 3.304687,-3.306641 -1.414062,-1.414062 z"
     style="fill:#666666;fill-opacity:1;stroke:none" />
  <path
     id="rect2985-51-0"
     d="M 153.34375,74.414062 151.92969,75.828125 155.10156,79 147,79 l 0,2 8.23438,0 -3.30469,3.306641 1.41406,1.414062 4.23828,-4.240234 0.004,0.0039 1.41406,-1.414063 -0.004,-0.0039 0.004,-0.002 -1.41406,-1.414062 -0.004,0.002 -4.23828,-4.238282 z"
     style="fill:#666666;fill-opacity:1;stroke:none" />
  <rect
     y="80.999992"
     x="219"
     height="6"
     width="6"
     id="rect4276"
     style="fill:#00b388;fill-opacity:0.39215686;stroke:none" />
  <path
     style="fill:#00b388;fill-opacity:1;stroke:none"
     d="m 222,75.99981 0,2 4.46875,0 -5.71875,5.75 1.40625,1.4062 5.84375,-5.8125 0,4.6563 2,0 0,-8 z"
     id="rect2985-51-6-6-7" />
  <path
     id="rect2985-51-0-3"
     d="m 188.65625,74.595703 -4.23828,4.238281 -0.004,-0.0039 -1.41406,1.416016 0.004,0.0039 -0.004,0.002 1.41406,1.414063 0.004,-0.002 4.23828,4.238282 1.41406,-1.414063 -3.30469,-3.30664 8.23438,0 0,-2 -8.10156,0 3.17187,-3.171875 -1.41406,-1.414063 z"
     style="fill:#999999;fill-opacity:1;stroke:none" />
  <path
     id="rect2985-51-6-6-5"
     d="m 207.34375,74.595703 -1.41406,1.414063 3.17187,3.171875 -8.10156,0 0,2 8.23438,0 -3.30469,3.30664 1.41406,1.414063 4.23828,-4.238282 0.004,0.002 1.41406,-1.414063 -0.004,-0.002 0.004,-0.0039 -1.41406,-1.416016 -0.004,0.0039 -4.23828,-4.238281 z"
     style="fill:#999999;fill-opacity:1;stroke:none" />
  <path
     id="rect3155"
     d="m 256,93.00001 0,4 -2,0 0,5 2,0 0,4 10,0 0,-4 2,0 0,-5 -2,0 0,-4 -10,0 z m 1,1 8,0 0,3 -8,0 0,-3 z m 9,4 c 0.55228,0 1,0.2238 1,0.5 0,0.2761 -0.44772,0.5 -1,0.5 -0.55228,0 -1,-0.2239 -1,-0.5 0,-0.2762 0.44772,-0.5 1,-0.5 z m -9.0625,2 8,0 0,5 -8,0 0,-5 z m 1.0625,1 0,1 6,0 0,-1 -6,0 z m 0.0625,2 0,1 6,0 0,-1 -6,0 z"
     style="fill:#ffffff;fill-opacity:1;stroke:none" />
  <path
     style="fill:#ffffff;fill-opacity:1;stroke:none"
     d="m 279.99797,107.00001 -2.99797,0 0,-8 -2,0 0,-3 2,0 0,-1.4133 c 0,-2.2492 0.88413,-3.5867 3.53358,-3.5867 l 2.46642,0 0,2.7575 -1.6393,0 c -1.03155,0 -1.35867,0.3853 -1.35867,1.1045 l -0.004,1.138 3.00197,0 -0.75,3 -2.25197,0 z"
     id="path3865" />
  <path
     style="fill:#ffffff;fill-opacity:1;fill-rule:evenodd;stroke:none"
     d="m 320,95.00001 c -0.2822,-0.3002 -1.67291,-1 -2.5,-1 -1.58526,0 -2.5,0.8835 -2.5,2 0,0.2256 -0.0501,0.7911 0,1 -2.38729,-0.1191 -4.58391,-1.2623 -6,-3 -0.24646,0.424 -0.41309,1.0686 -0.41309,1.595 0,0.9963 0.50753,1.8756 1.27823,2.3894 -0.46994,-0.015 -1.74014,-0.3594 -1.74014,-0.3594 0,1 1.42894,2.5879 2.74268,2.8511 -0.68461,0.3952 -1.86768,0.5239 -1.86768,0.5239 0.36551,1.1404 1.99717,1.4958 3.25243,1.5188 -0.98374,0.7707 -1.90527,1.4812 -3.25243,1.4812 -0.23184,0 -0.77443,0.025 -1,0 1.26988,0.8146 2.77996,1 4.40281,1 5.28212,0 8.17069,-4.3756 8.17069,-8.1706 0,-0.1254 -0.002,-0.2486 -0.008,-0.3718 0.56184,-0.4052 1.43486,-1.4576 1.43486,-1.4576 0,0 -1.34626,-0.1295 -2,0 z"
     id="path4519" />
  <path
     id="path3457"
     d="m 242.5,72.00001 c -4.14214,0 -7.5,3.3579 -7.5,7.5 0,4.1421 3.35786,7.5 7.5,7.5 4.14214,0 7.5,-3.3579 7.5,-7.5 0,-4.1421 -3.35786,-7.5 -7.5,-7.5 z m -3.125,5 3.125,3.1875 3.125,-3.1875 1.375,1.4062 -4.5,4.5938 -4.5,-4.5938 1.375,-1.4062 z"
     style="fill:#404040;fill-opacity:1" />
  <path
     id="path3457-3"
     d="m 278.5,87.00001 c -4.14214,0 -7.5,-3.3579 -7.5,-7.5 0,-4.1421 3.35786,-7.5 7.5,-7.5 4.14214,0 7.5,3.3579 7.5,7.5 0,4.1421 -3.35786,7.5 -7.5,7.5 z m -3.125,-5 3.125,-3.1875 3.125,3.1875 1.375,-1.4062 -4.5,-4.5938 -4.5,4.5938 1.375,1.4062 z"
     style="fill:#333333;fill-opacity:1" />
  <rect
     y="106.99999"
     x="218"
     height="4"
     width="4"
     id="rect4276-9"
     style="display:inline;fill:#00b388;fill-opacity:0.39215686;stroke:none" />
  <path
     style="fill:#00b388;fill-opacity:1;stroke:none"
     d="m 218.00003,102.99981 -1e-5,1.9995 4.46763,1e-4 -3.71547,3.7153 1.40585,1.4059 3.84209,-3.7762 1e-5,4.6552 1.99953,10e-5 4e-5,-7.9982 z"
     id="rect2985-51-6-6-7-3" />
  <path
     id="rect5681"
     d="M 2.5002508,88.50001 C 1.3921118,88.50001 0.5,89.35141 0.5,90.40911 l 0,17.1818 c 0,1.0576 0.8921118,1.9091 2.0002508,1.9091 l 22.0045142,0 c 0.692587,0 1.220362,-0.3478 1.656458,-0.8353 l 8.751097,-8.3223 c 0.783572,-0.7479 0.783572,-1.9369 0,-2.6848 l -8.751097,-8.3223 c -0.413999,-0.4473 -0.963871,-0.8353 -1.656458,-0.8353 z"
     style="fill:#ffffff;fill-opacity:1;stroke:#00b388;stroke-width:1;stroke-opacity:1" />
  <path
     id="rect5681-2"
     d="m 69.499749,88.50001 c 1.10814,0 2.00025,0.8514 2.00025,1.9091 l 0,17.1818 c 0,1.0576 -0.89211,1.9091 -2.00025,1.9091 l -10.004515,0 c -0.692587,0 -1.220362,-0.3478 -1.656458,-0.8353 l -8.751097,-8.3223 c -0.783572,-0.7479 -0.783572,-1.9369 0,-2.6848 l 8.751097,-8.3223 c 0.413999,-0.4473 0.963871,-0.8353 1.656458,-0.8353 z"
     style="display:inline;fill:#ffffff;fill-opacity:1;stroke:#00b388;stroke-width:1;stroke-opacity:1" />
  <path
     id="rect3223"
     d="M 243 91.550781 L 236 96 L 250 96 L 243 91.550781 z M 250 96 L 243 100.55078 L 236 96 L 236 105 L 250 105 L 250 96 z "
     style="fill:#ffffff;fill-opacity:1;stroke:none" />
  <path
     d="m 96,99.00041 c 0,6.6267 -5.37141,11.9996 -11.99917,11.9996 -6.62776,0 -12.00083,-5.3729 -12.00083,-11.9996 0,-6.6275 5.37307,-12.0004 12.00083,-12.0004 6.62776,0 11.99917,5.3729 11.99917,12.0004"
     style="display:inline;fill:#999999;fill-opacity:1;fill-rule:nonzero;stroke:none"
     id="path28276-3-1-6-7" />
  <path
     id="rect2985-0-3-6-6"
     d="M 79.199995,93.00001 78,94.20171 l 4.799997,4.7893 0,0.018 -4.799997,4.7892 1.199995,1.2018 4.800005,-4.807 4.800005,4.807 1.199995,-1.2018 -4.799997,-4.7892 0,-0.018 L 90,94.20171 88.800005,93.00001 84,97.80691 79.199995,93.00001 Z"
     style="fill:#ffffff;fill-opacity:1;stroke:none" />
  <path
     d="m 120,99.00041 c 0,6.6267 -5.37141,11.9996 -11.99917,11.9996 -6.62776,0 -12.00083,-5.3729 -12.00083,-11.9996 0,-6.6275 5.37307,-12.0004 12.00083,-12.0004 6.62776,0 11.99917,5.3729 11.99917,12.0004"
     style="display:inline;fill:#ffffff;fill-opacity:1;fill-rule:nonzero;stroke:none"
     id="path28276-3-1-6-7-3" />
  <path
     id="rect2985-0-3-6-6-8"
     d="m 103.2,93.00001 -1.2,1.2017 4.8,4.7893 0,0.018 -4.8,4.7892 1.2,1.2018 4.8,-4.807 4.80001,4.807 1.19999,-1.2018 -4.79999,-4.7892 0,-0.018 4.79999,-4.7893 -1.19999,-1.2017 -4.80001,4.8069 -4.8,-4.8069 z"
     style="display:inline;fill:#999999;fill-opacity:1;stroke:none" />
  <path
     d="m 144,99.00041 c 0,6.6267 -5.37141,11.9996 -11.99917,11.9996 -6.62776,0 -12.00083,-5.3729 -12.00083,-11.9996 0,-6.6275 5.37307,-12.0004 12.00083,-12.0004 6.62776,0 11.99917,5.3729 11.99917,12.0004"
     style="display:inline;fill:#999999;fill-opacity:1;fill-rule:nonzero;stroke:none"
     id="path28276-3-1-6-7-9" />
  <path
     d="m 168,99.00041 c 0,6.6267 -5.37141,11.9996 -11.99917,11.9996 -6.62776,0 -12.00083,-5.3729 -12.00083,-11.9996 0,-6.6275 5.37307,-12.0004 12.00083,-12.0004 6.62776,0 11.99917,5.3729 11.99917,12.0004"
     style="display:inline;fill:#ffffff;fill-opacity:1;fill-rule:nonzero;stroke:none"
     id="path28276-3-1-6-7-3-9" />
  <rect
     y="98.12133"
     x="126.27274"
     height="1.9087611"
     width="12.727265"
     id="rect2985-59-3"
     style="fill:#ffffff;fill-opacity:1;stroke:none" />
  <rect
     transform="matrix(0.70716765,-0.70704591,0.70716765,0.70704591,0,0)"
     y="158.38925"
     x="18.372219"
     height="1.9089254"
     width="9.5446272"
     id="rect2985-0-9-2"
     style="fill:#ffffff;fill-opacity:1;stroke:none" />
  <rect
     transform="matrix(0.70716765,0.70704591,0.70716765,-0.70704591,0,0)"
     y="18.370083"
     x="158.39139"
     height="1.9089254"
     width="9.5446272"
     id="rect2985-0-4-6-4"
     style="fill:#ffffff;fill-opacity:1;stroke:none" />
  <path
     id="rect2985-59-3-2"
     d="m 155.75,92.25 -6.75,6.748047 0.002,0.002 -0.002,0.002 6.75,6.748043 1.34961,-1.34961 -4.37305,-4.37109 10.27344,0 0,-1.908202 -10.42383,0 4.52344,-4.521485 L 155.75,92.25 Z"
     style="fill:#999999;fill-opacity:1;stroke:none" />
  <path
     id="rect3802-994"
     d="M 152,8.5 A 1.5,1.5 0 0 0 150.5,10 1.5,1.5 0 0 0 152,11.5 1.5,1.5 0 0 0 153.5,10 1.5,1.5 0 0 0 152,8.5 Z m 3,0.5 0,2 18,0 0,-2 -18,0 z m 2,4 0,2 16,0 0,-2 -16,0 z m 0,4 0,2 16,0 0,-2 -16,0 z m -5,3.5 a 1.5,1.5 0 0 0 -1.5,1.5 1.5,1.5 0 0 0 1.5,1.5 1.5,1.5 0 0 0 1.5,-1.5 1.5,1.5 0 0 0 -1.5,-1.5 z m 3,0.5 0,2 18,0 0,-2 -18,0 z m 2,4 0,2 16,0 0,-2 -16,0 z"
     style="fill:#ffffff;fill-opacity:1;stroke:none" />
  <path
     id="path5-4-5-8-4"
     d="M 9,8.8242188 9,23.378906 c 2.75714,0.20303 5.3418,1.034879 8,2.417969 L 17,11.308594 C 14.3471,9.8890838 11.7574,9.0329887 9,8.8242188 Z m 18,0.00391 c -1.02375,0.0775 -3.01067,0.24825 -4,0.5 l 0,6.9687502 -1.5,-1.5 -1.5,1.5 0,-5.9375 c -0.66776,0.28599 -1.32788,0.57786 -2,0.9375 l 0,14.5 c 2.6582,-1.38309 6.24286,-2.20322 9,-2.40625 L 27,8.8281288 Z M 7.8066406,11.722656 C 7.5370106,11.749556 7.26689,11.769641 7,11.806641 l 0,14.75 c 0.14816,0.0766 0.2597656,0.1875 0.2597656,0.1875 C 10.490136,26.307641 13.843743,26.95564 17.033203,28 17.179863,27.9855 17.33512,27.97656 17.5,27.97656 c 0.16487,0 0.320377,0.0087 0.466797,0.02344 3.18896,-1.04461 7.543327,-1.692359 10.773437,-1.255859 0,0 0.117586,-0.11616 0.259766,-0.1875 l 0,-14.75 c -0.26688,-0.0372 -0.537251,-0.05729 -0.806641,-0.08399 l 0,13.357422 -0.242187,-0.01367 c -3.0418,-0.17435 -7.250706,0.880229 -10.222656,2.199219 l -0.228516,0.0957 -0.228516,-0.0957 c -2.97246,-1.31899 -6.180856,-2.373819 -9.2226559,-2.199219 l -0.2421875,0.01367 0,-13.357422 z"
     style="display:inline;fill:#ffffff;fill-opacity:1" />
  <path
     id="rect3106-8"
     d="m 45,72 -9,7 3,0 0,8 3,0 0,-6 3,0 0,6 6,0 0,-8 3,0 L 50,75.875 50,73 48,73 48,74.34375 45,72 Z"
     style="display:inline;fill:#666666;fill-opacity:1;stroke:none" />
  <path
     id="rect5665"
     d="m 293.89145,94.03881 c -0.39108,-0.01 -0.7817,0.032 -1.15077,0.1142 -1.80815,0.4022 -3.25785,1.7991 -3.72601,3.5913 -0.31807,1.2176 -0.15618,2.5402 0.44393,3.6333 0.7944,1.4471 2.25933,2.4174 3.88548,2.572 0.24322,0.023 0.74438,0.019 0.99022,-0.01 1.58603,-0.1683 2.96859,-1.0623 3.78311,-2.447 0.26552,-0.4513 0.46609,-0.9804 0.57323,-1.5096 0.12182,-0.6016 0.12454,-1.3373 0.008,-1.9114 -0.0181,-0.089 -0.0334,-0.166 -0.0334,-0.1714 0,-0.01 -1.09083,-0.01 -2.42438,-0.01 l -2.42438,0 0,0.8275 0,0.8275 1.63026,0 c 1.41665,0 1.63026,0.01 1.63026,0.024 0,0.013 -0.0259,0.1239 -0.0571,0.2458 -0.33189,1.2949 -1.37642,2.2394 -2.7153,2.4555 -0.22887,0.037 -0.73608,0.037 -0.96544,0 -1.47047,-0.2366 -2.57762,-1.3509 -2.79074,-2.8101 -0.0338,-0.2311 -0.0338,-0.6913 0,-0.9223 0.18136,-1.2418 1.0297,-2.2677 2.20349,-2.6657 1.05459,-0.3577 2.21809,-0.1662 3.07843,0.5064 l 0.15624,0.1217 0.59585,-0.584 0.59479,-0.5829 -0.0539,-0.046 c -0.67354,-0.5712 -1.30932,-0.9089 -2.08174,-1.1045 -0.36713,-0.093 -0.75861,-0.1418 -1.14969,-0.1476 z m 8.19979,2.2003 0,1.655 -1.65504,0 0,1.1087 1.65504,0 0,1.6551 1.10875,0 0,-1.6551 1.65504,0 0,-1.1087 -1.65504,0 0,-1.655 -1.10875,0 z"
     style="opacity:1;fill:#ffffff;fill-opacity:1;stroke:none;stroke-width:10;stroke-miterlimit:4;stroke-dasharray:none" />
</svg>
