<?xml version="1.0" encoding="UTF-8" standalone="no"?>
<svg
   xmlns:dc="http://purl.org/dc/elements/1.1/"
   xmlns:cc="http://creativecommons.org/ns#"
   xmlns:rdf="http://www.w3.org/1999/02/22-rdf-syntax-ns#"
   xmlns:svg="http://www.w3.org/2000/svg"
   xmlns="http://www.w3.org/2000/svg"
   xmlns:sodipodi="http://sodipodi.sourceforge.net/DTD/sodipodi-0.dtd"
   xmlns:inkscape="http://www.inkscape.org/namespaces/inkscape"
   version="1.1"
   x="0"
   y="0"
   width="122.67681"
   height="61.808884"
   viewBox="0 0 122.67681 61.808884"
   id="svg7"
   sodipodi:docname="logo.svg"
   inkscape:version="1.0.1 (3bc2e813f5, 2020-09-07)">
  <metadata
     id="metadata13">
    <rdf:RDF>
      <cc:Work
         rdf:about="">
        <dc:format>image/svg+xml</dc:format>
        <dc:type
           rdf:resource="http://purl.org/dc/dcmitype/StillImage" />
        <dc:title></dc:title>
      </cc:Work>
    </rdf:RDF>
  </metadata>
  <defs
     id="defs11" />
  <sodipodi:namedview
     pagecolor="#ffffff"
     bordercolor="#666666"
     borderopacity="1"
     objecttolerance="10"
     gridtolerance="10"
     guidetolerance="10"
     inkscape:pageopacity="0"
     inkscape:pageshadow="2"
     inkscape:window-width="2075"
     inkscape:window-height="1340"
     id="namedview9"
     showgrid="false"
     showguides="true"
     inkscape:guide-bbox="true"
     fit-margin-top="0"
     fit-margin-left="0"
     fit-margin-right="0"
     fit-margin-bottom="0"
     inkscape:zoom="4.3333333"
     inkscape:cx="23.535237"
     inkscape:cy="53.77503"
     inkscape:window-x="0"
     inkscape:window-y="0"
     inkscape:window-maximized="0"
     inkscape:current-layer="svg7" />
  <g
     id="Layer_1"
     transform="translate(-28.733994,-28.72497)">
    <path
       d="m 144.823,47.49 c -0.772,-0.799 -2.048,-0.799 -2.82,10e-4 -0.868,0.867 -0.766,2.363 0.314,3.079 0.657,0.436 1.535,0.436 2.193,0 1.077,-0.716 1.181,-2.213 0.313,-3.08 m -2.579,-6.78 c -5.327,-1.249 -10.114,3.538 -8.864,8.865 0.635,2.712 2.79,4.866 5.504,5.503 5.328,1.252 10.118,-3.54 8.865,-8.869 -0.639,-2.713 -2.793,-4.866 -5.505,-5.499 m -35.18,29.999 c -3.473,-1.284 -4.815,-1.026 -9.255,-0.967 -3.076,0.04 -3.188,-0.063 -6.7,-0.063 -1.084,0 -1.485,5.199 2.441,6.279 1.719,0.473 3.575,0.771 4.867,2.093 0.572,0.584 0.895,1.466 -0.428,1.466 h -9.746 c -1.706,0 -3.315,0.04 -4.618,-1.064 C 81.656,76.791 80.737,74.502 79.754,72.231 78.731,69.869 77.629,67.545 76.335,65.322 73.76,60.898 70.359,56.895 65.794,54.45 60.093,51.394 50.421,49.877 42.762,55.759 c -8.071,6.198 -6.341,17.808 0.718,23.486 2.788,2.244 6.423,3.183 9.995,2.972 6.982,-0.406 12.131,-5.552 10.853,-11.884 -0.427,-2.12 -1.663,-4.126 -3.526,-5.22 -1.325,-0.774 -2.893,-1.05 -4.429,-1.053 -1.648,-0.003 -3.403,0.337 -4.588,1.484 -1.402,1.358 -1.63,3.756 -0.509,5.356 0.621,0.885 1.631,1.633 1.459,2.788 -0.117,0.781 -0.761,1.361 -1.53,1.532 -1.309,0.292 -2.507,-0.453 -3.392,-1.365 -2.269,-2.338 -2.979,-6.058 -1.731,-9.067 1.633,-3.941 6.174,-6.11 10.436,-5.969 5.496,0.185 10.676,3.811 12.93,8.828 2.254,5.017 1.579,11.175 -1.527,15.717 -6.902,10.086 -23.945,8.895 -31.864,0.39 -4.966,-5.337 -7.666,-10.516 -7.288,-20.16 0.266,-6.814 4.2,-13.525 9.212,-18.249 8.167,-7.696 18.923,-12.959 29.866,-15.229 6.647,-1.371 13.509,-1.694 20.257,-1.021 5.949,0.592 11.866,1.682 17.584,3.452 2.838,0.885 5.631,1.935 8.333,3.176 2.382,1.094 5.505,2.285 7.359,4.174 0,-3.42 -0.133,-7.178 -0.133,-9.795 0,-0.999 1.049,-1.673 1.947,-1.247 3.871,1.797 13.038,6.128 19.151,8.922 8.195,3.745 8.775,12.579 9.062,20.408 0.007,0.175 0.013,0.356 -0.066,0.513 -0.256,0.536 -1.637,0.39 -2.144,0.396 -0.981,0.011 -2.458,0.005 -3.436,0.048 -1.958,0.087 -3.863,0.051 -5.819,-0.048 -3.617,-0.175 -7.115,-1.787 -9.457,-3.748 -0.234,-0.196 -0.99,-0.411 -1.345,-0.04 -0.369,0.381 -0.245,0.977 -0.043,1.182 1.342,1.355 2.799,2.231 4.493,3.107 2.151,1.104 4.498,1.384 6.877,1.522 2.548,0.151 5.114,0.114 7.655,-0.147 2.122,-0.217 2.672,-0.362 0.578,1.194 -1.842,1.366 -3.975,2.349 -6.142,3.077 -3.103,1.056 -6.383,1.58 -9.656,1.671 -1.983,0.053 -3.969,-0.051 -5.937,-0.307 -1.017,-0.127 -2.028,-0.31 -3.05,-0.415 -0.83,-0.083 -1.691,-0.238 -2.517,-0.06 -0.749,0.165 -1.445,0.57 -1.916,1.181 -0.648,0.845 -0.872,3.167 -0.496,4.172 0.723,1.95 2.311,3.083 3.989,4.082 1.817,1.081 4.207,1.449 4.672,3.516 0.097,0.433 -3.766,0.443 -4.204,0.436 h -5.144 c 0,0 -2.795,0.067 -3.882,-0.329 -0.037,-0.011 -0.066,-0.027 -0.098,-0.044 -0.593,-0.318 -0.85,-1.11 -1.05,-1.71 -0.286,-0.845 -0.791,-1.691 -1.402,-2.566 -1.161,-1.657 -2.947,-3.472 -4.803,-4.159 M 146.003,47.89 c 0,3.015 -2.439,5.454 -5.454,5.454 -3.012,0 -5.45,-2.439 -5.45,-5.454 0,-3.01 2.438,-5.452 5.45,-5.452 3.015,0 5.454,2.442 5.454,5.452"
       fill="#30ba78"
       id="path4" />
  </g>
</svg>
